<?xml version="1.0" encoding="utf-8"?>
<!-- Generator: Adobe Illustrator 22.0.1, SVG Export Plug-In . SVG Version: 6.00 Build 0)  -->
<svg version="1.1" id="Layer_1" xmlns="http://www.w3.org/2000/svg" xmlns:xlink="http://www.w3.org/1999/xlink" x="0px" y="0px"
	 viewBox="0 0 612 216" style="enable-background:new 0 0 612 216;" xml:space="preserve">
<style type="text/css">
	.st0{fill:#7D77B7;}
	.st1{fill-rule:evenodd;clip-rule:evenodd;stroke:#FFFFFF;stroke-width:0.863;}
	.st2{stroke:#FFFFFF;stroke-width:0.863;}
</style>
<g>
	<g>
		<g>
			<polygon points="58.1,151.2 58.1,152.8 62.4,152.8 64.7,157 66.9,157 58.2,141.4 58.1,141.6 58.1,145.5 58.2,145.3 61.5,151.2 
							"/>
			<polygon points="58.1,145.5 58.1,141.6 49,157 51.4,157 53.9,152.8 58.1,152.8 58.1,151.2 54.7,151.2 			"/>
		</g>
	</g>
	<g>
		<g>
			<path d="M75.5,148.7v1.8c1.2-0.2,2.4-0.5,3.4-1.1c1.1-0.8,1.8-1.9,1.8-3c0-1.5-0.8-2.8-2.3-3.5c-0.9-0.4-1.9-0.5-2.9-0.6v1.4
				c1.6,0.2,2.9,0.8,2.9,2.4C78.4,147.8,77.1,148.5,75.5,148.7z"/>
			<path d="M75.5,143.8v-1.4c-0.7,0-1.4-0.1-2.1-0.1h-3.3V157h2.4v-6.4H74c0.5,0,1,0,1.6,0v-1.8c-0.6,0.1-1.2,0.1-1.7,0.1h-1.3v-5.2
				h0.7C74,143.6,74.7,143.7,75.5,143.8z"/>
		</g>
	</g>
	<g>
		<g>
			<path d="M89.8,148.7v1.8c1.2-0.2,2.3-0.5,3.3-1.1c1.2-0.8,1.8-1.9,1.8-3c0-1.5-0.8-2.8-2.2-3.5c-0.9-0.4-1.9-0.5-2.9-0.6v1.4
				c1.6,0.2,2.9,0.8,2.9,2.4C92.7,147.8,91.4,148.5,89.8,148.7z"/>
			<path d="M89.8,143.8v-1.4c-0.7,0-1.4-0.1-2.1-0.1h-3.2V157h2.3v-6.4h1.4c0.5,0,1,0,1.6,0v-1.8c-0.6,0.1-1.2,0.1-1.7,0.1h-1.3
				v-5.2h0.7C88.2,143.6,89,143.7,89.8,143.8z"/>
		</g>
	</g>
	<polygon points="101,142.3 98.9,142.3 98.9,157 106.5,157 106.5,155.3 101,155.3 	"/>
	<rect x="109.9" y="142.3" width="2.1" height="14.7"/>
	<polygon points="117.1,157 127.4,157 127.4,155.3 119.4,155.3 119.4,149.5 127.2,149.5 127.2,148.1 119.4,148.1 119.4,143.6 
		127.4,143.6 127.4,142.3 117.1,142.3 	"/>
	<g>
		<g>
			<path d="M139.6,155v1.7c1.4-0.3,2.8-0.8,4.2-1.6c2.1-1.5,3.3-3.5,3.3-5.5c0-2.3-1.1-4.2-3.4-5.6c-1.4-0.7-2.7-1.1-4.1-1.3v1.4
				c0.9,0.2,1.8,0.6,2.7,1.1c1.6,1.1,2.5,2.8,2.5,4.5c0,1.6-0.9,3.3-2.4,4.2C141.5,154.4,140.5,154.8,139.6,155z"/>
			<path d="M139.6,144v-1.4c-1.2-0.2-2.4-0.3-3.6-0.3h-3.9V157h3.8c1.3,0,2.5,0,3.7-0.3V155c-1.2,0.3-2.4,0.3-3.6,0.3h-1.6v-11.7
				h1.6C137.3,143.6,138.4,143.7,139.6,144z"/>
		</g>
	</g>
	<g>
		<g>
			<polygon points="165.3,150.3 165.3,153 169,157 171.8,157 			"/>
			<path d="M165.3,148.8v1.4c3.1-0.2,5-1.8,5-4.1c0-2.5-2.3-3.5-5-3.7v1.3c1.6,0.2,2.9,0.9,2.9,2.7
				C168.2,148.1,166.9,148.6,165.3,148.8z"/>
			<path d="M165.3,143.8v-1.3c-0.8-0.1-1.5-0.2-2.2-0.2h-3V157h2.2v-6.4h0.7l2.3,2.5v-2.7v-0.1l0,0v-1.4c-0.7,0.1-1.5,0.1-2.2,0.1
				h-0.8v-5.3h0.8C163.8,143.6,164.6,143.7,165.3,143.8z"/>
		</g>
	</g>
	<polygon points="175.5,157 185.8,157 185.8,155.3 177.8,155.3 177.8,149.5 185.6,149.5 185.6,148.1 177.8,148.1 177.8,143.6 
		185.8,143.6 185.8,142.3 175.5,142.3 	"/>
	<path d="M201.3,144.2c-1-1.4-2.8-2.3-5-2.3c-3,0-5.5,1.6-5.5,3.8c0,2.1,2,3,4.4,3.8l1.2,0.4c1.8,0.7,3.6,1.2,3.6,3.1
		c0,1.4-1.9,2.7-4,2.7c-2.1,0-3.7-1.3-4-2.6l-2.2,0.4c0.6,2.2,3,3.8,6.1,3.8c3.4,0,6.2-2.1,6.2-4.6c0-2.5-2.1-3.3-4.7-4.2l-1.4-0.6
		c-1.4-0.3-3.2-0.8-3.2-2.1c0-1.4,1.6-2.3,3.3-2.3c1.7,0,2.8,0.4,3.5,1.5L201.3,144.2z"/>
	<polygon points="206.4,157 216.7,157 216.7,155.3 208.7,155.3 208.7,149.5 216.4,149.5 216.4,148.1 208.7,148.1 208.7,143.6 
		216.7,143.6 216.7,142.3 206.4,142.3 	"/>
	<g>
		<g>
			<polygon points="228.6,151.2 228.6,152.8 233,152.8 235.2,157 237.6,157 228.8,141.4 228.6,141.8 228.6,145.7 228.8,145.3 
				231.9,151.2 			"/>
			<polygon points="228.6,145.7 228.6,141.8 219.6,157 222.1,157 224.4,152.8 228.6,152.8 228.6,151.2 225.2,151.2 			"/>
		</g>
	</g>
	<g>
		<g>
			<polygon points="245.9,150.3 245.9,153.2 249.5,157 252.3,157 			"/>
			<path d="M245.9,148.8v1.4c3.1-0.2,5.1-1.8,5.1-4.1c0-2.5-2.4-3.5-5.1-3.7v1.3c1.6,0.2,2.9,0.9,2.9,2.7
				C248.8,148.1,247.4,148.6,245.9,148.8z"/>
			<path d="M245.9,143.8v-1.3c-0.8-0.1-1.6-0.2-2.3-0.2H241V157h2.1v-6.4h0.5l2.4,2.7v-2.9v-0.1l0,0v-1.4c-0.7,0.1-1.5,0.1-2.1,0.1
				h-0.8v-5.3h0.6C244.3,143.6,245.1,143.7,245.9,143.8z"/>
		</g>
	</g>
	<path d="M271.3,143.3c-1.8-0.8-3.7-1.4-5.9-1.4c-5.7,0-10.3,3.4-10.3,7.6c0,4.2,4.7,7.6,10.3,7.6c2.2,0,4.3-0.7,5.9-1.5v-2.1
		c-1.7,1.2-3.8,2-5.9,2c-4.5,0-8-2.7-8-6c0-3.1,3.6-6,8-6c2.2,0,4.3,0.7,5.9,1.9V143.3z"/>
	<polygon points="278.2,148.1 278.2,142.3 276.1,142.3 276.1,157 278.2,157 278.2,149.6 288.5,149.6 288.5,157 290.6,157 
		290.6,142.3 288.5,142.3 288.5,148.1 	"/>
	<g>
		<g>
			<polygon points="312.1,151.2 312.1,152.8 316.3,152.8 318.7,157 321,157 312.3,141.4 312.1,141.8 312.1,145.5 312.2,145.3 
				315.4,151.2 			"/>
			<polygon points="312.1,145.5 312.1,141.8 303,157 305.3,157 307.8,152.8 312.1,152.8 312.1,151.2 308.8,151.2 			"/>
		</g>
	</g>
	<polygon points="324.4,157 326.6,157 326.6,145.5 342,157.6 342,142.3 339.8,142.3 339.8,153.6 324.4,141.4 	"/>
	<g>
		<g>
			<path d="M354.5,155v1.7c1.4-0.3,2.8-0.8,4.2-1.6c2.1-1.5,3.2-3.5,3.2-5.5c0-2.3-1-4.2-3.4-5.6c-1.3-0.7-2.6-1.1-4-1.3v1.4
				c0.9,0.3,1.8,0.6,2.7,1.1c1.5,1.1,2.5,2.8,2.5,4.5c0,1.6-1,3.3-2.4,4.2C356.3,154.4,355.4,154.8,354.5,155z"/>
			<path d="M354.5,144v-1.4c-1.2-0.2-2.4-0.3-3.6-0.3h-3.9V157h3.8c1.3,0,2.5,0,3.7-0.3V155c-1.2,0.3-2.4,0.3-3.6,0.3h-1.6v-11.7
				h1.6C352.3,143.6,353.3,143.7,354.5,144z"/>
		</g>
	</g>
	<polygon points="380.4,143.6 385.2,143.6 385.2,142.3 373.5,142.3 373.5,143.6 378.2,143.6 378.2,157 380.4,157 	"/>
	<polygon points="388.6,157 398.8,157 398.8,155.3 390.9,155.3 390.9,149.5 398.7,149.5 398.7,148.1 390.9,148.1 390.9,143.6 
		398.8,143.6 398.8,142.3 388.6,142.3 	"/>
	<path d="M418.8,143.3c-1.9-0.8-3.7-1.4-5.9-1.4c-5.6,0-10.4,3.4-10.4,7.6c0,4.2,4.9,7.6,10.4,7.6c2.2,0,4.3-0.7,5.9-1.5v-2.1
		c-1.6,1.2-3.8,2-6,2c-4.5,0-8-2.7-8-6c0-3.1,3.6-6,8-6c2.3,0,4.5,0.7,6,1.9V143.3z"/>
	<polygon points="425.9,148.1 425.9,142.3 423.6,142.3 423.6,157 425.9,157 425.9,149.6 435.9,149.6 435.9,157 438.1,157 
		438.1,142.3 435.9,142.3 435.9,148.1 	"/>
	<polygon points="443.4,157 445.7,157 445.7,145.5 461,157.6 461,142.3 458.8,142.3 458.8,153.6 443.4,141.4 	"/>
	<g>
		<g>
			<path d="M475.5,155.6v1.6c5.6,0,10.4-3.5,10.4-7.6s-4.8-7.5-10.4-7.5v1.6c4.7,0,8.1,2.7,8.1,5.9
				C483.6,152.9,480.2,155.6,475.5,155.6z"/>
			<path d="M475.5,143.6V142c-0.1,0-0.1-0.1-0.1-0.1c-5.4,0-10.3,3.4-10.3,7.6c0,4.2,4.9,7.6,10.3,7.6c0,0,0,0.1,0.1,0v-1.6
				c-0.1,0-0.1,0-0.1,0c-4.5,0-7.9-2.7-7.9-6S471,143.5,475.5,143.6C475.4,143.5,475.4,143.6,475.5,143.6z"/>
		</g>
	</g>
	<polygon points="492.2,142.3 489.8,142.3 489.8,157 497.5,157 497.5,155.3 492.2,155.3 	"/>
	<g>
		<g>
			<path d="M510.1,155.6v1.6c5.7,0,10.3-3.5,10.3-7.6s-4.6-7.5-10.3-7.5v1.6c4.7,0,8.1,2.7,8.1,5.9
				C518.2,152.9,514.7,155.6,510.1,155.6z"/>
			<path d="M510.1,143.6V142v-0.1c-5.5,0-10.3,3.4-10.3,7.6c0,4.2,4.8,7.6,10.3,7.6c0,0,0,0.1,0,0v-1.6l0,0c-4.5,0-8.1-2.7-8.1-6
				S505.5,143.5,510.1,143.6L510.1,143.6z"/>
		</g>
	</g>
	<path d="M534.4,149.4v1.6h5.9c0,2.6-3.6,4.6-6.9,4.6c-2,0-4.2-0.8-5.7-2c-1.4-1-2.3-2.5-2.3-4.1c0-3.4,3.6-6,8.1-6
		c2.9,0,5.2,0.9,6.7,2.7l1.8-1.1c-2.2-2-5.1-3.2-8.5-3.2c-5.5,0-10.2,3.4-10.2,7.6c0,4.1,4.7,7.6,10.1,7.6c2.8,0,5.6-0.9,7.3-2.5
		c1.8-1.6,2.2-3.3,2-5.2H534.4z"/>
	<polygon points="551.7,150.6 551.7,157 553.9,157 553.9,150.6 560.4,142.3 557.8,142.3 552.8,148.7 547.7,142.3 545.2,142.3 	"/>
</g>
<polygon class="st0" points="172.5,127.6 125.4,46.3 78.5,127.6 "/>
<g>
	<path class="st1" d="M221,45.9l-24.8,43.1h6.6l6.4-11.6h22.9l6.3,11.6h6.6L221,45.9z M211.8,72.9l9.1-16.3l8.9,16.3H211.8z"/>
	<path class="st1" d="M368.6,70.5c8.2-0.6,13.5-5.1,13.5-11.5c0-9.1-9.5-11.2-19.7-11.2h-7.9v41.1h6.1v-18h1.6l16.2,18h7.2
		L368.6,70.5z M360.6,66.9V52h1.8c7.1,0,13.7,0.7,13.7,7.5c0,6.2-6.7,7.3-13.7,7.3H360.6z"/>
	<polygon class="st2" points="514.2,52 527.2,52 527.2,47.9 495.2,47.9 495.2,52 508.1,52 508.1,88.9 514.2,88.9 	"/>
</g>
<polygon points="48.9,104.2 48.9,113.5 83,113.5 88.5,104.2 "/>
<polygon points="163.2,104.1 168.8,113.5 560.6,113.5 560.6,104.2 "/>
</svg>
