<?xml version="1.0" encoding="utf-8"?>
<!-- Generator: Adobe Illustrator 24.2.1, SVG Export Plug-In . SVG Version: 6.00 Build 0)  -->
<svg version="1.1" id="Layer_1" xmlns="http://www.w3.org/2000/svg" xmlns:xlink="http://www.w3.org/1999/xlink" x="0px" y="0px"
	 viewBox="0 0 2208.8 493.8" style="enable-background:new 0 0 2208.8 493.8;" xml:space="preserve">
<style type="text/css">
	.st0{fill-rule:evenodd;clip-rule:evenodd;}
</style>
<path d="M780,348.1c0,19.7-0.7,32-2.5,37.1c-1.6,4.9-4.9,9.2-9.4,12.5c-4.4,3.3-9.6,5.1-15.4,5.1c-5.1,0-9.4-1.3-12.5-3.8
	c-3.3-2.5-5.6-6-6.9-10.3c-1.1-4.5-1.8-16.4-1.8-35.6V290h-33.8v87c0,12.7,1.6,23,4.5,30.2c3,7.2,8.3,13.2,15,17.2
	c6.7,4.1,14.3,6.1,23,6.1c8.2,0,16.3-2.2,23.9-6.5c7.6-4,13.9-9.9,18.4-17.2v20.6l31.3,0.1V290.1H780V348.1z"/>
<path d="M932.1,306.1c-10.3-12.7-22.6-19.2-36.9-19.2c-15.7,0-28.4,6.1-38.7,18.4c-10.1,12.1-15.2,29.7-15.2,53
	c0,22.7,5.4,40.5,15.7,53.3c10.5,12.5,23,19,37.8,19c7.2,0,14.3-2,21.5-5.8c7-3.8,13.3-9.7,18.4-17.5v20.1h31.4V238.1h-34V306.1z
	 M924.1,391.2c-5.4,6.9-11.9,10.5-19.7,10.5c-9.8,0-17.4-4.7-22.8-14.1c-3.8-6.5-5.8-17.3-5.8-31.8c0-13.6,3-23.9,8.3-30.6
	c5.3-7,12-10.3,20.1-10.3c8.3,0,15,3.4,20.4,10.3c5.1,6.9,7.8,18.3,7.8,34C932.4,373.3,929.7,384,924.1,391.2z"/>
<rect x="989.5" y="290" width="33.8" height="137.4"/>
<rect x="989.5" y="238.1" width="33.8" height="33.4"/>
<path d="M1150.6,307.2c-12.3-13.5-27.9-20.4-47.4-20.4c-11.9,0-23.6,3.1-34,9c-10.1,6.1-17.9,14.6-23.5,26
	c-5.4,10.9-8.2,22.8-8.3,34.9c0,15.9,2.9,29.3,8.1,40.2c5.3,10.7,13.8,19.4,24.2,25.1c10.8,5.6,22,8.5,33.6,8.5
	c19,0,34.7-6.9,47-20.6c12.6-13.6,18.6-30.9,18.6-51.7C1168.9,337.7,1162.9,320.7,1150.6,307.2z M1125.6,390
	c-6.1,7.1-13.5,10.7-22.2,10.7c-9,0-16.4-3.5-22.4-10.7c-6-7.1-8.9-17.6-8.9-31.3c0-13.6,2.9-24.1,8.9-31.4
	c6.1-7.1,13.5-10.7,22.4-10.7c8.8,0,16.2,3.6,22.2,10.7c6.1,7.4,9,17.7,9,31.1C1134.6,372.3,1131.7,382.9,1125.6,390z"/>
<path d="M1295.6,241.9l-41,20.8V290h-18.8v29h18.8v59.8c0,12.9,0.4,21.4,1.3,25.7c0.9,5.8,2.9,10.5,5.6,14.1c2.7,3.4,7.2,6.3,13,8.5
	c5.8,2.3,12.5,3.4,19.9,3.4c11.9-0.2,20-2.4,28.7-8.5v-24.9c-7.1,2.2-12.5,3.3-16.3,3.3c-2.6,0-4.9-0.7-6.9-1.8
	c-1.8-1-3.1-2.7-3.6-4.7c-0.5-1.8-0.7-8.3-0.7-19.5v-55.3h27.8V290h-27.8V241.9z"/>
<rect x="1199.2" y="340.6" width="31.8" height="36.3"/>
<path d="M1440.5,307.3c-11.6-13.5-27.7-20.4-48.1-20.4c-18.2,0-33.1,6.5-45,19.5c-11.9,12.8-17.7,30.7-17.7,53.5
	c0,19,4.5,34.7,13.4,47.2c11.4,15.7,29.1,23.5,52.8,23.5c15,0,27.5-3.6,37.6-10.5c10.1-7,18.6-22.4,21.5-36.3h-35.6
	c-2,6.7-4.9,11.9-8.7,15c-3.8,2.9-8.7,4.5-14.3,4.5c-8.3,0-15.2-2.9-20.8-8.9c-5.6-6.1-8.5-14.4-8.7-25.1h90.6
	C1458,341.3,1452.4,320.7,1440.5,307.3z M1367.2,346.9c0-9.8,2.7-17.7,7.6-23.5c5.2-5.6,11.9-8.5,19.7-8.5c7.1-0.1,14,2.9,18.8,8.1
	c5.2,5.6,7.9,13.4,8.1,23.9H1367.2z"/>
<path d="M1728.8,303.5c-3.3-4.7-8.5-8.8-15.4-11.9c-6.7-3.1-14.3-4.7-22.8-4.7c-16.5,0-30.8,6.9-42.7,20.6v-69.4H1611v189.4h36.9
	v-68.9c0-11.4,1.1-20.2,3.3-26.2c2.2-5.8,5.8-10.3,10.5-13.2c4.9-2.9,10.3-4.2,16.3-4.2c5.3,0,9.8,1.1,13.4,3.3
	c3.5,2.1,6.1,5.4,7.4,9.2c1.3,3.8,2.2,13,2.2,27.5v72.5h36.9v-80.6c0-12.3-0.7-21.5-2-27.3C1734.6,313.8,1732.4,308.4,1728.8,303.5z
	"/>
<path d="M1552.5,394.9c-4.2,4-9.8,5.8-16.3,5.8c-9,0-16.1-3.4-21.5-10.1s-8.1-18.1-8.1-34.4c0-14.5,2.7-25,7.8-31.3
	c5.3-6.3,12.3-9.4,21-9.4c6.7,0,12.1,1.8,16.1,5.4c4.2,3.6,6.5,9.1,7.6,16.3h35.1l-0.4-6.4c-4.2-14.8-10.7-25.7-20.1-32.9
	c-9.6-7.2-22.6-11-38.7-11c-19.7,0-35.6,6.5-47.2,19s-17.2,30.2-17.2,53c0,22.4,5.6,39.8,17.2,52.6c11.6,12.5,27,19,46.5,19
	c17.3,0,30.9-4.2,41-12.5c10.3-8.5,17.2-26.9,20.8-43.2h-34.7C1559.6,384.2,1556.8,391.1,1552.5,394.9z"/>
<path d="M675.3,382.2l0.5-42.3c0-15.9-1.6-26.6-4.5-32.7c-3.2-5.8-8.3-10.7-15.7-14.5c-7.4-3.8-18.6-5.8-33.8-5.8
	c-16.6,0-28.7,4-37.4,9.6c-11.9,7.7-17.4,22.2-17.9,35.4h30.7c2.1-6.3,5-10.8,8.4-13.4c3.4-2.7,8.1-3.8,14.1-3.8
	c8.7,0,15,1.4,18.1,4.5c3.1,2.9,4.7,7.9,4.7,14.8v3.6c-6,2.8-17,5.8-32.9,8.9c-11.6,2.4-20.5,5.4-26.8,8.5
	c-6,3.4-10.9,7.8-14.3,14.1c-3.6,6.1-5.4,13-5.4,20.6c0,11.9,4,21.5,11.4,29.1c7.6,7.8,18.1,11.6,31.1,11.6c7.2,0.1,14.4-1.5,21-4.7
	c6.7-2.9,12.8-7.3,18.6-13.4c0.2,0.7,1.1,2.1,1.3,4.3c0,4.7,2.2,8.2,3.1,10.7h31.1c-3.3-6.4-2.7-12.7-3.8-18.3
	C676,403.2,675.3,394.3,675.3,382.2z M642.3,368.8c0,8.5-0.4,14.6-1.3,17.7c-1.2,4.7-3.9,8.8-8.1,11.9c-5.4,4.5-11.2,6.5-17.5,6.5
	c-5.3,0-9.8-1.8-13.4-5.6c-3.5-3.6-5.1-8.1-5.1-13c0-5.2,2-9.6,6.5-13c3-2,9.2-4.1,18.4-6.3c9.4-2.2,16.3-4,20.6-5.6L642.3,368.8z"
	/>
<path d="M2205,409c-0.9-5.8-1.6-14.7-1.6-26.8l0.5-42.3c0-15.9-1.6-26.6-4.5-32.7c-3.2-5.8-8.3-10.7-15.7-14.5
	c-7.4-3.8-18.6-5.8-33.6-5.8c-16.8,0-28.9,4-37.6,9.6c-11.9,7.7-17.5,22.2-17.9,35.4h30.6c2.2-6.3,4.9-10.8,8.5-13.4
	c3.4-2.7,8.1-3.8,14.1-3.8c8.9,0,15,1.4,18.1,4.5c3.1,2.9,4.7,7.9,4.7,14.8v3.6c-6.1,2.8-17,5.8-32.7,8.9
	c-11.9,2.4-20.8,5.4-27.1,8.5c-6,3.4-10.9,7.8-14.3,14.1c-3.5,6.1-5.1,13-5.1,20.6c0,11.9,3.8,21.5,11.2,29.1
	c7.6,7.8,18.1,11.6,31.1,11.6c7.6,0,14.5-1.6,21-4.7c7.1-3.1,13.4-7.7,18.6-13.4c0.2,0.7,1.1,2.1,1.3,4.3c0.2,4.7,2.2,8.2,3.1,10.7
	h31.1C2205.4,420.9,2206.1,414.6,2205,409z M2170.3,368.8c0,8.5-0.4,14.6-1.1,17.7c-1.3,4.8-4.3,9-8.3,11.9
	c-5.3,4.5-11.1,6.5-17.2,6.5c-5.6,0-10.1-1.8-13.7-5.6c-3.3-3.6-5.1-8.1-5.1-13c0-5.2,2.2-9.6,6.5-13c2.9-2,9.2-4.1,18.6-6.3
	c9.2-2.2,16.1-4,20.6-5.6L2170.3,368.8z"/>
<path d="M1879.5,317.5c-1.1-5.6-3.5-10.7-6.9-15.2s-8.3-8.1-14.8-11c-6.5-2.9-13.7-4.5-21.5-4.5c-17.9,0-32.9,7.9-44.5,23.3V290
	h-33.1v137.3h35.6v-62.2c0-15.4,0.9-25.9,2.9-31.5c1.7-5.6,5.3-10.4,10.1-13.7c4.7-3.5,10.3-5.1,16.6-5.1c4.7,0,9,1.1,12.3,3.6
	c3.5,2.4,6.2,6,7.4,10.1c1.6,4.3,2.5,14.1,2.5,28.9v70h35.6l-0.2-85.3C1881.5,331.4,1880.8,323.3,1879.5,317.5z"/>
<path d="M2035.3,394.9c-4.5,4-9.9,5.8-16.6,5.8c-9,0-16.2-3.4-21.3-10.1c-5.4-6.7-8.1-18.1-8.1-34.4c0-14.5,2.7-25,7.8-31.3
	s12.3-9.4,21-9.4c6.5,0,11.9,1.8,16.1,5.4c4,3.6,6.3,9.1,7.6,16.3h35.1l-0.4-6.4c-4.2-14.8-10.7-25.7-20.1-32.9
	c-9.6-7.2-22.6-11-38.7-11c-19.9,0-35.6,6.5-47.2,19c-11.7,12.5-17.5,30.2-17.5,53c0,22.4,5.9,39.8,17.5,52.6
	c11.4,12.5,27,19,46.5,19c17.1,0,30.9-4.2,41-12.5c10.3-8.5,17-26.9,20.6-43.2h-34.4C2042.4,384.2,2039.6,391.1,2035.3,394.9z"/>
<rect x="1907" y="290" width="33.8" height="137.4"/>
<rect x="1907" y="238.1" width="33.8" height="33.4"/>
<path class="st0" d="M247,0C111,0,0,111,0,247c0,135.9,111,246.9,247,246.8c136.1,0,247.1-111,247.1-246.8C494.1,111,383.1,0,247,0z
	 M247,482.5c-129.8,0-235.6-105.8-235.6-235.4C11.4,117.3,117.2,11.2,247,11.2s235.6,106.1,235.6,235.9
	C482.6,376.7,376.8,482.5,247,482.5z"/>
<path class="st0" d="M247.9,22.4L111,428.5h273.2L247.9,22.4z M126.6,417.2L247.9,58l55.3,164.7l-65.8,194.5H126.6z M309,240.3
	l59.5,176.8H249.3L309,240.3z"/>
</svg>
