<?xml version="1.0" encoding="utf-8"?>
<!-- Generator: Adobe Illustrator 24.2.1, SVG Export Plug-In . SVG Version: 6.00 Build 0)  -->
<svg version="1.1" id="Layer_1" xmlns="http://www.w3.org/2000/svg" xmlns:xlink="http://www.w3.org/1999/xlink" x="0px" y="0px"
	 viewBox="0 0 398.8 127.8" style="enable-background:new 0 0 398.8 127.8;" xml:space="preserve">
<style type="text/css">
	.st0{fill:#F40126;}
	.st1{fill:#F51537;}
</style>
<g id="G2CobG.tif">
	<g>
		<path class="st0" d="M398.8,127.5c-0.7,0-1.3,0-2,0c-2.2-1.6-4.8-0.9-7.3-0.9c-129.8,0-259.7,0-389.5,0c0-0.3,0-0.7,0-1
			c1.4-1.7,1-3.8,1-5.7C1,82.4,1,45.1,1,7.7c0-1.9,0.4-4-1-5.7c0-0.3,0-0.7,0-1c0.3-0.3,0.7-0.5,1-0.8C3,0.1,5,0,7,0
			c127.2,0,254.4,0,381.5,0c10.1,0,10.1,0,10.1,9.9C398.6,49.2,398.7,88.3,398.8,127.5z M221.3,76.1c-4.2,0-6-2.5-6.1-6.3
			c-0.2-5.1,0.1-10.2-0.3-15.3c-0.3-3.5,1.2-4,4.3-4c9.5,0.2,18.9-0.1,28.4,0.1c3.4,0.1,3.7-1.3,3.7-4.1c0-2.6-0.1-4.2-3.6-4.1
			c-9.3,0.2-18.6,0-27.9,0.1c-3.3,0.1-5.5-0.3-4.7-4.4c0.7-3.9-2.3-3.2-4.4-3.1c-2,0.1-4.8-1.1-4.7,2.9c0.2,11,0,22,0.3,33
			c0.2,7.7,4.2,12,12.1,13.1c11.5,1.6,23,0.4,36,0.8c-4.1-3.3-7.1-5.7-10-8c-0.6-0.5-1.1-1.6-1.7-1.6
			C235.4,75.4,228.3,74.3,221.3,76.1z M174.3,51.4c-0.8,0.2-1.7,0.1-2.4,0.6c-4.5,3.2-4.6,0.5-4.5-3.1c0.1-5.4,0.1-10.7,0-16.1
			c0-1.2,0.7-3.3-1.8-3.3c-3.5,2.3-8.6,3.3-8.7,8.5c-0.2,14.5,0.1,29-0.2,43.5c-0.1,4.2,2.4,3.3,4.8,3.5c2.8,0.2,4.8,0.1,4.5-3.7
			c-0.4-4-0.1-8-0.1-12.8c6.3,3.9,12.2,6.8,17.3,10.7c7.1,5.5,14.7,6.8,24.2,5.4c-11.6-7.4-22.6-14.4-34-21.6
			c10.1-6.7,19.7-13.1,30.4-20.3c-4.1,0-6.6,0.1-9,0c-4.2-0.2-8.1,0.1-11.4,3.1C180.6,48.1,177.6,49.9,174.3,51.4z M282.9,84.9
			C282.9,84.9,282.9,84.9,282.9,84.9c6.1,0.1,12.3-0.1,18.4,0.2c3.2,0.1,3.9-0.9,3.8-3.9c-0.2-7.2,0-14.5-0.1-21.7
			c-0.1-11.6-4.9-16.4-16.6-16.7c-9.1-0.2-18.3,0-27.4-0.2c-3.2-0.1-4.3,0.7-4.3,4.1c0,3.2,0.9,4.2,4.2,4.1c9-0.1,17.9,0,26.9,0.2
			c2.3,0,4.7,0.1,6.5,2c1.2,1.2,2.1,2.8,1.5,4.5c-0.6,1.6-2.3,0.8-3.5,0.8c-8.6,0.1-17.3,0-25.9,0.1c-12.2,0.2-13.8,4-13.8,14.8
			c0,8.2,3.5,11.5,11.9,11.8C270.6,85,276.8,84.9,282.9,84.9z M130.7,66.1c5,0,10,0,14.9,0c7.4,0,7.3,0,6.9-7.5
			c-0.3-6-1.1-12.1-7.8-14.1c-12.1-3.6-24.5-3.5-36.7,0c-3.6,1-6.5,3.8-7,7.5c-0.8,5.5-1.1,11.1-0.7,16.7c0.9,12.2,4,15.5,16.3,16.4
			c7.5,0.5,15.2,1.3,22.6,0.3c4.6-0.6,9.8-2.9,11.9-8.3c0.4-1.1,1.5-2.8-0.9-2.9c-2.6-0.2-5.7-0.8-7.8,0.4
			c-8.7,4.6-17.8,2.2-26.8,2.2c-1.1,0-2.3-0.5-3.3-1c-3.5-1.6-2.8-4.9-2.7-7.7c0.2-3.5,3.1-1.7,4.6-1.7
			C119.8,66,125.2,66.1,130.7,66.1z M43.8,68.8c-0.1,0-0.1,0-0.2,0c0,4.3,0.3,8.6-0.1,12.8c-0.3,3.8,2,3.4,4.3,3.3
			c2.3-0.1,5,1,4.9-3.3c-0.3-7.4-0.1-14.8,0-22.2c0.1-6.1,2.2-8.5,8.2-8.8c6-0.3,12-0.3,17.9,0c5.9,0.3,8,2.5,8.2,8.3
			c0.2,7.6,0.3,15.1,0,22.7c-0.1,3.7,2,3.4,4.4,3.3c2.3-0.1,5.1,1.1,4.9-3.3c-0.3-7.9,0.1-15.8-0.2-23.7C95.8,48,91,43.1,80.7,42.5
			C72.6,42,64.5,42,56.3,42.7c-6.7,0.6-12.2,6-12.5,12.8C43.6,59.9,43.8,64.4,43.8,68.8z M365.2,42.9c-14.7,0-27.8-0.4-40.8,0.1
			c-9.6,0.4-14.9,5.1-14.9,15.2c0,7.7,0.2,15.5-0.2,23.2c-0.2,4.1,2.1,3.6,4.7,3.6c2.5,0,4.9,0.6,4.7-3.5c-0.4-7.2-0.2-14.5,0-21.7
			c0.1-6.6,1.7-8.3,8.2-8.6c7.6-0.4,15.2-0.3,22.9-0.4C355.8,50.6,359.3,46,365.2,42.9z"/>
		<path class="st1" d="M0,126.5c129.8,0,259.7,0,389.5,0c2.4,0,5-0.7,7.3,0.9c-130.8,0-261.5,0-392.3-0.1C3,127.5,1.1,128.6,0,126.5
			z"/>
		<path class="st1" d="M0,2c1.4,1.7,1,3.8,1,5.7c0,37.4,0,74.8,0,112.1c0,1.9,0.4,4-1,5.7C0,84.4,0,43.2,0,2z"/>
		<path class="st1" d="M0,0c0.3,0.1,0.7,0.1,1,0.2C0.7,0.5,0.3,0.7,0,1C0,0.7,0,0.3,0,0z"/>
		<path class="st1" d="M174.3,51.4c-2,2.7-5.1,3.8-8.8,6.5c0-10.1,0-19.3,0-28.4c2.6,0,1.8,2.1,1.8,3.3c0.1,5.4,0.1,10.7,0,16.1
			c-0.1,3.5,0.1,6.3,4.5,3.1C172.5,51.5,173.5,51.6,174.3,51.4z"/>
		<path class="st1" d="M244.2,77c-7.6-0.9-15.3,0.4-22.9-1c7-1.8,14.1-0.7,21.2-0.6C243.1,75.5,243.7,76.5,244.2,77z"/>
		<path class="st0" d="M264.2,76.1c-3.5-1.4-2.4-4.2-2.1-6.7c0.3-2.4,2.2-3.1,4.4-3.1c9.1-0.1,18.2-0.1,27.3-0.2
			c2,0,2.6,0.8,2.4,2.6c-0.1,2.1-0.1,4.3-0.1,6.4c-6.1,0-12.1-0.1-18.2,0.1C273.3,75.4,268.6,74.3,264.2,76.1z"/>
		<path class="st1" d="M264.2,76.1c4.4-1.8,9.1-0.7,13.6-0.8c6.1-0.2,12.1-0.1,18.2-0.1c0.1,0.8,0.1,1.8-1,1.8
			C284.7,76.6,274.4,78.1,264.2,76.1z"/>
		<path class="st0" d="M126.5,58.5c-4.3,0-8.6,0.1-12.9-0.1c-1.3,0-3.3,1-3.7-1.1c-0.4-1.6,0.3-3.2,1.5-4.5c0.2-0.2,0.5-0.4,0.8-0.6
			c3.5-2.6,25-2.6,28.7-0.1c1.9,1.3,2.6,3.2,2.2,5.1c-0.4,2.4-2.7,1.1-4.1,1.2C134.8,58.7,130.6,58.5,126.5,58.5z"/>
	</g>
</g>
</svg>
