<?xml version="1.0" encoding="utf-8"?>
<!-- Generator: Adobe Illustrator 24.2.1, SVG Export Plug-In . SVG Version: 6.00 Build 0)  -->
<svg version="1.1" id="Layer_1" xmlns="http://www.w3.org/2000/svg" xmlns:xlink="http://www.w3.org/1999/xlink" x="0px" y="0px"
	 viewBox="0 0 41.8 30" style="enable-background:new 0 0 41.8 30;" xml:space="preserve">
<style type="text/css">
	.st0{fill:#5D86A0;}
	.st1{fill:#111111;}
</style>
<g id="Layer_4">
	<path class="st0" d="M40,3H21v24h19V3z M31,22h-3V8h3V22z"/>
	<path class="st1" d="M2.6,3C8.7,4.5,14.8,5.3,21,5.3c6.1,0,12.3-0.8,18.4-2.3l-1.6-0.9c0.5,1.2,0.8,3.2,1.1,5.5
		c0.2,2.3,0.4,4.8,0.4,7.4s-0.1,5.2-0.4,7.4c-0.2,2.3-0.6,4.2-1.1,5.5l1.6-0.9c-6.1-1.5-12.3-2.3-18.4-2.3h-0.1
		c-6.1,0-12.3,0.8-18.4,2.3l1.7,0.9c-0.4-1.2-0.8-3.2-1.1-5.5c-0.2-2.3-0.4-4.8-0.4-7.4s0.1-5.2,0.4-7.4c0.2-2.3,0.6-4.2,1.1-5.5
		L2.6,3l0.3-1.4L1.6,1.2C1,2.8,0.7,4.9,0.4,7.3S0,12.3,0,15s0.1,5.3,0.4,7.7s0.6,4.5,1.2,6.1L2,30l1.2-0.3
		c5.9-1.5,11.8-2.2,17.7-2.2s11.8,0.7,17.7,2.2l1.2,0.3l0.4-1.2c0.6-1.6,0.9-3.7,1.2-6.1s0.4-5.1,0.4-7.7c0-2.7-0.1-5.3-0.4-7.7
		c-0.3-2.4-0.6-4.5-1.2-6.1L39.9,0l-1.2,0.3C32.8,1.8,26.9,2.5,21,2.5h-0.1C15,2.5,9.1,1.8,3.3,0.3L2,0L1.6,1.2l1.3,0.5"/>
	<path class="st1" d="M11,22v-7l2,7h3V8h-3v6l-2-6H8v14H11z"/>
</g>
</svg>
