<?xml version="1.0" encoding="utf-8"?>
<!-- Generator: Adobe Illustrator 24.2.1, SVG Export Plug-In . SVG Version: 6.00 Build 0)  -->
<svg version="1.1" id="Layer_1" xmlns="http://www.w3.org/2000/svg" xmlns:xlink="http://www.w3.org/1999/xlink" x="0px" y="0px"
	 viewBox="0 0 420 207" style="enable-background:new 0 0 420 207;" xml:space="preserve">
<style type="text/css">
	.st0{fill:#FCFDFD;}
	.st1{fill:#191943;}
	.st2{fill:#151640;}
	.st3{fill:#111333;}
	.st4{fill:#2F2A55;}
	.st5{fill:#13143D;}
	.st6{fill:#1D1D47;}
	.st7{fill:#080808;}
	.st8{fill:#111239;}
	.st9{fill:#22224C;}
	.st10{fill:#F45D07;}
	.st11{fill:#67BA2C;}
	.st12{fill:#131313;}
	.st13{fill:#F30D0E;}
	.st14{fill:#0E0E0E;}
	.st15{fill:#312B41;}
	.st16{fill:#01A4BB;}
	.st17{fill:#4D4FA2;}
	.st18{fill:#92509E;}
	.st19{fill:#3DAAC7;}
	.st20{fill:#CD0D34;}
	.st21{fill:#511F33;}
	.st22{fill:#1190B2;}
	.st23{fill:#5D9183;}
</style>
<g id="sET0MF.tif">
	<g>
		<path class="st0" d="M210,207c-68.5,0-137,0-205.5,0c-1.2,0-2.3-0.1-3.5,0c-0.9,0.1-1.1-0.2-1-1s0-1.7,0-2.5c0-66.7,0-133.3,0-200
			C0,2.7,0.1,1.9,0,1s0.2-1.1,1-1c1,0.1,2,0,3,0c137.3,0,274.7,0,412,0c4,0,4,0,4,4c0,66.3,0,132.6,0,199c0,1-0.1,2,0,3
			c0.1,0.9-0.2,1.1-1,1c-1.2-0.1-2.3,0-3.5,0C347,207,278.5,207,210,207z"/>
		<path class="st1" d="M224.5,15.9c4.4,2.5,8.5,5.5,12.4,8.7c0.3,6.4-0.3,12.9,0.8,19.3c0.2,1.1,0.1,2.4-0.4,3.4
			c-4.7,8.1-4.1,17.2-4.2,26c0,5.2-1.7,10-2.3,15.1c-0.9,7.7,0.1,15.5-2,23.1c-0.6,2.5-2.1,4.3-4.3,5.5c-1,0.8-3.2,0-3.3,2.2
			c0,0.6,0,1.2-0.1,1.9c-0.2,0.4-0.4,0.7-0.7,1c-0.8,0.7-1.7,1.3-2.4,2c-1.6,1.4-3,3.2-4.9,4.4c-0.4,0.2-0.9,0.1-1.3-0.1
			c-0.8-0.9-1.6-1.8-2.3-2.7c-2.3-12.9-2.8-25.9-2.1-38.9c0.1-1.9,0.7-3.7,2-5c3.5-3.7,3.9-8.1,3.9-12.9c-0.2-9.7,0.1-19.5-0.1-29.2
			C212.8,29.7,218.5,22.8,224.5,15.9z"/>
		<path class="st2" d="M224.5,15.9c-1.7,4.1-3.6,8-6.7,11.3c-2.7,2.9-3.2,6.8-3.2,10.6c-0.1,11.6-0.1,23.2,0,34.8
			c0,3.5-0.5,6.5-3.3,8.9c-2.2,1.8-2.8,4.3-2.7,7.1c0.1,6,0.1,11.9,0,17.9c0,3.6,0.8,7.2,1.3,10.7c0.4,3-0.2,5.7-0.4,8.6
			c-5.6-4.7-11-9.6-15.9-14.9c-0.2-0.6-0.5-1.1-1.2-1.1v0.1c-1.3-3.2-1.5-6.4-0.5-9.7c0.7-2.1,0.7-4.2,0.4-6.4
			c-0.5-4.2-0.2-8.2,1.5-12.2c0.9-2.1,1.4-4.4,1.3-6.8c-0.5-8.6,0.6-17.2,1.3-25.7c0.5-6.7,1.8-13.7,6-19.6c2.9-4.1,1.8-8.1-1-11.9
			c-0.3-0.6-0.3-1.1,0.1-1.6c0.1-0.6,0.5-0.8,1.1-0.9c1.4-0.9,3-1.6,3.9-3.2c1.2-1.7,2.7-2.9,4.5-3.9c0.7-0.2,1.4-0.2,2.1,0
			C217.1,10.2,220.9,12.9,224.5,15.9z"/>
		<path class="st3" d="M130.7,131.1c-11.5,0-22.9,0.1-34.4,0.1c-9.5,0-18.9,0-28.4,0.1c-0.6,0-1.3,0.4-1.7-0.3
			c-0.3-0.6,0.4-0.9,0.7-1.1c7.7-6.5,15.1-13.4,23.3-19.4c0.8-0.1,1.3-0.5,1.5-1.3c4.9-4.9,10.5-9,15.7-13.6c1-0.9,1.9-1.2,3.2-0.7
			c11,4.1,22.3,7.2,33.1,11.8c0,0.2,0.1,0.4,0.1,0.5c-2.1,1.9-7.9,12.5-8.5,15.6C134.7,125.9,133.3,128.8,130.7,131.1z"/>
		<path class="st4" d="M359.2,111c9.4,6.5,18.7,13,28.1,19.5c-0.5,1.3-1.4,0.9-2.1,0.9c-41.1,0-82.3,0-123.4,0
			c-1.2,0-2.3-0.1-3.5-0.2c-0.9-1.8,0.3-2.6,1.6-2.7c6-0.6,9.7-7,16.3-6.2c1,0.1,1.9-1.1,3-1.6c6.1-2.3,12.7-1.4,18.9-3.3
			c1.7-0.3,3.3-0.3,5-0.3c4.4-0.2,8.7-1.4,13-2c0.9-0.1,1.7,0,2.6,0c11.7-1.6,23.4-2.9,35.1-4.2C355.7,110.6,357.4,110.6,359.2,111z
			"/>
		<path class="st5" d="M201.5,16.9c1.3-0.1,2.2,0.5,2.8,1.6c2.3,3.7,1.5,9.9-1.9,12.9c-1.3,1.2-2.2,2.5-1.9,4.3c0.3,2-0.1,4-1.1,5.7
			c-2,3.7-1.8,7.6-2,11.5c-0.3,8.1-1.4,16.1-0.9,24.2c0.1,1.7-0.6,3.4-1.3,4.7c-2.4,4.6-2.1,9.2-1.1,13.9c0.1,0.6,0.5,1.5,0.2,1.9
			c-2.8,3.7-1.3,8-2.1,12c-4.6-3.7-9-7.7-13-12.1c0.3-2.1-0.8-3.1-2.7-4.1c-5.6-2.9-6.8-7-3.7-12.5c1.8-3.2,2.7-6.5,2.1-10
			c-1.1-6-0.7-11.8,0.1-17.7c0.4-2.8,0.9-5.5,0.4-8.4c-0.3-1.8,0.3-3.4,1.9-4.3c3.9-2.3,5.3-6.1,6.7-10.1v0.1c0.8,0,1.1-0.5,1.2-1.1
			c0.1-0.5,0.4-0.7,0.9-0.7c0.6-0.3,1-0.6,1.3-1.2c2.9-3.2,6.4-5.9,9.9-8.5c0.8,0.4,0.6-0.4,0.8-0.7c0.5-0.8,1-1.4,1.9-1.6
			C200.8,16.6,201.2,16.6,201.5,16.9z"/>
		<path class="st6" d="M227.5,112.5c2.1-7-0.1-14.5,1.9-21.5c0.5-1.7,0.1-3.6,0.1-5.4c0-1.6-0.2-3.3,1.2-4.6
			c1.4-1.3,0.9-3.2,0.8-4.7c-0.6-7.5,1.2-14.8,1.1-22.2c0-1.9,0.8-3.6,2.2-4.8c2.3-2,2.1-4.4,1.5-6.8c-1.4-5.4-0.5-10.8-0.6-16.3
			c0-0.7,0.7-1.1,1.3-1.3c7.3,4.6,14.3,9.6,21.1,14.9c-3.2,6.2-4.4,12.4-3.7,19.6c0.5,5.4-0.9,11.2-2.2,16.6
			c-1.1,4.7-2.1,9.3-2.3,14c-0.1,0.5-0.3,0.9-0.5,1.4c-0.2,0.4-0.5,0.8-0.7,1.2c-0.1,0.2-0.3,0.3-0.4,0.5c-0.3,0.3-0.6,0.6-1,0.9
			c-0.3,0.2-0.7,0.5-1,0.7c-0.7,0.4-1,1.2-1.2,1.9c-0.9,2.3-3.1,3.6-4.3,5.6c-0.2,0.3-0.5,0.7-0.8,0.9c-0.6,0.5-1.2,1.1-1.7,1.7
			c-0.3,0.3-0.5,0.6-0.8,0.8c-0.6,0.5-1.1,1.1-1.6,1.8c-1.1,1.3-2.3,2.5-3.7,3.4C230.5,111.2,229.6,113,227.5,112.5z"/>
		<path class="st7" d="M20.4,179.7c-6.7-0.3-12.3-1.5-16.5-6.2c-1.1-1.2-3.2-2.2-0.8-4.4c2.1-1.8,3-0.7,4.3,0.9
			c2.9,3.6,6.6,5.4,11.3,5.1c4.4-0.3,8.7-3.1,9.9-7.2c1.3-4.4,0.6-8.5-2.9-11.9c-2.2-2.1-5-3.2-7.7-4.4c-2.9-1.3-5.8-2.3-8.6-3.7
			c-11.6-5.6-10.1-20.4-3.7-26.6c8.6-8.3,24.5-7.1,31.2,2.7c0.7,1,1.9,2.1,0.1,3.3c-1.4,0.9-2.4,1.6-3.5-0.4
			c-2.5-4.4-6.3-6.7-11.4-6.6c-4.8,0.1-8.6,2.7-9.6,7.1c-1.1,5-0.6,8.2,4,11.3c2.4,1.6,5,2.6,7.6,3.7c1.8,0.8,3.7,1.5,5.5,2.4
			c8.8,4.4,12.1,10.5,10.7,19.6c-1.2,7.7-7.7,13.7-16.4,15C22.3,179.6,21,179.6,20.4,179.7z"/>
		<path class="st8" d="M184.2,30.5c1.3,5-1.4,8.1-5.3,10.5c-1.5,0.9-2.9,1.7-2.2,3.8c1.6,4.4-0.3,8.7-0.7,13
			c-0.3,3.3-0.7,6.5,0.1,9.8c1.3,5.5,1,10.9-2.7,15.4c-1.7,2.1-1.7,3.7-0.2,5.6c1.5,1.8,2,4.5,5.7,4.2c3.1-0.3,3.2,1.3,0.5,4.9
			c-6.9-5.8-13.4-12.1-19.9-18.5c-0.1-0.9-0.5-1.3-1.4-1.4c-3.5-2.7-6.6-5.7-9.5-8.9c-1.4-1.9-3.9-3.4-2.1-6.3l-0.1,0.1
			c0.6-0.2,0.9-0.6,1.1-1c0.9-1.3,2-2.4,3.6-3c0.7-0.1,1.2-0.5,1.4-1.2c0.1-0.5,0.4-0.7,0.9-0.8c0.5-0.2,0.9-0.6,1.2-1
			c0.5-1,1.4-1.7,2.5-2.1c1.6-0.5,2.5-1.8,3.5-3c0.5-0.9,1.2-1.5,2.1-1.8c0.4-0.7,1.6-0.3,1.6-1.4l0.3,0.3l-0.3-0.3
			c1.1-0.2,1.6-1,2.2-1.8l-0.1,0.1c0.5-0.2,0.9-0.6,1.1-1c0.4-0.9,1.2-1.5,2.1-1.8c0.4-0.7,1.6-0.3,1.7-1.3l-0.1,0.1
			c0.7,0,1-0.5,1.2-1.1C176.1,36.8,180.1,33.6,184.2,30.5z"/>
		<path class="st8" d="M130.7,131.1c0.1-0.8,0-1.8,0.4-2.4c3.8-4.7,4.3-10,2.9-15.6c-0.4-1.6-0.3-2.6,1.6-2.7c0.9,0,1.7-0.1,2.2-0.8
			c1.4-2,3.6-2.6,5.8-3.2c1.5-0.2,2.7,0.7,4,1.2c0.6,0.5,1.2,0.8,2,0.8c2.5,0.3,4.9,1.3,7.1,2.4c0.2,1.2,0.9,1.3,1.8,0.7
			c7.1,1.9,14.1,4.4,20.9,7.1c0.6,0.5,0.9,1.7,2,0.8c1.2-0.1,2.1,0.4,3,1c1,4.4-1.3,7.6-4,10.7C163.9,131.4,147.3,131.4,130.7,131.1
			z"/>
		<path class="st9" d="M248.5,91.6c-0.2-2.4,1.2-4.6,0-7.2c-0.7-1.4-0.2-3.3,0.8-4.7c2.1-2.9,2.2-6.1,2-9.5c-0.1-2.7,0-5.2,1.4-7.6
			c1.1-1.9,0.3-4.1,0-6.2c-0.9-6.3-0.5-12.4,5.1-16.9c8.4,5.4,16.4,11.3,24.5,17.1c1.2,2.2-0.4,3.5-1.7,4.7
			c-9.4,9.5-18.9,19-28.5,28.4C251.3,90.8,250.2,92.1,248.5,91.6z"/>
		<path class="st10" d="M330.2,90.5c3,2,6.4,3.6,8.7,6.5c-0.2,2.5-2.2,2.5-3.9,2.9c-13.4,3.6-27,6.3-40.2,10.3
			c-0.5,0.2-1,0.3-1.6,0.4c-12.5,2.5-24.9,5.8-37.3,8.8c-1.6,0.4-3.2,1.1-4.8,1.2c-1.3,0.1-2.5,0.2-3.8,0.6
			c-3.5,0.4-6.7,2.3-10.3,1.8c-0.5-0.2-0.8-0.6-1-1.1c-0.2-1.5,0.8-2.3,1.9-3c0.4-0.2,0.9-0.4,1.4-0.6c5.5-1.3,10.7-3.5,16.2-4.9
			c6.3-2,12.7-4.1,19.1-5.9c0.9-0.3,1.8-0.6,2.7-0.9c1.8-0.5,3.5-1.3,5.3-2.1c0.5-0.2,0.9-0.3,1.4-0.5c13.1-4.1,26.1-8.3,39.1-12.5
			C325.3,91,327.7,90,330.2,90.5z"/>
		<path class="st11" d="M312.7,78.5c3.4,1.6,6.6,3.5,8.8,6.8c0.3,2.3-1.5,2.7-3,3.2c-12.3,4.3-24.1,9.6-36.3,14.2
			c-0.4,0.2-0.8,0.3-1.3,0.4c-0.8,0.3-1.6,0.5-2.3,0.9c-0.4,0.2-0.7,0.3-1.1,0.4c-0.5,0.2-1.1,0.3-1.6,0.5c-0.3,0.2-0.7,0.3-1,0.5
			c-0.7,0.3-1.4,0.7-2.2,1.1c-0.4,0.2-0.8,0.4-1.2,0.5c-6,2.5-12.2,4.8-18.2,7.3c-5.1,1.5-10,3.5-14.9,5.3h0.1
			c-1.7,0.4-3,1.9-4.9,1.4c-0.7-0.3-1.2-0.8-1.4-1.6c0.6-2.5,3-3,4.8-3.9c5.9-2.9,12-5.5,17.9-8.6c3.9-1.7,7.9-3.1,11.5-5.5
			c0.8-0.4,1.5-0.7,2.3-1.1c0.4-0.2,0.8-0.4,1.1-0.6c0.8-0.4,1.6-0.8,2.3-1.3C285.8,92.1,299.3,85.4,312.7,78.5z"/>
		<path class="st9" d="M290.3,62.6c2.9,1.2,5.1,3.2,7.6,5.1c1,3.5-1.9,4.6-4,6c-16.3,11.4-32.7,22.6-49,33.9c-1.4,0.9-2.7,1.9-3.9,3
			c-1.1,0.9-2.2,1.7-3.3,2.5c-3.5,1.6-6.2,4.3-9.4,6.2c-1.9,1.1-3.7,2.6-5.8,3.5c-0.7,0.2-1.4,0.2-2-0.2c-0.3-0.4-0.3-0.8,0.1-1.2
			l0,0c0.6-0.6,0.8-1.5,1.4-2.2c0.3-0.3,0.7-0.6,1-0.9c3.5-2.4,6.7-5.2,9.8-8.1c0.8-0.7,1.6-1.5,2.4-2.2c0.7-0.5,1.3-1.1,1.9-1.8
			c0.3-0.3,0.7-0.6,1.1-0.8c15.9-13.1,31.6-26.4,47.3-39.8C286.8,64.3,288.3,62.9,290.3,62.6z"/>
		<path class="st12" d="M262.5,160.9c-0.1-10.2,7.2-18.1,17-18.3s17.5,7.9,17.5,18.3c0,10.2-7.6,18.1-17.2,18.1
			C270.1,179,262.6,171.1,262.5,160.9z"/>
		<path class="st12" d="M304.3,160.9c0-4.6-0.1-9.3,0-13.9c0-1.2-0.8-3,1.1-3.3c1.7-0.3,3.7-0.8,5.2,0.7c0.7,0.7,1.2,1.6,1.8,2.4
			c4.6,6.1,9.2,12.1,13.9,18.1c0.4,0.6,1,1.6,1.9,1c0.4-0.2,0.4-1.2,0.4-1.8c0-5.5,0-10.9,0-16.4c0-0.8,0-1.7,0-2.5
			c0-0.9,0.4-1.6,1.4-1.6c0.9,0,1,0.7,1,1.4c0.1,0.7,0.1,1.3,0.1,2c0,9.3,0,18.6,0,27.8c0,1.1,0.8,2.8-1.1,3.3
			c-1.6,0.4-2.3-0.9-3.1-2c-5.4-7.1-10.9-14.2-16.3-21.3c-0.5-0.7-0.9-1.4-1.5-2c-0.4-0.5-0.7-1.3-1.5-1s-0.5,1.1-0.5,1.6
			c0,6.8,0.1,13.6-0.1,20.4c0,1.4,1.5,4.3-1.5,4.2c-2.4-0.1-1.1-2.7-1.2-4.1C304.2,169.5,304.3,165.2,304.3,160.9z"/>
		<path class="st13" d="M303.2,118c-1.6,0.5-3.2,0.3-4.9,0.3c-5.6-0.1-11.1,0.9-16.6,1.8c-1.9,0.3-4.3,1.3-5.5-1.5
			c0.1-0.5,0.3-0.9,0.6-1.3c1.3-1.1,3.1-0.9,4.6-1.4c0.4-0.1,0.8-0.2,1.3-0.3c1.2-0.2,2.5-0.4,3.7-0.9c0.8-0.2,1.6-0.4,2.5-0.6
			c0.6-0.2,1.2-0.4,1.9-0.5c0.9-0.2,1.7-0.3,2.6-0.4c1.3,0,2.6-0.1,3.8-0.5c0.9-0.2,1.7-0.4,2.6-0.6c0.7-0.2,1.3-0.4,2-0.5
			c0.9-0.2,1.8-0.3,2.8-0.4c1.5,0,2.9-0.3,4.2-0.9c10.4-2.7,21-3.9,31.5-6c1.8-0.4,3.5-0.9,5.3-1.1c0.5-0.1,1-0.1,1.5,0
			c0.5,0,1,0.1,1.5,0.4c2.9,1.6,5.7,3.3,8,5.8c-1.3,1.8-3.2,1.9-5.2,2.2c-11,1.7-22.2,1.8-33.1,4.5c-0.6,0.1-1.3,0.1-1.9,0.2
			C311.7,115.8,307.4,116.7,303.2,118z"/>
		<path class="st14" d="M48.9,160.8c0-4.6,0.1-9.3,0-13.9c-0.1-2.4,0.4-3.6,3.2-3.4c3.6,0.3,7.3-0.1,10.9,0.1
			c5.7,0.3,9.3,3.3,10.1,8.4c1.1,6.5-2,10.6-8.6,11.3c-2.3,0.3-4.6,0.3-7,0.2c-1.9,0-2.6,0.8-2.6,2.7c0.1,3.1-0.1,6.3,0.1,9.4
			c0.1,2.5-1.3,2.6-3.1,2.5c-1.7,0-3.3,0.2-3.2-2.4C49,170.7,48.9,165.7,48.9,160.8z"/>
		<path class="st9" d="M267.4,101.7c-3.6,2.8-7.7,4.5-12,5.8c-1.1,0.7-2.2,0.7-3.3-0.1c-0.4-0.6-0.5-1.3-0.5-2
			c0.1-0.4,0.3-0.8,0.6-1.2c0.7-0.5,1.5-0.8,2.2-1.1c0.3-0.2,0.7-0.3,1-0.5c0.7-0.3,1.3-0.7,1.9-1.1c0.3-0.2,0.6-0.4,0.9-0.6
			c0.5-0.3,1-0.5,1.5-0.7c0.3-0.2,0.7-0.4,1-0.5c0.5-0.3,1-0.6,1.5-0.9c0.3-0.3,0.7-0.5,1.1-0.7c5.2-3.1,10.4-6,15.5-9.1
			c1.4-0.7,2.8-1.3,4-2.2c1.4-1,3-1.7,4.7-2.4c0.6-0.3,1.2-0.7,1.7-1.1c4.3-3.4,9.2-5.7,13.8-8.6c1.4-0.9,2.8-0.9,4.3-0.5
			c1.9,1.3,4,2.3,5.4,4.3c-0.5,3.1-3.5,3.3-5.5,4.3c-11.5,5.7-23.1,11.1-34.7,16.7c-0.3,0.1-0.6,0.1-1,0.1c-0.7,0.5-1.6,0.3-2.2,1
			l0,0C268.8,101.1,267.8,100.9,267.4,101.7z"/>
		<path class="st14" d="M248.4,145.2c-0.8,0-1.7-0.2-2.5-0.1c-2.8,0.3-4.8,2-5.4,4.4c-0.6,2.7,0.1,4.8,2.8,6.3
			c2.3,1.3,4.8,2.1,7.2,3.4c4.9,2.6,6.7,5.7,6.1,10.8c-0.5,4.3-4,7.8-9,8.7c-4.5,0.8-8.6,0.1-11.7-3.6c-0.5-0.6-1.1-1.3-0.1-2.1
			c0.8-0.7,1.4-0.5,2,0.3c1.7,2.3,4,3.3,6.9,3c2.6-0.2,4.4-1.6,5.3-3.8c0.9-2.2,0.6-4.6-1.1-6.5c-1.1-1.3-2.6-2.1-4.1-2.8
			c-1.7-0.7-3.4-1.3-5-2.1c-4.4-2.2-5.9-4.8-5.5-9.5c0.4-4.3,3-6.9,6.8-8.3c2.3-0.8,4.8-1.3,7.3,0C249,143.9,249,144.6,248.4,145.2z
			"/>
		<path class="st14" d="M409,145.2c-1.2,0-2.3-0.1-3.5,0.1c-2.4,0.4-3.7,2.1-4.3,4.3c-0.6,2.3,0.1,4.2,2,5.7
			c2.3,1.7,5.1,2.4,7.6,3.7c3,1.6,5.6,3.3,6.3,7.1c1.5,8.5-5,12.6-10.9,12.8c-3,0.1-5.9-0.4-8.3-2.6c-0.1-1.9,0.9-1.8,2.1-1.2
			c5.4,2.1,9.1,1.2,10.7-2.5c1.6-3.8-0.4-7.2-5.6-9.5c-1.5-0.7-3.1-1.2-4.6-1.9c-4.4-2.2-6-4.9-5.6-9.5c0.3-4,3.1-7.3,7.3-8.5
			c2.2-0.6,4.5-1.1,6.8,0.1C409.6,143.9,409.6,144.6,409,145.2z"/>
		<path class="st12" d="M379,144.9c-8.2-1.2-13,2-15.1,9.8c-1.1,4.3-1,8.5,0.3,12.7c1.3,4.1,3.6,7.6,8.2,8.6
			c4.9,1.1,9.1-0.2,12.7-3.9c0.9-0.9,1.3-3.6,2.9-2.4c1.8,1.4-0.6,2.9-1.5,3.9c-8,9.4-24.3,5.9-28.9-6.1c-2.6-6.9-1.5-13.5,3.5-18.9
			c4.8-5.3,10.9-7.2,18-5.1C379.4,144,379.4,144.5,379,144.9z"/>
		<path class="st12" d="M201.5,173.9c3.7-9.7,7.5-19.4,11.3-29c0.2-0.4,0.6-1,0.9-1.1c1-0.3,0.7,0.8,0.9,1.2
			c4.1,9.9,8.2,19.8,12.3,29.7c0.4,1,1.3,2.1,0.3,3.1c-0.8,0.9-5.3,0.1-5.8-1c-0.7-1.5-1.5-3-1.9-4.6c-0.7-2.8-2.4-3.7-5.1-3.3
			c-0.8,0.1-1.7,0.1-2.5,0c-4.4-0.8-7.2,0.7-8.3,5.1C202.9,174.5,202.2,174.4,201.5,173.9z"/>
		<path class="st7" d="M80.7,160.8c0-4.6,0.1-9.3,0-13.9c-0.1-2.4,0.4-3.6,3.2-3.5c4.6,0.3,9.3,0,13.9,0.1c1,0,2.8-0.6,2.7,1.1
			c-0.1,1.5-1.9,0.7-2.9,0.8c-2.8,0.1-5.6,0.1-8.5,0c-1.7-0.1-2.5,0.6-2.3,2.3c0,0.2,0,0.3,0,0.5c0.1,3.5-1.1,7.7,0.6,10.1
			c1.6,2.4,6.2,0.5,9.4,0.8c0.5,0.1,1,0,1.5,0c0.6,0.1,1.4,0,1.4,1s-0.8,1-1.4,1c-3,0.1-6,0.1-9,0c-1.9-0.1-2.7,0.6-2.6,2.5
			c0.1,3.3,0.1,6.6,0,9.9c-0.1,2,0.8,2.5,2.7,2.5c3.3-0.1,6.6,0,10,0c0.6,0,1.4-0.1,1.3,1c-0.1,0.9-0.8,0.9-1.4,0.9
			c-5.5,0-10.9,0-16.4,0.1c-1.8,0-2.2-0.8-2.2-2.4C80.7,170.7,80.7,165.8,80.7,160.8z"/>
		<path class="st15" d="M280.4,102.5c6.8-3.7,14.2-5.9,21.3-8.9c5.7-2.4,11.6-4.5,17.5-6.7c0.9-0.4,1.9-0.6,2.4-1.7
			c3.7,0.5,6,3.2,8.7,5.3c-5.4,2.5-11.2,3.8-16.8,5.8c-9,3.1-18.1,5.8-27.2,8.7c-0.9,0.3-1.9,0.4-2.9,0.6
			C282.5,104.4,281.1,103.8,280.4,102.5z"/>
		<path class="st12" d="M129.2,144.6c-9-0.3-13.1,3-14.8,11.8c-0.9,4.2-0.5,8.2,1.1,12.1c2.9,7.3,9.6,9.9,16.6,6.5
			c0.6-0.3,1.1-0.7,1.7-1.1c0.8-0.6,1.7-0.5,2.1,0.3c0.3,0.6-0.2,1.2-0.8,1.6c-4,2.8-8.5,3.7-13.2,2.8c-10.4-2.2-16.5-11.9-14-22.5
			c2.3-9.8,12.3-15.3,22.8-12.5C130.6,144.5,130.1,144.9,129.2,144.6z"/>
		<path class="st16" d="M240.1,110.1c1.9-2.8,5-4.2,7.7-6c15.3-10.7,30.7-21.2,46-31.8c1.7-1.2,4-2,4.1-4.6c2.1,1,3.9,2.3,5.4,4
			c-0.5,4.1-4.3,5-7,6.8c-4.6,3.1-10,5.1-13.8,9.3c-1.2,0.7-2.7,0.6-3.9,1.5c-5.3,3.5-11.2,6.2-16.1,10.3l0,0c-0.5,0.6-1.5,0.4-2,1
			l0,0c-0.6,0.5-1.5,0.3-2,1l0,0c-1,0.7-2.2,0.9-3,2l0,0c-0.8,0.8-2.2,0-2.9,1l0,0c-0.7,0.4-1,1.2-1.5,1.9c-0.3,0.3-0.6,0.6-1,0.7
			c-0.9,0.4-1.9,0.8-2.7,1.4c-0.3,0.2-0.7,0.4-1.1,0.6c-0.7,0.3-1.4,0.7-2,1.2c-0.3,0.3-0.7,0.5-1,0.6c-0.8,0.3-1.6,0.3-2.4,0
			C240.3,110.9,240.1,110.6,240.1,110.1z"/>
		<path class="st9" d="M279.3,121.4c-1.7,2.9-4.4,3.1-7.3,3c-2.5-0.1-4.7,0.1-4.7,3.5c0,1.3-1,1.5-2.1,1.5c-1.7,0-3.3,0-5,0
			c-1.3,0-1.8,0.7-1.8,1.8c-13,0.2-25.9,0.3-38.9-0.1c-0.5-0.8-0.3-1.5,0.3-2.1c2.3-1.5,5.4-0.3,7.7-2.2c8-2.3,16.4-2.2,24.5-3.6
			c7.5-1.3,15.1-2.2,22.7-2.7C276.3,120.3,278,120.1,279.3,121.4z"/>
		<path class="st12" d="M176.6,143.7c3.1-0.5,6.3-0.3,9.4-0.2c5.5,0.3,9.3,4.2,9.4,9.7c0.1,3.8-1.8,7.1-6.6,8
			c-2.2,0.4-2.3,1.3-1.3,3c2.3,3.8,4.5,7.7,6.7,11.6c0.7,1.2,1.3,2.2-1.1,2.3c-3.2,0.2-5.2-0.5-6.6-3.7c-1.8-4.1-4-8-6.2-11.8
			c-1-1.8-0.6-2.2,1.3-2.4c3.6-0.2,6.4-1.7,7.2-5.6c1.1-5-1.6-9-6.7-9.5c-1.8-0.2-3.7-0.3-5.4,0.3
			C176.1,144.9,176.1,144.3,176.6,143.7z"/>
		<path class="st17" d="M290.3,62.6c-4.5,4.8-9.8,8.6-14.8,12.9c-5.4,4.7-11.1,9.3-16.6,14c-6.7,5.6-13.3,11.2-20,16.8
			c-0.3,0.3-0.9,0.2-1.4,0.3c-0.6-0.7-0.7-1.4-0.1-2.1l0,0c0.6-0.8,1.3-1.4,2-2l0,0c9.9-10,20.7-19.1,30.4-29.4
			c4.1-4.3,9.2-7.7,13.2-12.1c0.9-0.9,1.9-1.9,3.5-1.4C287.8,60.4,289.4,61,290.3,62.6z"/>
		<path class="st7" d="M150.6,161.5c0-4.3-0.1-8.6,0-12.9c0.1-2.3-0.7-3.4-3.1-3.2c-0.8,0.1-1.7,0-2.5,0c-0.6,0-1.4,0-1.2-1
			c0.1-0.6,0.6-0.8,1.1-0.8c5.8,0,11.6,0,17.4,0c0.5,0,1,0.2,1.1,0.7c0.2,1-0.6,1-1.2,1.1c-1.7,0.4-4.2-0.9-5.1,0.8
			c-0.8,1.6-0.4,3.8-0.4,5.8c0,7.6,0,15.2,0,22.8c0,2.8-2.8,4.4-5.3,3.2c-1.2-0.6-0.8-1.7-0.8-2.6
			C150.5,170.7,150.6,166.1,150.6,161.5z"/>
		<path class="st7" d="M176.6,143.7c0,0.6,0.1,1.2,0.1,1.8c0,9.8,0.1,19.5,0.1,29.3c0,2.8-2.7,4.4-5.3,3.2c-0.9-0.4-0.9-1.3-0.9-2.1
			c0-9.9,0-19.9,0-29.8c0-1.9,0.6-2.8,2.6-2.6C174.3,143.6,175.4,143.6,176.6,143.7z"/>
		<path class="st7" d="M348.2,161.1c0,4.8-0.1,9.6,0,14.4c0.1,2.5-1.3,2.5-3.1,2.5c-1.8,0-3.2,0.1-3.2-2.5c0.1-9.9,0.1-19.9,0-29.8
			c0-2.7,1.7-2.3,3.4-2.3c1.6,0,2.9,0,2.9,2.2C348.1,150.9,348.2,156,348.2,161.1z"/>
		<path class="st4" d="M293.2,109.3c0.2-0.1,0.4-0.2,0.7-0.1c10.7-1.7,21-5.4,31.7-7.4c5.3-1,10.2-3.5,15.7-3.4
			c2.2,1,4.1,2.4,5.9,4.1c0.2,0.2,0.3,0.5,0.3,0.7c0,0.3-0.1,0.4-0.1,0.4h-0.1c-14.3,2.4-28.6,4.6-42.7,7.9c-3.3,0.9-7,0.2-10.1,2.1
			c-0.5,0.2-1.1,0.3-1.6,0.2c-1.8-0.2-3.5,0.6-5.3,0.4c-1-0.1-2.1-0.4-2.2-1.5c0-1.1,0.9-1.6,2-1.8
			C289.3,110.7,291.5,110.8,293.2,109.3z"/>
		<path class="st2" d="M180.6,131.1c0-0.5-0.2-1.1,0.1-1.4c2.1-2.7,2.9-6,3.9-9.2c8.8,2.4,17.4,5.7,26,8.7c0.4-0.3,0.8-0.3,1.2,0
			c0.4,1.1-0.3,1.6-1.2,2C200.5,131.3,190.5,131.5,180.6,131.1z"/>
		<path class="st18" d="M286.4,59.6c-9.5,8.2-18.6,16.9-27.4,25.8c-5.5,5.5-11.7,10.2-17,16c-0.7,0.8-1.6,1.2-2.6,1.1
			c0.4-3.2,3.8-4.2,5.1-6.8c0.3-1.1,1.1-1.6,2-2.1l0,0c0.3-0.4,0.6-0.7,1-1l0,0c0.3-0.4,0.7-0.7,1-1l0,0
			c7.9-6.8,14.8-14.6,22.3-21.8c3.2-3.1,6.3-6.3,9.5-9.5c1-1,2.4-1.9,2.2-3.7C283.9,57.5,285.4,58.2,286.4,59.6z"/>
		<path class="st19" d="M282.3,87.4c0.2-2.1,1.8-2.9,3.3-3.9c5.2-3.6,11.1-6.1,16.2-10c0.7-0.5,1.3-1,1.6-1.8c1.5,0.7,2.9,1.4,4,2.6
			c-2.2,0.2-3.9,1.6-5.6,2.7c-4.1,2.6-8.6,4.5-12.4,7.6c-0.4,0.4-0.8,0.8-1.4,0.9c-1.8,0.2-3,1.5-4.6,2.1
			C282.9,88.1,282.5,88,282.3,87.4z"/>
		<path class="st20" d="M318.1,116.1c2.2-2.7,5.3-2.4,8.3-2.7c8.6-0.9,17.2-1.9,25.8-3c1.4-0.2,2.9-0.7,4.3-1.1
			c1.1,0.2,2,0.9,2.7,1.7c-9.1,1.8-18.2,2.8-27.4,3.5c-2.9,0.3-5.9,0.8-8.8,1.4C321.4,116.3,319.8,116.5,318.1,116.1z"/>
		<path class="st21" d="M341.3,98.5c-12.3,3.6-24.9,6.2-37.3,9.3c-3.4,0.8-6.5,2.3-10,1.5c8-3.1,16.5-4.3,24.7-6.6
			c6-1.7,12.2-2.9,18.3-4.3c0.9-0.2,1.5-0.7,2-1.3C339.7,97.5,340.9,97.3,341.3,98.5z"/>
		<path class="st19" d="M297.1,197.5c0,1.8,0.1,3.6-0.5,5.4c-0.6,2-1.6,3.1-3.8,3.2c-2.4,0.1-4-1.2-4.3-3.3
			c-0.4-3.3-0.2-6.6-0.1-9.9c0-0.4,0.3-0.9,1-0.7c0.6,0.1,0.8,0.6,0.8,1.1c0.1,2.6,0.1,5.3,0.1,7.9c0,1.6,0.3,3.1,2.3,3
			c1.9-0.1,2.5-1.3,2.6-3c0-2.5,0-4.9,0.1-7.4c0-0.6-0.1-1.4,0.8-1.5c0.8-0.1,1.1,0.6,1.1,1.3C297.1,194.9,297.1,196.2,297.1,197.5z
			"/>
		<path class="st19" d="M416.3,203c-0.2-2.3-1.8-3.2-3.6-4.3c-1.6-0.9-2.8-2.4-2.3-4.4c0.3-1.5,1.2-2.7,2.8-3.1
			c1.6-0.5,2.9,0.2,3.9,1.4c0.5,0.6,1.2,1.4,0.4,2.1c-0.9,0.8-1.3-0.2-1.8-0.8c-1.1-1.3-2.4-1.1-3.3,0.1c-0.9,1.2-0.1,2.1,0.9,2.9
			c1.8,1.5,4.8,1.9,4.6,5.2C417.5,202.6,417.1,203.2,416.3,203z"/>
		<path class="st19" d="M323.1,196.1c-1.6,1.6-1.4,3.9-2.3,5.7c-0.6,1.3-0.3,3.5-2,3.6c-1.9,0.1-1.5-2.1-2-3.4
			c-0.6-1.7-0.9-3.4-1.4-5.1c0.1-0.4,0.3-0.7,0.8-0.9c1.7,1.5,0.9,4.1,2.6,5.6c2.1-2.5,1.6-6,3.4-8.6c1,0.6,1.3,1.5,1.3,2.6
			C323.4,195.8,323.2,196,323.1,196.1z"/>
		<path class="st22" d="M390.4,199.4c0-1.5,0-2.9,0-4.4c0-1.1-0.3-1.9-1.6-2c-0.4,0-1.3-0.4-1.2-0.5c0.2-0.8,0.9-0.6,1.5-0.6
			c1.3,0,2.6,0,3.9,0c0.8,0,2.2-0.1,2.2,0.4c0.1,0.9-1.2,0.6-1.9,0.7c-1.4,0.2-1.2,1.3-1.3,2.2c0,2.9,0,5.9,0,8.8c0,0.4,0,1-0.5,1.1
			c-0.6,0.1-0.9-0.5-0.9-0.9c-0.1-1.6,0-3.3,0-4.9C390.5,199.4,390.5,199.4,390.4,199.4z"/>
		<path class="st22" d="M271.4,198c0,0.3,0,0.6,0,0.9c0,0.5-0.2,0.7-0.7,0.6c-2.2-0.7-4-0.8-3.8,2.4c0.1,1-0.2,1.9-0.3,2.9
			c0,0.2-0.5,0.5-0.7,0.5s-0.5-0.4-0.5-0.6c0-3.8-0.1-7.6-0.1-11.3c0-1.3,1-1.6,2-1.6c1.3,0.1,2.6,0.3,3.9,0.5
			c0.2,0.8-0.3,1.3-0.9,1.6c-3.2,1.2-2.1,2.3,0.1,3.3C270.9,197.4,271.2,197.7,271.4,198z"/>
		<path class="st19" d="M90.9,193.1c0.6-1.6,1.5-1.2,1.7,0c0.3,2.4,0.1,4.9,0.2,7.4c0.1,1.4-0.5,3.1,1.6,3.7c2,0.5,2.5-1.2,3.5-2.1
			c0.3-0.5,0.7-0.5,1,0c-0.7,3.4-1.5,4.2-4.1,4c-2.5-0.2-3.3-1.3-3.8-5.1C91.6,198.3,91.6,195.7,90.9,193.1z"/>
		<path class="st22" d="M49.9,199c-1.6,0-3.1,0-2.9,2.3c0.1,1.3,0,2.6-0.6,3.9c-0.8-4-0.7-8.1-0.6-12.1c0-0.4,0.5-1,0.8-1
			c1.8-0.2,3.8-0.7,5.3,0.4c1.6,1.1,1.3,2.9,0.6,4.5c-0.4,0.3-0.8,0.3-1.2-0.1c-0.7-0.6-1.7-2.2-2.2-1.5c-1.1,1.6,1.4,1.6,1.8,2.7
			C51.1,198.9,50.8,199.3,49.9,199z"/>
		<path class="st22" d="M27.8,198.4c0.4-2-0.5-4.2,0.7-6.1c2.2,1.8,0.8,4.2,0.9,6.3s1,4.5-0.7,6.5C27.1,203.1,28.4,200.6,27.8,198.4
			z"/>
		<path class="st22" d="M341.3,204.9c-0.1-3.3,0-6.6-0.3-9.8c-0.2-2.7,0.9-3.5,3.4-3.2c1.1,0.1,2.3-0.3,3.2,0.6
			c-0.7,0.7-1.5,0.5-2.3,0.5c-1.5,0-3-0.2-3,2.1c0,1.8,0.6,2.8,2.5,2.8c0.6,0,1.8-0.4,1.8,0.7c0,0.5-1.1,0.4-1.8,0.4
			c-3.7,0-2.2,2.8-2.5,4.7C342.6,204.7,342.3,205.1,341.3,204.9z"/>
		<path class="st19" d="M72.9,193.1c0,3.6-0.1,7.2-0.1,10.8c0,0.8-0.1,1.8-1.2,1.6c-0.7-0.1-0.7-1-0.7-1.6c0-3.6-0.1-7.2-0.1-10.8
			C71.5,192.5,72.2,192.5,72.9,193.1z"/>
		<path class="st19" d="M247.5,193.1c0,3.6,0,7.2-0.1,10.8c0,0.8,0,1.8-1.2,1.6c-0.7-0.1-0.8-0.9-0.8-1.6c0-3.6-0.1-7.2-0.1-10.8
			C246,192.4,246.7,192.4,247.5,193.1z"/>
		<path class="st15" d="M129.2,144.6c0.5-0.3,0.9-0.7,1.4-1c3,0.7,5.2,2.6,7.2,4.7c0.4,0.5,0.9,1.1,0.4,1.7
			c-0.7,0.7-1.5,0.6-2.1-0.1C134.3,147.5,131.8,145.9,129.2,144.6z"/>
		<path class="st15" d="M379,144.9c0-0.5,0-1,0.1-1.5c3.3,0.4,5.6,2.5,7.8,4.8c0.4,0.4,1,1.1,0.5,1.7c-0.7,0.8-1.6,0.5-2.2-0.2
			C383.4,147.7,381.4,146.1,379,144.9z"/>
		<path class="st22" d="M368.9,200c1,1.3,1.9,1.4,2-0.5c0.2-2.4-0.3-4.9,0.6-7.2c0.9,3.9,0.5,7.9,0.5,11.9c0,0.6-0.1,1.4-1,1.4
			c-0.7,0.1-1.3-0.4-1.5-1c-0.6-1.5-1.1-3-1.7-4.6C368.3,199.7,368.6,199.7,368.9,200z"/>
		<path class="st19" d="M196.7,195.2c0,3-0.1,5.9-0.1,8.9c0,0.5,0.1,1.4-0.9,1.4c-0.6,0-0.9-0.5-0.9-1c0.3-4.1-1.1-8.3,0.8-12.3
			c0.7,0.7,1.1,1.4,1.1,2.4C196.7,194.8,196.7,195,196.7,195.2z"/>
		<path class="st19" d="M324.2,192c1.1,0.2,1,1.1,1,1.9c0,3.1,0,6.2,0,9.3c0,0.8,0.4,2.3-1,2.2c-1.3-0.1-0.9-1.5-0.9-2.4
			c-0.1-2.3-0.1-4.6-0.2-6.8l0.2-0.3C323.6,194.5,322.9,193,324.2,192z"/>
		<path class="st15" d="M409,145.2c0-0.6,0-1.3,0-1.9c2.9,0.1,4.7,2,6.5,4c0.4,0.5,0.7,1.1,0.1,1.7c-0.7,0.7-1.5,0.7-2.1-0.1
			C412.3,147.2,410.8,146,409,145.2z"/>
		<path class="st19" d="M9,201.8c0.7-2.8,1.4-5.7,2-8.5c0.2-0.9,0.7-1.7,1.5-1.5c0.7,0.1,0.5,1.1,0.3,1.7c-1.5,3.7-1.4,8-3.7,11.4
			C8.1,203.9,8.3,202.9,9,201.8z"/>
		<path class="st15" d="M248.4,145.2c0-0.6,0-1.3,0-1.9c2.9,0.1,4.7,1.9,6.4,4c0.4,0.5,0.8,1.1,0.2,1.7c-0.7,0.7-1.6,0.7-2.1-0.1
			C251.7,147.3,250.1,146.1,248.4,145.2z"/>
		<path class="st22" d="M316.2,196c-0.3,0.3-0.5,0.6-0.8,0.9c-1.1-1.1-1.2-0.3-1.3,0.6c-0.4,2.5,0.9,5.1-0.9,7.4
			c-0.8-4.3-0.8-8.6,0-12.8C316.4,191.8,316.1,194.1,316.2,196z"/>
		<path class="st19" d="M6.8,203.2c-1.5-3.1-2.4-6.4-3-9.7c-0.1-0.5-0.4-1.1,0.1-1.3c0.7-0.3,1.2,0.2,1.4,0.9c0.9,3,1.7,5.9,2.6,8.9
			C7.9,202.7,7.5,203.1,6.8,203.2z"/>
		<path class="st19" d="M202.5,201.9c0-2.8,0.1-5.6,0.1-8.4c0-0.6,0-1.4,1-1.3c0.9,0.1,0.8,0.9,0.8,1.5c-0.1,2.8,0.3,5.6-0.3,8.3
			C203.6,202.5,203,202.5,202.5,201.9z"/>
		<path class="st22" d="M225.8,201c-1-0.7-2-1.6-3.1-2.2c-2.3-1.3-3-3.2-2-5.6c0.9-0.2,1.2,0.1,0.9,1c0,2.2,1.6,3,3.2,3.9
			c2.3,1.3,3.3,3.1,2.5,5.8C225,203.8,226.4,201.9,225.8,201z"/>
		<path class="st19" d="M225.8,201c1.3,0.6,0.1,2.3,1.4,2.9c-0.7,2.3-2.5,2.2-4.3,2.1c-1.5-0.1-2.4-1-2.9-2.3
			c-0.2-0.4-0.3-1-0.1-1.3c0.5-0.6,1-0.2,1.5,0.2C224.5,204.9,224.9,204.8,225.8,201z"/>
		<path class="st19" d="M201.2,203.4c-2.3-2.3-2.1-6-4.5-8.2l-0.2-0.3c-0.2-1,0.2-1.6,1.2-2c1.9,2.7,3,5.8,4,8.9
			C201.9,202.5,201.8,203,201.2,203.4z"/>
		<path class="st22" d="M364.2,196.3c0,2.9,0,5.8,0,8.8c-0.4,0-0.8,0-1.1,0c0-3.7,0-7.4,0-11.1c0-1,0.1-2,1.5-2c1.3,0,1.5,1,1.7,2
			c-0.1,0.2-0.2,0.4-0.3,0.6C365.4,195.2,364.5,195.5,364.2,196.3z"/>
		<path class="st19" d="M49.9,199c0.7-0.3,1-0.8,0.9-1.5c0.1-0.3,0.4-0.5,0.7-0.6c0.4,0,0.7,0,1.1,0c-0.9,1.6,0.7,3.1,0.4,4.6
			c-0.3,1.3,1.4,3.3-0.6,3.7c-1,0.2-1.1-2-1.3-3.2C51,200.9,50.7,199.9,49.9,199z"/>
		<path class="st3" d="M146.5,62.5c-0.6,2.5,2.3,3.9,2.1,6.3c-1.3-0.4-2-1.6-3-2.3C143.1,64.6,144.5,63.5,146.5,62.5z"/>
		<path class="st19" d="M119.7,192.1c2,2.6,2.5,5.7,3.1,8.8c-0.2,0.2-0.4,0.3-0.6,0.5c-0.8,0.1-1.5,0-2-0.7c-1-2.1-1.6-4.2-1.4-6.6
			C118.8,193.4,119.2,192.7,119.7,192.1z"/>
		<path class="st22" d="M178.7,205.1c-1.6-3.9-1.2-7.9-1.2-12c0-0.3,0.4-0.8,0.5-0.8c0.5,0.1,0.7,0.5,0.7,1
			C178.7,197.3,178.7,201.2,178.7,205.1z"/>
		<path class="st19" d="M313.3,192.1c0,4.3,0,8.6,0,12.8C312,201.5,312,195.5,313.3,192.1z"/>
		<path class="st15" d="M201.5,173.9c0.7,0.1,1.4,0.2,2.1,0.2c-0.2,0.8-0.3,1.6-0.6,2.4c-0.4,1.3-1.3,2-2.6,1.4
			c-1.4-0.7,0-1.6,0.1-2.4C200.5,174.9,200.9,174.3,201.5,173.9z"/>
		<path class="st22" d="M139.7,205c-0.7-3.6-0.2-7.2-0.3-10.8c0-0.7,0.1-1.7,0.6-1.7c1,0.1,0.7,1.2,0.7,2c0,3.1,0.1,6.3,0.1,9.4
			C141,204.8,140.7,205.2,139.7,205z"/>
		<path class="st19" d="M341.3,204.9c0.6-0.2,0.9-0.6,1-1.2c0.2,0,0.3,0,0.5,0.1c1.6,0.6,3.6-0.6,5,0.9c0.1,0.1-0.1,0.8-0.3,0.8
			C345.4,205.8,343.2,206.9,341.3,204.9z"/>
		<path class="st19" d="M271.4,198c-0.5-0.1-0.9-0.2-1.4-0.2c-0.2-1.6-0.4-3.2,0.2-4.8c0.5-0.1,0.9-0.3,1-0.9
			C274,194.8,274,194.9,271.4,198z"/>
		<path class="st22" d="M271.5,198.9c0.7,0.3,1,0.8,1,1.5c0.1,1.7,1.6,4.5,0,4.7c-2.1,0.2-0.8-2.8-1.3-4.2c-0.2-0.4-0.3-0.9-0.4-1.4
			C271,199.3,271.2,199.1,271.5,198.9z"/>
		<path class="st22" d="M162.4,197.4c-0.1,1.7-1.2,1.6-2.2,1.6c-1.3,0-1.7-0.7-1.7-1.9c0.1-1.4,1.1-1.3,2.1-1.3
			C161.9,195.9,162.6,196.5,162.4,197.4z"/>
		<path class="st3" d="M219.5,129.4c0,0.6,0,1.1,0,1.7c-1.7,0-3.3,0-5,0.1c-1-0.4-1.7-1-0.9-2.1c0.8-0.6,1.7-0.7,2.7-0.8
			c1,0,1.9,0.1,2.7,0.6C219.2,129,219.3,129.2,219.5,129.4z"/>
		<path class="st19" d="M139.7,205c0.6-0.2,0.9-0.6,1.1-1.1c1.5,0.5,3.3-0.5,4.6,0.9c0.1,0.1-0.1,0.8-0.3,0.8
			C143.2,205.9,141.3,206.6,139.7,205z"/>
		<path class="st15" d="M400,175.1c-0.9,0.1-1.9,0-2.1,1.2c-0.5-0.4-1.1-0.7-1.5-1.2c-0.7-0.8-1-1.6,0.1-2.4c1-0.7,1.4-0.2,2,0.5
			C399,173.9,399.5,174.5,400,175.1z"/>
		<path class="st19" d="M122.8,200.9c0.2,0.3,0.6,0.5,0.5,0.8c0,1.3,2,3.1,0.2,3.7c-1.4,0.5-1.7-1.9-2.1-3.2c0-0.6,0.7-0.7,1.1-1
			L122.8,200.9z"/>
		<path class="st19" d="M368.9,200c-0.3,0-0.7,0-1,0c-1.1-1.1-1.7-2.4-1.8-3.8c-0.5-0.7-0.6-1.4-0.2-2.1l0.4-0.1
			C367.6,195.8,368.6,197.8,368.9,200z"/>
		<path class="st22" d="M98.8,202c-0.3,0-0.7,0-1,0c0-2.9,0-5.8,0-8.7c0-0.3,0.2-0.8,0.4-0.8c0.6-0.1,0.7,0.4,0.7,0.8
			C98.9,196.2,98.8,199.1,98.8,202z"/>
		<path class="st22" d="M416.3,203c0.5-0.3,1.1-0.7,1.6-1c-0.6,4.3-1.4,4.7-6,3.1c-0.1-0.5,0.2-0.7,0.6-0.5
			C414.1,204.8,415.5,204.8,416.3,203z"/>
		<path class="st19" d="M116.9,202.1c-1.4,0.7-0.8,3.8-2.2,3.2c-1.7-0.7,0.4-2.7,0.2-4.2c0-0.4,0.5-0.8,0.7-1.2
			c0.2,0.1,0.4,0.2,0.6,0.4C116.7,200.8,116.9,201.4,116.9,202.1z"/>
		<path class="st19" d="M115.7,199.9c0.1-2.2,0.8-4.1,1.9-5.9c0.4-0.3,0.8-0.4,1.3-0.1c-0.1,2.1,0.4,4.4-1.5,6.1
			c-0.4,0.3-0.9,0.3-1.4,0.1L115.7,199.9z"/>
		<path class="st22" d="M115.9,200.2c0.3-0.1,0.6-0.2,0.9-0.2c1.4-0.1,2.7-0.2,3.8,0.9c0.7,0.1,1.3,0.2,2,0.3
			c-0.1,0.6-0.5,0.9-1.1,1c-1.5,0-3,0-4.6-0.1C115.9,201.8,115.7,201.1,115.9,200.2z"/>
		<path class="st22" d="M247.5,193.1c-0.7,0-1.5,0-2.2,0c-0.8-0.1-2.2-0.2-2.2-0.4c-0.2-1.4,1-0.7,1.6-0.7c1.1-0.1,2.3-0.1,3.4,0
			c0.6,0.1,1.7-0.6,1.6,0.7C249.7,192.9,248.3,192.9,247.5,193.1z"/>
		<path class="st19" d="M221.6,194.2c-0.3-0.3-0.6-0.7-0.9-1c1.3-1.6,2.7-3.2,4.9-1.2c-0.1,0.6-0.6,0.7-1.1,0.9
			C223.4,192.9,222.4,193.5,221.6,194.2z"/>
		<path class="st22" d="M90.9,193.1c1.4,2.6,1.4,5.3,0,7.9C90.9,198.3,90.9,195.7,90.9,193.1z"/>
		<path class="st22" d="M6.8,203.2c0.4-0.4,0.8-0.8,1.1-1.2c0.3-0.1,0.7-0.1,1-0.2c0,1,0,2.1,0,3.1C7.3,206,7.3,206,6.8,203.2z"/>
		<path class="st22" d="M201.2,203.4c0.1-0.5,0.3-1.1,0.4-1.6c0.3,0.2,0.6,0.2,0.9,0.1c0.6,0,1.1,0.1,1.7,0.1c0,0.6,0,1.3,0,1.9
			c-0.1,0.4-0.3,0.8-0.5,1.1l0,0c-0.5,0.2-0.9,0.2-1.4,0.1C201.5,204.8,201.4,204.1,201.2,203.4z"/>
		<path class="st3" d="M206.4,11.8c0.2,2.9-1.6,3.3-3.9,3.2C203.6,13.6,204.9,12.5,206.4,11.8z"/>
		<path class="st22" d="M72.9,193.1c-0.7,0-1.5,0-2.2,0c-0.8-0.1-2.2-0.2-2.2-0.4c-0.2-1.4,1-0.7,1.6-0.7c1.1-0.1,2.3-0.1,3.4,0
			c0.6,0.1,1.8-0.6,1.6,0.7C75.1,192.9,73.7,193,72.9,193.1z"/>
		<path class="st16" d="M324.2,192c-0.3,1.3,0.9,2.9-0.9,3.8c-0.7-0.8-1.1-1.7-1.1-2.8C322.4,191.8,323.3,191.9,324.2,192z"/>
		<path class="st22" d="M224.5,192.8c0.4-0.3,0.7-0.6,1.1-0.9c0.5,0.4,1.2,0.6,1.6,1.1c0.4,0.5,0.5,1.4-0.1,1.8
			c-0.6,0.3-1.1-0.4-1.5-0.9C225.3,193.5,224.9,193.2,224.5,192.8z"/>
		<path class="st3" d="M160.6,50.6c0.1,2.4-1.2,3.3-3.5,3C158,52.3,159.1,51.3,160.6,50.6z"/>
		<path class="st2" d="M181.6,119.4c0,0.5,0,1,0,1.4c-0.1,0.6-0.2,1.4-1.1,1.2c-0.5-0.1-0.8-0.5-0.8-1c0-0.8-0.1-1.6-0.1-2.4
			C180.4,118.5,181,119,181.6,119.4z"/>
		<path class="st4" d="M213.5,129.5c0.3,0.6,0.6,1.1,1,1.7c-1.3,0.3-2.7,0.3-4,0c0.3-0.5,0.6-1,0.9-1.5c0.1-0.5,0.5-0.7,1-0.8
			C212.9,128.9,213.3,129.1,213.5,129.5z"/>
		<path class="st22" d="M411.9,205.1c-0.4-0.3-0.9-0.5-1.2-0.8c-0.6-0.6-1.1-1.6-0.1-2s1.2,0.8,1.5,1.5c0.1,0.3,0.3,0.6,0.4,0.9
			C412.3,204.7,412.1,204.9,411.9,205.1z"/>
		<path class="st22" d="M197.6,192.9c-0.4,0.7-0.8,1.3-1.2,2c-1.4-0.5-0.7-1.8-0.9-2.7C196.5,191.8,197.2,191.9,197.6,192.9z"/>
		<path class="st22" d="M119,194.2c-0.5-0.1-0.9-0.2-1.4-0.2c0.1-1.3,0.4-2.4,2.1-1.8c0,0.7,0,1.4-0.1,2.2
			C119.4,194.3,119.2,194.3,119,194.2z"/>
		<path class="st16" d="M365.9,194.1c0.1,0.7,0.1,1.4,0.2,2.1c-0.6,0-1.2,0.1-1.9,0.1C364,195,364.2,194,365.9,194.1z"/>
		<path class="st12" d="M139.3,170.1c0.3,0.7-0.1,1.1-0.5,1.2c-0.6,0.2-1.3,0-1.3-0.8c0-0.4,0.3-1.1,0.5-1.1
			C138.6,169.3,139.2,169.5,139.3,170.1z"/>
		<path class="st3" d="M149.7,108.5c-1.5,1.8-1.8,0.6-2-0.8C148.5,107.6,149.2,107.8,149.7,108.5z"/>
		<path class="st3" d="M166.5,45.6c0.2,1.7-0.5,2.4-2.2,1.8C164.8,46.6,165.5,45.9,166.5,45.6z"/>
		<path class="st19" d="M212.5,129.3c-0.4,0.1-0.7,0.2-1.1,0.3c-0.3-0.2-0.6-0.3-0.9-0.5c0.4-0.3,0.8-0.5,1.2-0.8
			c0.2-0.1,0.5-0.1,0.7-0.1c0.3,0.2,0.4,0.4,0.3,0.6C212.6,129.2,212.6,129.3,212.5,129.3z"/>
		<path class="st3" d="M158.6,111.5c-0.3,0.3-0.7,0.7-1,0.7c-0.8-0.1-0.8-0.8-0.8-1.4C157.4,111.1,158,111.3,158.6,111.5z"/>
		<path class="st12" d="M171.4,41.5c0.1,1.3-0.9,1.2-1.7,1.3C170,42.1,170.6,41.7,171.4,41.5z"/>
		<path class="st3" d="M164.3,47.4c0.2,1.4-0.8,1.3-1.6,1.4C163,48.1,163.6,47.6,164.3,47.4z"/>
		<path class="st3" d="M158.1,77.8c0.9,0,1.4,0.5,1.4,1.4C159,78.7,158.6,78.2,158.1,77.8z"/>
		<path class="st3" d="M147.6,61.6c-0.1,0.7-0.5,1-1.1,1C146.6,62,147,61.7,147.6,61.6z"/>
		<path class="st3" d="M152.5,57.4c-0.1,0.8-0.6,1.2-1.4,1.2C151.6,58.2,152.1,57.8,152.5,57.4z"/>
		<path class="st3" d="M154.6,55.7c-0.1,0.6-0.5,1-1.2,1C153.6,56.1,154,55.8,154.6,55.7z"/>
		<path class="st14" d="M91.7,109.1c-0.1,0.9-0.6,1.3-1.5,1.3C90.5,109.7,91,109.3,91.7,109.1z"/>
		<path class="st5" d="M192.3,109.7c0.8,0,1.1,0.4,1.2,1.1C192.8,110.6,192.4,110.3,192.3,109.7z"/>
		<path class="st3" d="M167.6,44.7c-0.1,0.7-0.5,1-1.1,1C166.6,45.1,167,44.8,167.6,44.7z"/>
		<path class="st12" d="M172.5,40.5c0,0.7-0.4,1.2-1.2,1.1C171.5,41,171.9,40.7,172.5,40.5z"/>
		<path class="st12" d="M185.5,29.5c0,0.8-0.4,1.2-1.2,1.1C184.4,30,184.9,29.7,185.5,29.5z"/>
		<path class="st12" d="M187.7,27.6c-0.2,0.7-0.6,1.1-1.3,1.2C186.6,28.2,187,27.8,187.7,27.6z"/>
		<path class="st21" d="M347.3,103.7c-0.1-0.4-0.1-0.8-0.2-1.1c0.7,0,1,0.5,1.3,1C348.1,103.6,347.7,103.6,347.3,103.7z"/>
		<path class="st3" d="M198.4,18.5c-0.1,0.5,0.3,1.5-0.8,0.7C197.8,19,198.1,18.8,198.4,18.5z"/>
		<path class="st3" d="M201.5,16.9c-0.4,0-0.8,0-1.2-0.1c0.2-0.6,0.6-0.9,1.2-1C201.5,16.2,201.5,16.6,201.5,16.9z"/>
		<path class="st19" d="M203.6,205.1c-0.1-0.5,0.1-0.9,0.5-1.1C204.4,204.5,204.2,204.9,203.6,205.1z"/>
		<path class="st3" d="M213,7.9c-0.7,0-1.4,0-2.1,0C211.6,6.8,212.3,6.6,213,7.9z"/>
		<path class="st19" d="M202.2,205.2c0.5,0,0.9-0.1,1.4-0.1C203.2,206.1,202.7,205.8,202.2,205.2z"/>
		<path class="st17" d="M233.5,110.4c-3,3.9-6.7,6.9-11.1,9c-1-1.5-0.1-2.3,1.1-2.9c1.6-1,2.9-2.4,3.9-4c1.3-1,2.6-2,3.9-3.1
			C232,110.1,233,109.6,233.5,110.4z"/>
		<path class="st23" d="M212.5,129.3c0-0.3,0-0.6,0-1c1.6-1.7,2.9-3.7,5.1-4.7c1-0.2,1.8-1.1,2.9-0.9c0.6-0.2,1.3-0.3,1.9-0.5
			c0.2,0.2,0.3,0.3,0.5,0.5c0.3,3.9-4.2,3.3-5.5,5.8c-0.2,0.3-0.5,0.6-0.8,0.9c-1,0.1-1.9,0.1-2.9,0.2
			C213.2,129.4,212.8,129.4,212.5,129.3z"/>
		<path class="st6" d="M223.6,116.5c-0.4,1-1.4,1.7-1.1,2.9l0,0c-0.6,0.6-1.2,0.6-1.9,0.1c-1.7-1.3-1.9-2.4,0.5-3
			C221.9,116.3,222.7,116.5,223.6,116.5z"/>
		<path class="st17" d="M220.4,122.7c-0.8,0.9-1.4,2.5-2.9,0.9c0.4-1.5,1.3-2.3,3-2.2C220.5,121.8,220.5,122.3,220.4,122.7z"/>
		<path class="st17" d="M220.6,119.5c0.6,0,1.3,0,1.9-0.1c-0.3,1.1-1,1.7-2,2C220.5,120.8,220.5,120.1,220.6,119.5z"/>
		<path class="st20" d="M279.3,121.4c-6.8,0.8-13.7,1.5-20.5,2.3c-7.1,0.9-14.3,1.8-21.4,2.7c-3.4,0.4-6.8,0.3-9.9,1.8
			c-2.1,1.2-4.4,0.4-6.6,0.5c-1.3-2,0.6-2.6,1.7-3.1c2.5-1.2,5-2.4,7.8-2.6c0.8-0.1,1.7-0.1,2.5-0.1c7.4,0.4,14.3-2.1,21.4-3.3
			c5.7-0.9,11.3-2.5,17.1-3.3c2-0.3,4-0.7,5.7,0.8c0.1,0.9-1,2.2,1.2,2.3c3.5,0,6.7-1.1,10.1-1.6c3.3-0.5,6.7-1.4,9.9,0.4
			c-3.2,1.5-6.7,1.5-10.1,1.9C285.2,120.6,282.3,120.9,279.3,121.4z"/>
		<path class="st20" d="M303.2,118c0.3-2.5,2.5-1.5,3.9-1.9c3-1,6.2-1.3,9.2,0.1C311.9,117,307.7,118.4,303.2,118z"/>
		<path class="st18" d="M233.5,110.4c-0.8,0-1.7,0.1-2.1-1c1.3-1.1,2.5-2.1,3.8-3.2c0.4,0.1,0.7,0.4,0.8,0.7
			c0.1,0.6-0.1,1.1-0.6,1.5C235,109.4,234.4,110.1,233.5,110.4z"/>
		<path class="st18" d="M237.4,104.4c0,0.7,0.1,1.4,0.1,2.1l0,0c-0.7,0.5-1.4,0.5-2.1-0.1l-0.2-0.2
			C235.4,105.1,236,104.3,237.4,104.4z"/>
		<path class="st9" d="M246.5,93.6c-0.3,1-1.1,1.6-2,2.1C243,92.9,245.1,93.6,246.5,93.6z"/>
		<path class="st18" d="M239.4,102.4c-0.3,1.1-0.9,1.8-2,2C237.3,103,238,102.4,239.4,102.4z"/>
		<path class="st9" d="M248.5,91.6c-0.1,0.6-0.5,0.9-1,1C247.5,92,247.9,91.7,248.5,91.6z"/>
		<path class="st9" d="M247.5,92.6c-0.1,0.6-0.4,0.9-1,1C246.5,93,246.9,92.7,247.5,92.6z"/>
		<path class="st2" d="M174.6,125.5c0,1.1-0.3,1.9-1.7,1.8c-1-0.1-1.2-0.9-1.3-1.7c0-1,0.1-2,1.4-2
			C174.4,123.5,174.6,124.4,174.6,125.5z"/>
		<path class="st21" d="M277.1,117.2c-3.4-0.3-6.6,0.7-9.8,1.3c-9.8,2.1-19.8,3.2-29.6,5.3c-1.8,0.4-3.6,0.3-5.4,0.6
			c-0.3-0.4-0.3-0.9,0-1.3c1.2-0.8,2.5-1.5,4-0.6c3.8-0.8,7.5-1.6,11.3-2.3c0.8-0.5,1.9,0.1,2.6-0.7c11.1-2.7,22.3-5.4,33.4-8.2
			c3.2-0.8,6.3-1.8,9.6-2c-0.9,3-3.4,1.9-5.4,2.2c-0.9,0.1-1.9,0.4-1.9,1.3c0,1.2,1.2,0.7,1.9,0.7c1.8,0.1,3.6,0,5.5,0
			c0.3,0.2,0.4,0.5,0.3,0.6c-0.1,0.2-0.3,0.2-0.4,0.2c-1,0.1-1.9,0.1-2.9,0.2c-0.4,0.2-0.7,0.6-1.3,0.6c-0.9,0.1-1.8,0.2-2.7,0.3
			c-1.2,0.9-2.8-0.1-4,0.9l0,0c-1.5,1.2-3.4,0-5,0.9H277.1z"/>
		<path class="st15" d="M253.3,113.3c6.1-3.2,12.6-5.5,19.1-7.7c0.8,1.1,3,0.6,2.9,2.7c-6.5,2.6-13.1,4.7-19.8,6.2
			C254.2,115.1,253.2,115.2,253.3,113.3z"/>
		<path class="st12" d="M253.3,113.3c0.4,1,1.2,1.1,2.1,1.2c-5.6,1.8-11,4.6-17,5C243,116.6,248.2,115,253.3,113.3z"/>
		<path class="st9" d="M275.3,108.2c-0.6-1.3-3.4-0.2-2.9-2.7c0.2-0.1,0.5-0.2,0.8-0.2c0.7-0.4,1.6-0.3,2.2-0.9h0.1
			c0.5-0.6,1.4-0.4,2-0.9c0.3-0.1,0.5-0.2,0.8-0.2c0.6-0.5,1.5-0.3,2.1-0.9h0.1c2.4-0.4,3.2,0.8,2.9,3l-0.3,0.1l-0.3-0.1
			c-1.8,0.5-3.8,0.6-5.3,1.9C276.9,108.3,276.1,108.4,275.3,108.2z"/>
		<path class="st11" d="M236.3,122.5c-1.1,0.5-2.2,1-3.5,0.9c-0.9,0.6-1.3,0.2-1.7-0.6c0.3-1.1,1.2-1.6,2.2-1.8c1,0,2-0.3,2.9,0.2
			C236.3,121.6,236.3,122.1,236.3,122.5z"/>
		<path class="st15" d="M277.4,107.5c1-2.7,3.3-2,5.3-1.9C281.1,106.8,279.4,107.5,277.4,107.5z"/>
		<path class="st12" d="M236.3,121.1c-0.9,0-1.9,0-2.8,0l-0.2-0.3l0.2-0.3c1.8,0,3.2-1.6,5-1.2C238.4,120.8,236.8,120.2,236.3,121.1
			z"/>
		<path class="st20" d="M250.2,119.5c-0.6,1.3-1.7,0.8-2.6,0.7C248.3,119.1,249.3,119.5,250.2,119.5z"/>
		<path class="st3" d="M252.3,106.2c0.5,1.6,1.9,1.2,3.1,1.3c-6.2,4.1-13.3,6.4-19.8,9.9c-1.1,0.6-2.3,1.3-3.4,2
			c-0.7,0.5-1.3,0.4-1.8-0.2c1.5-4.2,5.9-4.6,8.8-7c0.4-0.2,0.8-0.4,1.2-0.6c1.1-0.3,2.1-0.5,3-1.1l0,0c0.7-1.1,2-1.3,3-2l0,0
			c1.1-1.2,2.7-1.3,4-2l0,0C251,105.9,251.6,105.8,252.3,106.2z"/>
		<path class="st23" d="M230.4,119.4c0.6,0,1.2,0,1.8,0c0.7,0.1,1.1,0.5,1.3,1.2v0.1c-0.8,0.8-1.7,1.3-2.8,1.3
			c-0.4-0.1-0.8-0.3-1.1-0.6c-0.4-0.7-0.2-1.2,0.3-1.8C230,119.6,230.2,119.5,230.4,119.4z"/>
		<path class="st15" d="M277.3,103.6c-0.4,0.9-1.2,0.9-2,0.9C275.8,103.6,276.5,103.6,277.3,103.6z"/>
		<path class="st15" d="M280.3,102.6c-0.4,1-1.3,0.9-2.1,0.9C278.7,102.6,279.5,102.5,280.3,102.6z"/>
		<path class="st3" d="M267.4,101.7c0.2-1.2,1.1-1.2,2-1.1C269.1,101.5,268.2,101.6,267.4,101.7z"/>
		<path class="st3" d="M269.4,100.6c0.3-1.2,1.3-1,2.2-1C271.1,100.5,270.3,100.6,269.4,100.6z"/>
		<path class="st15" d="M275.3,104.5c-0.4,1.1-1.3,1-2.2,0.9C273.7,104.6,274.4,104.5,275.3,104.5z"/>
		<path class="st19" d="M240.5,112.5c-2.6,1.6-5.1,3.2-7.7,4.8c-0.9,0.6-2.1,0.8-2.4,2.1l0,0c-0.5,0.6-1.2,0.7-1.9,0.7
			c-0.7-0.3-1.3-0.6-1-1.5c3.2-2.1,5.8-5,9.5-6.2C238.2,111.9,239.4,111.5,240.5,112.5z"/>
		<path class="st22" d="M227.5,118.5c0.1,0.5,0.4,0.8,0.9,0.9c0.6,1.5-0.8,1.8-1.6,2.5c-0.8,0.4-1.6,0.8-2.4,1.1
			c-0.7,0.2-1.3,0.1-1.9-0.3c0-0.2-0.1-0.4-0.2-0.5C223.7,120.5,225.6,119.5,227.5,118.5z"/>
		<path class="st16" d="M240.5,112.5c-1.1-0.1-2.3-0.1-3.4-0.2c0.8-1.1,1.8-1.9,3.1-2.2c0.1,0.1,0.2,0.3,0.4,0.4
			C241,111.2,241,111.8,240.5,112.5L240.5,112.5z"/>
		<path class="st17" d="M235.4,106.5c0.7,0,1.4,0,2.1,0.1c0,1.4-0.8,2-2.1,2C235.4,107.9,235.4,107.2,235.4,106.5z"/>
		<path class="st0" d="M269.4,160.6c-0.1-3.7,0.5-7.1,1.9-10.3c1.6-3.7,4.5-5.8,8.5-5.8c3.8,0,6.7,2,8.2,5.5
			c3.1,7,3.1,14.2,0.1,21.2c-1.5,3.6-4.4,5.8-8.5,5.8c-4.1-0.1-6.8-2.2-8.4-5.9C269.7,167.7,269.2,164.1,269.4,160.6z"/>
		<path class="st21" d="M304.2,111.4c0.5-0.9,1.2-1.9,2.2-1.8c4.2,0.3,8-1.2,12-1.9c3.3-0.6,6.7-1.5,10.1-1.7
			c5.9-0.3,11.3-3.3,17.3-2.5c0.5,0.1,1,0.1,1.5,0.2c-5.6,2.4-11.8,2.6-17.7,3.8c-7.1,1.5-14.2,2.7-21.3,4c-1.1,0.8-2.3,0.4-3.5,0.4
			C304.5,111.7,304.4,111.5,304.2,111.4z"/>
		<path class="st21" d="M294.3,113.4c0-1.4,0.8-1.9,2.2-1.9c2.6,0,5.2-0.1,7.7-0.1l0.2,0.2c0.3,0.3,0.3,0.5,0.2,0.6
			c-0.1,0.1-0.2,0.2-0.4,0.2c-1,0.1-1.9,0.1-2.9,0.2c-0.4,0.2-0.8,0.6-1.3,0.6c-0.9,0.1-1.8,0.2-2.8,0.3
			C296.2,114.1,295.2,114.2,294.3,113.4z"/>
		<path class="st20" d="M277.3,117.3c1.5-1.5,3.3-0.7,5-0.9C280.9,118.3,279,117.1,277.3,117.3z"/>
		<path class="st20" d="M304.2,112.4c0.1-0.3,0.1-0.6,0.2-0.8c1.3,0,2.6-0.1,3.9-0.1C307.2,113.2,305.6,112.3,304.2,112.4z"/>
		<path class="st20" d="M294.3,113.4c1,0,2,0.1,3,0.1c-1.1,1.7-2.7,0.8-4.1,0.9c0.1-0.3,0.1-0.6,0.1-0.9
			C293.6,113.5,294,113.5,294.3,113.4z"/>
		<path class="st20" d="M282.3,116.4c1.1-1.5,2.6-0.8,4-0.9C285.3,117.2,283.7,116.3,282.3,116.4z"/>
		<path class="st20" d="M289,115.2c0.3-0.4,0.7-0.7,1.3-0.6C290,115.1,289.6,115.3,289,115.2z"/>
		<path class="st20" d="M300,113.2c0.3-0.5,0.7-0.7,1.3-0.6C301,113.2,300.6,113.4,300,113.2z"/>
		<path class="st0" d="M55.1,153.2c0-0.8-0.2-1.7,0-2.5c0.5-1.9-1.7-4.9,1.8-5.7c4.2-0.9,8.4,1.1,9.6,4.3c2.7,6.8-1.9,12.8-9.2,12.2
			c-1.7-0.2-2.3-0.8-2.3-2.4C55.1,157.2,55.1,155.2,55.1,153.2z"/>
		<path class="st19" d="M262.4,99.5c-0.1-0.9,0-1.8,0.8-2.2c5.3-2.4,9.5-6.8,15.1-8.8c0.6,0.1,1,0.5,1.2,1.1
			C274,93.4,268.4,96.7,262.4,99.5z"/>
		<path class="st23" d="M279.4,89.7c-0.6-0.1-1-0.5-1.2-1.1c1-1.6,2.7-0.8,4-1.2c0.4,0.1,0.7,0.1,1.1,0.2
			C282.3,88.8,281,89.4,279.4,89.7z"/>
		<path class="st19" d="M255.4,103.5c-0.2-2.4,1.5-2.1,3-2C257.9,103,256.8,103.4,255.4,103.5z"/>
		<path class="st19" d="M252.3,106.2c-0.6,0.1-1.2,0.2-1.9,0.3c-0.2-1.5,0.6-2.1,2-1.9C252.4,105.1,252.4,105.7,252.3,106.2z"/>
		<path class="st19" d="M252.4,104.6c0.5-1.6,1.8-1,2.9-1C254.7,104.8,253.7,104.9,252.4,104.6z"/>
		<path class="st19" d="M258.4,101.5c0.2-1.2,1.1-1.1,2-1C260.1,101.5,259.3,101.6,258.4,101.5z"/>
		<path class="st19" d="M260.4,100.5c0.2-1.2,1.1-1,2-1C262,100.4,261.2,100.6,260.4,100.5z"/>
		<path class="st6" d="M287.9,85.5c0.3-0.5,0.8-0.9,1.4-0.9C289.1,85.2,288.6,85.5,287.9,85.5z"/>
		<path class="st0" d="M212.2,167c-5-0.1-6.2,1.2-3.4-5.2c1-2.2,1.3-6.3,3.1-6.2c2.5,0.1,2.1,4.2,3.5,6.3c0.4,0.5,0.5,1.2,0.7,1.8
			c1.1,3.1,1,3.2-2.3,3.3C213.1,167,212.7,167,212.2,167z"/>
		<path class="st19" d="M250.4,106.5c-1,1.3-2.3,2-4,2C247,106.4,248.7,106.4,250.4,106.5z"/>
		<path class="st19" d="M246.5,108.5c-0.5,1.4-1.6,1.9-3,2C243.3,108.1,245,108.5,246.5,108.5z"/>
		<path class="st19" d="M240.4,112.5c0-0.7,0-1.3,0-2c1,0,2,0,3,0C242.9,111.9,241.8,112.3,240.4,112.5z"/>
		<path class="st3" d="M220.4,128.4c2.4,0,4.7-0.1,7.1-0.1c-2.4,2.3-5.3,0.5-8,1.1l0,0c-0.2-0.2-0.4-0.4-0.3-0.7
			c0-0.3,0.1-0.4,0.2-0.4C219.7,128,220.1,128.1,220.4,128.4z"/>
		<path class="st0" d="M270.3,193c1.2,1.7,1.5,3.3-0.2,4.8c-2.2,0.3-3.5-0.2-3.4-2.8C266.8,192.1,268.9,193.2,270.3,193z"/>
		<path class="st0" d="M51.5,196.9c-0.4,0-0.6,0.2-0.7,0.6c-1.4,0.3-3,1.1-3.6-0.9c-0.3-1-0.6-2.3,0.4-3.2c0.8-0.7,1.9-0.6,2.8-0.2
			C52,194,52,195.4,51.5,196.9z"/>
		<path class="st0" d="M119,194.2c0.2,0,0.4,0,0.6,0.1c-0.2,2.3,1.7,4.2,0.9,6.6c-1.3-0.2-2.8,0.6-3.8-0.9
			C118.1,198.3,117.5,195.9,119,194.2z"/>
		<path class="st15" d="M219.5,128.6c0,0.3-0.1,0.5-0.1,0.8c-1,0-2,0-3,0c0.1-0.3,0.2-0.5,0.3-0.8
			C217.7,127.5,218.6,127.6,219.5,128.6z"/>
		<path class="st11" d="M219.5,128.6c-0.9,0-1.9,0-2.8,0c-1.5-1-0.5-1.5,0.4-2c1.8-1.2,4.5-1.2,5.4-3.8c0.7-0.1,1.3-0.2,2-0.3
			c1.6,0.2,2.8-0.7,4.2-1.2c0.2,0,0.4-0.1,0.6-0.1c0.5,0.1,0.9,0.2,1.4,0.3c0.2,0.4,0.2,0.8,0.2,1.2c0,0.6,0.1,1.2-0.4,1.8
			c-3.7,0.5-7.1,1.8-10.1,4C220.1,128.4,219.8,128.4,219.5,128.6z"/>
		<path class="st13" d="M267.9,120.1c1.8-1.2,3.8-0.4,5.6-0.4C271.7,120.9,269.8,120.2,267.9,120.1z"/>
		<path class="st10" d="M230.5,124.4c0.1-0.6,0.1-1.2,0.2-1.8l0.4-0.1c0.5,0.6,1,0.9,1.8,0.9c-0.2,0.3-0.4,0.7-0.5,1
			C231.7,124.4,231.1,124.4,230.5,124.4z"/>
		<path class="st21" d="M231.1,122.5l-0.4,0.1c0-0.4,0-0.8,0-1.2c0.9-0.2,1.8-0.5,2.7-0.7v0.4C233.2,122.5,232,122.3,231.1,122.5z"
			/>
		<path class="st15" d="M226.2,121.4c0.7-0.6,1.4-1.3,2.2-1.9c0.7,0,1.4-0.1,2-0.1c0.1,0.9-0.8,1.1-1.1,1.8l-0.1,0.1
			C228.3,122.1,227.3,122.2,226.2,121.4z"/>
		<path class="st23" d="M226.2,121.4c1,0,2-0.1,3-0.1c-1.4,1.3-2.6,3.3-4.8,1.2C224.7,121.5,225.5,121.4,226.2,121.4z"/>
	</g>
</g>
</svg>
