<?xml version="1.0" encoding="utf-8"?>
<!-- Generator: Adobe Illustrator 24.2.1, SVG Export Plug-In . SVG Version: 6.00 Build 0)  -->
<svg version="1.1" id="Layer_1" xmlns="http://www.w3.org/2000/svg" xmlns:xlink="http://www.w3.org/1999/xlink" x="0px" y="0px"
	 viewBox="0 0 24.6 24.5" style="enable-background:new 0 0 24.6 24.5;" xml:space="preserve">
<style type="text/css">
	.st0{fill-rule:evenodd;clip-rule:evenodd;fill:#FFFFFF;}
	.st1{fill:#C90827;}
	.st2{fill-rule:evenodd;clip-rule:evenodd;fill:#C90827;}
</style>
<g id="Hintergrund">
</g>
<g id="Hilfslinien_anzeigen">
</g>
<g id="Vordergrund">
	<circle class="st0" cx="12.3" cy="12.3" r="11.8"/>
	<g>
		<path class="st1" d="M15,15.7c-0.7,0.4-1.2,0.1-1.2-0.7V9.4c0-0.8,0.6-1.1,1.2-0.7l4.9,2.8c0.7,0.4,0.7,1,0,1.4L15,15.7z"/>
	</g>
	<g>
		<path class="st2" d="M2.8,12.3C2.8,7,7,2.8,12.3,2.8s9.5,4.2,9.5,9.5s-4.2,9.5-9.5,9.5C7,21.8,2.8,17.5,2.8,12.3z M0,12.3
			C0,5.5,5.5,0,12.3,0s12.3,5.5,12.3,12.3c0,6.8-5.5,12.3-12.3,12.3C5.5,24.6,0,19.1,0,12.3z"/>
	</g>
</g>
</svg>
