<?xml version="1.0" encoding="utf-8"?>
<!-- Generator: Adobe Illustrator 24.2.1, SVG Export Plug-In . SVG Version: 6.00 Build 0)  -->
<svg version="1.1" id="svg2" xmlns:svg="http://www.w3.org/2000/svg"
	 xmlns="http://www.w3.org/2000/svg" xmlns:xlink="http://www.w3.org/1999/xlink" x="0px" y="0px" viewBox="0 0 885.8 460.4"
	 style="enable-background:new 0 0 885.8 460.4;" xml:space="preserve">
<style type="text/css">
	.st0{fill:#E32739;}
</style>
<g id="layer1" transform="translate(174.86779,405.12657)">
	<g id="g81893" transform="translate(35.433055,35.381855)">
		<path id="path81678" class="st0" d="M125.4-184.5v-256H74.9c0,0,0.1,172.2,0.1,172c-48.3-31.9-118.5-4.9-137.3,47.7
			c-15.3,43,2.1,89,41,111.4c27.4,15.7,62.7,18,96.5-0.8c0,0,0.3,10.5,0,9.9h50.1v-90.7l-58.1,2c0,23.7-19.2,42.8-42.9,42.8
			c-23.7,0-42.9-19.2-42.9-42.8c0-23.7,19.2-42.8,42.9-42.8c23.7,0,42.9,19.2,42.9,42.8L125.4-184.5"/>
		<path id="path81682" class="st0" d="M378-98.5c0,0-0.3-50.2,0-50.2c55.2-4,55.5-80.3-0.3-84.8v-50.5c32.8,0,56.3,9.5,71.3,35.2
			c13.4-26.4,43.6-35.2,70.5-35.2c0,0.3,0.3,50.5,0,50.5c-53.2,4.5-55.5,76,0,84.5v50.5c-52.7,0-70.3-28.5-70.5-28.3
			C437.2-112.1,418.5-98.5,378-98.5"/>
		<path id="path81690" class="st0" d="M156.4-184.6l0-256h50.4c0,0-0.1,172.2-0.1,172c48.3-31.9,118.5-4.9,137.3,47.7
			c15.3,43-2.1,89-41,111.4c-27.4,15.7-62.7,18-96.5-0.8c0,0-0.3,10.5,0,9.9h-50.1v-95.1l58.1,6.4c0,23.7,19.2,42.8,42.9,42.8
			c23.7,0,42.9-19.2,42.9-42.8c0-23.7-19.2-42.8-42.9-42.8c-23.7,0-42.9,19.2-42.9,42.8L156.4-184.6"/>
		<path id="path81694" d="M-210.3,18.5l12.5-58.8h22.4c10.5,0,11.9,8.5,10.2,16.7c-1.1,5-3.6,10.7-8.5,14c-4,2.7-8.8,3.6-13.1,3.5
			h-7.4l-5.2,24.6H-210.3z M-192.3-14.8h5.9c4.8,0,8.4-2,10-9.2c1.4-6.7-1-7.8-7.2-7.8h-5L-192.3-14.8"/>
		<path id="path81698" d="M-150.5-6.9l-5.4,25.3h-11l12.5-58.8h20.8c9.5,0,16,3.3,13.7,14.1c-1.4,6.4-4.4,13.2-12,14.2l0,0.2
			c6.3,0.9,7.4,5,6.2,10.7c-0.5,2.4-3.9,16.9-1.6,18.6l-0.2,1.1h-12.1c-0.5-3.8,1.2-11,2-14.9c0.7-3.6,1.8-8.5-1.7-9.6
			c-2.8-0.9-6-0.8-9.2-0.8H-150.5z M-148.7-15.5h8.6c3.7-0.2,7-2.6,8.2-8.5c1.4-6.6-1.1-7.7-5.3-7.8h-8.2L-148.7-15.5"/>
		<path id="path81702" d="M-112.1-15.7c3.7-15,7.2-26.1,24.8-26.1c17.6,0,16.4,11.1,13.7,26.1l-1.8,8.4c-3.3,15.7-6.9,27.1-25,27.1
			c-18,0-16.8-11.4-13.4-27.1L-112.1-15.7z M-103.8-1.8c-1,4.9-2.3,12.8,5.2,12.8c7.8,0,9.6-8.1,10.8-13.7l3.2-15.1
			c1-4.7,3.5-15.1-4.7-15.1c-8.6,0-10.1,10.3-11.1,14.8L-103.8-1.8"/>
		<path id="path81706" d="M-70.5,18.5L-58-40.4h31.1l-1.8,8.6h-20.2L-52-16.8h18.9l-1.8,8.6h-18.9l-5.7,26.7H-70.5"/>
		<path id="path81710" d="M-32,18.5l12.5-58.8h30.9l-1.8,8.6h-19.9l-3.2,14.8H4.9L3-8.3h-18.3l-3.9,18.1H0.7l-1.8,8.6H-32"/>
		<path id="path81714" d="M38.7-22.5c1.2-5.3,1.8-10.4-4.2-10.4c-3.7,0-6.4,1.5-7.2,5.5c-1,4.5,1.5,6.2,4.5,8.4
			c3.1,2.3,8.9,6.7,11.3,9.6c3,3.7,3.4,7.2,2.3,12.3c-2.4,11.1-11,16.9-21.7,16.9C10.4,19.9,7.3,12.5,9.5,2l0.9-4.3h11l-0.7,3.5
			c-1.4,5.7-0.6,9.9,4.8,9.9c4.6,0,7.3-2.4,8.3-6.9c0.7-3.5-0.3-5.8-2.7-7.8c-4.8-4.5-11.2-7.7-14.5-13.6c-1.2-2.7-1.6-5.9-0.9-9
			c2.1-10,8.9-15.5,20.6-15.5c17.5,0,14.1,13.5,13,19.3H38.7"/>
		<path id="path81718" d="M82.3-22.5c1.2-5.3,1.8-10.4-4.2-10.4c-3.7,0-6.4,1.5-7.2,5.5c-0.9,4.5,1.5,6.2,4.5,8.4
			c3.1,2.3,8.9,6.7,11.3,9.6c3,3.7,3.4,7.2,2.3,12.3c-2.4,11.1-11,16.9-21.7,16.9C54,19.9,50.9,12.5,53.1,2l0.9-4.3h11l-0.7,3.5
			c-1.4,5.7-0.6,9.9,4.8,9.9c4.6,0,7.3-2.4,8.3-6.9c0.7-3.5-0.3-5.8-2.7-7.8c-4.8-4.5-11.2-7.7-14.5-13.6c-1.2-2.7-1.6-5.9-0.9-9
			c2.1-10,8.9-15.5,20.6-15.5c17.5,0,14.1,13.5,13,19.3H82.3"/>
		<path id="path81722" d="M94.8,18.5l12.5-58.8h11l-12.5,58.8H94.8"/>
		<path id="path81726" d="M123.2-15.7c3.7-15,7.2-26.1,24.8-26.1c17.6,0,16.4,11.1,13.7,26.1l-1.8,8.4c-3.3,15.7-6.9,27.1-25,27.1
			S118.1,8.4,121.4-7.3L123.2-15.7z M131.6-1.8c-1,4.9-2.3,12.8,5.2,12.8c7.8,0,9.6-8.1,10.8-13.7l3.2-15.1c1-4.7,3.5-15.1-4.7-15.1
			c-8.6,0-10.1,10.3-11.1,14.8L131.6-1.8"/>
		<path id="path81730" d="M203.2-40.4h11l-12.5,58.8h-11.4l-4.1-20.9c-1.4-7-2.3-14.1-2.9-23.4h-0.2c-0.6,4.9-1.4,10.8-2.4,16.8
			c-0.9,5.9-2,11.8-3,16.5l-2.3,11.1h-11l12.5-58.8h11.4l4,21.4c1.4,6.8,2.2,13.8,2.9,23.4h0.2c0.7-5.3,1.6-11.1,2.4-16.7
			c0.9-5.7,1.9-11.3,3-16.6L203.2-40.4"/>
		<path id="path81734" d="M207.7,18.5l26.5-58.8h14.8l0.8,58.8h-11.8l0.3-14.9h-12.9l-6.1,14.9H207.7z M229.1-5.1h9.4l0.6-16.7
			c0-2.7,0.4-5.4,0.6-8.2c0.2-1.3,0.3-2.7,0.4-3.9H240c-0.4,1.3-0.9,2.6-1.2,3.9c-0.9,2.7-1.7,5.4-2.8,8.2L229.1-5.1"/>
		<path id="path81738" d="M255.9,18.5l12.5-58.8h11L268.7,9.8h20.4l-1.8,8.6H255.9"/>
		<path id="path81742" d="M314.7,18.5l12.5-58.8h22.4c10.5,0,11.9,8.5,10.2,16.7c-1.1,5-3.6,10.7-8.5,14c-4,2.7-8.8,3.6-13.1,3.5
			H331l-5.2,24.6H314.7z M332.8-14.8h5.9c4.8,0,8.4-2,10-9.2c1.4-6.7-1-7.8-7.2-7.8h-5L332.8-14.8"/>
		<path id="path81746" d="M374.5-6.9l-5.4,25.3h-11l12.5-58.8h20.8c9.5,0,16,3.3,13.7,14.1c-1.4,6.4-4.4,13.2-12,14.2l0,0.2
			c6.3,0.9,7.4,5,6.2,10.7c-0.5,2.4-3.9,16.9-1.6,18.6l-0.2,1.1h-12.1c-0.5-3.8,1.2-11,2-14.9c0.7-3.6,1.8-8.5-1.7-9.6
			c-2.8-0.9-6-0.8-9.2-0.8H374.5z M376.4-15.5h8.6c3.7-0.2,7-2.6,8.2-8.5c1.4-6.6-1.1-7.7-5.3-7.8h-8.2L376.4-15.5"/>
		<path id="path81750" d="M413-15.7c3.7-15,7.2-26.1,24.8-26.1c17.6,0,16.4,11.1,13.7,26.1l-1.8,8.4c-3.3,15.7-6.9,27.1-25,27.1
			c-18,0-16.8-11.4-13.4-27.1L413-15.7z M421.3-1.8c-1,4.9-2.3,12.8,5.2,12.8c7.8,0,9.6-8.1,10.8-13.7l3.2-15.1
			c1-4.7,3.5-15.1-4.7-15.1c-8.6,0-10.1,10.3-11.1,14.8L421.3-1.8"/>
		<path id="path81754" d="M454.5,18.5L467-40.4h22.9c2.7,0,7.8,1.2,10,6.7c1.6,4.1,1,10.6-1.1,20.3c-2.5,11.6-5.3,25-15.5,30.3
			c-2.7,1.4-5.7,1.6-8.5,1.6H454.5z M472.1,9.8c9.8,0,11.5-5.2,15.1-22.2c3-13.9,2.7-19.4-3.9-19.4h-7.2l-8.8,41.6H472.1"/>
		<path id="path81758" d="M540.9-40.4h11l-8.7,41c-2.8,13-8.3,19.2-22.7,19.2c-14.5,0-17.4-6.2-14.7-19.2l8.7-41h11L517-0.3
			c-1.2,5.6-2,11.3,5.4,11.3c7.1,0,8.7-5.6,9.9-11.3L540.9-40.4"/>
		<path id="path81762" d="M589.2-2.5c-0.3,1.1-0.6,2.3-0.9,3.4c-2.8,10.7-8.2,19-20.4,19c-18,0-16.8-11.4-13.5-27.1l1.8-8.4
			c3.7-15,7.2-26.1,24.8-26.1c9.8,0.2,14.2,5.2,12.8,15.2c-0.2,1.5-0.3,3-0.7,4.5h-10.8c0.3-3.8,2.2-10.8-3.2-10.8
			c-8.6,0-10.1,10.3-11.1,14.8l-3.5,16.3c-1,4.9-2.3,12.8,5.2,12.8c6,0,7.4-9.7,8.4-13.5H589.2"/>
		<path id="path81766" d="M602.1-40.4h36.6l-1.8,8.6h-12.8l-10.7,50.2h-11l10.7-50.2h-12.9L602.1-40.4"/>
		<path id="path81770" d="M663.9-22.5c1.2-5.3,1.8-10.4-4.2-10.4c-3.7,0-6.4,1.5-7.2,5.5c-0.9,4.5,1.5,6.2,4.5,8.4
			c3.1,2.3,8.9,6.7,11.3,9.6c3,3.7,3.4,7.2,2.3,12.3c-2.4,11.1-11,16.9-21.7,16.9c-13.2,0-16.3-7.4-14.1-17.9l0.9-4.3h11L646,1.1
			c-1.5,5.7-0.6,9.9,4.8,9.9c4.6,0,7.3-2.4,8.3-6.9c0.7-3.5-0.3-5.8-2.7-7.8c-4.8-4.5-11.2-7.7-14.4-13.6c-1.2-2.7-1.6-5.9-0.9-9
			c2.1-10,8.9-15.5,20.6-15.5c17.5,0,14.1,13.5,13,19.3H663.9"/>
	</g>
</g>
</svg>
