<?xml version="1.0" encoding="utf-8"?>
<!-- Generator: Adobe Illustrator 21.0.2, SVG Export Plug-In . SVG Version: 6.00 Build 0)  -->
<svg version="1.1" id="Layer_1" xmlns="http://www.w3.org/2000/svg" xmlns:xlink="http://www.w3.org/1999/xlink" x="0px" y="0px"
	 viewBox="0 0 465 92.5" style="enable-background:new 0 0 465 92.5;" xml:space="preserve">
<path class="st0" d="M290.3,43.5c0.9,2.9,0.7,11.8,0.7,15.1V74c0,8.3,0.6,11.3-8.6,11.9v2.5c4.8-0.1,9.5-0.4,14.3-0.5
	c4.7,0.1,9.5,0.4,14.2,0.5v-2.5c-10.4-0.5-9.4-3.5-9.4-12.6V60.9c0-5.8,0-11.9,2.8-17c1.9-3.1,5.9-6.3,9.6-6.3
	c4.8,0,3.7,6.5,8.9,6.5c2.3,0,4.3-2.1,4.3-4.5c0-4.6-4.9-6.5-8.8-6.5c-8.5,0-14.7,5-17.9,12.6h-0.2c0.1-4.5-0.4-9-1.5-12.6
	c-5.4,1.2-10.9,3.5-16.7,3.9v2.5C286.1,39.5,289.2,39,290.3,43.5z M260.8,86.9c-9.1,0-13.3-7.9-15.3-15.9H243l0.5,17.9h1.2l3.1-3.6
	c3.7,3,8.9,4.5,13.6,4.5c9.5,0,18.1-6.3,18.1-16.5c0-11.3-7.8-14.5-16.3-19c-4.7-2.6-11.5-4.9-11.5-11.4c0-4.5,3.8-6.9,7.9-6.9
	c7.8,0,10.5,6.6,12.7,12.9h2.5l0.2-15.6h-1.5l-2.5,3c-3.5-2-8.1-3.1-12-3.1c-8.5,0-15.3,6.4-15.3,15c0,9.4,7.6,13.5,14.8,17.3
	c5.3,2.8,12.5,5.6,12.5,12.8C271.2,84.1,266.2,86.9,260.8,86.9z M171.5,80.1l-2.6-2.3c-3.9,4.6-9.4,7.9-15.5,7.9
	c-13.9,0-17.8-12.5-17.8-24.5c0-11,4.1-24.8,17.4-24.8c4.6,0,5.6,1,7,4.8c0.9,2.4,2.5,4.9,5.4,4.9c2.2,0,4.1-2.4,4.1-4.6
	c0-6.9-11.2-8.4-16-8.4c-17.1,0-30.2,12.6-30.2,30.2c0,15.5,11.2,26.5,26.5,26.5C157.8,89.8,166.3,86.6,171.5,80.1z M87.3,89.8
	c16.2,0,29.7-11.6,29.7-28.5c0-16.1-14.4-28.2-29.7-28.2c-15.1,0-29.6,11.6-29.6,27.7C57.7,77.3,71.3,89.8,87.3,89.8z M86.8,36
	c14.6,0,17.9,14,17.9,26c0,11.1-3.3,24.9-16.8,24.9C73.5,86.9,70,73.1,70,61.3C70,50.4,73.3,36,86.8,36z M41.8,88.4v-2.9
	c-4.3-0.3-10.4,0.8-12.2-4.3c-1.2-3.4-1.2-12.6-1.2-16.5V49c11.8,0,18.4,0.2,20.1,13.4h2.8c-0.1-5.1-0.2-10.4-0.5-15.5
	c0.2-5.6,0.4-11.4,0.5-17h-2.8c-0.7,9-3.2,15.9-20.1,15.1V17c0.3-7.9-0.1-7,9.8-7c5.9,0,12.9-0.1,18.2,2.3c5.6,2.4,6.8,7.6,8.3,13
	h2.8l-2-19.6C52.3,5.8,39.1,6.1,25.9,6.2C18.6,6.1,11.3,5.8,3.8,5.7v2.9c3.9,0,9,0,10.6,4.3c1.2,3.4,1.2,12.6,1.2,16.6v35.3
	c0,4,0,13.3-1.2,16.6c-1.6,4.3-6.7,4.3-10.6,4.3v2.9c6.5-0.1,12.7-0.4,19-0.5C29.1,88,35.5,88.3,41.8,88.4z M453.7,16.8h1.1
	c0.8,0,1.3,0.1,1.6,0.3c0.5,0.3,0.8,0.9,0.8,1.8v0.6v0.3v0.1V20h1.3v-0.1c0-0.1-0.1-0.2-0.1-0.4s0-0.4,0-0.6v-0.6
	c0-0.4-0.1-0.8-0.4-1.3c-0.3-0.4-0.7-0.7-1.4-0.8c0.5-0.1,0.9-0.2,1.2-0.4c0.5-0.3,0.8-0.9,0.8-1.6c0-1-0.4-1.7-1.3-2
	c-0.5-0.2-1.2-0.3-2.2-0.3h-2.8V20h1.4L453.7,16.8L453.7,16.8z M453.7,12.9h1.2c0.8,0,1.4,0.1,1.7,0.3c0.4,0.2,0.5,0.6,0.5,1.2
	c0,0.6-0.3,1-0.8,1.2c-0.3,0.1-0.8,0.2-1.4,0.2h-1.3L453.7,12.9L453.7,12.9z M424.1,89.8c9.3,0,16.2-3.4,22-10.6l-2.6-2.6
	c-3.7,5-9.3,9.3-15.5,9.3c-13.2,0-19.4-13.3-19.4-25.2l0.5-6h35.4c1.2,0,3.1,0.5,3.1-1.1c0-13.5-11.5-20.4-23.6-20.4
	c-16,0-27.8,14.1-27.8,29.8C396.2,78.9,408.8,89.8,424.1,89.8z M424.1,36c7.8,0,12,5,12,12.8c0,3.1-4.1,2.5-6,2.5h-20.4
	C411.2,43.1,414.9,36,424.1,36z M366.3,76.9c0,9.4,6,12.9,14.9,12.9c5.9,0,12.1-2,14.3-8l-2.2-1.6c-2.3,3.1-4.6,5.6-8.9,5.6
	c-6.5,0-7.6-5.9-7.6-11.5V38.6h14.1v-3.4h-14.1V20.6h-1.9c-2.6,7.1-8.8,12.1-14.9,15.8v2.2h6.3L366.3,76.9L366.3,76.9z M218.1,78
	l2.6,11.8l17.1-4.5v-2.9c-1.6,0.1-3.2,0.4-4.7,0.4c-4.6,0-4.6-5-4.6-8.4V34.1c-3.1,0.2-6.4,0.4-9.6,0.6c-3.5-0.3-6.8-0.4-10.2-0.6
	v2.5c10.1,1.5,9.4,4.4,9.4,13.9v16.8c0,9.6-7.1,18.5-16.9,18.5c-9.6,0-10.2-10-10.2-17.4V34.2c-3.1,0.1-6.4,0.4-9.6,0.5
	c-3.5-0.1-6.8-0.4-10.2-0.5v2.4c10.1,1.5,9.4,4.4,9.4,13.9v21.4c0,11,4.6,17.9,17,17.9C205.8,89.8,213.7,84.9,218.1,78z M340,42.2
	c0.5,1.9,0.5,11.5,0.5,13.9V74c-0.1,8.3,0.6,11.3-8.5,11.9v2.5c4.8-0.1,9.6-0.4,14.4-0.5c4.4,0.1,9,0.4,13.2,0.5v-2.5
	c-9.7-0.6-8.4-4.4-8.6-12.6V33.1L331.5,37v2.5C334,39.3,339.1,39.1,340,42.2z M455.3,23.3c2,0,3.8-0.7,5.2-2.2
	c1.4-1.4,2.2-3.2,2.2-5.2s-0.7-3.8-2.2-5.2c-1.4-1.4-3.2-2.1-5.2-2.1s-3.8,0.7-5.2,2.1c-1.4,1.4-2.2,3.2-2.2,5.2s0.7,3.8,2.1,5.2
	C451.5,22.6,453.2,23.3,455.3,23.3z M450.8,11.5c1.2-1.2,2.7-1.9,4.5-1.9s3.2,0.6,4.5,1.9c1.2,1.2,1.8,2.7,1.8,4.5s-0.6,3.3-1.8,4.5
	s-2.7,1.9-4.5,1.9s-3.3-0.6-4.5-1.9c-1.2-1.2-1.8-2.7-1.8-4.5C448.9,14.2,449.6,12.7,450.8,11.5z M344.6,23c3.5,0,6.3-3,6.3-6.6
	c0-3.7-2.8-6.8-6.5-6.8s-6.7,3-6.7,6.8C337.7,20.3,340.9,23,344.6,23z"/>
</svg>
