<?xml version="1.0" encoding="utf-8"?>
<!-- Generator: Adobe Illustrator 24.2.1, SVG Export Plug-In . SVG Version: 6.00 Build 0)  -->
<svg version="1.1" id="Layer_1" xmlns="http://www.w3.org/2000/svg" xmlns:xlink="http://www.w3.org/1999/xlink" x="0px" y="0px"
	 viewBox="0 0 225.7 263.3" style="enable-background:new 0 0 225.7 263.3;" xml:space="preserve">
<style type="text/css">
	.st0{fill:#535454;}
	.st1{fill:#04C0EA;}
</style>
<g id="DGgoRp.tif">
	<g>
		<path class="st0" d="M212.4,263.3c-66.5,0-133,0-199.5,0c-10.1-5-12.6-13.3-12.2-24.1c0.6-21.2,0.1-42.5,0.2-63.7
			c0-15.6,0.1-31.2,0.2-46.8c8.9-14.1,17.5-28.3,28.6-40.8C40.9,75.2,53,63.6,69.3,57.6c1.1,1.8,2.3,3.6,3.3,5.5
			c4.8,8.9,9.7,17.7,15.9,25.7c8.9,11.7,19.9,20.6,34.4,24.4c8.7,2.3,17.6,1.8,26.5,1.4c16.5,30.8,50.1,28,65.6,5
			c3.2-4.8,6.8-9.3,10.2-13.9c0.1,2,0.2,4,0.2,6c0,43.2-0.2,86.3,0.2,129.5C225.7,251.9,222.4,259.3,212.4,263.3z M72.2,209.4
			c-5.7-9.1-10.6-17.6-16.2-25.5c-2.8-3.9-2.4-6.4,0.6-9.8c5.3-6,10.1-12.5,15.8-19.5c-6.8,0-12.4,0.2-18-0.1c-3-0.1-4.8,1-6.5,3.4
			c-3.9,5.4-8,10.7-12,16c-0.9-1.8-0.9-3.3-1-4.7c-0.3-4.8,2.1-11.1-0.9-13.8c-3.2-2.8-9.5-0.5-14.4-0.9c-2.6-0.2-3.4,0.8-3.4,3.4
			c0.1,16.5,0.1,32.9,0,49.4c0,2.7,0.9,3.5,3.4,3.4c3-0.2,6-0.3,8.9,0c5,0.6,7.4-0.9,6.4-6.3c-0.8-4.5,0.8-8.1,4.9-11
			c2.9,4.8,5.9,9.5,8.8,14.3c1.1,1.8,2.2,2.9,4.6,2.9c11.9-0.1,23.8,0,35.7-0.1c1.4,0,3.2,0.5,3.5-1.7c0.9-6.4,5.4-6.3,10.3-5.9
			c2.5,0.2,5,0.2,7.4,0c3-0.3,4.5,0.9,5.3,3.7c0.5,1.7,0.7,4,3.6,4c5.9-0.1,11.8,0,18.2,0c-0.7-2-1.2-3.3-1.8-4.7
			c-5.4-13-10.8-26-16.3-39c-1.8-4.3-2.7-10-5.9-12.2c-3-2.1-8.6-0.4-13.1-0.8c-3.7-0.3-5.5,1-6.9,4.5
			C86.5,175,79.5,191.7,72.2,209.4z M140.9,181.7C141,181.7,141,181.7,140.9,181.7c0.1,8.1,0.1,16.3,0,24.4c0,3.3,1,4.6,4.5,4.5
			c9.6-0.3,19.2-0.1,28.8-0.1c11.9,0,11.8,0,11.7-11.9c0-3.1-0.7-4.4-4.1-4.2c-5.9,0.3-11.9-0.1-17.9,0.1c-3.2,0.1-4.3-0.8-4.2-4.1
			c0.2-10.6,0-21.3,0.1-31.9c0-2.9-0.5-4.2-3.8-4c-3.8,0.3-7.6,0.2-11.4,0c-3-0.2-4,0.6-3.9,3.8C141.1,166,140.9,173.9,140.9,181.7z
			 M210.5,182.5c0-4.5,0.1-9,0-13.4c-0.2-4.7,2.1-11.1-0.9-13.8c-3.2-2.8-9.5-0.5-14.4-0.8c-2.5-0.2-3.5,0.7-3.4,3.4
			c0.1,16.4,0.1,32.8,0,49.2c0,2.5,0.7,3.6,3.3,3.5c4-0.2,7.9-0.2,11.9,0c2.8,0.2,3.7-0.8,3.6-3.6
			C210.4,198.8,210.5,190.7,210.5,182.5z M180.3,237.2c0.1,8.6,6.6,15,15.2,14.9c8.9-0.1,15.1-6.6,15-15.6
			c-0.1-8.4-6.5-14.6-14.9-14.6C186.8,221.8,180.2,228.4,180.3,237.2z M108.1,236.9c0,1,0,2,0,3c0,12.1,0,12.1,12,11.5
			c8.5-0.4,14.1-6.3,14-14.8c-0.1-8.9-6.2-14.2-16.6-14.3c-9.4-0.1-9.4-0.1-9.4,9.1C108.1,233.3,108.1,235.1,108.1,236.9z
			 M86.8,232.6c0.1,0,0.2,0,0.3,0c0-2.5,0-5,0-7.5c0-1.7-0.3-2.8-2.4-2.9c-2.4-0.1-2.7,1.1-2.7,3c0,5,0,9.9-0.3,14.9
			c-0.3,4.5-2.7,7.1-7.3,7c-4.2,0-6.8-3.2-6.8-8.1c-0.1-4.6-0.1-9.3,0-13.9c0-2-0.4-3-2.7-2.9c-2.4,0-2.7,1.2-2.6,3.1
			c0.1,5-0.1,10,0.1,14.9c0.3,7.5,4.2,11.3,11.4,11.8c7.2,0.5,12.1-3.2,13.1-10.5C87.2,238.6,86.8,235.6,86.8,232.6z M44.5,250.9
			c-3.8-8.8-7.7-17.6-11.4-26.4c-0.7-1.6-1.6-2.3-3.3-2.3c-1.6,0-2.8,0.1-3.5,1.9c-3.8,8.9-7.7,17.8-11.5,26.7
			c3.8,1.5,5.8,0.3,6.7-3.1c0.7-2.8,2.4-3.6,5.1-3.3c2.1,0.2,4.3,0.2,6.4,0c2.6-0.3,4.1,0.8,4.6,3.2
			C38.5,251.5,40.8,252.2,44.5,250.9z M159.9,237.2c0-4.1-0.1-8.3,0-12.4c0-2-0.8-2.5-2.7-2.5c-1.9,0-2.6,0.7-2.6,2.6
			c0.1,8,0,15.9,0,23.9c0,1.7,0.3,2.7,2.4,2.8c2.2,0,2.9-0.7,2.8-2.9C159.8,244.8,159.9,241,159.9,237.2z"/>
		<path class="st0" d="M13.9,0c66.2,0,132.3,0,198.5,0c10.1,4,14.1,11.5,13.1,22.2c-0.5,5.1-0.2,10.3,0,15.4
			c0.1,2.6-0.7,4.8-2.1,6.9c-9.2,13.6-19.5,26.4-31.5,37.7c-11.2,10.5-23.5,19.3-38.7,23.1c-3.4-6.3-6.7-12.5-10.2-18.7
			c-5.3-9.4-10.8-18.7-18.8-26C109.7,47.3,93,42.8,73.9,47.9C69,41.1,65.2,33.5,59.7,27C45.5,10.3,22.2,7.5,4.6,20.7
			c-1.3,1-2.4,3-4.6,2.3c0-2.7,0-5.3,0-8C2.7,8.1,6.8,2.6,13.9,0z"/>
		<path class="st1" d="M1.1,128.8c-0.4-5.3-0.4-10.6,0-15.9C9.2,101.2,17,89.3,26.7,78.9C37.9,67,49.8,56.3,65.4,50.4
			c2,2,3.4,4.4,4,7.2c-16.3,6-28.4,17.6-39.6,30.3C18.6,100.4,9.9,114.7,1.1,128.8z"/>
		<path class="st1" d="M225.1,93.2c0.6,4.2,0.4,8.3,0.1,12.5c-3.4,4.6-7,9.1-10.2,13.9c-15.4,23-49.1,25.8-65.6-5
			c2.7-1.3,5.6-1.9,8.6-2c9,14.5,20.2,19.4,34.5,14.9c8.4-2.6,13.4-9.2,18.3-16C215.3,105.2,219.3,98.5,225.1,93.2z"/>
		<path class="st1" d="M77.5,55.2c-1.6-2.2-3.2-4.4-3.6-7.2c19.1-5.1,35.8-0.6,50.3,12.6c8,7.3,13.6,16.6,18.8,26
			c3.5,6.2,6.8,12.5,10.2,18.7c-2.9,1-5.7,2.2-8.9,1.3c-5.2-10.7-10.8-21.3-17.8-31C114.3,59,98.3,51.1,77.5,55.2z"/>
		<path class="st0" d="M65.4,50.4C49.8,56.3,37.9,67,26.7,78.9C17,89.3,9.2,101.2,1.1,112.8C1,87.7,0.9,62.6,0.8,37.6
			c0-1.2,0.4-2.2,1.1-3.2C14.7,17,39.2,15.9,51.5,29.9C57,36.2,61.9,42.8,65.4,50.4z"/>
		<path class="st0" d="M225.1,93.2c-5.8,5.3-9.9,12-14.4,18.3c-4.8,6.8-9.9,13.4-18.3,16c-14.3,4.5-25.5-0.4-34.5-14.9
			c28.9-10.4,48.6-31.9,67.2-56.7C225.1,69.1,225.1,81.2,225.1,93.2z"/>
		<path class="st0" d="M77.5,55.2c20.8-4,36.8,3.8,49,20.5c7,9.7,12.5,20.2,17.8,31C124,109.3,108.4,101,96,85.6
			C88.5,76.3,82.8,65.8,77.5,55.2z"/>
		<path class="st0" d="M104.6,176.9c1.6,4.4,3.1,8.2,4.6,12.4c-3.2,0-6.1,0-9.3,0C100.9,185.1,102.4,181.2,104.6,176.9z"/>
		<path class="st0" d="M195.1,247.2c-5.4-0.2-9.6-5.1-9.4-10.7c0.2-5.4,4.7-10,9.8-9.9c5.2,0.1,9.9,5.1,9.8,10.6
			C205.2,242.8,200.4,247.5,195.1,247.2z"/>
		<path class="st0" d="M113.2,236.5c0-0.7-0.1-1.3,0-2c0.3-2.4-1.3-6,0.8-6.9c3.2-1.3,7.1-0.9,10.4,1.1c4.4,2.7,5.7,8.9,2.9,13.6
			c-2.1,3.5-9.9,6-13.3,4.2c-1.1-0.6-0.9-1.6-0.9-2.5C113.1,241.5,113.2,239,113.2,236.5z"/>
		<path class="st0" d="M29.2,229.4c2.1,1.8,2.2,4.3,3.4,6.2c2.2,3.6,1,4.5-3,4.6c-4.6,0.1-4.9-1.3-2.9-4.9
			C27.6,233.5,28.3,231.5,29.2,229.4z"/>
	</g>
</g>
</svg>
