<?xml version="1.0" encoding="utf-8"?>
<!-- Generator: Adobe Illustrator 24.2.1, SVG Export Plug-In . SVG Version: 6.00 Build 0)  -->
<svg version="1.1" id="layer" xmlns="http://www.w3.org/2000/svg" xmlns:xlink="http://www.w3.org/1999/xlink" x="0px" y="0px"
	 viewBox="0 0 600 142.8" style="enable-background:new 0 0 600 142.8;" xml:space="preserve">
<g id="Page-1">
	<g id="Desktop_x2F_Legal" transform="translate(-43.000000, -20.000000)">
		<g id="Imported-Layers-2" transform="translate(43.000000, 20.000000)">
			<path id="Fill-1" d="M110.6,67.7l-10.8-4.6L80.7,74.6l-7-18.8L60.8,64l1.6,3.9l28,11.2l-10.3,28.4l6.4,2.2l-2.8,7.6l-14.2-5
				l10.2-28.5l-13.8-5.6l6.3,16.1l-34.7,0.1l-1.9,6.2l-7.7-2.8l4-11.3h28.8l-9.7-26l19.7-12.1l-4.1-10.9L51.3,58.2l-12-4.8l3.3-7.9
				l6.3,2.6l15.7-21l8.3,3.4l12.1,32L99.4,54l14.5,5.9L110.6,67.7L110.6,67.7z M91.1,45.4c2.1,0,3.9-1.7,3.9-3.9
				c0-2.2-1.7-3.9-3.9-3.9c-2.1,0-3.9,1.7-3.9,3.9C87.2,43.6,89,45.4,91.1,45.4L91.1,45.4z M79.5,41.5c0-6.5,5.2-11.7,11.6-11.7
				c6.4,0,11.6,5.2,11.6,11.7s-5.2,11.7-11.6,11.7C84.7,53.2,79.5,47.9,79.5,41.5L79.5,41.5z"/>
			<path id="Fill-2" d="M0,71.4c0,39.4,31.7,71.4,70.7,71.4s70.7-32,70.7-71.4S109.7,0,70.7,0S0,32.1,0,71.4L0,71.4z M5.8,71.4
				c0-36.1,29.1-65.6,64.9-65.6s64.9,29.4,64.9,65.6S106.5,137,70.7,137S5.8,107.6,5.8,71.4L5.8,71.4z"/>
			<path id="Fill-3" d="M575,59.1v19.3h-39.2v5.2h39.3v14h-39.2v4.8h39.2v15.1h-71.5V59.2H575"/>
			<path id="Fill-4" d="M464.9,59.1h32.2v58.3h-32.2L464.9,59.1L464.9,59.1z"/>
			<path id="Fill-5" d="M463.9,59.1h-39l-15.2,22.6V59.1h-32.4v58.3h32.2v-19l15.5,19h37.1l-25.3-28.1L463.9,59.1"/>
			<path id="Fill-6" d="M266.8,73.4l7.1,20.7h-10.2v16.1h13.8l2,7.1h33.8L292.6,59h-51.3l-20.7,58.3h32.7L266.8,73.4"/>
			<path id="Fill-7" d="M220.5,59.1v58.3h-30.4V88l-11.5,29.4h-17.1L150,86.7v30.7h-30V59h40.7l10,30l9.5-29.9H220.5"/>
			<path id="Fill-8" d="M600,110.8c0,4.1-2.9,7.8-10,7.8s-10-4.1-10-7.8c0-3.7,2.9-7.8,10-7.8C597.2,103,600,106.7,600,110.8"/>
			<path id="Fill-9" d="M372.3,59.9c0,0-14.4-2-27.6-2c-17.8,0-38.8,5.7-38.8,31.2c0,15.8,11.4,30,36.4,30c14.9,0,29.7-3.2,29.7-3.2
				V96.7c0,0-5.6,2.3-18.2,2.3c-13.7,0-14-5.6-14-9.8c0-4.2,4.4-8.3,14.6-8.3c12,0,17.9,1.7,17.9,1.7V59.9"/>
			<path id="Fill-10" d="M579.7,63.2c0-3.1,2.5-5.6,5.5-5.6s5.5,2.5,5.5,5.6s-2.4,5.6-5.5,5.6C582.2,68.8,579.7,66.3,579.7,63.2
				L579.7,63.2z M590,63.2c0-2.7-2.2-4.9-4.8-4.9c-2.7,0-4.8,2.2-4.8,4.9c0,2.7,2.1,4.9,4.8,4.9C587.8,68.2,590,66,590,63.2
				L590,63.2z M587.9,66.4H587l-1.7-2.9h-1.4v2.9h-0.7v-6.2h2.7c0.5,0,1,0,1.5,0.3s0.7,0.8,0.7,1.3c0,1.2-0.8,1.7-1.9,1.7
				L587.9,66.4L587.9,66.4z M585,62.9h0.5c0.8,0,1.7-0.1,1.7-1.1s-0.8-1.1-1.6-1.1h-1.7v2.2H585L585,62.9z"/>
			<path id="Fill-11" d="M59.1,111.1c0-2,1.6-3.7,3.7-3.7c2,0,3.6,1.7,3.6,3.7c0,2.1-1.6,3.7-3.6,3.7
				C60.7,114.8,59.1,113.1,59.1,111.1L59.1,111.1z M65.9,111.1c0-1.8-1.4-3.3-3.2-3.3c-1.8,0-3.2,1.5-3.2,3.3s1.4,3.3,3.2,3.3
				C64.5,114.4,65.9,112.9,65.9,111.1L65.9,111.1z M64.5,113.2h-0.6l-1.2-1.9h-0.9v1.9h-0.5V109h1.8c0.3,0,0.7,0,1,0.2
				c0.3,0.2,0.5,0.6,0.5,0.9c0,0.8-0.6,1.1-1.3,1.1L64.5,113.2L64.5,113.2z M62.6,110.8h0.3c0.5,0,1.1-0.1,1.1-0.8
				c0-0.6-0.6-0.7-1.1-0.7h-1.2v1.5H62.6L62.6,110.8z"/>
		</g>
	</g>
</g>
</svg>
