<?xml version="1.0" encoding="utf-8"?>
<!-- Generator: Adobe Illustrator 24.2.1, SVG Export Plug-In . SVG Version: 6.00 Build 0)  -->
<svg version="1.1" id="layer" xmlns="http://www.w3.org/2000/svg" xmlns:xlink="http://www.w3.org/1999/xlink" x="0px" y="0px"
	 viewBox="0 0 600 132.3" style="enable-background:new 0 0 600 132.3;" xml:space="preserve">
<style type="text/css">
	.st0{fill:#151616;}
	.st1{fill:#B6B7B7;}
	.st2{fill:#EF7622;}
	.st3{fill-rule:evenodd;clip-rule:evenodd;fill:#B6B7B7;}
</style>
<path class="st0" d="M191.5,44.5h5.6l9.9,19.7c1.6,3,2.7,6.3,3.5,8.8h0.1c-0.3-2.3-0.6-6.4-0.6-10.1V44.5h5.3v36.2h-6l-9.2-18.4
	c-2.2-4.5-3-7-3.8-9.6h-0.1c0.2,2.3,0.6,6.5,0.6,10.7v17.3h-5.3V44.5"/>
<polyline class="st0" points="225,44.5 244.6,44.5 244.6,49.4 230.7,49.4 230.7,59.4 242.2,59.4 242.2,64.2 230.7,64.2 230.7,75.8 
	245.5,75.8 245.5,80.7 225,80.7 225,44.5 "/>
<path class="st0" d="M253,69.9V44.5h5.6v25c0,4.7,1.2,7.1,5.4,7.1c3.5,0,6.1-1.7,7.5-3.1v-29h5.6v36.2H273l-0.9-3.2
	c-2.1,2.1-4.9,4-8.9,4C257.8,81.5,253,78.4,253,69.9"/>
<path class="st0" d="M286.9,44.5h8.4l5.8,19.5c0.9,2.9,1.2,5.2,1.4,7.2h0.1c0.2-2,0.3-4.3,1.2-7.2l5.7-19.5h8.6v36.2h-5.6V59.9
	c0-4.4,0.4-10,0.4-11.4h-0.4c-0.3,1.5-1.4,6.7-2.8,11.1L305,74.5h-5.7l-4.7-14.6c-1.3-4.1-2.5-10.2-2.7-11.5h-0.1
	c0,1.6,0.3,7.4,0.3,12v20.3h-5.2L286.9,44.5"/>
<path class="st0" d="M335.6,44.5h6.1l10.8,36.2h-6.2l-2.5-9.3h-11l-2.6,9.3h-5.9L335.6,44.5 M334.1,66.9h8.5l-1.9-7.1
	c-1.4-5-1.7-7.6-2.1-10h-0.1c-0.5,2.6-0.9,5-2.3,10L334.1,66.9z"/>
<path class="st0" d="M358.9,44.5h5.6l9.9,19.7c1.6,3,2.7,6.3,3.5,8.8h0.1c-0.3-2.3-0.6-6.4-0.6-10.1V44.5h5.3v36.2h-6l-9.2-18.4
	c-2.2-4.5-3-7-3.8-9.6h-0.1c0.2,2.3,0.6,6.5,0.6,10.7v17.3h-5.3V44.5"/>
<path class="st0" d="M392.4,44.5h5.6l9.9,19.7c1.6,3,2.7,6.3,3.5,8.8h0.1c-0.3-2.3-0.6-6.4-0.6-10.1V44.5h5.3v36.2h-5.9l-9.2-18.4
	c-2.2-4.5-3-7-3.8-9.6h-0.1c0.2,2.3,0.6,6.5,0.6,10.7v17.3h-5.3V44.5"/>
<path class="st0" d="M424,76.8c0-2.5,1.9-4.5,4.4-4.5s4.4,1.9,4.4,4.5c0,2.5-1.9,4.5-4.4,4.5S424,79.3,424,76.8"/>
<path class="st1" d="M440.1,44.5h11.6c6.9,0,10,3.6,10,9.5c0,3.8-1.1,6.1-4.7,7.6c3.7,1,6.3,3.5,6.3,8.8c0,7.2-4.3,10.3-11.3,10.3
	h-11.9V44.5 M451.3,59.5c3.8,0,4.7-1.7,4.7-5.2s-1-5.2-4.8-5.2h-5.4v10.3h5.5V59.5z M451.3,76c4.5,0,6-1.7,6-5.8
	c0-4-1.7-5.8-6.2-5.8h-5.2V76L451.3,76L451.3,76z"/>
<polyline class="st1" points="470.9,44.5 490.4,44.5 490.4,49.4 476.6,49.4 476.6,59.4 488.1,59.4 488.1,64.2 476.6,64.2 
	476.6,75.8 491.4,75.8 491.4,80.7 470.9,80.7 470.9,44.5 "/>
<path class="st1" d="M499,44.5h10.9c7.6,0,11.6,3.4,11.6,10.1c0,5.6-2.1,8.1-6.8,9.5c2.1,0.7,3.6,2.6,4.9,6.3l3.6,10.2h-6.1
	l-3.4-10.2c-1.4-4.1-3-5-6-5h-3v15.3H499V44.5 M509.9,60.9c4.4,0,5.8-1.9,5.8-6.1c0-3.9-1.5-5.5-5.8-5.5h-5.2v11.6H509.9z"/>
<polyline class="st1" points="529.8,44.5 535.5,44.5 535.5,75.8 548.2,75.8 548.2,80.7 529.8,80.7 529.8,44.5 "/>
<polyline class="st1" points="554.1,77.6 558.2,77 558.2,48.3 554.1,47.6 554.1,44.5 568,44.5 568,47.6 563.9,48.3 563.9,77 
	568,77.6 568,80.7 554.1,80.7 554.1,77.6 "/>
<path class="st1" d="M576.2,44.5h5.6l9.9,19.7c1.6,3,2.7,6.3,3.5,8.8h0.1c-0.3-2.3-0.6-6.4-0.6-10.1V44.5h5.3v36.2h-6l-9.2-18.4
	c-2.2-4.5-3-7-3.8-9.6h-0.1c0.2,2.3,0.6,6.5,0.6,10.7v17.3h-5.3V44.5"/>
<polyline class="st2" points="149.6,52.8 149.6,77.7 160.9,65.2 149.6,52.8 "/>
<polyline class="st2" points="165,52.8 165,77.7 176.3,65.2 165,52.8 "/>
<path class="st3" d="M72.6,68.3V45.1V19.8H59.8v34l-1.6-1.9V18.3h15.9v51.9L72.6,68.3 M59.8,64v48.4h12.8V78.7l1.5,1.8v33.6H58.2
	V62.3L59.8,64z M66.2,126.5L5.8,66.2L66.2,5.9l60.3,60.3L66.2,126.5z M66.2,132.3L0,66.2L66.1,0l66.1,66.1L66.2,132.3z M59.8,61.3
	l-3.7-4.2v37.5C44.5,90.4,36,79.2,36,66.2c0-6.5,2.1-12.6,5.6-17.5c3.6-5,8.6-8.8,14.4-10.9v1.9c-10.7,4.1-18.4,14.5-18.4,26.5
	c0,11,6.3,20.7,15.6,25.3v-1.8c-8.3-4.6-14-13.5-14-23.6c0-11.3,7-21,16.8-24.9v1.9c-8.8,3.9-15.1,12.7-15.1,23
	c0,9.1,4.8,17.3,12.3,21.7v-1.9c-6.4-4.2-10.6-11.6-10.6-19.7c0-9.3,5.6-17.6,13.4-21.4v2c-7,3.8-11.8,10.9-11.8,19.3
	c0,7.2,3.4,13.8,9,17.7V51l1-0.7l5.4,6.2v4.8H59.8z M72.6,71l3.6,4.1V37.7c11.7,4.2,20.1,15.4,20.1,28.4c0,6.5-2.1,12.6-5.6,17.5
	c-3.6,5-8.6,8.8-14.4,10.9v-1.9C87,88.5,94.6,78.1,94.6,66.1c0-11.1-6.3-20.7-15.6-25.4v1.8c8.3,4.6,14.1,13.5,14.1,23.6
	c0,11.2-7,21-16.8,24.9v-1.9c8.8-3.9,15.1-12.7,15.1-22.9c0-9.2-4.8-17.3-12.3-21.7v1.9c6.4,4.2,10.6,11.6,10.6,19.8
	c0,9.3-5.5,17.6-13.4,21.3v-2c7-3.8,11.8-10.9,11.8-19.3c0-7.3-3.4-13.9-9-17.8v32.9l-1,0.7l-5.3-6.2V71H72.6z M61.7,99.2h1.8
	l5.4,8.3v-8.3h1.8v11.4h-1.8l-5.4-8.2v8.2h-1.8V99.2z M61.7,86.3h1.8l5.4,8.3v-8.3h1.8v11.4h-1.8l-5.4-8.2v8.2h-1.8V86.3z
	 M65.3,73.3h1.9l3.5,11.4h-1.9l-0.5-1.8h-4.2l-0.6,1.8h-1.8L65.3,73.3z M66.2,76.3l-1.6,4.9h3.1L66.2,76.3z M61.7,71.8V60.4h1.2
	l3.3,3.9l3.3-3.9h1.2v11.3h-1.8v-7.9L66.3,67l-2.8-3.2v7.9h-1.8V71.8z M61.7,54.7v-7.2h1.8v7c0,1.9,1.5,2.7,2.7,2.7
	c1.3,0,2.7-0.7,2.7-2.7v-7h1.8v7.2c0,2.5-1.9,4.4-4.5,4.4C63.6,59.1,61.7,57.3,61.7,54.7z M61.7,21.6h1.8l5.4,8.3v-8.3h1.8V33h-1.8
	l-5.4-8.2V33h-1.8V21.6z M61.7,34.6h9v1.8h-7.2v3.1h7.2v1.8h-7.2v2.9h7.2V46h-9V34.6z"/>
</svg>
