<svg xmlns="http://www.w3.org/2000/svg" viewBox="0 0 196 30" width="196" height="30"><style>.st0{fill:#111}.st1{fill:#5d86a0}</style><g id="Layer_1"><path class="st0" d="M50.2 18.8V9.2h2.4l1.6 4.2h.1V9.2h2.1v9.6h-2.3l-1.7-5v5h-2.2M65.5 18.8h-2.4l-.2-1.2h-1.5l-.2 1.2h-2.4l1.8-9.7h3l1.9 9.7m-4-3.1h1.2l-.6-4-.6 4zM71.2 11.2v7.6h-2.5v-7.6h-1.9v-2h6.3v2h-1.9M75.5 9.2H78v9.7h-2.5zM84.9 9.2h2.3l-1.9 9.6h-2.5l-2.3-9.6h2.4l1 5.5h.1l.9-5.5M89.6 18.8V9.2H95v2h-2.9v1.6h2.4v2.1h-2.4v1.9h3v2h-5.5M102 9.2h2.5v9.7H102zM107.7 18.8V9.2h2.4l1.6 4.2h.1V9.2h2.1v9.6h-2.3l-1.7-5v5h-2.2M120.8 12.2c0-1.1-.4-1.3-.9-1.3s-.7.3-.7.6c0 1.2 4 2.1 4 4.8 0 1.9-1.3 2.7-3.4 2.7-2.6 0-3.1-1.7-3.1-3.4h2.3v.4c0 .6.4 1.1 1 1.1.5 0 .9-.3.9-.8 0-1.3-4-2.3-4-4.9 0-1.6 1.4-2.5 3.1-2.5 1.9 0 3.1 1.1 3.1 2.7v.4h-2.3M129.7 11.2v7.6h-2.5v-7.6h-1.9v-2h6.3v2h-1.9M134.2 18.8V9.2h3.1c2.1 0 3.1.6 3.1 2.7 0 1.5-.7 2-1.2 2.2.9.1 1.2 1.5 1.2 2.7 0 1 .1 1.6.3 2h-2.4c-.2-.8-.3-1.3-.3-2 0-1.6-.1-1.9-1-1.9h-.4v3.9h-2.4m2.4-5.6h.4c.7 0 .9-.4.9-1.2 0-.8-.2-1.2-.9-1.2h-.4v2.4zM149.5 9.2v7.3c0 1.6-1.1 2.5-3.1 2.5s-3.1-.9-3.1-2.5V9.2h2.5v7c0 .5.1.8.6.8s.6-.3.6-.8v-7h2.5M152.5 18.8V9.2h2.9l1.1 4.6 1-4.6h3v9.6h-2.2v-5.7l-1.1 5.7h-1.4l-1.1-5.7h-.1v5.7h-2.1M163.4 18.8V9.2h5.4v2h-2.9v1.6h2.4v2.1h-2.4v1.9h3.1v2h-5.6M171.8 18.8V9.2h2.4l1.6 4.2V9.2h2.2v9.6h-2.4l-1.7-5v5h-2.1M184.9 11.2v7.6h-2.5v-7.6h-1.9v-2h6.3v2h-1.9M192.9 12.2c0-1.1-.4-1.3-.9-1.3s-.7.3-.7.6c0 1.2 4 2.1 4 4.8 0 1.9-1.3 2.7-3.4 2.7-2.6 0-3.1-1.7-3.1-3.4h2.3v.4c0 .6.4 1.1 1 1.1.5 0 .9-.3.9-.8 0-1.3-4-2.3-4-4.9 0-1.6 1.4-2.5 3.1-2.5 1.9 0 3.1 1.1 3.1 2.7v.4h-2.3"/></g><g id="Layer_4"><path class="st1" d="M40 3H21v24h19V3zm-9 19h-3V8h3v14z"/><path class="st0" d="M2.6 3C8.7 4.5 14.8 5.3 21 5.3c6.1 0 12.3-.8 18.4-2.3l-1.6-.9c.5 1.2.8 3.2 1.1 5.5.2 2.3.4 4.8.4 7.4 0 2.6-.1 5.2-.4 7.4-.2 2.3-.6 4.2-1.1 5.5l1.6-.9c-6.1-1.5-12.3-2.3-18.4-2.3h-.1c-6.1 0-12.3.8-18.4 2.3l1.7.9c-.4-1.2-.8-3.2-1.1-5.5-.2-2.3-.4-4.8-.4-7.4 0-2.6.1-5.2.4-7.4.2-2.3.6-4.2 1.1-5.5L2.6 3l.3-1.4-1.3-.4C1 2.8.7 4.9.4 7.3.1 9.7 0 12.3 0 15s.1 5.3.4 7.7c.3 2.4.6 4.5 1.2 6.1L2 30l1.2-.3c5.9-1.5 11.8-2.2 17.7-2.2 5.9 0 11.8.7 17.7 2.2l1.2.3.4-1.2c.6-1.6.9-3.7 1.2-6.1.3-2.4.4-5.1.4-7.7 0-2.7-.1-5.3-.4-7.7-.3-2.4-.6-4.5-1.2-6.1L39.9 0l-1.2.3C32.8 1.8 26.9 2.5 21 2.5h-.1C15 2.5 9.1 1.8 3.3.3L2 0l-.4 1.2 1.3.5"/><path class="st0" d="M11 22v-7l2 7h3V8h-3v6l-2-6H8v14z"/></g></svg>