<?xml version="1.0" encoding="utf-8"?>
<!-- Generator: Adobe Illustrator 24.2.1, SVG Export Plug-In . SVG Version: 6.00 Build 0)  -->
<svg version="1.1" id="Layer_1" xmlns="http://www.w3.org/2000/svg" xmlns:xlink="http://www.w3.org/1999/xlink" x="0px" y="0px"
	 viewBox="0 0 978.5 166.2" style="enable-background:new 0 0 978.5 166.2;" xml:space="preserve">
<style type="text/css">
	.st0{fill:#085396;}
	.st1{fill:#281F07;}
</style>
<g>
	<path class="st0" d="M0,113.2c7.8-0.6,13.9-4.3,18.4-10.5C28.1,89.4,32.7,73.9,35.9,58c1.2-5.9,2.7-11.7,3.1-17.7
		c0.1-1.2,0.4-3.1,2.8-3.2c4.9,28.8,8,57.8,12.1,86.6c1.8,12.9,3.4,25.7,5.2,38.6c0.4,2.6,0.1,4-3.2,3.8c-9.1-0.8-18.2-1.8-27-4.5
		c-15.3-4.5-22-16.2-25.8-30.4c-0.6-2.1-1.3-4-3.2-5.1C0,121.9,0,117.5,0,113.2z"/>
	<path class="st0" d="M0,49.2c2.8-4.8,2.3-10.5,4-15.6C6.5,26.2,9.1,18.9,14.6,13c4.1-4.4,9.3-6.8,14.9-8.5c1.9-0.6,3.3-0.7,2.6,2.1
		c-5.3,24.1-7.4,48.9-16.1,72.3c-2.1,5.8-4.7,11.3-8.7,16.1c-1.9,2.3-4,4.5-7.4,4.1C0,82.5,0,65.9,0,49.2z"/>
	<path class="st1" d="M290.6,7.8c13.6,0.3,25.9,0.1,37.8,4.2c14.3,5,21.9,15,22.8,30.1c1.8,31.2-18.2,54.1-49.3,56.1
		c-6.1,0.4-12.3,0.5-18.5,0.3c-3.2-0.1-4.2,1-4.8,4.1c-2.8,15.4-5.9,30.7-8.7,46.1c-0.7,4.1-2.2,5.9-6.6,5.5c-6-0.5-12-0.2-18,0
		c-3,0.1-3.6-0.9-3-3.7c5.8-29.4,11.5-58.8,17.2-88.2c3.2-16.5,6.4-33,9.5-49.5c0.7-3.5,1.7-5.5,5.9-5.1
		C280.5,8.1,286.2,7.8,290.6,7.8z M292,75.4c2.2-0.1,4.3-0.1,6.5-0.3c15.5-1.7,25.4-12.9,24.6-27.9c-0.4-7.9-4.5-12.9-12.2-15.1
		c-4.9-1.4-9.9-0.9-14.9-1.2c-2.7-0.1-3.7,0.7-4.2,3.5c-1.9,11-4.1,21.9-6.3,32.8C284,75.4,284,75.4,292,75.4z"/>
	<path class="st1" d="M595.8,36c-7.9-4.1-15.7-6.6-24.1-7.4c-6.1-0.6-12,0.2-17.4,3.1c-9,4.8-11.2,15.1-5,23.3
		c3.2,4.2,7.4,7.1,11.7,10c5.4,3.6,11,7,15.9,11.2c14.5,12.3,16.6,28.2,12.9,45.5c-3.7,17.3-15.3,27.7-31.9,32.3
		c-19.5,5.4-38.6,2.7-57.2-4.4c-2.5-0.9-2.3-2.1-1.7-4.1c1.7-5.9,3.5-11.8,4.8-17.8c0.9-4.1,2.5-3.9,5.6-2.3
		c9.9,5,20.1,8.7,31.5,7.9c13.9-1,22.9-10.7,22.2-23.8c-0.3-6.7-3.8-11.7-9-15.4c-6.1-4.4-12.4-8.4-18.7-12.4
		c-14.1-9.1-19.5-22.2-17.4-38.6c2-15.9,10.5-27.2,25.3-33.1c18.7-7.5,37.5-5.5,56.2,0.7c1.5,0.5,2.9,1.1,2.4,3.1
		C599.9,21.1,597.9,28.4,595.8,36z"/>
	<path class="st1" d="M597.2,107.6c-0.4-29.6,17-54.4,43.2-61.9c20-5.7,40.6,0.1,51.4,14.8c7.4,10,9.5,21.5,9,33.6
		c-0.9,20.7-7.5,38.9-24.7,51.7c-14.6,10.9-31.3,13.7-48.8,8.9c-18.3-5.1-29.1-20.9-30.1-42.5C597.1,110.6,597.2,109.1,597.2,107.6z
		 M674.1,90.5c-0.3-2.3-0.5-5.3-1-8.2C670.9,70,662.9,64.2,650.6,66c-5.4,0.8-9.9,3.2-13.3,7.2c-12,13.8-15.7,29.9-11.6,47.5
		c2.7,11.6,13.6,16.8,25,13.1c5-1.7,9.1-4.7,12.4-8.9C670.7,114.9,673.3,103.4,674.1,90.5z"/>
	<path class="st1" d="M491.6,128.4c-1,7.2-1.9,13.6-2.7,20.1c-0.2,1.8-1.4,2.4-2.9,2.9c-13.8,4.5-27.7,6.9-42.2,4
		c-18-3.7-29.6-14.3-32.9-32.4c-4.6-25.7,2.3-48.3,21.6-66.2c13.4-12.5,29.7-15.8,47.4-11.3c15.6,4,25.4,17.4,26.2,35
		c0.4,8.2-0.5,16.3-1.6,24.4c-0.5,3.4-1.7,4.3-5.1,4.3c-20.2-0.1-40.3,0.1-60.5-0.1c-4.2,0-5,1.3-4.6,5.1c1.5,13,7.9,19.8,20.9,21.6
		c10.9,1.5,21.2-0.9,31.2-4.9C487.7,130,489.3,129.4,491.6,128.4z M438.2,89.3c13.4,0,26.7,0,40,0c1,0,2.1,0.4,2.8-1.2
		c4.4-10.7-3.8-23.4-15.4-23.8C452.3,63.8,440.8,74.3,438.2,89.3z"/>
	<path class="st1" d="M862.9,144.2c-7.7,6.5-15.1,11.3-24.5,12.2c-19.9,1.9-34.6-11.1-35.4-31.1c-0.3-7.2,0.6-14.3,2-21.3
		c3.6-18.1,7.3-36.2,10.8-54.3c0.6-3,1.7-3.7,4.6-3.6c6,0.2,12,0.3,18,0c3.8-0.2,3.8,1.3,3.3,4.3c-3.7,19.4-7.3,38.9-10.8,58.4
		c-0.6,3.3-0.8,6.6-0.8,9.9c-0.1,12.7,9.3,19.1,21.2,14.7c6-2.2,9.9-6.5,12.9-11.9c6-10.9,7.4-23,9.8-34.9c2.5-12.2,4.9-24.5,7-36.8
		c0.5-3,1.7-3.8,4.5-3.7c6.2,0.2,12.3,0.2,18.5,0c3.1-0.1,3.6,1.1,3,3.8c-4.5,22.5-9,45-13.4,67.6c-2.2,11.1-4.3,22.2-6.2,33.4
		c-0.5,2.8-1.5,3.5-4.1,3.4c-5.5-0.2-11-0.4-16.5,0.1c-4.5,0.4-5.6-1.3-4.6-5.3C862.5,147.7,862.6,146.4,862.9,144.2z"/>
	<path class="st1" d="M741.8,55.8c7-6.1,13.6-10.4,21.8-11.7c21.6-3.4,37.9,10.7,37.9,32.8c0,14.6-4.3,28.6-6.7,42.8
		c-1.7,10-3.9,19.9-5.8,29.9c-0.6,3.1-1.4,4.9-5.3,4.6c-6-0.4-12-0.2-18,0c-2.9,0.1-3.5-0.6-3-3.6c3.7-19.3,7.3-38.6,10.7-57.9
		c0.6-3.6,1-7.3,1-10.9c0.1-13.7-10.9-20.4-23.3-14.1c-8.6,4.3-12.4,12.3-15.1,20.8c-4.3,13.8-6,28.3-9,42.4
		c-1.4,6.7-2.8,13.4-3.8,20.1c-0.4,2.6-1.5,3.2-3.9,3.1c-6.2-0.1-12.3-0.2-18.5,0c-3.5,0.1-4-0.9-3.3-4.2
		c5.7-28.4,11.3-56.7,16.8-85.1c1-5.1,2-10.1,2.6-15.2c0.3-2.8,1.4-3.6,4.1-3.5c5.8,0.2,11.7,0.2,17.5,0c3.7-0.2,4.6,1.1,3.7,4.5
		C741.8,51.9,742,53.4,741.8,55.8z"/>
	<path class="st1" d="M923.4,156.7c-9.2-0.2-18.2-1.4-26.8-5.1c-2.3-1-2.9-2.1-2.2-4.5c1.5-5.3,2.7-10.6,3.9-16
		c0.6-2.9,1.8-3.2,4.3-1.7c8.5,5.2,17.5,8.1,27.6,5.9c4.8-1,9.1-2.9,10.6-7.9c1.6-5.1-0.4-9.5-3.9-13.2c-3.9-4-8.6-6.8-13-10
		c-8.8-6.4-15.6-14-15.8-25.7c-0.2-14,7-25,20-30.5c16.1-6.8,32.3-4.6,48.5-0.7c1.9,0.5,2.3,1.3,1.7,3.2c-1.5,5.1-3,10.2-4,15.4
		c-0.6,3-1.7,3.3-4.3,2.2c-7.8-3.1-15.8-5-24.4-3.2c-4.6,1-8.7,2.8-10.2,7.7c-1.5,5.1,1.6,8.7,5.2,11.6c5.2,4.4,10.7,8.4,16.2,12.6
		c19.4,14.8,14,48.7-11.2,56.5C938.2,155.6,930.9,156.6,923.4,156.7z"/>
	<path class="st1" d="M380.8,62.4c4-4.6,7.6-9.3,12.4-12.9c7-5.2,14.6-6.8,23.1-5.4c2.2,0.3,2.7,1,2.2,3.2c-1.6,7.5-3,15-4.4,22.5
		c-0.3,1.4-0.3,2.3-2.3,2c-19.6-2.1-29.9,4.7-35.6,24.1c-4.7,16.1-6.7,32.9-10,49.4c-1.8,8.8-1.7,8.9-10.7,8.8
		c-4.2,0-8.4-0.3-12.5,0.1c-3.9,0.3-4.3-1.1-3.7-4.5c5.1-26.5,10.1-53,15.1-79.4c1.3-6.9,2.6-13.7,3.6-20.6c0.3-2.4,0.9-3.6,3.6-3.5
		c6.2,0.2,12.3,0.2,18.5,0c3.1-0.1,3.1,1.2,2.7,3.6C382,53.9,381.4,58.1,380.8,62.4z"/>
	<path class="st0" d="M161.8,100.5c-0.8-7.4-1.6-14.8-2.3-22.2c-2.5-24.5-4.9-49-7.6-73.5c-0.5-4.5,1.1-4.9,4.8-4.5
		c8.4,0.9,16.8,1.8,25.1,4.1c11.5,3.2,19.5,10.3,23.9,21.5c4.9,12.5,6.5,25.5,6.4,39.8c-3.9-3.1-6.9-5.9-10.5-7.8
		c-14.8-8.2-28-3.1-33.7,12.9C164.3,80.4,163.7,90.5,161.8,100.5z"/>
	<path class="st0" d="M212.3,104.7c0.2,12.1-1.3,25.2-6.7,37.7c-6,13.7-17.2,19.6-31.2,21.6c-3.3,0.5-2.5-1.8-2.4-3.4
		c0.6-9.5,1.3-18.9,2-28.4c1.3-15.8,2.5-31.5,4-47.3c0.4-4.6,1.9-9.1,4-13.3c1.8-3.8,4.8-4.7,8.7-3.8c4.6,1.1,8,4,11.2,7.2
		c10.4,10.5,10.4,10.5,10.4,25.4C212.3,101.4,212.3,102.4,212.3,104.7z"/>
	<path class="st0" d="M68,127.5c-3.4-25-6.7-50.1-10-75.1c-2.1-16-4.1-32-6.5-47.9c-0.5-3.2,0.6-4,3.1-4c9.6-0.2,19.3-0.2,28.9-0.4
		c2.1,0,2.5,0.7,2.2,2.7c-3.1,22.9-6.1,45.8-9.2,68.7c-2.2,16.3-4.3,32.6-6.5,48.9c-0.3,2.4-0.8,4.9-1.2,7.3
		C68.6,127.7,68.3,127.6,68,127.5z"/>
	<path class="st0" d="M116.8,124.9c-1-8.5-1.9-16-2.7-23.5c-3.6-32.1-7.2-64.2-10.9-96.2c-0.4-3.5-0.2-5.4,4.2-5.2
		c8.1,0.4,16.3,0.2,24.5,0.1c2.3,0,3.2,0.4,2.8,3.1c-5.6,40-11.2,79.9-16.7,119.9C117.9,123.4,117.6,123.6,116.8,124.9z"/>
	<path class="st0" d="M94.3,45.8c0.9,7.8,1.8,15.7,2.7,23.5c3.2,28.6,6.4,57.2,9.8,85.7c1.3,11.1,1.5,11-9.6,11c-5,0-10-0.3-15,0.1
		c-4.9,0.5-4.5-2.1-4.1-5.4c2.3-17,4.5-33.9,6.8-50.9c2.8-21.3,5.7-42.7,8.5-64C93.8,45.8,94,45.8,94.3,45.8z"/>
	<path class="st0" d="M142.8,48.2c1.7,16.6,3.5,32.7,5.1,48.9c2.2,21.5,4.2,43,6.7,64.5c0.4,3.9-0.7,4.6-4,4.5c-7-0.2-14-0.2-21,0
		c-3.2,0.1-4-0.9-3.5-4.1c3.5-24.9,7-49.7,10.4-74.6c1.6-11.4,3.1-22.7,4.6-34.1C141.3,51.7,141.4,50.1,142.8,48.2z"/>
</g>
</svg>
