<?xml version="1.0" encoding="UTF-8"?>
<!-- Generator: Adobe Illustrator 21.0.0, SVG Export Plug-In . SVG Version: 6.00 Build 0)  -->
<svg version="1.1" id="Layer_1" xmlns="http://www.w3.org/2000/svg" xmlns:xlink="http://www.w3.org/1999/xlink" x="0px" y="0px" viewBox="0 0 113.3859863 172.6622162" enable-background="new 0 0 113.3859863 172.6622162" xml:space="preserve">
<g>
	<g>
		<path d="M52.2856979,133.1259613c-11.0148926,0-19.8841553,8.8116455-19.8841553,19.7674561    c0,10.9571533,8.8692627,19.7687988,19.8841553,19.7687988s19.9418945-8.8116455,19.9418945-19.7687988    C72.2275925,141.9376068,63.3005905,133.1259613,52.2856979,133.1259613z M52.2856979,167.328598    c-7.8845215,0-14.0861816-6.3186035-14.0861816-14.4351807c0-8.1151123,6.2016602-14.4337158,14.0861816-14.4337158    s14.1452637,6.3186035,14.1452637,14.4337158C66.4309616,161.0099945,60.1702194,167.328598,52.2856979,167.328598z"/>
		<polygon points="82.286026,133.5903168 76.6048737,133.5903168 76.6048737,172.1979828 101.7210999,172.1979828     101.7210999,167.0964203 82.286026,167.0964203   "/>
		<rect x="105.9741211" y="133.5903168" width="5.6812744" height="38.607666"/>
		<path d="M20.398386,157.3591156c5.6695557-1.5603027,8.9239502-6.1030273,8.9239502-11.5629883    c0-6.8347168-5.005249-12.2058105-13.4279785-12.2058105H1.6738983v38.607666h5.9815674v-33.2365723h7.8122563    c4.6379395,0,7.8123779,2.6856689,7.8123779,6.8347168c0,3.6264648-2.4985352,6.144165-6.2972412,6.6693115    c-0.4855957,0.0671387-0.989502,0.1062012-1.5151367,0.1062012h-6.34729l15.2125244,19.6263428h7.5678711L20.398386,157.3591156z"/>
	</g>
	<g>
		<path d="M113.3859863,56.6928711c0,31.3110352-25.3820801,56.6931152-56.6929932,56.6931152S0,88.0039062,0,56.6928711    C0,25.3825684,25.3820801,0,56.6929932,0S113.3859863,25.3825684,113.3859863,56.6928711z M76.7219086,80.7841797    c-0.4154053-0.6948242-1.0765381-1.1855469-1.8619385-1.3828125c-3.4918213-0.8759766-6.6081543-3.8618164-9.4553223-6.9577637    c-1.2060547-1.3129883-2.7060547-2.9477539-4.2637939-4.3840332l-0.3023682-0.277832l0.3867188-0.1396484    c7.7668457-2.7998047,12.9848633-10.2294922,12.9848633-18.487793c0-10.7231445-8.6088867-19.1223145-19.5992432-19.1223145    H43.6658783c-1.6708984,0-3.03125,1.359375-3.0332031,3.0290527l-0.0009766,0.0432129    c0.0214844,1.6555176,1.3746338,2.9960938,3.0341797,2.9960938h10.9449463c7.59729,0,13.5484619,5.7341309,13.5484619,13.0539551    c0,7.4841309-6.0776367,13.572998-13.5484619,13.572998H43.6658783c-1.6728516,0-3.0341797,1.3603516-3.0341797,3.0332031    s1.3613281,3.0341797,3.0341797,3.0341797h5.8903809c4.2669678,0,7.730957,3.7692871,11.3984375,7.7607422    c3.3858643,3.6838379,7.1345215,7.3925781,12.4277344,8.7250977c0.7844238,0.1943359,1.598877,0.0771484,2.2949219-0.3393555    c0.6950684-0.4152832,1.1854248-1.076416,1.3828125-1.8620605C77.2576752,82.2946777,77.1382904,81.479248,76.7219086,80.7841797z    "/>
	</g>
</g>
</svg>