<?xml version="1.0" encoding="utf-8"?>
<!-- Generator: Adobe Illustrator 24.2.1, SVG Export Plug-In . SVG Version: 6.00 Build 0)  -->
<svg version="1.1" id="layer" xmlns="http://www.w3.org/2000/svg" xmlns:xlink="http://www.w3.org/1999/xlink" x="0px" y="0px"
	 viewBox="0 0 602.4 182.6" style="enable-background:new 0 0 602.4 182.6;" xml:space="preserve">
<style type="text/css">
	.st0{fill:#FA4C06;}
	.st1{fill:none;stroke:#FA4C06;stroke-width:4.6808;}
	.st2{fill:#231815;}
</style>
<path d="M176.9,172.9l-16.4-19.2l-16.2,19.2H176.9z M179.4,175.6H142l-5.7,6.6h-8.8l27.1-31.4h11.7l27.6,31.4h-8.7L179.4,175.6z"/>
<g>
	<path d="M256.1,150.9h8.3v22c0,4-1.9,6.6-5.7,7.8c-3.8,1.2-11.7,1.9-23.8,1.9c-11.3,0-19-0.6-23-1.8c-4.1-1.2-6.1-3.5-6.1-6.9v-1
		v-22h8.3v22c0,3,1.1,4.8,3.4,5.6c2.3,0.8,7.9,1.1,16.8,1.1c9.7,0,15.7-0.4,18.1-1.1s3.6-2.6,3.6-5.6v-22H256.1z"/>
	<path d="M291.3,179.3h24.1c8.8,0,14.5-0.7,17.1-2.3c2.6-1.5,3.8-4.8,3.8-10c0-5.7-1.1-9.3-3.3-10.8c-2.2-1.5-7.5-2.3-15.9-2.3
		h-25.8L291.3,179.3L291.3,179.3z M282.9,182.3v-31.4h34.2c10.6,0,17.7,1,21.5,3s5.6,5.8,5.6,11.4c0,6.8-1.7,11.3-5,13.6
		c-3.3,2.3-10,3.4-20,3.4H282.9z"/>
</g>
<rect x="362.3" y="150.9" width="8.3" height="31.4"/>
<g>
	<path d="M420.3,153.5c-11.7,0-18.5,0.6-20.5,1.7s-3,4.9-3,11.4s1,10.3,3,11.4s8.8,1.7,20.5,1.7s18.6-0.6,20.6-1.7s3-4.9,3-11.4v-2
		v-3c0-3.5-1.4-5.7-4.1-6.6C437,154,430.5,153.5,420.3,153.5 M420.4,150.6c14,0,22.7,0.9,26.2,2.6s5.3,6.1,5.3,13
		c0,7.5-1.7,12.1-5,13.8c-3.4,1.7-12.2,2.6-26.4,2.6c-14.2,0-23-0.9-26.4-2.6s-5.1-6.2-5.1-13.4v-2.2l0.1-3c0-4.2,2.2-7,6.6-8.5
		C400,151.3,408.3,150.6,420.4,150.6"/>
	<path class="st0" d="M165.3,92c0,8.5-0.8,15.2-2.4,19.9c-1.6,4.7-4.5,9.1-8.8,13.3c-4.2,4.2-9.4,7.3-15.6,9.6
		c-6.2,2.2-12.7,3.3-19.6,3.3c-8.6,0-15.7-1.1-21.2-3.3c-5.5-2.2-10.5-5.9-14.9-11.2c-7.5,9.7-18.8,14.5-33.9,14.5
		c-14.2,0-25.6-3.8-34-11.4S2.3,108.8,2.3,96V11.8h32.9v80.6c0,12.3,5.2,18.4,15.5,18.4c10.9,0,16.3-6.2,16.3-18.6V11.8h32.9v80.8
		c0,12.1,5.4,18.2,16.3,18.2c5.6,0,9.7-1.5,12.3-4.6s3.8-8,3.8-14.7V11.8h32.9V92H165.3z"/>
	<path class="st1" d="M165.3,92c0,8.5-0.8,15.2-2.4,19.9c-1.6,4.7-4.5,9.1-8.8,13.3c-4.2,4.2-9.4,7.3-15.6,9.6
		c-6.2,2.2-12.7,3.3-19.6,3.3c-8.6,0-15.7-1.1-21.2-3.3c-5.5-2.2-10.5-5.9-14.9-11.2c-7.5,9.7-18.8,14.5-33.9,14.5
		c-14.2,0-25.6-3.8-34-11.4S2.3,108.8,2.3,96V11.8h32.9v80.6c0,12.3,5.2,18.4,15.5,18.4c10.9,0,16.3-6.2,16.3-18.6V11.8h32.9v80.8
		c0,12.1,5.4,18.2,16.3,18.2c5.6,0,9.7-1.5,12.3-4.6s3.8-8,3.8-14.7V11.8h32.9V92H165.3z"/>
	<path class="st0" d="M282.7,136.1H250V87.7l-29.3,0.1V63.9H250v-4.8c0-14.7-5.9-22.1-17.6-22.1c-12.3,0-18.4,7.1-18.4,21.4v77.7
		h-32.7V59.2c0-15.2,4.5-27.3,13.5-36.1c9-8.8,21.3-13.3,36.8-13.3c16,0,28.6,4.4,37.6,13.3c9,8.9,13.5,21.3,13.5,37.3V136.1z"/>
	<path class="st1" d="M282.7,136.1H250V87.7l-29.3,0.1V63.9H250v-4.8c0-14.7-5.9-22.1-17.6-22.1c-12.3,0-18.4,7.1-18.4,21.4v77.7
		h-32.7V59.2c0-15.2,4.5-27.3,13.5-36.1c9-8.8,21.3-13.3,36.8-13.3c16,0,28.6,4.4,37.6,13.3c9,8.9,13.5,21.3,13.5,37.3V136.1z"/>
	<path class="st0" d="M396.6,136.1h-32.7v-28.4c0-7.1-1.1-12.1-3.4-15.1s-6.8-4.6-13.6-4.6l-9.1-0.1L337.7,64h5.4
		c11.7,0,17.6-4.5,17.6-13.4c0-4.1-1.2-7.4-3.6-9.8c-2.4-2.5-5.7-3.7-10-3.7c-6.1,0-10.6,2.4-13.2,7.3c-2,3.1-3,8.7-3,16.7v75.1
		h-32.6V54.9c0-14.1,4.3-25.2,12.9-33.2c8.6-8,20.5-12,35.8-12c13.4,0,24.6,3.5,33.8,10.6c9.2,7.1,13.7,15.7,13.7,26
		c0,5.7-1.1,10.7-3.4,15s-5.9,8.1-11,11.4c6.1,2.4,10.5,5.7,12.9,10.1c2.5,4.4,3.7,10.8,3.7,19.1L396.6,136.1L396.6,136.1z"/>
	<path class="st1" d="M396.6,136.1h-32.7v-28.4c0-7.1-1.1-12.1-3.4-15.1s-6.8-4.6-13.6-4.6l-9.1-0.1L337.7,64h5.4
		c11.7,0,17.6-4.5,17.6-13.4c0-4.1-1.2-7.4-3.6-9.8c-2.4-2.5-5.7-3.7-10-3.7c-6.1,0-10.6,2.4-13.2,7.3c-2,3.1-3,8.7-3,16.7v75.1
		h-32.6V54.9c0-14.1,4.3-25.2,12.9-33.2c8.6-8,20.5-12,35.8-12c13.4,0,24.6,3.5,33.8,10.6c9.2,7.1,13.7,15.7,13.7,26
		c0,5.7-1.1,10.7-3.4,15s-5.9,8.1-11,11.4c6.1,2.4,10.5,5.7,12.9,10.1c2.5,4.4,3.7,10.8,3.7,19.1L396.6,136.1L396.6,136.1z"/>
	<path class="st0" d="M413.2,55.7c0-8.5,0.8-15.2,2.4-19.9c1.6-4.7,4.5-9.1,8.8-13.3c4.2-4.2,9.4-7.3,15.6-9.6
		c6.2-2.2,12.7-3.3,19.5-3.3c8.6,0,15.7,1.1,21.2,3.3s10.5,5.9,14.9,11.2c7.5-9.7,18.8-14.5,33.9-14.5c14.2,0,25.6,3.8,34,11.4
		c8.4,7.6,12.6,17.9,12.6,30.8v84.1h-32.9V55.3c0-12.3-5.2-18.4-15.5-18.4c-10.9,0-16.3,6.2-16.3,18.6v80.4h-32.9V55.1
		c0-12.1-5.4-18.2-16.3-18.2c-5.6,0-9.7,1.5-12.3,4.6c-2.6,3.1-3.8,8-3.8,14.7v79.7h-32.9L413.2,55.7L413.2,55.7z"/>
	<path class="st1" d="M413.2,55.7c0-8.5,0.8-15.2,2.4-19.9c1.6-4.7,4.5-9.1,8.8-13.3c4.2-4.2,9.4-7.3,15.6-9.6
		c6.2-2.2,12.7-3.3,19.5-3.3c8.6,0,15.7,1.1,21.2,3.3s10.5,5.9,14.9,11.2c7.5-9.7,18.8-14.5,33.9-14.5c14.2,0,25.6,3.8,34,11.4
		c8.4,7.6,12.6,17.9,12.6,30.8v84.1h-32.9V55.3c0-12.3-5.2-18.4-15.5-18.4c-10.9,0-16.3,6.2-16.3,18.6v80.4h-32.9V55.1
		c0-12.1-5.4-18.2-16.3-18.2c-5.6,0-9.7,1.5-12.3,4.6c-2.6,3.1-3.8,8-3.8,14.7v79.7h-32.9L413.2,55.7L413.2,55.7z"/>
</g>
<polygon class="st2" points="580.3,16.5 578.5,16.5 578.5,2.5 574.8,2.5 574.8,0.9 584.1,0.9 584.1,2.5 580.3,2.5 "/>
<polygon class="st2" points="587.9,0 593.6,13.1 599.2,0 602.4,16.5 600.6,16.5 598.6,6 598.6,6 593.6,17.2 588.5,6 588.5,6 
	586.5,16.5 584.7,16.5 "/>
</svg>
