<svg xmlns="http://www.w3.org/2000/svg" xmlns:xlink="http://www.w3.org/1999/xlink" viewBox="0 0 53.6 48.9">
  <path d="M17.988 33.52l14.25-8.875h-9.875l-4.375 8.875z" fill="#bd92d0" />
  <g transform="matrix(1.25 0 0 -1.25 -219.667 77.704)">
    <defs>
      <path id="apogee-a" d="M-49.5-38.2h495v382.5h-495z" />
    </defs>
    <clipPath id="apogee-b">
      <use xlink:href="#apogee-a" overflow="visible" />
    </clipPath>
    <g clip-path="url(#apogee-b)">
      <path
        d="M210.727 39.535l-7.1 14.5c-1.2 2.6-3.1 4.1-5.7 4.1-2.4 0-4.3-1.5-5.4-3.5l-9.3-19.3h5.7l7.7 15.6c.3.4.7.7 1.3.7.6 0 1.1-.4 1.4-.9l6.4-13.5c.5-1.1 1.4-1.9 2.6-1.9 1.5 0 2.8 1.2 2.8 2.8 0 .5-.2 1-.4 1.4"
        fill="#65238d" />
    </g>
  </g>
  <path
    d="M8.088 36.741h1.125l3.125 7.125h-1.25l-.75-1.75H6.963l-.75 1.75h-1.25l3.125-7.125zm1.75 4.25l-1.25-2.75-1.25 2.75h2.5z"
    fill="#211d1d" />
  <g transform="matrix(1.25 0 0 -1.25 -219.667 77.704)">
    <defs>
      <path id="c" d="M-49.5-38.2h495v382.5h-495z" />
    </defs>
    <clipPath id="d">
      <use xlink:href="#c" overflow="visible" />
    </clipPath>
    <g clip-path="url(#d)">
      <path
        d="M186.55 32.73h2.2c1.3 0 2.1-.7 2.1-1.9 0-1.3-1-1.9-2.2-1.9h-1.1v-1.8h-1v5.6zm2.1-2.9c.7 0 1.2.4 1.2 1 0 .7-.5 1-1.2 1h-1.1v-2h1.1zm3.008.077c0 1.6 1.2 2.9 2.9 2.9s2.9-1.3 2.9-2.9c0-1.6-1.2-2.9-2.9-2.9s-2.9 1.3-2.9 2.9m4.8 0c0 1.1-.8 2-1.9 2-1.1 0-1.9-.9-1.9-2s.8-2 1.9-2c1.2 0 1.9.9 1.9 2m2.017 0c0 1.6 1.2 2.9 2.9 2.9 1 0 1.6-.3 2.2-.8l-.7-.7c-.4.4-.8.6-1.5.6-1.1 0-1.9-.9-1.9-2 0-1.2.8-2 1.9-2 .5 0 1 .2 1.4.4v1.1h-1.4v.9h2.4v-2.4c-.6-.5-1.4-.9-2.4-.9-1.7 0-2.9 1.3-2.9 2.9"
        fill="#211d1d" />
    </g>
  </g>
  <path
    d="M36.596 36.791h5.25v1.125h-4v1.875h3.5v1.125h-3.5v1.875h4v1.125h-5.25v-7.125zm6.717 0h5.25v1.125h-4v1.875h3.5v1.125h-3.5v1.875h4v1.125h-5.25v-7.125z"
    fill="#211d1d" />
</svg>
