<?xml version="1.0" encoding="utf-8"?>
<!-- Generator: Adobe Illustrator 24.2.1, SVG Export Plug-In . SVG Version: 6.00 Build 0)  -->
<svg version="1.1" id="Layer_1" xmlns="http://www.w3.org/2000/svg" xmlns:xlink="http://www.w3.org/1999/xlink" x="0px" y="0px"
	 viewBox="0 0 2279.4 493.9" style="enable-background:new 0 0 2279.4 493.9;" xml:space="preserve">
<style type="text/css">
	.st0{fill-rule:evenodd;clip-rule:evenodd;}
	.st1{fill-rule:evenodd;clip-rule:evenodd;fill:#FFFFFF;}
</style>
<g>
	<path class="st0" d="M2279.4,412c0-12.3-10.1-22.4-22.4-22.4c-12.3,0-22.4,10.1-22.4,22.4c0,12.3,10,22.3,22.4,22.4
		C2269.3,434.1,2279.4,424.3,2279.4,412z M782.5,427.4v-20.6c-4.5,7.3-10.8,13.2-18.4,17.2c-7.6,4.3-15.7,6.5-23.9,6.5
		c-8.7,0-16.3-2-23-6.1c-6.7-4-12-10-15-17.2c-2.9-7.2-4.5-17.5-4.5-30.2v-87h33.8v63.1c0,19.2,0.7,31.1,1.8,35.6
		c1.3,4.3,3.6,7.8,6.9,10.3c3.1,2.5,7.4,3.8,12.5,3.8c5.8,0,11-1.8,15.4-5.1c4.5-3.3,7.8-7.6,9.4-12.5c1.8-5.1,2.5-17.4,2.5-37.1
		v-58h33.8v137.4L782.5,427.4L782.5,427.4z M966.3,427.4h-31.6v-20.1c-5.1,7.8-11.4,13.7-18.4,17.5c-7.2,3.8-14.3,5.8-21.5,5.8
		c-14.8,0-27.3-6.5-37.8-19c-10.3-12.8-15.7-30.6-15.7-53.3c0-23.3,5.1-40.9,15.2-53c10.3-12.3,23-18.4,38.7-18.4
		c14.3,0,26.6,6.5,36.9,19.2v-68h34V427.4L966.3,427.4z"/>
	<path class="st1" d="M875.8,355.8c0,14.5,2,25.3,5.8,31.8c5.4,9.4,13,14.1,22.8,14.1c7.8,0,14.3-3.6,19.7-10.5
		c5.6-7.2,8.3-17.9,8.3-32c0-15.7-2.7-27.1-7.8-34c-5.4-6.9-12.1-10.3-20.4-10.3c-8.1,0-14.8,3.3-20.1,10.3
		C878.8,331.9,875.8,342.2,875.8,355.8L875.8,355.8z"/>
	<path class="st0" d="M989.5,271.5v-33.4h33.8v33.4H989.5z M989.5,427.4V290h33.8v137.4H989.5z M1037.4,356.7
		c0.1-12.1,2.9-24,8.3-34.9c5.6-11.4,13.4-19.9,23.5-26c10.4-5.9,22.1-9,34-9c19.5,0,35.1,6.9,47.4,20.4s18.3,30.5,18.3,51
		c0,20.8-6,38.1-18.6,51.7c-12.3,13.7-28,20.6-47,20.6c-11.6,0-22.8-2.9-33.6-8.5c-10.4-5.7-18.9-14.4-24.2-25.1
		C1040.3,386,1037.4,372.6,1037.4,356.7L1037.4,356.7z"/>
	<path class="st1" d="M1072.1,358.7c0,13.7,2.9,24.2,8.9,31.3c6,7.2,13.4,10.7,22.4,10.7c8.7,0,16.1-3.6,22.2-10.7s9-17.7,9-31.6
		c0-13.4-2.9-23.7-9-31.1c-6-7.1-13.4-10.7-22.2-10.7c-8.9,0-16.3,3.6-22.4,10.7C1075,334.6,1072.1,345.1,1072.1,358.7z"/>
	<path class="st0" d="M1199.2,376.9v-36.3h31.8v36.3H1199.2z M1323.4,290v29.1h-27.8v55.3c0,11.2,0.2,17.7,0.7,19.5
		c0.5,2,1.8,3.7,3.6,4.7c2,1.1,4.3,1.8,6.9,1.8c3.8,0,9.2-1.1,16.3-3.3V422c-8.7,6.1-16.8,8.3-28.7,8.5c-7.4,0-14.1-1.1-19.9-3.4
		c-5.8-2.2-10.3-5.1-13-8.5c-2.7-3.6-4.7-8.3-5.6-14.1c-0.9-4.3-1.3-12.8-1.3-25.7v-59.8h-18.8V290h18.8v-27.3l41-20.8V290
		L1323.4,290L1323.4,290L1323.4,290z M1455,383.8c-2.9,13.9-11.4,29.3-21.5,36.3c-10.1,6.9-22.6,10.5-37.6,10.5
		c-23.7,0-41.4-7.8-52.8-23.5c-8.9-12.5-13.4-28.2-13.4-47.2c0-22.8,5.8-40.7,17.7-53.5c11.9-13,26.8-19.5,45-19.5
		c20.4,0,36.5,6.9,48.1,20.4c11.9,13.4,17.5,34,17,62h-90.6c0.2,10.7,3.1,19,8.7,25.1c5.6,6,12.5,8.9,20.8,8.9
		c5.6,0,10.5-1.6,14.3-4.5c3.8-3.1,6.7-8.3,8.7-15H1455L1455,383.8z"/>
	<path class="st1" d="M1421.4,346.9c-0.2-10.5-2.9-18.3-8.1-23.9c-4.8-5.2-11.7-8.2-18.8-8.1c-7.8,0-14.5,2.9-19.7,8.5
		c-4.9,5.8-7.6,13.7-7.6,23.5L1421.4,346.9L1421.4,346.9L1421.4,346.9z"/>
	<path class="st0" d="M1647.9,238.1v69.4c11.9-13.7,26.2-20.6,42.7-20.6c8.5,0,16.1,1.6,22.8,4.7c6.9,3.1,12.1,7.2,15.4,11.9
		c3.6,4.9,5.8,10.3,7.1,16.1c1.3,5.8,2,15,2,27.3v80.6h-36.9v-72.5c0-14.5-0.9-23.7-2.2-27.5c-1.3-3.8-3.9-7.1-7.4-9.2
		c-3.6-2.2-8.1-3.3-13.4-3.3c-6,0-11.4,1.3-16.3,4.2c-4.7,2.9-8.3,7.4-10.5,13.2c-2.2,6-3.3,14.8-3.3,26.2v68.9H1611V238.1H1647.9z
		 M1881.7,427.4h-35.6v-70c0-14.8-0.9-24.6-2.5-28.9c-1.2-4.1-3.9-7.7-7.4-10.1c-3.3-2.5-7.6-3.6-12.3-3.6c-6.3,0-11.9,1.6-16.6,5.1
		c-4.8,3.3-8.4,8.1-10.1,13.7c-2,5.6-2.9,16.1-2.9,31.5v62.2h-35.6V290h33.1v20.1c11.6-15.4,26.6-23.3,44.5-23.3
		c7.8,0,15,1.6,21.5,4.5s11.4,6.5,14.8,11c3.4,4.5,5.8,9.6,6.9,15.2c1.3,5.8,2,13.9,2,24.6L1881.7,427.4L1881.7,427.4L1881.7,427.4z
		 M1907,271.5v-33.4h33.8v33.4H1907z M1907,427.4V290h33.8v137.4H1907z M2076.9,337.2h-35.1c-1.3-7.2-3.6-12.7-7.6-16.3
		c-4.2-3.6-9.6-5.4-16.1-5.4c-8.7,0-15.9,3.1-21,9.4c-5.1,6.3-7.8,16.8-7.8,31.3c0,16.3,2.7,27.7,8.1,34.4
		c5.1,6.7,12.3,10.1,21.3,10.1c6.7,0,12.1-1.8,16.6-5.8c4.3-3.8,7.1-10.7,8.9-20.1h34.4c-3.6,16.3-10.3,34.7-20.6,43.2
		c-10.1,8.3-23.9,12.5-41,12.5c-19.5,0-35.1-6.5-46.5-19c-11.6-12.8-17.5-30.2-17.5-52.6c0-22.8,5.8-40.5,17.5-53
		c11.6-12.5,27.3-19,47.2-19c16.1,0,29.1,3.8,38.7,11c9.4,7.2,15.9,18.1,20.1,32.9L2076.9,337.2L2076.9,337.2z M1594.2,337.2h-35.1
		c-1.1-7.2-3.4-12.7-7.6-16.3c-4-3.6-9.4-5.4-16.1-5.4c-8.7,0-15.7,3.1-21,9.4c-5.1,6.3-7.8,16.8-7.8,31.3c0,16.3,2.7,27.7,8.1,34.4
		c5.4,6.7,12.5,10.1,21.5,10.1c6.5,0,12.1-1.8,16.3-5.8c4.3-3.8,7.1-10.7,8.9-20.1h34.7c-3.6,16.3-10.5,34.7-20.8,43.2
		c-10.1,8.3-23.7,12.5-41,12.5c-19.5,0-34.9-6.5-46.5-19c-11.6-12.8-17.2-30.2-17.2-52.6c0-22.8,5.6-40.5,17.2-53
		c11.6-12.5,27.5-19,47.2-19c16.1,0,29.1,3.8,38.7,11c9.4,7.2,15.9,18.1,20.1,32.9L1594.2,337.2L1594.2,337.2z M2125.2,331.9h-30.6
		c0.4-13.2,6-27.7,17.9-35.4c8.7-5.6,20.8-9.6,37.6-9.6c15,0,26.2,2,33.6,5.8c7.4,3.8,12.5,8.7,15.7,14.5c2.9,6.1,4.5,16.8,4.5,32.7
		l-0.5,42.3c0,12.1,0.7,21,1.6,26.8c1.1,5.6,0.4,11.9,3.8,18.3h-31.1c-0.9-2.5-2.9-6-3.1-10.7c-0.2-2.2-1.1-3.6-1.3-4.3
		c-5.2,5.7-11.5,10.3-18.6,13.4c-6.5,3.1-13.4,4.7-21,4.7c-13,0-23.5-3.8-31.1-11.6c-7.4-7.6-11.2-17.2-11.2-29.1
		c0-7.6,1.6-14.5,5.1-20.6c3.4-6.3,8.3-10.7,14.3-14.1c6.3-3.1,15.2-6.1,27.1-8.5c15.7-3.1,26.6-6.1,32.7-8.9v-3.6
		c0-6.9-1.6-11.9-4.7-14.8c-3.1-3.1-9.2-4.5-18.1-4.5c-6,0-10.7,1.1-14.1,3.8C2130.1,321.1,2127.4,325.6,2125.2,331.9L2125.2,331.9z
		 M597.2,331.9h-30.7c0.5-13.2,6-27.7,17.9-35.4c8.7-5.6,20.8-9.6,37.4-9.6c15.2,0,26.4,2,33.8,5.8c7.4,3.8,12.5,8.7,15.7,14.5
		c2.9,6.1,4.5,16.8,4.5,32.7l-0.5,42.3c0,12.1,0.7,21,1.6,26.8c1.1,5.6,0.5,11.9,3.8,18.3h-31.1c-0.9-2.5-3.1-6-3.1-10.7
		c-0.2-2.2-1.1-3.6-1.3-4.3c-5.8,6.1-11.9,10.5-18.6,13.4c-6.6,3.2-13.8,4.8-21,4.7c-13,0-23.5-3.8-31.1-11.6
		c-7.4-7.6-11.4-17.2-11.4-29.1c0-7.6,1.8-14.5,5.4-20.6c3.4-6.3,8.3-10.7,14.3-14.1c6.3-3.1,15.2-6.1,26.8-8.5
		c15.9-3.1,26.9-6.1,32.9-8.9v-3.6c0-6.9-1.6-11.9-4.7-14.8c-3.1-3.1-9.4-4.5-18.1-4.5c-6,0-10.7,1.1-14.1,3.8
		C602.2,321.1,599.3,325.6,597.2,331.9z"/>
	<path class="st1" d="M2170.6,361.4c-4.5,1.6-11.4,3.4-20.6,5.6c-9.4,2.2-15.7,4.3-18.6,6.3c-4.3,3.4-6.5,7.8-6.5,13
		c0,4.9,1.8,9.4,5.1,13c3.6,3.8,8.1,5.6,13.7,5.6c6.1,0,11.9-2,17.2-6.5c4-2.9,7-7.1,8.3-11.9c0.7-3.1,1.1-9.2,1.1-17.7
		L2170.6,361.4z M642.4,361.4c-4.3,1.6-11.2,3.4-20.6,5.6c-9.2,2.2-15.4,4.3-18.4,6.3c-4.5,3.4-6.5,7.8-6.5,13c0,4.9,1.6,9.4,5.1,13
		c3.6,3.8,8.1,5.6,13.4,5.6c6.3,0,12.1-2,17.5-6.5c4.2-3.1,6.9-7.2,8.1-11.9c0.9-3.1,1.3-9.2,1.3-17.7L642.4,361.4L642.4,361.4z"/>
	<path class="st0" d="M247,0c136.1,0,247.1,111,247.1,247c0,135.8-111,246.8-247.1,246.8C111,493.9,0,382.9,0,247C0,111,111,0,247,0
		z"/>
	<path class="st1" d="M247,11.2c129.8,0,235.6,106.1,235.6,235.9c0,129.6-105.8,235.4-235.6,235.4c-129.8,0-235.6-105.8-235.6-235.4
		C11.4,117.3,117.2,11.2,247,11.2L247,11.2z"/>
	<path class="st0" d="M384.2,428.5L247.9,22.4L111,428.5L384.2,428.5L384.2,428.5z"/>
	<path class="st1" d="M303.2,222.7l-65.8,194.5H126.6L247.9,58L303.2,222.7z M249.3,417.1L309,240.3l59.5,176.8H249.3L249.3,417.1z
		 M2276.7,412c0,10.9-9,19.7-19.7,19.7c-10.8,0.1-19.6-8.7-19.7-19.5c0-0.1,0-0.1,0-0.2c0-11,8.7-19.7,19.7-19.7
		C2267.8,392.3,2276.7,401,2276.7,412z"/>
	<path class="st0" d="M2248.7,423.6h3.1v-10.5h8.1c5.1,0,3.6,4.5,4.3,7.4l0.4,3.1h3.8c-1.3-2.2-0.9-2.7-1.1-5.8
		c-0.4-4.5-0.4-4.7-3.1-6.5c2.5-1.8,3.3-2.9,3.3-6c-0.4-5.6-4-6.3-7.8-6.3h-11L2248.7,423.6L2248.7,423.6L2248.7,423.6z"/>
	<path class="st1" d="M2259.7,401.7c2,0,4.9,0.7,4.5,4.9c-0.2,3.1-2.3,3.6-4.5,3.6h-7.8v-8.5H2259.7z"/>
</g>
</svg>
