<svg xmlns="http://www.w3.org/2000/svg" viewBox="0 0 2208.8 493.8">
  <path
    d="M780 348.1c0 19.7-.7 32-2.5 37.1-1.6 4.9-4.9 9.2-9.4 12.5-4.4 3.3-9.6 5.1-15.4 5.1-5.1 0-9.4-1.3-12.5-3.8-3.3-2.5-5.6-6-6.9-10.3-1.1-4.5-1.8-16.4-1.8-35.6V290h-33.8v87c0 12.7 1.6 23 4.5 30.2 3 7.2 8.3 13.2 15 17.2 6.7 4.1 14.3 6.1 23 6.1 8.2 0 16.3-2.2 23.9-6.5 7.6-4 13.9-9.9 18.4-17.2v20.6l31.3.1V290.1H780v58zM932.1 306.1c-10.3-12.7-22.6-19.2-36.9-19.2-15.7 0-28.4 6.1-38.7 18.4-10.1 12.1-15.2 29.7-15.2 53 0 22.7 5.4 40.5 15.7 53.3 10.5 12.5 23 19 37.8 19 7.2 0 14.3-2 21.5-5.8 7-3.8 13.3-9.7 18.4-17.5v20.1h31.4V238.1h-34v68zm-8 85.1c-5.4 6.9-11.9 10.5-19.7 10.5-9.8 0-17.4-4.7-22.8-14.1-3.8-6.5-5.8-17.3-5.8-31.8 0-13.6 3-23.9 8.3-30.6 5.3-7 12-10.3 20.1-10.3 8.3 0 15 3.4 20.4 10.3 5.1 6.9 7.8 18.3 7.8 34 0 14.1-2.7 24.8-8.3 32zM989.5 290h33.8v137.4h-33.8zM989.5 238.1h33.8v33.4h-33.8zM1150.6 307.2c-12.3-13.5-27.9-20.4-47.4-20.4-11.9 0-23.6 3.1-34 9-10.1 6.1-17.9 14.6-23.5 26-5.4 10.9-8.2 22.8-8.3 34.9 0 15.9 2.9 29.3 8.1 40.2 5.3 10.7 13.8 19.4 24.2 25.1 10.8 5.6 22 8.5 33.6 8.5 19 0 34.7-6.9 47-20.6 12.6-13.6 18.6-30.9 18.6-51.7 0-20.5-6-37.5-18.3-51zm-25 82.8c-6.1 7.1-13.5 10.7-22.2 10.7-9 0-16.4-3.5-22.4-10.7-6-7.1-8.9-17.6-8.9-31.3 0-13.6 2.9-24.1 8.9-31.4 6.1-7.1 13.5-10.7 22.4-10.7 8.8 0 16.2 3.6 22.2 10.7 6.1 7.4 9 17.7 9 31.1 0 13.9-2.9 24.5-9 31.6zM1295.6 241.9l-41 20.8V290h-18.8v29h18.8v59.8c0 12.9.4 21.4 1.3 25.7.9 5.8 2.9 10.5 5.6 14.1 2.7 3.4 7.2 6.3 13 8.5 5.8 2.3 12.5 3.4 19.9 3.4 11.9-.2 20-2.4 28.7-8.5v-24.9c-7.1 2.2-12.5 3.3-16.3 3.3-2.6 0-4.9-.7-6.9-1.8-1.8-1-3.1-2.7-3.6-4.7-.5-1.8-.7-8.3-.7-19.5v-55.3h27.8V290h-27.8v-48.1zM1199.2 340.6h31.8v36.3h-31.8zM1440.5 307.3c-11.6-13.5-27.7-20.4-48.1-20.4-18.2 0-33.1 6.5-45 19.5-11.9 12.8-17.7 30.7-17.7 53.5 0 19 4.5 34.7 13.4 47.2 11.4 15.7 29.1 23.5 52.8 23.5 15 0 27.5-3.6 37.6-10.5 10.1-7 18.6-22.4 21.5-36.3h-35.6c-2 6.7-4.9 11.9-8.7 15-3.8 2.9-8.7 4.5-14.3 4.5-8.3 0-15.2-2.9-20.8-8.9-5.6-6.1-8.5-14.4-8.7-25.1h90.6c.5-28-5.1-48.6-17-62zm-73.3 39.6c0-9.8 2.7-17.7 7.6-23.5 5.2-5.6 11.9-8.5 19.7-8.5 7.1-.1 14 2.9 18.8 8.1 5.2 5.6 7.9 13.4 8.1 23.9h-54.2zM1728.8 303.5c-3.3-4.7-8.5-8.8-15.4-11.9-6.7-3.1-14.3-4.7-22.8-4.7-16.5 0-30.8 6.9-42.7 20.6v-69.4H1611v189.4h36.9v-68.9c0-11.4 1.1-20.2 3.3-26.2 2.2-5.8 5.8-10.3 10.5-13.2 4.9-2.9 10.3-4.2 16.3-4.2 5.3 0 9.8 1.1 13.4 3.3 3.5 2.1 6.1 5.4 7.4 9.2 1.3 3.8 2.2 13 2.2 27.5v72.5h36.9v-80.6c0-12.3-.7-21.5-2-27.3-1.3-5.8-3.5-11.2-7.1-16.1zM1552.5 394.9c-4.2 4-9.8 5.8-16.3 5.8-9 0-16.1-3.4-21.5-10.1s-8.1-18.1-8.1-34.4c0-14.5 2.7-25 7.8-31.3 5.3-6.3 12.3-9.4 21-9.4 6.7 0 12.1 1.8 16.1 5.4 4.2 3.6 6.5 9.1 7.6 16.3h35.1l-.4-6.4c-4.2-14.8-10.7-25.7-20.1-32.9-9.6-7.2-22.6-11-38.7-11-19.7 0-35.6 6.5-47.2 19s-17.2 30.2-17.2 53c0 22.4 5.6 39.8 17.2 52.6 11.6 12.5 27 19 46.5 19 17.3 0 30.9-4.2 41-12.5 10.3-8.5 17.2-26.9 20.8-43.2h-34.7c-1.8 9.4-4.6 16.3-8.9 20.1zM675.3 382.2l.5-42.3c0-15.9-1.6-26.6-4.5-32.7-3.2-5.8-8.3-10.7-15.7-14.5s-18.6-5.8-33.8-5.8c-16.6 0-28.7 4-37.4 9.6-11.9 7.7-17.4 22.2-17.9 35.4h30.7c2.1-6.3 5-10.8 8.4-13.4 3.4-2.7 8.1-3.8 14.1-3.8 8.7 0 15 1.4 18.1 4.5 3.1 2.9 4.7 7.9 4.7 14.8v3.6c-6 2.8-17 5.8-32.9 8.9-11.6 2.4-20.5 5.4-26.8 8.5-6 3.4-10.9 7.8-14.3 14.1-3.6 6.1-5.4 13-5.4 20.6 0 11.9 4 21.5 11.4 29.1 7.6 7.8 18.1 11.6 31.1 11.6 7.2.1 14.4-1.5 21-4.7 6.7-2.9 12.8-7.3 18.6-13.4.2.7 1.1 2.1 1.3 4.3 0 4.7 2.2 8.2 3.1 10.7h31.1c-3.3-6.4-2.7-12.7-3.8-18.3-.9-5.8-1.6-14.7-1.6-26.8zm-33-13.4c0 8.5-.4 14.6-1.3 17.7-1.2 4.7-3.9 8.8-8.1 11.9-5.4 4.5-11.2 6.5-17.5 6.5-5.3 0-9.8-1.8-13.4-5.6-3.5-3.6-5.1-8.1-5.1-13 0-5.2 2-9.6 6.5-13 3-2 9.2-4.1 18.4-6.3 9.4-2.2 16.3-4 20.6-5.6l-.1 7.4zM2205 409c-.9-5.8-1.6-14.7-1.6-26.8l.5-42.3c0-15.9-1.6-26.6-4.5-32.7-3.2-5.8-8.3-10.7-15.7-14.5s-18.6-5.8-33.6-5.8c-16.8 0-28.9 4-37.6 9.6-11.9 7.7-17.5 22.2-17.9 35.4h30.6c2.2-6.3 4.9-10.8 8.5-13.4 3.4-2.7 8.1-3.8 14.1-3.8 8.9 0 15 1.4 18.1 4.5 3.1 2.9 4.7 7.9 4.7 14.8v3.6c-6.1 2.8-17 5.8-32.7 8.9-11.9 2.4-20.8 5.4-27.1 8.5-6 3.4-10.9 7.8-14.3 14.1-3.5 6.1-5.1 13-5.1 20.6 0 11.9 3.8 21.5 11.2 29.1 7.6 7.8 18.1 11.6 31.1 11.6 7.6 0 14.5-1.6 21-4.7 7.1-3.1 13.4-7.7 18.6-13.4.2.7 1.1 2.1 1.3 4.3.2 4.7 2.2 8.2 3.1 10.7h31.1c-3.4-6.4-2.7-12.7-3.8-18.3zm-34.7-40.2c0 8.5-.4 14.6-1.1 17.7-1.3 4.8-4.3 9-8.3 11.9-5.3 4.5-11.1 6.5-17.2 6.5-5.6 0-10.1-1.8-13.7-5.6-3.3-3.6-5.1-8.1-5.1-13 0-5.2 2.2-9.6 6.5-13 2.9-2 9.2-4.1 18.6-6.3 9.2-2.2 16.1-4 20.6-5.6l-.3 7.4zM1879.5 317.5c-1.1-5.6-3.5-10.7-6.9-15.2s-8.3-8.1-14.8-11-13.7-4.5-21.5-4.5c-17.9 0-32.9 7.9-44.5 23.3V290h-33.1v137.3h35.6v-62.2c0-15.4.9-25.9 2.9-31.5 1.7-5.6 5.3-10.4 10.1-13.7 4.7-3.5 10.3-5.1 16.6-5.1 4.7 0 9 1.1 12.3 3.6 3.5 2.4 6.2 6 7.4 10.1 1.6 4.3 2.5 14.1 2.5 28.9v70h35.6l-.2-85.3c0-10.7-.7-18.8-2-24.6zM2035.3 394.9c-4.5 4-9.9 5.8-16.6 5.8-9 0-16.2-3.4-21.3-10.1-5.4-6.7-8.1-18.1-8.1-34.4 0-14.5 2.7-25 7.8-31.3s12.3-9.4 21-9.4c6.5 0 11.9 1.8 16.1 5.4 4 3.6 6.3 9.1 7.6 16.3h35.1l-.4-6.4c-4.2-14.8-10.7-25.7-20.1-32.9-9.6-7.2-22.6-11-38.7-11-19.9 0-35.6 6.5-47.2 19-11.7 12.5-17.5 30.2-17.5 53 0 22.4 5.9 39.8 17.5 52.6 11.4 12.5 27 19 46.5 19 17.1 0 30.9-4.2 41-12.5 10.3-8.5 17-26.9 20.6-43.2h-34.4c-1.8 9.4-4.6 16.3-8.9 20.1zM1907 290h33.8v137.4H1907zM1907 238.1h33.8v33.4H1907z" />
  <path
    d="M247 0C111 0 0 111 0 247c0 135.9 111 246.9 247 246.8 136.1 0 247.1-111 247.1-246.8 0-136-111-247-247.1-247zm0 482.5c-129.8 0-235.6-105.8-235.6-235.4C11.4 117.3 117.2 11.2 247 11.2s235.6 106.1 235.6 235.9c0 129.6-105.8 235.4-235.6 235.4z"
    fill-rule="evenodd" clip-rule="evenodd" />
  <path
    d="M247.9 22.4L111 428.5h273.2L247.9 22.4zM126.6 417.2L247.9 58l55.3 164.7-65.8 194.5H126.6zM309 240.3l59.5 176.8H249.3L309 240.3z"
    fill-rule="evenodd" clip-rule="evenodd" />
</svg>
