<svg id="Layer_1" xmlns="http://www.w3.org/2000/svg" xmlns:xlink="http://www.w3.org/1999/xlink" viewBox="0 0 36 41"><style>.st0{clip-path:url(#SVGID_2_);fill:url(#SVGID_3_)}.st1{clip-path:url(#SVGID_5_);fill:url(#SVGID_6_)}.st2{clip-path:url(#SVGID_8_);fill:url(#SVGID_9_)}.st3{clip-path:url(#SVGID_11_);fill:url(#SVGID_12_)}.st4{clip-path:url(#SVGID_14_);fill:url(#SVGID_15_)}.st5{clip-path:url(#SVGID_17_);fill:url(#SVGID_18_)}.st6{clip-path:url(#SVGID_20_);fill:url(#SVGID_21_)}.st7{clip-path:url(#SVGID_23_);fill:url(#SVGID_24_)}</style><g id="Layer_2_1_"><defs><path id="SVGID_1_" d="M15.9 11.7l8.3 1.4C18 12 17.6 6.9 9.2 2.3c-.9 3 1 8.5 6.7 9.4"/></defs><clipPath id="SVGID_2_"><use xlink:href="#SVGID_1_" overflow="visible"/></clipPath><linearGradient id="SVGID_3_" gradientUnits="userSpaceOnUse" x1="-470.274" y1="182.116" x2="-469.593" y2="182.116" gradientTransform="matrix(22.3552 0 0 15.9007 10522.028 -2888.072)"><stop offset="0" stop-color="#ffa600"/><stop offset=".34" stop-color="#ff9f00"/><stop offset=".69" stop-color="#ff7300"/><stop offset="1" stop-color="#f52900"/></linearGradient><path class="st0" d="M8.3 2.3h15.9v10.8H8.3z"/><defs><path id="SVGID_4_" d="M9.2 2.3c8.4 4.6 8.8 9.8 15 10.8 3.1.5.3 5.9-3 5.3 6 2 11.5-3.4 8.3-5.1L9.2 2.3z"/></defs><clipPath id="SVGID_5_"><use xlink:href="#SVGID_4_" overflow="visible"/></clipPath><linearGradient id="SVGID_6_" gradientUnits="userSpaceOnUse" x1="-475.326" y1="176.356" x2="-474.644" y2="176.356" gradientTransform="matrix(31.1579 0 0 24.3694 14819.342 -4286.3)"><stop offset="0" stop-color="#ffa600"/><stop offset=".34" stop-color="#ff9f00"/><stop offset=".69" stop-color="#ff7300"/><stop offset="1" stop-color="#f52900"/></linearGradient><path class="st1" d="M9.2 2.3h23.5v18.2H9.2z"/><g><defs><path id="SVGID_7_" d="M21.2 18.5c-.4-.1-.8-.2-1.2-.5-2.5-1.6-5-2.1-7.3-1.8 4.8.6 9.3 6.8 8.8 11.5.1 1.6-.5 3.2-1.7 4.4L17 34.8c2.1 1.4 5.4-.1 6.3-2.1l5.6-11.4c1.4-.3 10.1-2.6 6.1-4.9l-5.5-3c3.1 1.7-2.3 7.1-8.3 5.1"/></defs><clipPath id="SVGID_8_"><use xlink:href="#SVGID_7_" overflow="visible"/></clipPath><linearGradient id="SVGID_9_" gradientUnits="userSpaceOnUse" x1="-476.526" y1="173.604" x2="-475.844" y2="173.604" gradientTransform="matrix(34.2867 0 0 32.2475 16351.145 -5573.54)"><stop offset="0" stop-color="#ffa600"/><stop offset=".34" stop-color="#ff9f00"/><stop offset="1" stop-color="#ff6200"/></linearGradient><path class="st2" d="M12.6 13.4h26.3v22.8H12.6z"/></g><g><defs><path id="SVGID_10_" d="M12.6 16.2C5.2 17 .3 25.8 6.9 32.3l5.6 5.6c-3.7-3.7-4-9-1.7-12.7.2-.4.5-.8.9-1.2 2.2-2.2 5.9-2.2 8.1 0 1 1 1.6 2.3 1.7 3.7.5-4.7-4.1-10.9-8.9-11.5z"/></defs><clipPath id="SVGID_11_"><use xlink:href="#SVGID_10_" overflow="visible"/></clipPath><linearGradient id="SVGID_12_" gradientUnits="userSpaceOnUse" x1="-472.61" y1="173.677" x2="-471.928" y2="173.677" gradientTransform="matrix(25.8911 0 0 31.7769 12240.17 -5491.908)"><stop offset="0" stop-color="#ffa600"/><stop offset=".34" stop-color="#ff9f00"/><stop offset=".69" stop-color="#ff7300"/><stop offset="1" stop-color="#f52900"/></linearGradient><path class="st3" d="M.3 16.2H22v21.7H.3z"/></g><g><defs><path id="SVGID_13_" d="M12.5 37.8l3.1 3.1c1-.8 1.7-3.3.1-4.9l-4-4c-1.9-1.9-2.2-4.7-.9-6.9-2.3 3.7-2 9.1 1.7 12.7"/></defs><clipPath id="SVGID_14_"><use xlink:href="#SVGID_13_" overflow="visible"/></clipPath><linearGradient id="SVGID_15_" gradientUnits="userSpaceOnUse" x1="-530.562" y1="173.205" x2="-529.88" y2="173.205" gradientTransform="matrix(-8.0581 -7.2523 7.5379 -8.3754 -5565.215 -2361.562)"><stop offset="0" stop-color="#ffa600"/><stop offset=".34" stop-color="#ff9f00"/><stop offset=".69" stop-color="#ff7300"/><stop offset="1" stop-color="#f52900"/></linearGradient><path class="st4" d="M13.4 45.4L.6 33.9l11.8-13.2 12.8 11.5z"/></g><g><defs><path id="SVGID_16_" d="M20.1 6.4l9.4 5.1L20.7 0c-1.1 1.4-1.7 4-.6 6.4"/></defs><clipPath id="SVGID_17_"><use xlink:href="#SVGID_16_" overflow="visible"/></clipPath><linearGradient id="SVGID_18_" gradientUnits="userSpaceOnUse" x1="-460.974" y1="181.216" x2="-460.292" y2="181.216" gradientTransform="matrix(14.5536 0 0 16.8792 6728.317 -3053.029)"><stop offset="0" stop-color="#ffa600"/><stop offset=".34" stop-color="#ff9f00"/><stop offset="1" stop-color="#ff6200"/></linearGradient><path class="st5" d="M19 0h10.4v11.5H19z"/></g><g><defs><path id="SVGID_19_" d="M13.6 28c0 1.2 1 2.1 2.1 2.1 1.2 0 2.1-1 2.1-2.1 0-1.2-1-2.1-2.1-2.1-1.2 0-2.1.9-2.1 2.1"/></defs><clipPath id="SVGID_20_"><use xlink:href="#SVGID_19_" overflow="visible"/></clipPath><linearGradient id="SVGID_21_" gradientUnits="userSpaceOnUse" x1="-424.406" y1="205.721" x2="-423.724" y2="205.721" gradientTransform="translate(2663.636 -1256.571) scale(6.2442)"><stop offset="0" stop-color="#ffa600"/><stop offset=".34" stop-color="#ff9f00"/><stop offset="1" stop-color="#ff6200"/></linearGradient><path class="st6" d="M13.6 25.9h4.3v4.3h-4.3z"/></g><g><defs><path id="SVGID_22_" d="M0 17.7c0 1.2 1 2.1 2.1 2.1 1.2 0 2.1-1 2.1-2.1s-1-2.1-2.1-2.1-2.1.9-2.1 2.1"/></defs><clipPath id="SVGID_23_"><use xlink:href="#SVGID_22_" overflow="visible"/></clipPath><linearGradient id="SVGID_24_" gradientUnits="userSpaceOnUse" x1="-423.397" y1="206.549" x2="-422.715" y2="206.549" gradientTransform="matrix(6.2439 0 0 6.2445 2643.65 -1272.1)"><stop offset="0" stop-color="#ffa600"/><stop offset=".34" stop-color="#ff9f00"/><stop offset="1" stop-color="#ff6200"/></linearGradient><path class="st7" d="M0 15.6h4.3v4.3H0z"/></g></g></svg>