<?xml version="1.0" encoding="utf-8"?>
<!-- Generator: Adobe Illustrator 24.2.1, SVG Export Plug-In . SVG Version: 6.00 Build 0)  -->
<svg version="1.1" id="Layer_1" xmlns="http://www.w3.org/2000/svg" xmlns:xlink="http://www.w3.org/1999/xlink" x="0px" y="0px"
	 viewBox="0 0 36 41" style="enable-background:new 0 0 36 41;" xml:space="preserve">
<style type="text/css">
	.st0{clip-path:url(#SVGID_2_);fill:url(#SVGID_3_);}
	.st1{clip-path:url(#SVGID_5_);fill:url(#SVGID_6_);}
	.st2{clip-path:url(#SVGID_8_);fill:url(#SVGID_9_);}
	.st3{clip-path:url(#SVGID_11_);fill:url(#SVGID_12_);}
	.st4{clip-path:url(#SVGID_14_);fill:url(#SVGID_15_);}
	.st5{clip-path:url(#SVGID_17_);fill:url(#SVGID_18_);}
	.st6{clip-path:url(#SVGID_20_);fill:url(#SVGID_21_);}
	.st7{clip-path:url(#SVGID_23_);fill:url(#SVGID_24_);}
</style>
<g id="Layer_2_1_">
	<g>
		<g>
			<defs>
				<path id="SVGID_1_" d="M15.9,11.7l8.3,1.4C18,12,17.6,6.9,9.2,2.3C8.3,5.3,10.2,10.8,15.9,11.7"/>
			</defs>
			<clipPath id="SVGID_2_">
				<use xlink:href="#SVGID_1_"  style="overflow:visible;"/>
			</clipPath>
			
				<linearGradient id="SVGID_3_" gradientUnits="userSpaceOnUse" x1="-470.2743" y1="182.1163" x2="-469.5927" y2="182.1163" gradientTransform="matrix(22.3552 0 0 15.9007 10522.0283 -2888.0715)">
				<stop  offset="0" style="stop-color:#FFA600"/>
				<stop  offset="0.34" style="stop-color:#FF9F00"/>
				<stop  offset="0.69" style="stop-color:#FF7300"/>
				<stop  offset="1" style="stop-color:#F52900"/>
			</linearGradient>
			<rect x="8.3" y="2.3" class="st0" width="15.9" height="10.8"/>
		</g>
	</g>
	<g>
		<g>
			<defs>
				<path id="SVGID_4_" d="M9.2,2.3c8.4,4.6,8.8,9.8,15,10.8c3.1,0.5,0.3,5.9-3,5.3c6,2,11.5-3.4,8.3-5.1L9.2,2.3z"/>
			</defs>
			<clipPath id="SVGID_5_">
				<use xlink:href="#SVGID_4_"  style="overflow:visible;"/>
			</clipPath>
			
				<linearGradient id="SVGID_6_" gradientUnits="userSpaceOnUse" x1="-475.3263" y1="176.3559" x2="-474.6442" y2="176.3559" gradientTransform="matrix(31.1579 0 0 24.3694 14819.3418 -4286.2993)">
				<stop  offset="0" style="stop-color:#FFA600"/>
				<stop  offset="0.34" style="stop-color:#FF9F00"/>
				<stop  offset="0.69" style="stop-color:#FF7300"/>
				<stop  offset="1" style="stop-color:#F52900"/>
			</linearGradient>
			<rect x="9.2" y="2.3" class="st1" width="23.5" height="18.2"/>
		</g>
	</g>
	<g>
		<g>
			<defs>
				<path id="SVGID_7_" d="M21.2,18.5C21.2,18.5,21.2,18.5,21.2,18.5c-0.4-0.1-0.8-0.2-1.2-0.5c-2.5-1.6-5-2.1-7.3-1.8
					c4.8,0.6,9.3,6.8,8.8,11.5c0.1,1.6-0.5,3.2-1.7,4.4L17,34.8c2.1,1.4,5.4-0.1,6.3-2.1l5.6-11.4c1.4-0.3,10.1-2.6,6.1-4.9l-5.5-3
					C32.6,15.1,27.2,20.5,21.2,18.5"/>
			</defs>
			<clipPath id="SVGID_8_">
				<use xlink:href="#SVGID_7_"  style="overflow:visible;"/>
			</clipPath>
			
				<linearGradient id="SVGID_9_" gradientUnits="userSpaceOnUse" x1="-476.526" y1="173.6044" x2="-475.8438" y2="173.6044" gradientTransform="matrix(34.2867 0 0 32.2475 16351.1445 -5573.5391)">
				<stop  offset="0" style="stop-color:#FFA600"/>
				<stop  offset="0.34" style="stop-color:#FF9F00"/>
				<stop  offset="1" style="stop-color:#FF6200"/>
			</linearGradient>
			<rect x="12.6" y="13.4" class="st2" width="26.3" height="22.8"/>
		</g>
	</g>
	<g>
		<g>
			<defs>
				<path id="SVGID_10_" d="M12.6,16.2C5.2,17,0.3,25.8,6.9,32.3l5.6,5.6c-3.7-3.7-4-9-1.7-12.7c0.2-0.4,0.5-0.8,0.9-1.2
					c2.2-2.2,5.9-2.2,8.1,0c1,1,1.6,2.3,1.7,3.7C22,23,17.4,16.8,12.6,16.2C12.6,16.2,12.6,16.2,12.6,16.2z"/>
			</defs>
			<clipPath id="SVGID_11_">
				<use xlink:href="#SVGID_10_"  style="overflow:visible;"/>
			</clipPath>
			
				<linearGradient id="SVGID_12_" gradientUnits="userSpaceOnUse" x1="-472.6103" y1="173.6767" x2="-471.9282" y2="173.6767" gradientTransform="matrix(25.8911 0 0 31.7769 12240.1699 -5491.9082)">
				<stop  offset="0" style="stop-color:#FFA600"/>
				<stop  offset="0.34" style="stop-color:#FF9F00"/>
				<stop  offset="0.69" style="stop-color:#FF7300"/>
				<stop  offset="1" style="stop-color:#F52900"/>
			</linearGradient>
			<rect x="0.3" y="16.2" class="st3" width="21.7" height="21.7"/>
		</g>
	</g>
	<g>
		<g>
			<defs>
				<path id="SVGID_13_" d="M12.5,37.8l3.1,3.1c1-0.8,1.7-3.3,0.1-4.9l-4-4c-1.9-1.9-2.2-4.7-0.9-6.9C8.5,28.8,8.8,34.2,12.5,37.8"
					/>
			</defs>
			<clipPath id="SVGID_14_">
				<use xlink:href="#SVGID_13_"  style="overflow:visible;"/>
			</clipPath>
			
				<linearGradient id="SVGID_15_" gradientUnits="userSpaceOnUse" x1="-530.5621" y1="173.2052" x2="-529.8802" y2="173.2052" gradientTransform="matrix(-8.0581 -7.2523 7.5379 -8.3754 -5565.2148 -2361.562)">
				<stop  offset="0" style="stop-color:#FFA600"/>
				<stop  offset="0.34" style="stop-color:#FF9F00"/>
				<stop  offset="0.69" style="stop-color:#FF7300"/>
				<stop  offset="1" style="stop-color:#F52900"/>
			</linearGradient>
			<polygon class="st4" points="13.4,45.4 0.6,33.9 12.4,20.7 25.2,32.2 			"/>
		</g>
	</g>
	<g>
		<g>
			<defs>
				<path id="SVGID_16_" d="M20.1,6.4l9.4,5.1L20.7,0C19.6,1.4,19,4,20.1,6.4"/>
			</defs>
			<clipPath id="SVGID_17_">
				<use xlink:href="#SVGID_16_"  style="overflow:visible;"/>
			</clipPath>
			
				<linearGradient id="SVGID_18_" gradientUnits="userSpaceOnUse" x1="-460.9736" y1="181.2161" x2="-460.2922" y2="181.2161" gradientTransform="matrix(14.5536 0 0 16.8792 6728.3169 -3053.0286)">
				<stop  offset="0" style="stop-color:#FFA600"/>
				<stop  offset="0.34" style="stop-color:#FF9F00"/>
				<stop  offset="1" style="stop-color:#FF6200"/>
			</linearGradient>
			<rect x="19" class="st5" width="10.4" height="11.5"/>
		</g>
	</g>
	<g>
		<g>
			<defs>
				<path id="SVGID_19_" d="M13.6,28c0,1.2,1,2.1,2.1,2.1c1.2,0,2.1-1,2.1-2.1c0-1.2-1-2.1-2.1-2.1C14.5,25.9,13.6,26.8,13.6,28"/>
			</defs>
			<clipPath id="SVGID_20_">
				<use xlink:href="#SVGID_19_"  style="overflow:visible;"/>
			</clipPath>
			
				<linearGradient id="SVGID_21_" gradientUnits="userSpaceOnUse" x1="-424.4062" y1="205.7206" x2="-423.7242" y2="205.7206" gradientTransform="matrix(6.2442 0 0 6.2442 2663.636 -1256.5713)">
				<stop  offset="0" style="stop-color:#FFA600"/>
				<stop  offset="0.34" style="stop-color:#FF9F00"/>
				<stop  offset="1" style="stop-color:#FF6200"/>
			</linearGradient>
			<rect x="13.6" y="25.9" class="st6" width="4.3" height="4.3"/>
		</g>
	</g>
	<g>
		<g>
			<defs>
				<path id="SVGID_22_" d="M0,17.7c0,1.2,1,2.1,2.1,2.1c1.2,0,2.1-1,2.1-2.1s-1-2.1-2.1-2.1C1,15.6,0,16.5,0,17.7"/>
			</defs>
			<clipPath id="SVGID_23_">
				<use xlink:href="#SVGID_22_"  style="overflow:visible;"/>
			</clipPath>
			
				<linearGradient id="SVGID_24_" gradientUnits="userSpaceOnUse" x1="-423.3972" y1="206.5493" x2="-422.7152" y2="206.5493" gradientTransform="matrix(6.2439 0 0 6.2445 2643.6497 -1272.0995)">
				<stop  offset="0" style="stop-color:#FFA600"/>
				<stop  offset="0.34" style="stop-color:#FF9F00"/>
				<stop  offset="1" style="stop-color:#FF6200"/>
			</linearGradient>
			<rect y="15.6" class="st7" width="4.3" height="4.3"/>
		</g>
	</g>
</g>
</svg>
