<svg xmlns="http://www.w3.org/2000/svg" viewBox="0 0 885.8 460.4">
  <path
    d="M335.7 256.008v-256h-50.5l.1 172c-48.3-31.9-118.5-4.9-137.3 47.7-15.3 43 2.1 89 41 111.4 27.4 15.7 62.7 18 96.5-.8 0 0 .3 10.5 0 9.9h50.1v-90.7l-58.1 2c0 23.7-19.2 42.8-42.9 42.8s-42.9-19.2-42.9-42.8c0-23.7 19.2-42.8 42.9-42.8s42.9 19.2 42.9 42.8l58.2 4.5M588.3 342.008s-.3-50.2 0-50.2c55.2-4 55.5-80.3-.3-84.8v-50.5c32.8 0 56.3 9.5 71.3 35.2 13.4-26.4 43.6-35.2 70.5-35.2 0 .3.3 50.5 0 50.5-53.2 4.5-55.5 76 0 84.5v50.5c-52.7 0-70.3-28.5-70.5-28.3-11.8 14.7-30.5 28.3-71 28.3M366.7 255.908v-256h50.4l-.1 172c48.3-31.9 118.5-4.9 137.3 47.7 15.3 43-2.1 89-41 111.4-27.4 15.7-62.7 18-96.5-.8 0 0-.3 10.5 0 9.9h-50.1v-95.1l58.1 6.4c0 23.7 19.2 42.8 42.9 42.8s42.9-19.2 42.9-42.8c0-23.7-19.2-42.8-42.9-42.8s-42.9 19.2-42.9 42.8l-58.1 4.5"
    fill="#e32739" />
  <path fill="#000"
    d="M0 459.008l12.5-58.8h22.4c10.5 0 11.9 8.5 10.2 16.7-1.1 5-3.6 10.7-8.5 14-4 2.7-8.8 3.6-13.1 3.5h-7.4l-5.2 24.6H0zm18-33.3h5.9c4.8 0 8.4-2 10-9.2 1.4-6.7-1-7.8-7.2-7.8h-5l-3.7 17M59.8 433.608l-5.4 25.3h-11l12.5-58.8h20.8c9.5 0 16 3.3 13.7 14.1-1.4 6.4-4.4 13.2-12 14.2v.2c6.3.9 7.4 5 6.2 10.7-.5 2.4-3.9 16.9-1.6 18.6l-.2 1.1H70.7c-.5-3.8 1.2-11 2-14.9.7-3.6 1.8-8.5-1.7-9.6-2.8-.9-6-.8-9.2-.8l-2-.1zm1.8-8.6h8.6c3.7-.2 7-2.6 8.2-8.5 1.4-6.6-1.1-7.7-5.3-7.8h-8.2l-3.3 16.3M98.2 424.808c3.7-15 7.2-26.1 24.8-26.1s16.4 11.1 13.7 26.1l-1.8 8.4c-3.3 15.7-6.9 27.1-25 27.1-18 0-16.8-11.4-13.4-27.1l1.7-8.4zm8.3 13.9c-1 4.9-2.3 12.8 5.2 12.8 7.8 0 9.6-8.1 10.8-13.7l3.2-15.1c1-4.7 3.5-15.1-4.7-15.1-8.6 0-10.1 10.3-11.1 14.8l-3.4 16.3M139.8 459.008l12.5-58.9h31.1l-1.8 8.6h-20.2l-3.1 15h18.9l-1.8 8.6h-18.9l-5.7 26.7h-11M178.3 459.008l12.5-58.8h30.9l-1.8 8.6H200l-3.2 14.8h18.4l-1.9 8.6H195l-3.9 18.1H211l-1.8 8.6-30.9.1M249 418.008c1.2-5.3 1.8-10.4-4.2-10.4-3.7 0-6.4 1.5-7.2 5.5-1 4.5 1.5 6.2 4.5 8.4 3.1 2.3 8.9 6.7 11.3 9.6 3 3.7 3.4 7.2 2.3 12.3-2.4 11.1-11 16.9-21.7 16.9-13.3.1-16.4-7.3-14.2-17.8l.9-4.3h11l-.7 3.5c-1.4 5.7-.6 9.9 4.8 9.9 4.6 0 7.3-2.4 8.3-6.9.7-3.5-.3-5.8-2.7-7.8-4.8-4.5-11.2-7.7-14.5-13.6-1.2-2.7-1.6-5.9-.9-9 2.1-10 8.9-15.5 20.6-15.5 17.5 0 14.1 13.5 13 19.3l-10.6-.1M292.6 418.008c1.2-5.3 1.8-10.4-4.2-10.4-3.7 0-6.4 1.5-7.2 5.5-.9 4.5 1.5 6.2 4.5 8.4 3.1 2.3 8.9 6.7 11.3 9.6 3 3.7 3.4 7.2 2.3 12.3-2.4 11.1-11 16.9-21.7 16.9-13.3.1-16.4-7.3-14.2-17.8l.9-4.3h11l-.7 3.5c-1.4 5.7-.6 9.9 4.8 9.9 4.6 0 7.3-2.4 8.3-6.9.7-3.5-.3-5.8-2.7-7.8-4.8-4.5-11.2-7.7-14.5-13.6-1.2-2.7-1.6-5.9-.9-9 2.1-10 8.9-15.5 20.6-15.5 17.5 0 14.1 13.5 13 19.3l-10.6-.1M305.1 459.008l12.5-58.8h11l-12.5 58.8h-11M333.5 424.808c3.7-15 7.2-26.1 24.8-26.1s16.4 11.1 13.7 26.1l-1.8 8.4c-3.3 15.7-6.9 27.1-25 27.1s-16.8-11.4-13.5-27.1l1.8-8.4zm8.4 13.9c-1 4.9-2.3 12.8 5.2 12.8 7.8 0 9.6-8.1 10.8-13.7l3.2-15.1c1-4.7 3.5-15.1-4.7-15.1-8.6 0-10.1 10.3-11.1 14.8l-3.4 16.3M413.5 400.108h11l-12.5 58.8h-11.4l-4.1-20.9c-1.4-7-2.3-14.1-2.9-23.4h-.2c-.6 4.9-1.4 10.8-2.4 16.8-.9 5.9-2 11.8-3 16.5l-2.3 11.1h-11l12.5-58.8h11.4l4 21.4c1.4 6.8 2.2 13.8 2.9 23.4h.2c.7-5.3 1.6-11.1 2.4-16.7.9-5.7 1.9-11.3 3-16.6l2.4-11.6M418 459.008l26.5-58.8h14.8l.8 58.8h-11.8l.3-14.9h-12.9l-6.1 14.9H418zm21.4-23.6h9.4l.6-16.7c0-2.7.4-5.4.6-8.2.2-1.3.3-2.7.4-3.9h-.1c-.4 1.3-.9 2.6-1.2 3.9-.9 2.7-1.7 5.4-2.8 8.2l-6.9 16.7M466.2 459.008l12.5-58.8h11l-10.7 50.1h20.4l-1.8 8.6-31.4.1M525 459.008l12.5-58.8h22.4c10.5 0 11.9 8.5 10.2 16.7-1.1 5-3.6 10.7-8.5 14-4 2.7-8.8 3.6-13.1 3.5h-7.2l-5.2 24.6H525zm18.1-33.3h5.9c4.8 0 8.4-2 10-9.2 1.4-6.7-1-7.8-7.2-7.8h-5l-3.7 17M584.8 433.608l-5.4 25.3h-11l12.5-58.8h20.8c9.5 0 16 3.3 13.7 14.1-1.4 6.4-4.4 13.2-12 14.2v.2c6.3.9 7.4 5 6.2 10.7-.5 2.4-3.9 16.9-1.6 18.6l-.2 1.1h-12.1c-.5-3.8 1.2-11 2-14.9.7-3.6 1.8-8.5-1.7-9.6-2.8-.9-6-.8-9.2-.8l-2-.1zm1.9-8.6h8.6c3.7-.2 7-2.6 8.2-8.5 1.4-6.6-1.1-7.7-5.3-7.8H590l-3.3 16.3M623.3 424.808c3.7-15 7.2-26.1 24.8-26.1s16.4 11.1 13.7 26.1l-1.8 8.4c-3.3 15.7-6.9 27.1-25 27.1-18 0-16.8-11.4-13.4-27.1l1.7-8.4zm8.3 13.9c-1 4.9-2.3 12.8 5.2 12.8 7.8 0 9.6-8.1 10.8-13.7l3.2-15.1c1-4.7 3.5-15.1-4.7-15.1-8.6 0-10.1 10.3-11.1 14.8l-3.4 16.3M664.8 459.008l12.5-58.9h22.9c2.7 0 7.8 1.2 10 6.7 1.6 4.1 1 10.6-1.1 20.3-2.5 11.6-5.3 25-15.5 30.3-2.7 1.4-5.7 1.6-8.5 1.6h-20.3zm17.6-8.7c9.8 0 11.5-5.2 15.1-22.2 3-13.9 2.7-19.4-3.9-19.4h-7.2l-8.8 41.6h4.8M751.2 400.108h11l-8.7 41c-2.8 13-8.3 19.2-22.7 19.2-14.5 0-17.4-6.2-14.7-19.2l8.7-41h11l-8.5 40.1c-1.2 5.6-2 11.3 5.4 11.3 7.1 0 8.7-5.6 9.9-11.3l8.6-40.1M799.5 438.008c-.3 1.1-.6 2.3-.9 3.4-2.8 10.7-8.2 19-20.4 19-18 0-16.8-11.4-13.5-27.1l1.8-8.4c3.7-15 7.2-26.1 24.8-26.1 9.8.2 14.2 5.2 12.8 15.2-.2 1.5-.3 3-.7 4.5h-10.8c.3-3.8 2.2-10.8-3.2-10.8-8.6 0-10.1 10.3-11.1 14.8l-3.5 16.3c-1 4.9-2.3 12.8 5.2 12.8 6 0 7.4-9.7 8.4-13.5l11.1-.1M812.4 400.108H849l-1.8 8.6h-12.8l-10.7 50.2h-11l10.7-50.2h-12.9l1.9-8.6M874.2 418.008c1.2-5.3 1.8-10.4-4.2-10.4-3.7 0-6.4 1.5-7.2 5.5-.9 4.5 1.5 6.2 4.5 8.4 3.1 2.3 8.9 6.7 11.3 9.6 3 3.7 3.4 7.2 2.3 12.3-2.4 11.1-11 16.9-21.7 16.9-13.2 0-16.3-7.4-14.1-17.9l.9-4.3h11l-.7 3.5c-1.5 5.7-.6 9.9 4.8 9.9 4.6 0 7.3-2.4 8.3-6.9.7-3.5-.3-5.8-2.7-7.8-4.8-4.5-11.2-7.7-14.4-13.6-1.2-2.7-1.6-5.9-.9-9 2.1-10 8.9-15.5 20.6-15.5 17.5 0 14.1 13.5 13 19.3h-10.8" />
</svg>
