<svg xmlns="http://www.w3.org/2000/svg" viewBox="0 0 466.7 500">
  <path d="M0 0h466.7v500H0V0z" fill="#0772ad" />
  <path
    d="M96.4 244.5c-3.4 0-6.2 2.8-6.2 6.2v54.2c0 3.4 2.8 6.2 6.1 6.2s6.2-2.8 6.2-6.2v-54.2c0-3.5-2.8-6.2-6.1-6.2m0-89.9c3.4 0 6.2-2.8 6.2-6.2V94.2c0-3.5-2.8-6.2-6.2-6.2s-6.2 2.8-6.2 6.2v54.2c0 3.5 2.7 6.2 6.2 6.2m50.7 96.1c0-3.4-2.8-6.2-6.2-6.2s-6.2 2.8-6.2 6.2v54.2c0 3.4 2.8 6.2 6.2 6.2s6.2-2.8 6.2-6.2v-54.2z" />
  <path d="M234.8 154.6c3.4 0 6.2-2.8 6.2-6.2V94.2c0-3.5-2.8-6.2-6.2-6.2s-6.2 2.8-6.2 6.2v54.2c.1 3.5 2.8 6.2 6.2 6.2"
    fill="#fff" />
  <path
    d="M368.7 154.6c3.4 0 6.2-2.8 6.2-6.2V94.2c0-3.5-2.8-6.2-6.2-6.2s-6.2 2.8-6.2 6.2v54.2c0 3.5 2.8 6.2 6.2 6.2M302.5 88c-18.3 0-33.1 14.9-33.1 33.3s14.8 33.3 33.1 33.3 33.1-14.9 33.1-33.3S320.8 88 302.5 88m0 55.8c-12.3 0-22.3-10-22.3-22.5 0-12.4 10-22.4 22.3-22.4s22.3 10 22.3 22.4c0 12.5-9.9 22.5-22.3 22.5M121.7 167c-18.3 0-33.1 14.9-33.1 33.3s14.8 33.3 33.1 33.3 33.1-14.9 33.1-33.3S140 167 121.7 167m0 55.8c-12.3 0-22.3-10.1-22.3-22.5s10-22.4 22.3-22.4S144 188 144 200.3c0 12.4-9.9 22.5-22.3 22.5m150-49.6v54.2c0 3.4 2.8 6.2 6.2 6.2 3.4 0 6.1-2.8 6.1-6.2v-54.2c0-3.5-2.8-6.2-6.2-6.2-3.3 0-6.1 2.8-6.1 6.2m-76.9-51.9c0-18.4-14.8-33.3-33.1-33.3-18.2 0-33.1 14.9-33.1 33.3s14.8 33.3 33.1 33.3 33.1-14.9 33.1-33.3m-33.1 22.5c-12.3 0-22.3-10-22.3-22.5 0-12.4 10-22.4 22.3-22.4s22.3 10 22.3 22.4c.1 12.5-9.9 22.5-22.3 22.5m140.1 100.7c-18.3 0-33.1 14.9-33.1 33.3s14.8 33.3 33.1 33.3 33.1-14.9 33.1-33.3c-.1-18.4-14.9-33.3-33.1-33.3m0 55.7c-12.3 0-22.3-10.1-22.3-22.5s10-22.4 22.3-22.4 22.3 10.1 22.3 22.4c0 12.5-10 22.5-22.3 22.5" />
  <path d="M234.8 167c-3.4 0-6.2 2.8-6.2 6.2v54.2c0 3.4 2.8 6.2 6.2 6.2s6.2-2.8 6.2-6.2v-54.2c0-3.4-2.8-6.2-6.2-6.2"
    fill="#fff" />
  <path fill="#000"
    d="M368.7 244.5c-3.4 0-6.2 2.8-6.2 6.2v54.2c0 3.4 2.8 6.2 6.2 6.2 3.4 0 6.2-2.8 6.2-6.2v-54.2c0-3.5-2.8-6.2-6.2-6.2" />
  <path
    d="M206.4 244.5c-18.3 0-33.1 14.9-33.1 33.3s14.8 33.3 33.1 33.3 33.1-14.9 33.1-33.3-14.9-33.3-33.1-33.3m0 55.7c-12.3 0-22.3-10.1-22.3-22.5s10-22.4 22.3-22.4 22.3 10.1 22.3 22.4c0 12.5-10 22.5-22.3 22.5"
    fill="#fff" />
  <path fill="#000"
    d="M193.3 173.2c0-3.4-2.8-6.2-6.2-6.2s-6.2 2.8-6.2 6.2v54.2c0 3.4 2.8 6.2 6.2 6.2s6.2-2.8 6.2-6.2v-54.2zm150-6.2c-18.3 0-33.1 14.9-33.1 33.3s14.8 33.3 33.1 33.3 33.1-14.9 33.1-33.3-14.8-33.3-33.1-33.3m0 55.8c-12.3 0-22.3-10.1-22.3-22.5s10-22.4 22.3-22.4 22.3 10.1 22.3 22.4c0 12.4-10 22.5-22.3 22.5" />
  <path
    d="M94.6 386.9c0 2-1.1 3.2-2.9 3.2s-3-1.2-3-3.2v-28.1h-2.4c-2 0-3-.9-3-2.5s1-2.6 3-2.6h2.4v-8.5c0-5.2 3.6-7.8 7.9-7.8h1.8c1.5 0 3.4 1 3.4 2.6s-1 2.6-3.2 2.6h-1.5c-1.8 0-2.4.9-2.4 2.4v8.7h3.7c1.9 0 3 .9 3 2.6 0 1.6-1 2.5-3 2.5h-3.7l-.1 28.1zm50.2.3c0 2.1-1.6 2.9-2.8 2.9s-2.8-.8-2.8-2.9v-2.5h-.2c-2.5 3.7-5.9 5.4-9.7 5.4-10.1 0-15.8-8.9-15.8-18.4 0-9.6 5.7-18.4 15.8-18.4 4.1 0 7 1.7 9.7 4.8h.2v-1.9c0-2.1 1.5-2.9 2.8-2.9 1.1 0 2.8.8 2.8 2.9v31zm-15.4-2.3c7.3 0 9.8-7.2 9.8-13.3s-2.5-13.3-9.8-13.3-9.8 7.2-9.8 13.3c0 6.2 2.6 13.3 9.8 13.3zm32.3-44.3c0-2 1.1-3.2 3-3.2 1.8 0 3 1.2 3 3.2v17.5h.1c1.5-2.2 4.9-4.9 9.6-4.9 9.7 0 15.3 8.9 15.3 18.4 0 9.6-5.6 18.4-15.3 18.4-4.7 0-7.9-1.7-9.6-4.9h-.1v1.8c0 2-1.1 3.2-3 3.2-1.8 0-3-1.2-3-3.2v-46.3zm15.2 44.3c7.3 0 9.8-7.2 9.8-13.3 0-6.1-2.6-13.3-9.8-13.3s-9.8 7.2-9.8 13.3 2.5 13.3 9.8 13.3zm39.3 2c0 2-1.1 3.2-3 3.2-1.8 0-3-1.2-3-3.2v-28.1h-2.4c-1.9 0-3-.9-3-2.5s1-2.6 3-2.6h2.4v-8.5c0-5.2 3.6-7.8 7.9-7.8h1.8c1.5 0 3.3 1 3.3 2.6s-1 2.6-3.2 2.6h-1.5c-1.8 0-2.4.9-2.4 2.4v8.7h3.7c1.9 0 3 .9 3 2.6 0 1.6-1 2.5-3 2.5h-3.7l.1 28.1zm26.1-45.9c2 0 3.6 1.6 3.6 3.7 0 2-1.6 3.6-3.6 3.6s-3.6-1.6-3.6-3.6 1.6-3.7 3.6-3.7zm3 45.9c0 2-1.1 3.2-3 3.2-1.8 0-2.9-1.2-2.9-3.2v-30.5c0-2 1.1-3.2 2.9-3.2s3 1.2 3 3.2v30.5zm25.3 0c0 2-1.1 3.2-3 3.2-1.8 0-3-1.2-3-3.2v-46.3c0-2 1.1-3.2 3-3.2 1.8 0 3 1.2 3 3.2v46.3zm21-41c0-2 1.1-3.2 3-3.2 1.8 0 3 1.2 3 3.2v7.8h2.4c1.9 0 3 .9 3 2.6 0 1.6-1 2.5-3 2.5h-2.4v28.1c0 2-1.1 3.2-3 3.2-1.8 0-3-1.2-3-3.2v-28.1h-2.4c-2 0-3-.9-3-2.5s1-2.6 3-2.6h2.4v-7.8zm30.3 28.1c0 6.2 3.9 11 10.6 11 7.9 0 9.9-4.9 12.1-4.9 1.1 0 2.1.9 2.1 2.6 0 2.9-7.3 7.4-14.3 7.4-11.4 0-16.4-8.9-16.4-18.4 0-9.7 6.1-18.4 16.1-18.4 9.8 0 15.4 8.9 15.4 17.5 0 2.1-.7 3.2-3.3 3.2h-22.3zm19.7-4.5c0-5.1-3-11.1-9.5-11.1-7.3-.3-10 5.6-10.2 11.1h19.7zm21.3-13.1c0-2 1.1-3.2 3-3.2 1.8 0 2.9 1.2 2.9 3.2v3.1h.2c1.3-2.8 4.6-6.2 8.1-6.2 2.1 0 3.3 1.3 3.3 3s-1.2 2.8-3.7 3.2c-3.5.6-7.8 3.3-7.8 10.2v17.1c0 2-1.1 3.2-2.9 3.2s-3-1.2-3-3.2l-.1-30.4zm-270 61.9c1.8 0 4.4 1 4.4 2.3 0 .5-.3.9-1 .9-.9 0-1.3-1.3-3.4-1.3-1.2 0-2.3.6-2.3 1.7 0 2.3 7 2.1 7 5.9 0 2.8-2.4 4.1-4.8 4.1-2.8 0-4.9-1.4-4.9-2.5 0-.6.4-1 .9-1 1 0 1.8 1.6 4.1 1.6 1.6 0 2.5-.9 2.5-1.8 0-2.6-7-2.5-7-6.1 0-2.5 2.3-3.8 4.5-3.8m15.7 0c3.7 0 5.8 3.3 5.8 6.8s-2.1 6.8-5.8 6.8-5.8-3.3-5.8-6.8 2.1-6.8 5.8-6.8m0 11.6c2.7 0 3.6-2.6 3.6-4.9 0-2.2-1-4.9-3.6-4.9-2.7 0-3.6 2.6-3.6 4.9s1 4.9 3.6 4.9m14.7.8c0 .7-.4 1.2-1.1 1.2s-1.1-.4-1.1-1.2v-10.3h-.9c-.7 0-1.1-.3-1.1-1 0-.6.4-.9 1.1-.9h.9v-3.1c0-1.9 1.3-2.9 2.9-2.9h.7c.6 0 1.2.3 1.2.9s-.4 1-1.2 1h-.5c-.7 0-.9.3-.9.9v3.2h1.4c.7 0 1.1.3 1.1.9s-.4 1-1.1 1h-1.4v10.3zm7.9-15.1c0-.7.4-1.2 1.1-1.2.6 0 1.1.5 1.1 1.2v2.9h.9c.7 0 1.1.3 1.1.9s-.4 1-1.1 1h-.9v10.3c0 .7-.4 1.2-1.1 1.2-.7 0-1.1-.4-1.1-1.2v-10.3h-.9c-.7 0-1.1-.3-1.1-1 0-.6.4-.9 1.1-.9h.9v-2.9zm8.3 4.5c-.1-.3-.2-.6-.2-.9 0-.4.3-1 1.1-1 .5 0 .9.2 1.2 1.1l2.8 9h.1l2.7-8.7c.3-1 .5-1.5 1.3-1.5s1 .5 1.3 1.5l2.8 8.7h.1l2.8-9c.3-.9.7-1.1 1.2-1.1.7 0 1.1.6 1.1 1 0 .3-.1.5-.2.9l-3.6 10.6c-.3.9-.7 1.1-1.3 1.1s-1-.3-1.2-1.2l-2.8-8.9h-.1l-2.8 8.9c-.3.9-.7 1.1-1.2 1.1-.6 0-1-.3-1.3-1.2l-3.8-10.4zm34.1 10.7c0 .8-.6 1.1-1 1.1-.5 0-1-.3-1-1.1v-.9h-.1c-.9 1.3-2.2 2-3.6 2-3.7 0-5.8-3.3-5.8-6.8s2.1-6.8 5.8-6.8c1.5 0 2.6.6 3.6 1.8h.1v-.7c0-.8.6-1.1 1-1.1s1 .3 1 1.1v11.4zm-5.7-.9c2.7 0 3.6-2.6 3.6-4.9 0-2.2-.9-4.9-3.6-4.9s-3.6 2.6-3.6 4.9 1 4.9 3.6 4.9zm12.3-10.4c0-.7.4-1.2 1.1-1.2s1.1.5 1.1 1.2v1.1h.1c.5-1 1.7-2.3 3-2.3.8 0 1.2.5 1.2 1.1s-.4 1-1.4 1.2c-1.3.2-2.9 1.2-2.9 3.7v6.3c0 .7-.4 1.2-1.1 1.2-.6 0-1.1-.4-1.1-1.2v-11.1zm12.8 6.4c0 2.3 1.5 4 3.9 4 2.9 0 3.6-1.8 4.4-1.8.4 0 .8.3.8 1 0 1.1-2.7 2.7-5.3 2.7-4.2 0-6-3.3-6-6.7 0-3.6 2.2-6.8 5.9-6.8 3.6 0 5.7 3.3 5.7 6.4 0 .8-.3 1.2-1.2 1.2H193zm7.3-1.6c0-1.9-1.1-4.1-3.5-4.1-2.7-.1-3.7 2.1-3.7 4.1h7.2zm20.2-10.5c.7 0 1.3.6 1.3 1.3 0 .7-.6 1.4-1.3 1.4s-1.3-.6-1.3-1.4.5-1.3 1.3-1.3zm1 16.9c0 .7-.4 1.2-1.1 1.2s-1.1-.4-1.1-1.2v-11.2c0-.7.4-1.2 1.1-1.2s1.1.5 1.1 1.2v11.2zm6.6-11.2c0-.7.4-1.2 1.1-1.2s1.1.5 1.1 1.2v.5h.1c1-1.2 2.3-1.7 3.6-1.7 2 0 4.6 1.3 4.6 5v7.3c0 .7-.4 1.2-1.1 1.2-.6 0-1.1-.4-1.1-1.2v-7.2c0-2.3-1.6-3.3-3-3.3s-3.1.9-3.1 3.3v7.2c0 .7-.4 1.2-1.1 1.2-.6 0-1.1-.4-1.1-1.2v-11.1zm21.2-1.2c1.8 0 4.4 1 4.4 2.3 0 .5-.3.9-1 .9-.9 0-1.3-1.3-3.4-1.3-1.2 0-2.3.6-2.3 1.7 0 2.3 7 2.1 7 5.9 0 2.8-2.4 4.1-4.8 4.1-2.8 0-5-1.4-5-2.5 0-.6.4-1 .9-1 1 0 1.8 1.6 4.1 1.6 1.6 0 2.5-.9 2.5-1.8 0-2.6-7-2.5-7-6.1.1-2.5 2.4-3.8 4.6-3.8m11.2-2.7c0-.7.4-1.2 1.1-1.2s1.1.5 1.1 1.2v2.9h.9c.7 0 1.1.3 1.1.9s-.4 1-1.1 1h-.9v10.3c0 .7-.4 1.2-1.1 1.2-.6 0-1.1-.4-1.1-1.2v-10.3h-.9c-.7 0-1.1-.3-1.1-1 0-.6.4-.9 1.1-.9h.9v-2.9zm9.5 3.9c0-.7.4-1.2 1.1-1.2s1.1.5 1.1 1.2v1.1c.5-1 1.7-2.3 3-2.3.8 0 1.2.5 1.2 1.1s-.4 1-1.4 1.2c-1.3.2-2.8 1.2-2.8 3.7v6.3c0 .7-.4 1.2-1.1 1.2-.6 0-1.1-.4-1.1-1.2v-11.1zm11.5 0c0-.7.4-1.2 1.1-1.2s1.1.5 1.1 1.2v7c0 2.3 1 3.5 3.1 3.5 2 0 3-1.2 3-3.5v-7c0-.7.4-1.2 1.1-1.2s1.1.5 1.1 1.2v7.1c0 3.9-2.6 5.3-5.2 5.3-2.7 0-5.2-1.4-5.2-5.3l-.1-7.1zm24.8 3.7c0-1.9-1-3-2.8-3s-2.8 1.2-2.8 3v7.4c0 .7-.4 1.2-1.1 1.2s-1.1-.4-1.1-1.2v-11.2c0-.7.4-1.2 1.1-1.2s1.1.5 1.1 1.2v.4h.1c.5-.7 1.3-1.6 3.3-1.6 1.3 0 2.6.6 3.6 2.2 1-1.4 2.1-2.2 4-2.2 2 0 4.6 1.3 4.6 5v7.3c0 .7-.4 1.1-1.1 1.1s-1.1-.4-1.1-1.2V423c0-1.9-1-3.1-2.8-3.1-1.7 0-2.8 1.2-2.8 3v7.4c0 .7-.4 1.2-1.1 1.2s-1.1-.4-1.1-1.2v-7.1zm17.9 2.7c0 2.3 1.4 4 3.9 4 2.9 0 3.6-1.8 4.4-1.8.4 0 .8.3.8 1 0 1.1-2.7 2.7-5.3 2.7-4.2 0-6-3.3-6-6.7 0-3.6 2.2-6.8 5.9-6.8 3.6 0 5.7 3.3 5.7 6.4 0 .8-.3 1.2-1.2 1.2h-8.2zm7.2-1.6c0-1.9-1.1-4.1-3.5-4.1-2.7-.1-3.6 2.1-3.7 4.1h7.2zm8-4.8c0-.7.4-1.2 1.1-1.2s1.1.5 1.1 1.2v.5h.1c1-1.2 2.3-1.7 3.6-1.7 2 0 4.6 1.3 4.6 5v7.3c0 .7-.4 1.2-1.1 1.2s-1.1-.4-1.1-1.2v-7.2c0-2.3-1.6-3.3-3-3.3-1.5 0-3.1.9-3.1 3.3v7.2c0 .7-.4 1.2-1.1 1.2s-1.1-.4-1.1-1.2v-11.1zm17.6-3.9c0-.7.4-1.2 1.1-1.2s1.1.5 1.1 1.2v2.9h.9c.7 0 1.1.3 1.1.9s-.4 1-1.1 1h-.9v10.3c0 .7-.4 1.2-1.1 1.2-.6 0-1.1-.4-1.1-1.2v-10.3h-.9c-.7 0-1.1-.3-1.1-1 0-.6.4-.9 1.1-.9h.9v-2.9zm13.7 2.7c1.8 0 4.4 1 4.4 2.3 0 .5-.3.9-1 .9-.9 0-1.3-1.3-3.4-1.3-1.2 0-2.3.6-2.3 1.7 0 2.3 7 2.1 7 5.9 0 2.8-2.4 4.1-4.8 4.1-2.8 0-4.9-1.4-4.9-2.5 0-.6.4-1 .9-1 1 0 1.8 1.6 4.1 1.6 1.6 0 2.5-.9 2.5-1.8 0-2.6-7-2.5-7-6.1 0-2.5 2.2-3.8 4.5-3.8"
    fill="#fff" />
</svg>
