<?xml version="1.0" encoding="utf-8"?>
<!-- Generator: Adobe Illustrator 19.2.1, SVG Export Plug-In . SVG Version: 6.00 Build 0)  -->
<svg version="1.1" id="layer" xmlns="http://www.w3.org/2000/svg" xmlns:xlink="http://www.w3.org/1999/xlink" x="0px" y="0px"
	 viewBox="0 0 652 652" style="enable-background:new 0 0 652 652;" xml:space="preserve">
<style type="text/css">
	.st0{fill:#0772AD;}
	.st1{fill:#FFFFFF;}
</style>
<g>
	<path class="st0" d="M86.7,72h466.7v500H86.7V72z"/>
	<path d="M183.1,316.5c-3.4,0-6.2,2.8-6.2,6.2v54.2c0,3.4,2.8,6.2,6.1,6.2s6.2-2.8,6.2-6.2v-54.2
		C189.2,319.2,186.4,316.5,183.1,316.5 M183.1,226.6c3.4,0,6.2-2.8,6.2-6.2v-54.2c0-3.5-2.8-6.2-6.2-6.2c-3.4,0-6.2,2.8-6.2,6.2
		v54.2C176.9,223.9,179.6,226.6,183.1,226.6 M233.8,322.7c0-3.4-2.8-6.2-6.2-6.2c-3.4,0-6.2,2.8-6.2,6.2v54.2c0,3.4,2.8,6.2,6.2,6.2
		c3.4,0,6.2-2.8,6.2-6.2L233.8,322.7L233.8,322.7z"/>
	<path class="st1" d="M321.5,226.6c3.4,0,6.2-2.8,6.2-6.2v-54.2c0-3.5-2.8-6.2-6.2-6.2c-3.4,0-6.2,2.8-6.2,6.2v54.2
		C315.4,223.9,318.1,226.6,321.5,226.6"/>
	<path d="M455.4,226.6c3.4,0,6.2-2.8,6.2-6.2v-54.2c0-3.5-2.8-6.2-6.2-6.2c-3.4,0-6.2,2.8-6.2,6.2v54.2
		C449.2,223.9,452,226.6,455.4,226.6 M389.2,160c-18.3,0-33.1,14.9-33.1,33.3c0,18.4,14.8,33.3,33.1,33.3
		c18.3,0,33.1-14.9,33.1-33.3S407.5,160,389.2,160 M389.2,215.8c-12.3,0-22.3-10-22.3-22.5c0-12.4,10-22.4,22.3-22.4
		c12.3,0,22.3,10,22.3,22.4C411.5,205.8,401.6,215.8,389.2,215.8 M208.4,239c-18.3,0-33.1,14.9-33.1,33.3s14.8,33.3,33.1,33.3
		c18.3,0,33.1-14.9,33.1-33.3C241.5,253.9,226.7,239,208.4,239 M208.4,294.8c-12.3,0-22.3-10.1-22.3-22.5c0-12.4,10-22.4,22.3-22.4
		c12.3,0,22.3,10.1,22.3,22.4C230.7,284.7,220.8,294.8,208.4,294.8 M358.4,245.2v54.2c0,3.4,2.8,6.2,6.2,6.2c3.4,0,6.1-2.8,6.1-6.2
		v-54.2c0-3.5-2.8-6.2-6.2-6.2C361.2,239,358.4,241.8,358.4,245.2 M281.5,193.3c0-18.4-14.8-33.3-33.1-33.3
		c-18.2,0-33.1,14.9-33.1,33.3s14.8,33.3,33.1,33.3C266.7,226.6,281.5,211.7,281.5,193.3 M248.4,215.8c-12.3,0-22.3-10-22.3-22.5
		c0-12.4,10-22.4,22.3-22.4c12.3,0,22.3,10,22.3,22.4C270.8,205.8,260.8,215.8,248.4,215.8 M388.5,316.5
		c-18.3,0-33.1,14.9-33.1,33.3c0,18.4,14.8,33.3,33.1,33.3c18.3,0,33.1-14.9,33.1-33.3C421.5,331.4,406.7,316.5,388.5,316.5
		 M388.5,372.2c-12.3,0-22.3-10.1-22.3-22.5c0-12.4,10-22.4,22.3-22.4c12.3,0,22.3,10.1,22.3,22.4
		C410.8,362.2,400.8,372.2,388.5,372.2"/>
	<path class="st1" d="M321.5,239c-3.4,0-6.2,2.8-6.2,6.2v54.2c0,3.4,2.8,6.2,6.2,6.2c3.4,0,6.2-2.8,6.2-6.2v-54.2
		C327.7,241.8,324.9,239,321.5,239"/>
	<path d="M455.4,316.5c-3.4,0-6.2,2.8-6.2,6.2v54.2c0,3.4,2.8,6.2,6.2,6.2c3.4,0,6.2-2.8,6.2-6.2v-54.2
		C461.6,319.2,458.8,316.5,455.4,316.5"/>
	<path class="st1" d="M293.1,316.5c-18.3,0-33.1,14.9-33.1,33.3c0,18.4,14.8,33.3,33.1,33.3c18.3,0,33.1-14.9,33.1-33.3
		C326.2,331.4,311.3,316.5,293.1,316.5 M293.1,372.2c-12.3,0-22.3-10.1-22.3-22.5c0-12.4,10-22.4,22.3-22.4
		c12.3,0,22.3,10.1,22.3,22.4C315.4,362.2,305.4,372.2,293.1,372.2"/>
	<path d="M280,245.2c0-3.4-2.8-6.2-6.2-6.2s-6.2,2.8-6.2,6.2v54.2c0,3.4,2.8,6.2,6.2,6.2c3.4,0,6.2-2.8,6.2-6.2L280,245.2L280,245.2
		z M430,239c-18.3,0-33.1,14.9-33.1,33.3s14.8,33.3,33.1,33.3c18.3,0,33.1-14.9,33.1-33.3C463.1,253.9,448.3,239,430,239 M430,294.8
		c-12.3,0-22.3-10.1-22.3-22.5c0-12.4,10-22.4,22.3-22.4c12.3,0,22.3,10.1,22.3,22.4C452.3,284.7,442.3,294.8,430,294.8"/>
	<path class="st1" d="M181.3,458.9c0,2-1.1,3.2-2.9,3.2c-1.8,0-3-1.2-3-3.2v-28.1H173c-2,0-3-0.9-3-2.5c0-1.6,1-2.6,3-2.6h2.4v-8.5
		c0-5.2,3.6-7.8,7.9-7.8h1.8c1.5,0,3.4,1,3.4,2.6c0,1.6-1,2.6-3.2,2.6h-1.5c-1.8,0-2.4,0.9-2.4,2.4v8.7h3.7c1.9,0,3,0.9,3,2.6
		c0,1.6-1,2.5-3,2.5h-3.7V458.9z M231.5,459.2c0,2.1-1.6,2.9-2.8,2.9c-1.2,0-2.8-0.8-2.8-2.9v-2.5h-0.2c-2.5,3.7-5.9,5.4-9.7,5.4
		c-10.1,0-15.8-8.9-15.8-18.4c0-9.6,5.7-18.4,15.8-18.4c4.1,0,7,1.7,9.7,4.8h0.2v-1.9c0-2.1,1.5-2.9,2.8-2.9c1.1,0,2.8,0.8,2.8,2.9
		L231.5,459.2L231.5,459.2z M216.1,456.9c7.3,0,9.8-7.2,9.8-13.3s-2.5-13.3-9.8-13.3c-7.3,0-9.8,7.2-9.8,13.3
		C206.3,449.8,208.9,456.9,216.1,456.9z M248.4,412.6c0-2,1.1-3.2,3-3.2c1.8,0,3,1.2,3,3.2v17.5h0.1c1.5-2.2,4.9-4.9,9.6-4.9
		c9.7,0,15.3,8.9,15.3,18.4c0,9.6-5.6,18.4-15.3,18.4c-4.7,0-7.9-1.7-9.6-4.9h-0.1v1.8c0,2-1.1,3.2-3,3.2c-1.8,0-3-1.2-3-3.2V412.6
		L248.4,412.6z M263.6,456.9c7.3,0,9.8-7.2,9.8-13.3c0-6.1-2.6-13.3-9.8-13.3s-9.8,7.2-9.8,13.3S256.3,456.9,263.6,456.9z
		 M302.9,458.9c0,2-1.1,3.2-3,3.2c-1.8,0-3-1.2-3-3.2v-28.1h-2.4c-1.9,0-3-0.9-3-2.5c0-1.6,1-2.6,3-2.6h2.4v-8.5
		c0-5.2,3.6-7.8,7.9-7.8h1.8c1.5,0,3.3,1,3.3,2.6c0,1.6-1,2.6-3.2,2.6h-1.5c-1.8,0-2.4,0.9-2.4,2.4v8.7h3.7c1.9,0,3,0.9,3,2.6
		c0,1.6-1,2.5-3,2.5h-3.7V458.9z M329,413c2,0,3.6,1.6,3.6,3.7c0,2-1.6,3.6-3.6,3.6c-2,0-3.6-1.6-3.6-3.6
		C325.4,414.7,327,413,329,413L329,413z M332,458.9c0,2-1.1,3.2-3,3.2c-1.8,0-2.9-1.2-2.9-3.2v-30.5c0-2,1.1-3.2,2.9-3.2
		c1.8,0,3,1.2,3,3.2V458.9L332,458.9z M357.3,458.9c0,2-1.1,3.2-3,3.2c-1.8,0-3-1.2-3-3.2v-46.3c0-2,1.1-3.2,3-3.2
		c1.8,0,3,1.2,3,3.2V458.9L357.3,458.9z M378.3,417.9c0-2,1.1-3.2,3-3.2c1.8,0,3,1.2,3,3.2v7.8h2.4c1.9,0,3,0.9,3,2.6
		c0,1.6-1,2.5-3,2.5h-2.4v28.1c0,2-1.1,3.2-3,3.2c-1.8,0-3-1.2-3-3.2v-28.1h-2.4c-2,0-3-0.9-3-2.5c0-1.6,1-2.6,3-2.6h2.4V417.9z
		 M408.6,446c0,6.2,3.9,11,10.6,11c7.9,0,9.9-4.9,12.1-4.9c1.1,0,2.1,0.9,2.1,2.6c0,2.9-7.3,7.4-14.3,7.4
		c-11.4,0-16.4-8.9-16.4-18.4c0-9.7,6.1-18.4,16.1-18.4c9.8,0,15.4,8.9,15.4,17.5c0,2.1-0.7,3.2-3.3,3.2L408.6,446L408.6,446z
		 M428.3,441.5c0-5.1-3-11.1-9.5-11.1c-7.3-0.3-10,5.6-10.2,11.1L428.3,441.5L428.3,441.5z M449.6,428.4c0-2,1.1-3.2,3-3.2
		c1.8,0,2.9,1.2,2.9,3.2v3.1h0.2c1.3-2.8,4.6-6.2,8.1-6.2c2.1,0,3.3,1.3,3.3,3c0,1.7-1.2,2.8-3.7,3.2c-3.5,0.6-7.8,3.3-7.8,10.2
		v17.1c0,2-1.1,3.2-2.9,3.2c-1.8,0-3-1.2-3-3.2L449.6,428.4L449.6,428.4z M179.6,490.3c1.8,0,4.4,1,4.4,2.3c0,0.5-0.3,0.9-1,0.9
		c-0.9,0-1.3-1.3-3.4-1.3c-1.2,0-2.3,0.6-2.3,1.7c0,2.3,7,2.1,7,5.9c0,2.8-2.4,4.1-4.8,4.1c-2.8,0-4.9-1.4-4.9-2.5
		c0-0.6,0.4-1,0.9-1c1,0,1.8,1.6,4.1,1.6c1.6,0,2.5-0.9,2.5-1.8c0-2.6-7-2.5-7-6.1C175.1,491.6,177.4,490.3,179.6,490.3
		 M195.3,490.3c3.7,0,5.8,3.3,5.8,6.8c0,3.5-2.1,6.8-5.8,6.8c-3.7,0-5.8-3.3-5.8-6.8C189.5,493.6,191.6,490.3,195.3,490.3
		 M195.3,501.9c2.7,0,3.6-2.6,3.6-4.9c0-2.2-1-4.9-3.6-4.9c-2.7,0-3.6,2.6-3.6,4.9C191.7,499.3,192.7,501.9,195.3,501.9 M210,502.7
		c0,0.7-0.4,1.2-1.1,1.2c-0.7,0-1.1-0.4-1.1-1.2v-10.3h-0.9c-0.7,0-1.1-0.3-1.1-1c0-0.6,0.4-0.9,1.1-0.9h0.9v-3.1
		c0-1.9,1.3-2.9,2.9-2.9h0.7c0.6,0,1.2,0.3,1.2,0.9c0,0.6-0.4,1-1.2,1h-0.5c-0.7,0-0.9,0.3-0.9,0.9v3.2h1.4c0.7,0,1.1,0.3,1.1,0.9
		c0,0.6-0.4,1-1.1,1H210L210,502.7L210,502.7z M217.9,487.6c0-0.7,0.4-1.2,1.1-1.2c0.6,0,1.1,0.5,1.1,1.2v2.9h0.9
		c0.7,0,1.1,0.3,1.1,0.9c0,0.6-0.4,1-1.1,1h-0.9v10.3c0,0.7-0.4,1.2-1.1,1.2c-0.7,0-1.1-0.4-1.1-1.2v-10.3H217c-0.7,0-1.1-0.3-1.1-1
		c0-0.6,0.4-0.9,1.1-0.9h0.9L217.9,487.6L217.9,487.6z M226.2,492.1c-0.1-0.3-0.2-0.6-0.2-0.9c0-0.4,0.3-1,1.1-1
		c0.5,0,0.9,0.2,1.2,1.1l2.8,9h0.1l2.7-8.7c0.3-1,0.5-1.5,1.3-1.5c0.8,0,1,0.5,1.3,1.5l2.8,8.7h0.1l2.8-9c0.3-0.9,0.7-1.1,1.2-1.1
		c0.7,0,1.1,0.6,1.1,1c0,0.3-0.1,0.5-0.2,0.9l-3.6,10.6c-0.3,0.9-0.7,1.1-1.3,1.1c-0.6,0-1-0.3-1.2-1.2l-2.8-8.9h-0.1l-2.8,8.9
		c-0.3,0.9-0.7,1.1-1.2,1.1c-0.6,0-1-0.3-1.3-1.2L226.2,492.1L226.2,492.1z M260.3,502.8c0,0.8-0.6,1.1-1,1.1c-0.5,0-1-0.3-1-1.1
		v-0.9h-0.1c-0.9,1.3-2.2,2-3.6,2c-3.7,0-5.8-3.3-5.8-6.8c0-3.5,2.1-6.8,5.8-6.8c1.5,0,2.6,0.6,3.6,1.8h0.1v-0.7
		c0-0.8,0.6-1.1,1-1.1c0.4,0,1,0.3,1,1.1V502.8L260.3,502.8z M254.6,501.9c2.7,0,3.6-2.6,3.6-4.9c0-2.2-0.9-4.9-3.6-4.9
		c-2.7,0-3.6,2.6-3.6,4.9C251,499.3,252,501.9,254.6,501.9z M266.9,491.5c0-0.7,0.4-1.2,1.1-1.2c0.7,0,1.1,0.5,1.1,1.2v1.1h0.1
		c0.5-1,1.7-2.3,3-2.3c0.8,0,1.2,0.5,1.2,1.1c0,0.6-0.4,1-1.4,1.2c-1.3,0.2-2.9,1.2-2.9,3.7v6.3c0,0.7-0.4,1.2-1.1,1.2
		c-0.6,0-1.1-0.4-1.1-1.2L266.9,491.5L266.9,491.5z M279.7,497.9c0,2.3,1.5,4,3.9,4c2.9,0,3.6-1.8,4.4-1.8c0.4,0,0.8,0.3,0.8,1
		c0,1.1-2.7,2.7-5.3,2.7c-4.2,0-6-3.3-6-6.7c0-3.6,2.2-6.8,5.9-6.8c3.6,0,5.7,3.3,5.7,6.4c0,0.8-0.3,1.2-1.2,1.2L279.7,497.9
		L279.7,497.9z M287,496.3c0-1.9-1.1-4.1-3.5-4.1c-2.7-0.1-3.7,2.1-3.7,4.1L287,496.3L287,496.3z M307.2,485.8
		c0.7,0,1.3,0.6,1.3,1.3c0,0.7-0.6,1.4-1.3,1.4c-0.7,0-1.3-0.6-1.3-1.4S306.4,485.8,307.2,485.8z M308.2,502.7
		c0,0.7-0.4,1.2-1.1,1.2c-0.7,0-1.1-0.4-1.1-1.2v-11.2c0-0.7,0.4-1.2,1.1-1.2c0.7,0,1.1,0.5,1.1,1.2V502.7L308.2,502.7z
		 M314.8,491.5c0-0.7,0.4-1.2,1.1-1.2c0.7,0,1.1,0.5,1.1,1.2v0.5l0.1,0c1-1.2,2.3-1.7,3.6-1.7c2,0,4.6,1.3,4.6,5v7.3
		c0,0.7-0.4,1.2-1.1,1.2c-0.6,0-1.1-0.4-1.1-1.2v-7.2c0-2.3-1.6-3.3-3-3.3c-1.4,0-3.1,0.9-3.1,3.3v7.2c0,0.7-0.4,1.2-1.1,1.2
		c-0.6,0-1.1-0.4-1.1-1.2L314.8,491.5L314.8,491.5z M336,490.3c1.8,0,4.4,1,4.4,2.3c0,0.5-0.3,0.9-1,0.9c-0.9,0-1.3-1.3-3.4-1.3
		c-1.2,0-2.3,0.6-2.3,1.7c0,2.3,7,2.1,7,5.9c0,2.8-2.4,4.1-4.8,4.1c-2.8,0-5-1.4-5-2.5c0-0.6,0.4-1,0.9-1c1,0,1.8,1.6,4.1,1.6
		c1.6,0,2.5-0.9,2.5-1.8c0-2.6-7-2.5-7-6.1C331.5,491.6,333.8,490.3,336,490.3 M347.2,487.6c0-0.7,0.4-1.2,1.1-1.2
		c0.7,0,1.1,0.5,1.1,1.2v2.9h0.9c0.7,0,1.1,0.3,1.1,0.9c0,0.6-0.4,1-1.1,1h-0.9v10.3c0,0.7-0.4,1.2-1.1,1.2c-0.6,0-1.1-0.4-1.1-1.2
		v-10.3h-0.9c-0.7,0-1.1-0.3-1.1-1c0-0.6,0.4-0.9,1.1-0.9h0.9L347.2,487.6L347.2,487.6z M356.7,491.5c0-0.7,0.4-1.2,1.1-1.2
		c0.7,0,1.1,0.5,1.1,1.2v1.1h0c0.5-1,1.7-2.3,3-2.3c0.8,0,1.2,0.5,1.2,1.1c0,0.6-0.4,1-1.4,1.2c-1.3,0.2-2.8,1.2-2.8,3.7v6.3
		c0,0.7-0.4,1.2-1.1,1.2c-0.6,0-1.1-0.4-1.1-1.2V491.5L356.7,491.5z M368.2,491.5c0-0.7,0.4-1.2,1.1-1.2c0.7,0,1.1,0.5,1.1,1.2v7
		c0,2.3,1,3.5,3.1,3.5c2,0,3-1.2,3-3.5v-7c0-0.7,0.4-1.2,1.1-1.2c0.7,0,1.1,0.5,1.1,1.2v7.1c0,3.9-2.6,5.3-5.2,5.3
		c-2.7,0-5.2-1.4-5.2-5.3L368.2,491.5L368.2,491.5z M393,495.2c0-1.9-1-3-2.8-3c-1.8,0-2.8,1.2-2.8,3v7.4c0,0.7-0.4,1.2-1.1,1.2
		c-0.7,0-1.1-0.4-1.1-1.2v-11.2c0-0.7,0.4-1.2,1.1-1.2c0.7,0,1.1,0.5,1.1,1.2v0.4l0.1,0c0.5-0.7,1.3-1.6,3.3-1.6
		c1.3,0,2.6,0.6,3.6,2.2c1-1.4,2.1-2.2,4-2.2c2,0,4.6,1.3,4.6,5v7.3c0,0.7-0.4,1.1-1.1,1.1c-0.7,0-1.1-0.4-1.1-1.2v-7.4
		c0-1.9-1-3.1-2.8-3.1c-1.7,0-2.8,1.2-2.8,3v7.4c0,0.7-0.4,1.2-1.1,1.2c-0.7,0-1.1-0.4-1.1-1.2L393,495.2L393,495.2z M410.9,497.9
		c0,2.3,1.4,4,3.9,4c2.9,0,3.6-1.8,4.4-1.8c0.4,0,0.8,0.3,0.8,1c0,1.1-2.7,2.7-5.3,2.7c-4.2,0-6-3.3-6-6.7c0-3.6,2.2-6.8,5.9-6.8
		c3.6,0,5.7,3.3,5.7,6.4c0,0.8-0.3,1.2-1.2,1.2L410.9,497.9L410.9,497.9z M418.1,496.3c0-1.9-1.1-4.1-3.5-4.1
		c-2.7-0.1-3.6,2.1-3.7,4.1L418.1,496.3L418.1,496.3z M426.1,491.5c0-0.7,0.4-1.2,1.1-1.2c0.7,0,1.1,0.5,1.1,1.2v0.5l0.1,0
		c1-1.2,2.3-1.7,3.6-1.7c2,0,4.6,1.3,4.6,5v7.3c0,0.7-0.4,1.2-1.1,1.2c-0.7,0-1.1-0.4-1.1-1.2v-7.2c0-2.3-1.6-3.3-3-3.3
		c-1.5,0-3.1,0.9-3.1,3.3v7.2c0,0.7-0.4,1.2-1.1,1.2c-0.7,0-1.1-0.4-1.1-1.2L426.1,491.5L426.1,491.5z M443.7,487.6
		c0-0.7,0.4-1.2,1.1-1.2c0.7,0,1.1,0.5,1.1,1.2v2.9h0.9c0.7,0,1.1,0.3,1.1,0.9c0,0.6-0.4,1-1.1,1h-0.9v10.3c0,0.7-0.4,1.2-1.1,1.2
		c-0.6,0-1.1-0.4-1.1-1.2v-10.3h-0.9c-0.7,0-1.1-0.3-1.1-1c0-0.6,0.4-0.9,1.1-0.9h0.9L443.7,487.6L443.7,487.6z M457.4,490.3
		c1.8,0,4.4,1,4.4,2.3c0,0.5-0.3,0.9-1,0.9c-0.9,0-1.3-1.3-3.4-1.3c-1.2,0-2.3,0.6-2.3,1.7c0,2.3,7,2.1,7,5.9c0,2.8-2.4,4.1-4.8,4.1
		c-2.8,0-4.9-1.4-4.9-2.5c0-0.6,0.4-1,0.9-1c1,0,1.8,1.6,4.1,1.6c1.6,0,2.5-0.9,2.5-1.8c0-2.6-7-2.5-7-6.1
		C452.9,491.6,455.1,490.3,457.4,490.3"/>
</g>
</svg>
