<?xml version="1.0" encoding="utf-8"?>
<!-- Generator: Adobe Illustrator 24.2.1, SVG Export Plug-In . SVG Version: 6.00 Build 0)  -->
<svg version="1.1" id="layer" xmlns="http://www.w3.org/2000/svg" xmlns:xlink="http://www.w3.org/1999/xlink" x="0px" y="0px"
	 viewBox="0 0 466.7 500" style="enable-background:new 0 0 466.7 500;" xml:space="preserve">
<style type="text/css">
	.st0{fill:#0772AD;}
	.st1{fill:#FFFFFF;}
</style>
<g>
	<path class="st0" d="M0,0h466.7v500H0V0z"/>
	<path d="M96.4,244.5c-3.4,0-6.2,2.8-6.2,6.2v54.2c0,3.4,2.8,6.2,6.1,6.2s6.2-2.8,6.2-6.2v-54.2C102.5,247.2,99.7,244.5,96.4,244.5
		 M96.4,154.6c3.4,0,6.2-2.8,6.2-6.2V94.2c0-3.5-2.8-6.2-6.2-6.2s-6.2,2.8-6.2,6.2v54.2C90.2,151.9,92.9,154.6,96.4,154.6
		 M147.1,250.7c0-3.4-2.8-6.2-6.2-6.2s-6.2,2.8-6.2,6.2v54.2c0,3.4,2.8,6.2,6.2,6.2s6.2-2.8,6.2-6.2V250.7L147.1,250.7z"/>
	<path class="st1" d="M234.8,154.6c3.4,0,6.2-2.8,6.2-6.2V94.2c0-3.5-2.8-6.2-6.2-6.2c-3.4,0-6.2,2.8-6.2,6.2v54.2
		C228.7,151.9,231.4,154.6,234.8,154.6"/>
	<path d="M368.7,154.6c3.4,0,6.2-2.8,6.2-6.2V94.2c0-3.5-2.8-6.2-6.2-6.2s-6.2,2.8-6.2,6.2v54.2
		C362.5,151.9,365.3,154.6,368.7,154.6 M302.5,88c-18.3,0-33.1,14.9-33.1,33.3s14.8,33.3,33.1,33.3s33.1-14.9,33.1-33.3
		S320.8,88,302.5,88 M302.5,143.8c-12.3,0-22.3-10-22.3-22.5c0-12.4,10-22.4,22.3-22.4s22.3,10,22.3,22.4
		C324.8,133.8,314.9,143.8,302.5,143.8 M121.7,167c-18.3,0-33.1,14.9-33.1,33.3s14.8,33.3,33.1,33.3s33.1-14.9,33.1-33.3
		S140,167,121.7,167 M121.7,222.8c-12.3,0-22.3-10.1-22.3-22.5s10-22.4,22.3-22.4S144,188,144,200.3
		C144,212.7,134.1,222.8,121.7,222.8 M271.7,173.2v54.2c0,3.4,2.8,6.2,6.2,6.2c3.4,0,6.1-2.8,6.1-6.2v-54.2c0-3.5-2.8-6.2-6.2-6.2
		C274.5,167,271.7,169.8,271.7,173.2 M194.8,121.3c0-18.4-14.8-33.3-33.1-33.3c-18.2,0-33.1,14.9-33.1,33.3s14.8,33.3,33.1,33.3
		S194.8,139.7,194.8,121.3 M161.7,143.8c-12.3,0-22.3-10-22.3-22.5c0-12.4,10-22.4,22.3-22.4c12.3,0,22.3,10,22.3,22.4
		C184.1,133.8,174.1,143.8,161.7,143.8 M301.8,244.5c-18.3,0-33.1,14.9-33.1,33.3s14.8,33.3,33.1,33.3s33.1-14.9,33.1-33.3
		C334.8,259.4,320,244.5,301.8,244.5 M301.8,300.2c-12.3,0-22.3-10.1-22.3-22.5s10-22.4,22.3-22.4s22.3,10.1,22.3,22.4
		C324.1,290.2,314.1,300.2,301.8,300.2"/>
	<path class="st1" d="M234.8,167c-3.4,0-6.2,2.8-6.2,6.2v54.2c0,3.4,2.8,6.2,6.2,6.2c3.4,0,6.2-2.8,6.2-6.2v-54.2
		C241,169.8,238.2,167,234.8,167"/>
	<path d="M368.7,244.5c-3.4,0-6.2,2.8-6.2,6.2v54.2c0,3.4,2.8,6.2,6.2,6.2c3.4,0,6.2-2.8,6.2-6.2v-54.2
		C374.9,247.2,372.1,244.5,368.7,244.5"/>
	<path class="st1" d="M206.4,244.5c-18.3,0-33.1,14.9-33.1,33.3s14.8,33.3,33.1,33.3c18.3,0,33.1-14.9,33.1-33.3
		S224.6,244.5,206.4,244.5 M206.4,300.2c-12.3,0-22.3-10.1-22.3-22.5s10-22.4,22.3-22.4s22.3,10.1,22.3,22.4
		C228.7,290.2,218.7,300.2,206.4,300.2"/>
	<path d="M193.3,173.2c0-3.4-2.8-6.2-6.2-6.2s-6.2,2.8-6.2,6.2v54.2c0,3.4,2.8,6.2,6.2,6.2c3.4,0,6.2-2.8,6.2-6.2V173.2L193.3,173.2
		z M343.3,167c-18.3,0-33.1,14.9-33.1,33.3s14.8,33.3,33.1,33.3s33.1-14.9,33.1-33.3S361.6,167,343.3,167 M343.3,222.8
		c-12.3,0-22.3-10.1-22.3-22.5s10-22.4,22.3-22.4s22.3,10.1,22.3,22.4C365.6,212.7,355.6,222.8,343.3,222.8"/>
	<path class="st1" d="M94.6,386.9c0,2-1.1,3.2-2.9,3.2c-1.8,0-3-1.2-3-3.2v-28.1h-2.4c-2,0-3-0.9-3-2.5s1-2.6,3-2.6h2.4v-8.5
		c0-5.2,3.6-7.8,7.9-7.8h1.8c1.5,0,3.4,1,3.4,2.6s-1,2.6-3.2,2.6h-1.5c-1.8,0-2.4,0.9-2.4,2.4v8.7h3.7c1.9,0,3,0.9,3,2.6
		c0,1.6-1,2.5-3,2.5h-3.7L94.6,386.9L94.6,386.9z M144.8,387.2c0,2.1-1.6,2.9-2.8,2.9s-2.8-0.8-2.8-2.9v-2.5H139
		c-2.5,3.7-5.9,5.4-9.7,5.4c-10.1,0-15.8-8.9-15.8-18.4c0-9.6,5.7-18.4,15.8-18.4c4.1,0,7,1.7,9.7,4.8h0.2v-1.9
		c0-2.1,1.5-2.9,2.8-2.9c1.1,0,2.8,0.8,2.8,2.9V387.2L144.8,387.2z M129.4,384.9c7.3,0,9.8-7.2,9.8-13.3s-2.5-13.3-9.8-13.3
		s-9.8,7.2-9.8,13.3C119.6,377.8,122.2,384.9,129.4,384.9z M161.7,340.6c0-2,1.1-3.2,3-3.2c1.8,0,3,1.2,3,3.2v17.5h0.1
		c1.5-2.2,4.9-4.9,9.6-4.9c9.7,0,15.3,8.9,15.3,18.4c0,9.6-5.6,18.4-15.3,18.4c-4.7,0-7.9-1.7-9.6-4.9h-0.1v1.8c0,2-1.1,3.2-3,3.2
		c-1.8,0-3-1.2-3-3.2V340.6L161.7,340.6z M176.9,384.9c7.3,0,9.8-7.2,9.8-13.3c0-6.1-2.6-13.3-9.8-13.3s-9.8,7.2-9.8,13.3
		S169.6,384.9,176.9,384.9z M216.2,386.9c0,2-1.1,3.2-3,3.2c-1.8,0-3-1.2-3-3.2v-28.1h-2.4c-1.9,0-3-0.9-3-2.5s1-2.6,3-2.6h2.4v-8.5
		c0-5.2,3.6-7.8,7.9-7.8h1.8c1.5,0,3.3,1,3.3,2.6s-1,2.6-3.2,2.6h-1.5c-1.8,0-2.4,0.9-2.4,2.4v8.7h3.7c1.9,0,3,0.9,3,2.6
		c0,1.6-1,2.5-3,2.5h-3.7v28.1H216.2z M242.3,341c2,0,3.6,1.6,3.6,3.7c0,2-1.6,3.6-3.6,3.6s-3.6-1.6-3.6-3.6S240.3,341,242.3,341
		L242.3,341z M245.3,386.9c0,2-1.1,3.2-3,3.2c-1.8,0-2.9-1.2-2.9-3.2v-30.5c0-2,1.1-3.2,2.9-3.2s3,1.2,3,3.2V386.9L245.3,386.9z
		 M270.6,386.9c0,2-1.1,3.2-3,3.2c-1.8,0-3-1.2-3-3.2v-46.3c0-2,1.1-3.2,3-3.2c1.8,0,3,1.2,3,3.2V386.9L270.6,386.9z M291.6,345.9
		c0-2,1.1-3.2,3-3.2c1.8,0,3,1.2,3,3.2v7.8h2.4c1.9,0,3,0.9,3,2.6c0,1.6-1,2.5-3,2.5h-2.4v28.1c0,2-1.1,3.2-3,3.2
		c-1.8,0-3-1.2-3-3.2v-28.1h-2.4c-2,0-3-0.9-3-2.5s1-2.6,3-2.6h2.4V345.9z M321.9,374c0,6.2,3.9,11,10.6,11c7.9,0,9.9-4.9,12.1-4.9
		c1.1,0,2.1,0.9,2.1,2.6c0,2.9-7.3,7.4-14.3,7.4c-11.4,0-16.4-8.9-16.4-18.4c0-9.7,6.1-18.4,16.1-18.4c9.8,0,15.4,8.9,15.4,17.5
		c0,2.1-0.7,3.2-3.3,3.2L321.9,374L321.9,374z M341.6,369.5c0-5.1-3-11.1-9.5-11.1c-7.3-0.3-10,5.6-10.2,11.1H341.6L341.6,369.5z
		 M362.9,356.4c0-2,1.1-3.2,3-3.2c1.8,0,2.9,1.2,2.9,3.2v3.1h0.2c1.3-2.8,4.6-6.2,8.1-6.2c2.1,0,3.3,1.3,3.3,3s-1.2,2.8-3.7,3.2
		c-3.5,0.6-7.8,3.3-7.8,10.2v17.1c0,2-1.1,3.2-2.9,3.2s-3-1.2-3-3.2L362.9,356.4L362.9,356.4z M92.9,418.3c1.8,0,4.4,1,4.4,2.3
		c0,0.5-0.3,0.9-1,0.9c-0.9,0-1.3-1.3-3.4-1.3c-1.2,0-2.3,0.6-2.3,1.7c0,2.3,7,2.1,7,5.9c0,2.8-2.4,4.1-4.8,4.1
		c-2.8,0-4.9-1.4-4.9-2.5c0-0.6,0.4-1,0.9-1c1,0,1.8,1.6,4.1,1.6c1.6,0,2.5-0.9,2.5-1.8c0-2.6-7-2.5-7-6.1
		C88.4,419.6,90.7,418.3,92.9,418.3 M108.6,418.3c3.7,0,5.8,3.3,5.8,6.8s-2.1,6.8-5.8,6.8s-5.8-3.3-5.8-6.8
		C102.8,421.6,104.9,418.3,108.6,418.3 M108.6,429.9c2.7,0,3.6-2.6,3.6-4.9c0-2.2-1-4.9-3.6-4.9c-2.7,0-3.6,2.6-3.6,4.9
		S106,429.9,108.6,429.9 M123.3,430.7c0,0.7-0.4,1.2-1.1,1.2c-0.7,0-1.1-0.4-1.1-1.2v-10.3h-0.9c-0.7,0-1.1-0.3-1.1-1
		c0-0.6,0.4-0.9,1.1-0.9h0.9v-3.1c0-1.9,1.3-2.9,2.9-2.9h0.7c0.6,0,1.2,0.3,1.2,0.9s-0.4,1-1.2,1h-0.5c-0.7,0-0.9,0.3-0.9,0.9v3.2
		h1.4c0.7,0,1.1,0.3,1.1,0.9s-0.4,1-1.1,1h-1.4V430.7L123.3,430.7z M131.2,415.6c0-0.7,0.4-1.2,1.1-1.2c0.6,0,1.1,0.5,1.1,1.2v2.9
		h0.9c0.7,0,1.1,0.3,1.1,0.9s-0.4,1-1.1,1h-0.9v10.3c0,0.7-0.4,1.2-1.1,1.2c-0.7,0-1.1-0.4-1.1-1.2v-10.3h-0.9c-0.7,0-1.1-0.3-1.1-1
		c0-0.6,0.4-0.9,1.1-0.9h0.9V415.6L131.2,415.6z M139.5,420.1c-0.1-0.3-0.2-0.6-0.2-0.9c0-0.4,0.3-1,1.1-1c0.5,0,0.9,0.2,1.2,1.1
		l2.8,9h0.1l2.7-8.7c0.3-1,0.5-1.5,1.3-1.5s1,0.5,1.3,1.5l2.8,8.7h0.1l2.8-9c0.3-0.9,0.7-1.1,1.2-1.1c0.7,0,1.1,0.6,1.1,1
		c0,0.3-0.1,0.5-0.2,0.9l-3.6,10.6c-0.3,0.9-0.7,1.1-1.3,1.1s-1-0.3-1.2-1.2l-2.8-8.9h-0.1l-2.8,8.9c-0.3,0.9-0.7,1.1-1.2,1.1
		c-0.6,0-1-0.3-1.3-1.2L139.5,420.1L139.5,420.1z M173.6,430.8c0,0.8-0.6,1.1-1,1.1c-0.5,0-1-0.3-1-1.1v-0.9h-0.1
		c-0.9,1.3-2.2,2-3.6,2c-3.7,0-5.8-3.3-5.8-6.8s2.1-6.8,5.8-6.8c1.5,0,2.6,0.6,3.6,1.8h0.1v-0.7c0-0.8,0.6-1.1,1-1.1s1,0.3,1,1.1
		V430.8L173.6,430.8z M167.9,429.9c2.7,0,3.6-2.6,3.6-4.9c0-2.2-0.9-4.9-3.6-4.9c-2.7,0-3.6,2.6-3.6,4.9S165.3,429.9,167.9,429.9z
		 M180.2,419.5c0-0.7,0.4-1.2,1.1-1.2s1.1,0.5,1.1,1.2v1.1h0.1c0.5-1,1.7-2.3,3-2.3c0.8,0,1.2,0.5,1.2,1.1s-0.4,1-1.4,1.2
		c-1.3,0.2-2.9,1.2-2.9,3.7v6.3c0,0.7-0.4,1.2-1.1,1.2c-0.6,0-1.1-0.4-1.1-1.2L180.2,419.5L180.2,419.5z M193,425.9
		c0,2.3,1.5,4,3.9,4c2.9,0,3.6-1.8,4.4-1.8c0.4,0,0.8,0.3,0.8,1c0,1.1-2.7,2.7-5.3,2.7c-4.2,0-6-3.3-6-6.7c0-3.6,2.2-6.8,5.9-6.8
		c3.6,0,5.7,3.3,5.7,6.4c0,0.8-0.3,1.2-1.2,1.2L193,425.9L193,425.9z M200.3,424.3c0-1.9-1.1-4.1-3.5-4.1c-2.7-0.1-3.7,2.1-3.7,4.1
		H200.3L200.3,424.3z M220.5,413.8c0.7,0,1.3,0.6,1.3,1.3c0,0.7-0.6,1.4-1.3,1.4c-0.7,0-1.3-0.6-1.3-1.4S219.7,413.8,220.5,413.8z
		 M221.5,430.7c0,0.7-0.4,1.2-1.1,1.2s-1.1-0.4-1.1-1.2v-11.2c0-0.7,0.4-1.2,1.1-1.2s1.1,0.5,1.1,1.2V430.7L221.5,430.7z
		 M228.1,419.5c0-0.7,0.4-1.2,1.1-1.2s1.1,0.5,1.1,1.2v0.5h0.1c1-1.2,2.3-1.7,3.6-1.7c2,0,4.6,1.3,4.6,5v7.3c0,0.7-0.4,1.2-1.1,1.2
		c-0.6,0-1.1-0.4-1.1-1.2v-7.2c0-2.3-1.6-3.3-3-3.3s-3.1,0.9-3.1,3.3v7.2c0,0.7-0.4,1.2-1.1,1.2c-0.6,0-1.1-0.4-1.1-1.2V419.5
		L228.1,419.5z M249.3,418.3c1.8,0,4.4,1,4.4,2.3c0,0.5-0.3,0.9-1,0.9c-0.9,0-1.3-1.3-3.4-1.3c-1.2,0-2.3,0.6-2.3,1.7
		c0,2.3,7,2.1,7,5.9c0,2.8-2.4,4.1-4.8,4.1c-2.8,0-5-1.4-5-2.5c0-0.6,0.4-1,0.9-1c1,0,1.8,1.6,4.1,1.6c1.6,0,2.5-0.9,2.5-1.8
		c0-2.6-7-2.5-7-6.1C244.8,419.6,247.1,418.3,249.3,418.3 M260.5,415.6c0-0.7,0.4-1.2,1.1-1.2s1.1,0.5,1.1,1.2v2.9h0.9
		c0.7,0,1.1,0.3,1.1,0.9s-0.4,1-1.1,1h-0.9v10.3c0,0.7-0.4,1.2-1.1,1.2c-0.6,0-1.1-0.4-1.1-1.2v-10.3h-0.9c-0.7,0-1.1-0.3-1.1-1
		c0-0.6,0.4-0.9,1.1-0.9h0.9V415.6L260.5,415.6z M270,419.5c0-0.7,0.4-1.2,1.1-1.2s1.1,0.5,1.1,1.2v1.1l0,0c0.5-1,1.7-2.3,3-2.3
		c0.8,0,1.2,0.5,1.2,1.1s-0.4,1-1.4,1.2c-1.3,0.2-2.8,1.2-2.8,3.7v6.3c0,0.7-0.4,1.2-1.1,1.2c-0.6,0-1.1-0.4-1.1-1.2L270,419.5
		L270,419.5z M281.5,419.5c0-0.7,0.4-1.2,1.1-1.2s1.1,0.5,1.1,1.2v7c0,2.3,1,3.5,3.1,3.5c2,0,3-1.2,3-3.5v-7c0-0.7,0.4-1.2,1.1-1.2
		s1.1,0.5,1.1,1.2v7.1c0,3.9-2.6,5.3-5.2,5.3c-2.7,0-5.2-1.4-5.2-5.3L281.5,419.5L281.5,419.5z M306.3,423.2c0-1.9-1-3-2.8-3
		s-2.8,1.2-2.8,3v7.4c0,0.7-0.4,1.2-1.1,1.2s-1.1-0.4-1.1-1.2v-11.2c0-0.7,0.4-1.2,1.1-1.2s1.1,0.5,1.1,1.2v0.4h0.1
		c0.5-0.7,1.3-1.6,3.3-1.6c1.3,0,2.6,0.6,3.6,2.2c1-1.4,2.1-2.2,4-2.2c2,0,4.6,1.3,4.6,5v7.3c0,0.7-0.4,1.1-1.1,1.1
		s-1.1-0.4-1.1-1.2V423c0-1.9-1-3.1-2.8-3.1c-1.7,0-2.8,1.2-2.8,3v7.4c0,0.7-0.4,1.2-1.1,1.2s-1.1-0.4-1.1-1.2L306.3,423.2
		L306.3,423.2z M324.2,425.9c0,2.3,1.4,4,3.9,4c2.9,0,3.6-1.8,4.4-1.8c0.4,0,0.8,0.3,0.8,1c0,1.1-2.7,2.7-5.3,2.7
		c-4.2,0-6-3.3-6-6.7c0-3.6,2.2-6.8,5.9-6.8c3.6,0,5.7,3.3,5.7,6.4c0,0.8-0.3,1.2-1.2,1.2L324.2,425.9L324.2,425.9z M331.4,424.3
		c0-1.9-1.1-4.1-3.5-4.1c-2.7-0.1-3.6,2.1-3.7,4.1H331.4L331.4,424.3z M339.4,419.5c0-0.7,0.4-1.2,1.1-1.2s1.1,0.5,1.1,1.2v0.5h0.1
		c1-1.2,2.3-1.7,3.6-1.7c2,0,4.6,1.3,4.6,5v7.3c0,0.7-0.4,1.2-1.1,1.2s-1.1-0.4-1.1-1.2v-7.2c0-2.3-1.6-3.3-3-3.3
		c-1.5,0-3.1,0.9-3.1,3.3v7.2c0,0.7-0.4,1.2-1.1,1.2s-1.1-0.4-1.1-1.2V419.5L339.4,419.5z M357,415.6c0-0.7,0.4-1.2,1.1-1.2
		s1.1,0.5,1.1,1.2v2.9h0.9c0.7,0,1.1,0.3,1.1,0.9s-0.4,1-1.1,1h-0.9v10.3c0,0.7-0.4,1.2-1.1,1.2c-0.6,0-1.1-0.4-1.1-1.2v-10.3h-0.9
		c-0.7,0-1.1-0.3-1.1-1c0-0.6,0.4-0.9,1.1-0.9h0.9V415.6L357,415.6z M370.7,418.3c1.8,0,4.4,1,4.4,2.3c0,0.5-0.3,0.9-1,0.9
		c-0.9,0-1.3-1.3-3.4-1.3c-1.2,0-2.3,0.6-2.3,1.7c0,2.3,7,2.1,7,5.9c0,2.8-2.4,4.1-4.8,4.1c-2.8,0-4.9-1.4-4.9-2.5
		c0-0.6,0.4-1,0.9-1c1,0,1.8,1.6,4.1,1.6c1.6,0,2.5-0.9,2.5-1.8c0-2.6-7-2.5-7-6.1C366.2,419.6,368.4,418.3,370.7,418.3"/>
</g>
</svg>
