<svg xmlns="http://www.w3.org/2000/svg" xmlns:xlink="http://www.w3.org/1999/xlink" viewBox="0 0 111 151">
  <defs>
    <linearGradient x1="-3.482%" y1="17.027%" x2="100.833%" y2="92.887%" id="b">
      <stop stop-color="#FFF" stop-opacity=".1" offset="0%" />
      <stop stop-color="#FFF" stop-opacity="0" offset="100%" />
    </linearGradient>
    <path
      d="M95.798 33.625a3.436 3.436 0 00-2.336-2.699 3.454 3.454 0 00-3.48.823l-17.71 17.816-14.03-26.51A3.34 3.34 0 0055.25 21.2a3.34 3.34 0 00-2.995 1.854l-7.613 14.492-19.25-35.632c-1.54-2.898-5.903-2.131-6.416 1.108L.498 121.17l49.532 27.704a10.432 10.432 0 0010.01 0L110 121.17 95.798 33.625z"
      id="a" />
  </defs>
  <g transform="translate(.193 -.022)" fill="none" fill-rule="evenodd">
    <mask id="c" fill="#fff">
      <use xlink:href="#a" />
    </mask>
    <use fill="url(#b)" fill-rule="nonzero" xlink:href="#a" />
    <g mask="url(#c)">
      <path
        d="M.498 121.17L19.062 3.022c.513-3.239 4.876-4.006 6.416-1.108L44.64 37.546l7.613-14.492a3.423 3.423 0 013.037-1.838c1.278 0 2.449.709 3.037 1.838L110 121.17H.498z"
        fill="#FFA000" fill-rule="nonzero" />
      <path fill="#F57C00" fill-rule="nonzero" d="M64.488 75.139L44.555 37.547.498 121.17z" />
      <path
        d="M110 121.17L95.799 33.625a3.436 3.436 0 00-2.337-2.698 3.454 3.454 0 00-3.48.823L.497 121.17l49.532 27.704a10.432 10.432 0 0010.01 0l49.96-27.704z"
        fill-rule="nonzero" fill="#FFCA28" />
      <path
        d="M95.798 33.625a3.436 3.436 0 00-2.336-2.699 3.454 3.454 0 00-3.48.823l-17.71 17.816-14.03-26.51A3.34 3.34 0 0055.25 21.2a3.34 3.34 0 00-2.995 1.854l-7.613 14.492-19.25-35.632c-1.54-2.898-5.903-2.131-6.416 1.108L.498 121.17H.412l.086.085.513.255 71.176-71.092 17.794-17.731a3.453 3.453 0 013.48-.823 3.436 3.436 0 012.337 2.698l14.03 86.693.172-.085-14.202-87.545zM.668 120.999L19.063 3.875c.513-3.24 4.876-4.007 6.416-1.108L44.64 38.398l7.613-14.491a3.423 3.423 0 013.037-1.839c1.278 0 2.449.71 3.037 1.839L72.016 49.82.67 120.999z"
        fill-opacity=".2" fill="#FFF" fill-rule="nonzero" />
      <path
        d="M60.04 148.021a10.432 10.432 0 01-10.01 0L.583 120.402l-.085.768 49.532 27.704a10.432 10.432 0 0010.01 0L110 121.17l-.086-.768-49.875 27.62z"
        fill="#A52714" fill-rule="nonzero" opacity=".2" />
    </g>
    <path mask="url(#c)" d="M-26.878-6.695h164.253v163.667H-26.878z" />
    <path
      d="M95.798 33.625a3.436 3.436 0 00-2.336-2.699 3.454 3.454 0 00-3.48.823l-17.71 17.816-14.03-26.51A3.34 3.34 0 0055.25 21.2a3.34 3.34 0 00-2.995 1.854l-7.613 14.492-19.25-35.632c-1.54-2.898-5.903-2.131-6.416 1.108L.498 121.17l49.532 27.704a10.432 10.432 0 0010.01 0L110 121.17 95.798 33.625z"
      fill="url(#b)" fill-rule="nonzero" mask="url(#c)" />
  </g>
</svg>
