<svg xmlns="http://www.w3.org/2000/svg" viewBox="0 0 465 92.5">
  <path
    d="M290.3 43.5c.9 2.9.7 11.8.7 15.1V74c0 8.3.6 11.3-8.6 11.9v2.5c4.8-.1 9.5-.4 14.3-.5 4.7.1 9.5.4 14.2.5v-2.5c-10.4-.5-9.4-3.5-9.4-12.6V60.9c0-5.8 0-11.9 2.8-17 1.9-3.1 5.9-6.3 9.6-6.3 4.8 0 3.7 6.5 8.9 6.5 2.3 0 4.3-2.1 4.3-4.5 0-4.6-4.9-6.5-8.8-6.5-8.5 0-14.7 5-17.9 12.6h-.2c.1-4.5-.4-9-1.5-12.6-5.4 1.2-10.9 3.5-16.7 3.9v2.5c4.1 0 7.2-.5 8.3 4zm-29.5 43.4c-9.1 0-13.3-7.9-15.3-15.9H243l.5 17.9h1.2l3.1-3.6c3.7 3 8.9 4.5 13.6 4.5 9.5 0 18.1-6.3 18.1-16.5 0-11.3-7.8-14.5-16.3-19-4.7-2.6-11.5-4.9-11.5-11.4 0-4.5 3.8-6.9 7.9-6.9 7.8 0 10.5 6.6 12.7 12.9h2.5l.2-15.6h-1.5l-2.5 3c-3.5-2-8.1-3.1-12-3.1-8.5 0-15.3 6.4-15.3 15 0 9.4 7.6 13.5 14.8 17.3 5.3 2.8 12.5 5.6 12.5 12.8.2 5.8-4.8 8.6-10.2 8.6zm-89.3-6.8l-2.6-2.3c-3.9 4.6-9.4 7.9-15.5 7.9-13.9 0-17.8-12.5-17.8-24.5 0-11 4.1-24.8 17.4-24.8 4.6 0 5.6 1 7 4.8.9 2.4 2.5 4.9 5.4 4.9 2.2 0 4.1-2.4 4.1-4.6 0-6.9-11.2-8.4-16-8.4-17.1 0-30.2 12.6-30.2 30.2 0 15.5 11.2 26.5 26.5 26.5 8 0 16.5-3.2 21.7-9.7zm-84.2 9.7c16.2 0 29.7-11.6 29.7-28.5 0-16.1-14.4-28.2-29.7-28.2-15.1 0-29.6 11.6-29.6 27.7 0 16.5 13.6 29 29.6 29zM86.8 36c14.6 0 17.9 14 17.9 26 0 11.1-3.3 24.9-16.8 24.9C73.5 86.9 70 73.1 70 61.3 70 50.4 73.3 36 86.8 36zm-45 52.4v-2.9c-4.3-.3-10.4.8-12.2-4.3-1.2-3.4-1.2-12.6-1.2-16.5V49c11.8 0 18.4.2 20.1 13.4h2.8c-.1-5.1-.2-10.4-.5-15.5.2-5.6.4-11.4.5-17h-2.8c-.7 9-3.2 15.9-20.1 15.1V17c.3-7.9-.1-7 9.8-7 5.9 0 12.9-.1 18.2 2.3 5.6 2.4 6.8 7.6 8.3 13h2.8l-2-19.6c-13.2.1-26.4.4-39.6.5-7.3-.1-14.6-.4-22.1-.5v2.9c3.9 0 9 0 10.6 4.3 1.2 3.4 1.2 12.6 1.2 16.6v35.3c0 4 0 13.3-1.2 16.6-1.6 4.3-6.7 4.3-10.6 4.3v2.9c6.5-.1 12.7-.4 19-.5 6.3-.1 12.7.2 19 .3zm411.9-71.6h1.1c.8 0 1.3.1 1.6.3.5.3.8.9.8 1.8V20h1.3v-.1c0-.1-.1-.2-.1-.4v-1.2c0-.4-.1-.8-.4-1.3-.3-.4-.7-.7-1.4-.8.5-.1.9-.2 1.2-.4.5-.3.8-.9.8-1.6 0-1-.4-1.7-1.3-2-.5-.2-1.2-.3-2.2-.3h-2.8V20h1.4v-3.2zm0-3.9h1.2c.8 0 1.4.1 1.7.3.4.2.5.6.5 1.2s-.3 1-.8 1.2c-.3.1-.8.2-1.4.2h-1.3l.1-2.9zm-29.6 76.9c9.3 0 16.2-3.4 22-10.6l-2.6-2.6c-3.7 5-9.3 9.3-15.5 9.3-13.2 0-19.4-13.3-19.4-25.2l.5-6h35.4c1.2 0 3.1.5 3.1-1.1 0-13.5-11.5-20.4-23.6-20.4-16 0-27.8 14.1-27.8 29.8 0 15.9 12.6 26.8 27.9 26.8zm0-53.8c7.8 0 12 5 12 12.8 0 3.1-4.1 2.5-6 2.5h-20.4c1.5-8.2 5.2-15.3 14.4-15.3zm-57.8 40.9c0 9.4 6 12.9 14.9 12.9 5.9 0 12.1-2 14.3-8l-2.2-1.6c-2.3 3.1-4.6 5.6-8.9 5.6-6.5 0-7.6-5.9-7.6-11.5V38.6h14.1v-3.4h-14.1V20.6h-1.9c-2.6 7.1-8.8 12.1-14.9 15.8v2.2h6.3v38.3zM218.1 78l2.6 11.8 17.1-4.5v-2.9c-1.6.1-3.2.4-4.7.4-4.6 0-4.6-5-4.6-8.4V34.1c-3.1.2-6.4.4-9.6.6-3.5-.3-6.8-.4-10.2-.6v2.5c10.1 1.5 9.4 4.4 9.4 13.9v16.8c0 9.6-7.1 18.5-16.9 18.5-9.6 0-10.2-10-10.2-17.4V34.2c-3.1.1-6.4.4-9.6.5-3.5-.1-6.8-.4-10.2-.5v2.4c10.1 1.5 9.4 4.4 9.4 13.9v21.4c0 11 4.6 17.9 17 17.9 8.2 0 16.1-4.9 20.5-11.8zM340 42.2c.5 1.9.5 11.5.5 13.9V74c-.1 8.3.6 11.3-8.5 11.9v2.5c4.8-.1 9.6-.4 14.4-.5 4.4.1 9 .4 13.2.5v-2.5c-9.7-.6-8.4-4.4-8.6-12.6V33.1L331.5 37v2.5c2.5-.2 7.6-.4 8.5 2.7zm115.3-18.9c2 0 3.8-.7 5.2-2.2 1.4-1.4 2.2-3.2 2.2-5.2s-.7-3.8-2.2-5.2c-1.4-1.4-3.2-2.1-5.2-2.1s-3.8.7-5.2 2.1c-1.4 1.4-2.2 3.2-2.2 5.2s.7 3.8 2.1 5.2c1.5 1.5 3.2 2.2 5.3 2.2zm-4.5-11.8c1.2-1.2 2.7-1.9 4.5-1.9s3.2.6 4.5 1.9c1.2 1.2 1.8 2.7 1.8 4.5s-.6 3.3-1.8 4.5-2.7 1.9-4.5 1.9-3.3-.6-4.5-1.9c-1.2-1.2-1.8-2.7-1.8-4.5-.1-1.8.6-3.3 1.8-4.5zM344.6 23c3.5 0 6.3-3 6.3-6.6 0-3.7-2.8-6.8-6.5-6.8s-6.7 3-6.7 6.8c0 3.9 3.2 6.6 6.9 6.6z" />
</svg>
