<svg xmlns="http://www.w3.org/2000/svg" viewBox="0 0 40 40">
  <radialGradient id="netlify-a" cx="-465.994" cy="531.856" r="1.001"
    gradientTransform="matrix(0 38.301 44.1227 0 -23446.97 17848.815)" gradientUnits="userSpaceOnUse">
    <stop offset="0" stop-color="#20c6b7" />
    <stop offset="1" stop-color="#4d9abf" />
  </radialGradient>
  <path
    d="M28.6 14.1c-.1 0-.1-.1-.1-.1l.8-4.7 3.6 3.6-3.8 1.6c-.2-.1-.3-.3-.5-.4zm5.2-.3l3.9 3.9c.8.8 1.2 1.2 1.4 1.7 0 .1 0 .1.1.2l-9.3-3.9s-.1 0-.1-.1 0-.1.1-.1l3.9-1.7zm5.2 7.1c-.2.4-.6.8-1.2 1.4l-4.4 4.4-5.7-1.2s-.1 0-.1-.1c0-.5-.3-.9-.7-1.2v-.1l1.1-6.5s0-.1.1-.1c.5-.1.9-.3 1.2-.7h.1l9.6 4.1zm-6.7 6.8l-7.2 7.2 1.2-7.6h.1c.3-.1.5-.3.7-.5l.1-.1 5.1 1zm-8.7 8.7l-.8.8-9-12.9v-.1l.1-.1.1-.1h.1l9.9 2h.1c.1.5.5 1 1 1.2v.1c-.1.8-1.2 7.3-1.5 9.1zM21.9 38c-.6.6-.9.9-1.3 1-.4.1-.8.1-1.2 0-.5-.1-.9-.5-1.7-1.4l-9-9L11 25h.1c.5.2 1.1.1 1.6-.1h.1L21.9 38zm-14-10.1l-2.1-2.1 4.1-1.7s.1 0 .1.1.1.1.1.2l-2.2 3.5zm-3-3l-2.6-2.6-1-1 7.9 1.6s.1 0 .1.1l-.1.1c0-.1-4.3 1.8-4.3 1.8zm-4.1-5c0-.2 0-.3.1-.5.1-.5.5-.9 1.4-1.7l3.3-3.3c1.5 2.2 3.1 4.5 4.6 6.7 0 0 .1.1 0 .1-.1.2-.3.3-.4.5l-.1.1-8.9-1.9zm5.7-6.4L11 9c.4.2 2 .8 3.3 1.4 1 .4 2 .8 2.3 1 0 0 .1 0 .1.1v.1c-.1.7.1 1.3.5 1.8v.1l-4.6 7.1h-.1c-.2 0-.4-.1-.5-.1-.2 0-.3 0-.5.1h-.1v-.1c-.1 0-4.9-7-4.9-7zm5.4-5.4l5.8-5.8c.8-.8 1.2-1.2 1.7-1.4.4-.1.8-.1 1.2 0 .5.1.9.5 1.7 1.4l1.3 1.3-4.1 6.4h-.1c-.7-.2-1.4-.1-1.9.4h-.1c-.7-.3-4.9-2.1-5.5-2.3zm12.5-3.7l3.8 3.8-.9 5.7c-.2.1-.4.2-.5.3L21 11.7s-.1 0-.1-.1c0-.3-.1-.6-.3-.9 0 0-.1-.1 0-.1-.3.1 3.8-6.2 3.8-6.2zM20.5 13l5.5 2.3s.1 0 .1.1V16s0 .1-.1.1c-.9.4-12.1 5.2-12.1 5.2h-.1v-.1l4.5-6.9.1-.1h.3c.7 0 1.3-.3 1.7-.9 0-.3 0-.3.1-.3-.1 0 0 0 0 0zm-6.3 9.2L26.5 17l.2.2.1.1-1.1 6.5s0 .1-.1.1c-.6 0-1.1.4-1.4.8v.1h-.1l-9.8-2c.1-.1-.1-.6-.1-.6z"
    fill="url(#netlify-a)" />
</svg>
