<svg xmlns="http://www.w3.org/2000/svg" viewBox="0 0 2270 2500">
  <g fill="#8cc84b">
    <path
      d="M1032.8 31.7c61.7-35.3 142.1-35.5 203.8 0C1546.8 207 1857.2 382 2167.4 557.4c58.3 32.9 97.4 97.8 96.8 165v1054.7c.4 70-42.4 136.5-104 168.6-309.2 174.3-618.3 348.9-927.4 523.2-63 36-145 33.2-206-5.7-92.7-53.7-185.6-107.2-278.3-160.9-18.9-11.3-40.3-20.3-53.7-38.7 11.8-15.9 33-17.9 50.2-24.9 38.7-12.3 74.2-32.1 109.8-51.2 9-6.2 20-3.8 28.6 1.7 79.3 45.5 157.8 92.2 237.4 137.2 17 9.8 34.1-3.2 48.7-11.3 303.4-171.5 607.3-342.3 910.6-513.9 11.2-5.4 17.5-17.3 16.5-29.7.2-347.9.1-695.9.1-1043.8 1.3-14-6.8-26.8-19.4-32.5C1769 521.8 1461 348 1152.9 174.4c-10.9-7.5-25.3-7.5-36.3-.1C808.5 348 500.6 522 192.5 695.5c-12.6 5.7-21 18.4-19.5 32.4.1 347.9 0 695.9 0 1043.9-1.1 12.3 5.6 24 16.8 29.3 82.2 46.6 164.5 92.9 246.8 139.4 46.3 24.9 103.3 39.8 154.3 20.7 45.1-16.2 76.6-62.1 75.8-110 .4-345.9-.2-691.8.3-1037.7-1.1-15.4 13.4-28 28.4-26.6 39.5-.3 79.1-.5 118.6.1 16.5-.4 27.8 16.2 25.8 31.6-.2 348.1.4 696.2-.3 1044.2.1 92.8-38 193.7-123.8 239.1-105.7 54.8-236.4 43.1-340.8-9.4-90.4-45.1-176.7-98.4-265.5-146.7C47.7 1913.9 5 1847.1 5.5 1777.2V722.5c-.6-68.6 39.9-134.7 100.1-167.1 309-174.5 618.1-349.1 927.2-523.7z" />
    <path
      d="M1302.6 762.3c134.8-8.7 279.2-5.1 400.5 61.3 93.9 50.9 146 157.7 147.7 262.1-2.6 14.1-17.3 21.8-30.8 20.9-39.1-.1-78.3.5-117.4-.3-16.6.6-26.2-14.7-28.3-29.3-11.2-49.9-38.5-99.4-85.5-123.5-72.2-36.1-155.8-34.3-234.5-33.6-57.4 3-119.2 8-167.9 41.8-37.4 25.6-48.7 77.2-35.4 118.8 12.6 29.9 47 39.5 75.3 48.4 162.5 42.5 334.7 38.3 494.1 94.2 66 22.8 130.5 67.1 153.1 136.2 29.5 92.6 16.6 203.3-49.3 277.6-53.4 61.2-131.2 94.5-208.9 112.6-103.3 23-210.4 23.6-315.3 13.4-98.6-11.2-201.2-37.1-277.3-104.3-65.1-56.5-96.9-144.6-93.7-229.6.8-14.4 15-24.4 28.8-23.2 39.4-.3 78.8-.4 118.2.1 15.7-1.1 27.4 12.5 28.2 27.3 7.3 47.6 25.2 97.5 66.6 125.7 80.1 51.7 180.5 48.1 272.2 49.6 76-3.4 161.2-4.4 223.2-54.6 32.7-28.6 42.4-76.5 33.6-117.8-9.6-34.8-46-51-77.2-61.6-160.4-50.7-334.5-32.3-493.4-89.7-64.5-22.8-126.9-65.9-151.6-132.1-34.6-93.8-18.7-209.8 54.1-281.6 71-71.4 173.4-98.9 270.9-108.8z" />
  </g>
</svg>
