<svg width="266" height="45" viewBox="0 0 266 45" fill="none" xmlns="http://www.w3.org/2000/svg">
  <path
    d="M250.329 38.8693C245.127 38.8693 241.701 34.5715 241.701 29.5152 241.701 24.4592 245.127 20.1612 250.329 20.1612 255.659 20.1612 259.085 24.4589 259.085 29.5152S255.659 38.8693 250.329 38.8693zM259.085 44.2414H266V0H259.085V18.7709C257.245 15.8004 253.375 14.0307 249.949 14.0307 240.94 14.0307 234.786 21.1725 234.786 29.5152 234.786 37.858 240.94 44.9998 249.949 44.9998 253.375 44.9998 257.245 43.2301 259.085 40.2595V44.2414zM201.225 44.2414H208.14V29.0096C208.14 23.9535 210.424 20.0981 215.246 20.0981 220.195 20.0981 221.654 23.9535 221.654 29.0096V44.2414H228.569V26.7345C228.569 22.6895 228.125 20.2246 226.666 18.0126 225.017 15.5477 222.035 14.0309 217.784 14.0309 213.406 14.0309 209.98 15.7375 208.14 18.8974V14.7893H201.225V44.2414zM186.07 14.7893V30.0211C186.07 35.0772 183.786 38.9326 178.965 38.9326 174.016 38.9326 172.557 35.0772 172.557 30.0211V14.7893H165.641V32.2962C165.641 36.3412 166.086 38.8061 167.545 41.0181 169.194 43.483 172.176 44.9998 176.427 44.9998 180.804 44.9998 184.231 43.2932 186.07 40.1333v4.1081H192.986V14.7893H186.07zM143.754 38.8693C138.551 38.8693 135.125 34.5715 135.125 29.5152 135.125 24.4592 138.551 20.1612 143.754 20.1612 149.083 20.1612 152.509 24.4589 152.509 29.5152S149.083 38.8693 143.754 38.8693zM143.754 44.9998C153.27 44.9998 159.424 37.858 159.424 29.5152 159.424 21.1725 153.27 14.0307 143.754 14.0307 134.364 14.0307 128.21 21.1725 128.21 29.5152 128.21 37.858 134.364 44.9998 143.754 44.9998zM115.395 27.6193C110.002 25.5336 107.274 25.2177 107.274 22.6895 107.274 20.6037 109.178 19.4662 111.525 19.4662 114.888 19.4662 116.284 21.2359 116.284 24.0168H123.008C123.008 18.2655 117.996 14.0309 111.715 14.0309 105.688 14.0309 100.613 17.0015 100.613 22.5632 100.613 27.6827 103.531 29.1994 107.655 30.7795 113.872 33.1811 116.854 33.3709 116.854 36.1516 116.854 38.6797 114.76 39.5645 112.032 39.5645 108.733 39.5645 106.322 38.174 106.322 34.3188H99.5973C99.5973 41.2711 105.307 45 111.651 45 118.123 45 123.452 42.1559 123.452 36.0254 123.452 30.653 119.519 29.1994 115.395 27.6193zM96.9972 14.7893H88.369L77.5201 27.8089V0H70.6047V44.2414H77.5201V31.2849L88.369 44.2414H96.9972L84.6892 29.5152 96.9972 14.7893zM50.2465 19.7823C54.4337 19.7823 57.4156 22.3736 57.4156 26.4818H42.9504C42.9504 22.1207 46.186 19.7823 50.2465 19.7823zM63.8234 31.601C64.1407 29.7048 64.1407 28.3146 64.1407 27.3033 64.1407 19.7823 58.1135 14.0307 50.4368 14.0307 41.1107 14.0307 35.8447 20.6669 35.8447 29.5152 35.8447 37.5419 40.6664 44.9998 50.6271 44.9998 58.1768 44.9998 62.9352 40.4491 63.8868 35.393H56.908C56.0198 37.4788 54.5606 39.2484 50.6271 39.2484 45.0442 39.2484 42.9505 35.8356 42.8871 31.601H63.8234zM15.5437 38.8693C10.3413 38.8693 6.91541 34.5715 6.91541 29.5152 6.91541 24.4592 10.3413 20.1612 15.5437 20.1612 20.8729 20.1612 24.2989 24.4589 24.2989 29.5152S20.8727 38.8693 15.5437 38.8693zM15.5437 44.9998C25.0601 44.9998 31.2143 37.858 31.2143 29.5152 31.2143 21.1725 25.0603 14.0307 15.5437 14.0307 6.15391 14.0307.0 21.1725.0 29.5152.0 37.858 6.15391 44.9998 15.5437 44.9998z"
    fill="currentcolor"></path>
</svg>
