<?xml version="1.0" encoding="utf-8"?>
<!-- Generator: Adobe Illustrator 19.2.1, SVG Export Plug-In . SVG Version: 6.00 Build 0)  -->
<svg version="1.1" id="layer" xmlns="http://www.w3.org/2000/svg" xmlns:xlink="http://www.w3.org/1999/xlink" x="0px" y="0px"
	 viewBox="0 0 652 652" style="enable-background:new 0 0 652 652;" xml:space="preserve">
<style type="text/css">
	.st0{clip-path:url(#SVGID_2_);fill:url(#SVGID_3_);}
	.st1{clip-path:url(#SVGID_5_);fill:url(#SVGID_6_);}
	.st2{clip-path:url(#SVGID_8_);fill:url(#SVGID_9_);}
	.st3{clip-path:url(#SVGID_11_);fill:url(#SVGID_12_);}
	.st4{clip-path:url(#SVGID_14_);fill:url(#SVGID_15_);}
	.st5{clip-path:url(#SVGID_17_);fill:url(#SVGID_18_);}
	.st6{clip-path:url(#SVGID_20_);fill:url(#SVGID_21_);}
	.st7{clip-path:url(#SVGID_23_);fill:url(#SVGID_24_);}
	.st8{clip-path:url(#SVGID_26_);fill:url(#SVGID_27_);}
	.st9{clip-path:url(#SVGID_29_);fill:url(#SVGID_30_);}
	.st10{clip-path:url(#SVGID_32_);fill:url(#SVGID_33_);}
	.st11{clip-path:url(#SVGID_35_);fill:url(#SVGID_36_);}
	.st12{clip-path:url(#SVGID_38_);fill:url(#SVGID_39_);}
	.st13{clip-path:url(#SVGID_41_);fill:url(#SVGID_42_);}
	.st14{clip-path:url(#SVGID_44_);fill:url(#SVGID_45_);}
	.st15{clip-path:url(#SVGID_47_);fill:url(#SVGID_48_);}
	.st16{clip-path:url(#SVGID_50_);fill:url(#SVGID_51_);}
	.st17{clip-path:url(#SVGID_53_);fill:url(#SVGID_54_);}
	.st18{clip-path:url(#SVGID_56_);fill:url(#SVGID_57_);}
	.st19{clip-path:url(#SVGID_59_);fill:url(#SVGID_60_);}
	.st20{clip-path:url(#SVGID_62_);fill:url(#SVGID_63_);}
	.st21{clip-path:url(#SVGID_65_);fill:url(#SVGID_66_);}
	.st22{clip-path:url(#SVGID_68_);fill:url(#SVGID_69_);}
	.st23{clip-path:url(#SVGID_71_);fill:url(#SVGID_72_);}
	.st24{clip-path:url(#SVGID_74_);fill:url(#SVGID_75_);}
	.st25{clip-path:url(#SVGID_77_);fill:url(#SVGID_78_);}
	.st26{clip-path:url(#SVGID_80_);fill:url(#SVGID_81_);}
	.st27{clip-path:url(#SVGID_83_);fill:url(#SVGID_84_);}
	.st28{clip-path:url(#SVGID_86_);fill:url(#SVGID_87_);}
	.st29{clip-path:url(#SVGID_89_);fill:url(#SVGID_90_);}
	.st30{clip-path:url(#SVGID_92_);fill:url(#SVGID_93_);}
	.st31{clip-path:url(#SVGID_95_);fill:url(#SVGID_96_);}
</style>
<g>
	<defs>
		<path id="SVGID_1_" d="M29.9,222.9c-5.3,0-9.5,4.2-9.5,9.5v118c0,5.2,4.2,9.5,9.5,9.5h10.3c5.3,0,9.5-4.2,9.5-9.5v-118
			c0-5.2-4.3-9.5-9.5-9.5H29.9z"/>
	</defs>
	<clipPath id="SVGID_2_">
		<use xlink:href="#SVGID_1_"  style="overflow:visible;"/>
	</clipPath>
	
		<linearGradient id="SVGID_3_" gradientUnits="userSpaceOnUse" x1="-200.24" y1="715.5419" x2="-195.4537" y2="715.5419" gradientTransform="matrix(0.5057 26.3349 26.3349 -0.5057 -18708.5371 5865.9873)">
		<stop  offset="0" style="stop-color:#00BFF3"/>
		<stop  offset="2.515972e-002" style="stop-color:#02B9EE"/>
		<stop  offset="0.1452" style="stop-color:#0BA0DC"/>
		<stop  offset="0.2801" style="stop-color:#128DCE"/>
		<stop  offset="0.4363" style="stop-color:#177FC4"/>
		<stop  offset="0.6328" style="stop-color:#1A77BE"/>
		<stop  offset="1" style="stop-color:#1B75BC"/>
	</linearGradient>
	<polygon class="st0" points="49.8,222.3 52.4,359.8 20.4,360.4 17.8,223 	"/>
</g>
<g>
	<defs>
		<path id="SVGID_4_" d="M68,242.6c-5.2,0-9.5,4.2-9.5,9.5v116c0,5.2,4.3,9.5,9.5,9.5h10.3c5.3,0,9.5-4.2,9.5-9.5v-116
			c0-5.2-4.3-9.5-9.5-9.5H68z"/>
	</defs>
	<clipPath id="SVGID_5_">
		<use xlink:href="#SVGID_4_"  style="overflow:visible;"/>
	</clipPath>
	
		<linearGradient id="SVGID_6_" gradientUnits="userSpaceOnUse" x1="-200.2405" y1="716.6731" x2="-195.4542" y2="716.6731" gradientTransform="matrix(0.5057 26.3352 26.3352 -0.5057 -18700.9023 5865.8955)">
		<stop  offset="0" style="stop-color:#00BFF3"/>
		<stop  offset="2.515972e-002" style="stop-color:#02B9EE"/>
		<stop  offset="0.1452" style="stop-color:#0BA0DC"/>
		<stop  offset="0.2801" style="stop-color:#128DCE"/>
		<stop  offset="0.4363" style="stop-color:#177FC4"/>
		<stop  offset="0.6328" style="stop-color:#1A77BE"/>
		<stop  offset="1" style="stop-color:#1B75BC"/>
	</linearGradient>
	<polygon class="st1" points="87.8,242 90.4,377.5 58.5,378.1 55.9,242.6 	"/>
</g>
<g>
	<defs>
		<path id="SVGID_7_" d="M106,212.7c-5.2,0-9.5,4.2-9.5,9.5v128.2c0,5.2,4.3,9.5,9.5,9.5h10.3c5.2,0,9.5-4.2,9.5-9.5V222.1
			c0-5.2-4.3-9.5-9.5-9.5H106z"/>
	</defs>
	<clipPath id="SVGID_8_">
		<use xlink:href="#SVGID_7_"  style="overflow:visible;"/>
	</clipPath>
	
		<linearGradient id="SVGID_9_" gradientUnits="userSpaceOnUse" x1="-200.2417" y1="717.8278" x2="-195.4554" y2="717.8278" gradientTransform="matrix(0.5056 26.3344 26.3344 -0.5056 -18692.2715 5865.5752)">
		<stop  offset="0" style="stop-color:#00BFF3"/>
		<stop  offset="2.515972e-002" style="stop-color:#02B9EE"/>
		<stop  offset="0.1452" style="stop-color:#0BA0DC"/>
		<stop  offset="0.2801" style="stop-color:#128DCE"/>
		<stop  offset="0.4363" style="stop-color:#177FC4"/>
		<stop  offset="0.6328" style="stop-color:#1A77BE"/>
		<stop  offset="1" style="stop-color:#1B75BC"/>
	</linearGradient>
	<polygon class="st2" points="125.8,212.1 128.6,359.8 96.5,360.4 93.7,212.7 	"/>
</g>
<g>
	<defs>
		<path id="SVGID_10_" d="M144,222.9c-5.2,0-9.5,4.2-9.5,9.5v118c0,5.2,4.3,9.5,9.5,9.5h10.3c5.3,0,9.5-4.2,9.5-9.5v-118
			c0-5.2-4.3-9.5-9.5-9.5H144z"/>
	</defs>
	<clipPath id="SVGID_11_">
		<use xlink:href="#SVGID_10_"  style="overflow:visible;"/>
	</clipPath>
	
		<linearGradient id="SVGID_12_" gradientUnits="userSpaceOnUse" x1="-200.2423" y1="718.9674" x2="-195.456" y2="718.9674" gradientTransform="matrix(0.5057 26.3349 26.3349 -0.5057 -18684.7129 5865.5137)">
		<stop  offset="0" style="stop-color:#00BFF3"/>
		<stop  offset="2.515972e-002" style="stop-color:#02B9EE"/>
		<stop  offset="0.1452" style="stop-color:#0BA0DC"/>
		<stop  offset="0.2801" style="stop-color:#128DCE"/>
		<stop  offset="0.4363" style="stop-color:#177FC4"/>
		<stop  offset="0.6328" style="stop-color:#1A77BE"/>
		<stop  offset="1" style="stop-color:#1B75BC"/>
	</linearGradient>
	<polygon class="st3" points="163.8,222.3 166.5,359.8 134.5,360.4 131.9,223 	"/>
</g>
<g>
	<defs>
		<path id="SVGID_13_" d="M182,222.9c-5.3,0-9.5,4.2-9.5,9.5v135.7c0,5.2,4.3,9.5,9.5,9.5h10.3c5.2,0,9.5-4.2,9.5-9.5V232.4
			c0-5.2-4.3-9.5-9.5-9.5H182z"/>
	</defs>
	<clipPath id="SVGID_14_">
		<use xlink:href="#SVGID_13_"  style="overflow:visible;"/>
	</clipPath>
	
		<linearGradient id="SVGID_15_" gradientUnits="userSpaceOnUse" x1="-200.2424" y1="720.1021" x2="-195.4561" y2="720.1021" gradientTransform="matrix(0.5057 26.3362 26.3362 -0.5057 -18677.6758 5865.6113)">
		<stop  offset="0" style="stop-color:#00BFF3"/>
		<stop  offset="2.515972e-002" style="stop-color:#02B9EE"/>
		<stop  offset="0.1452" style="stop-color:#0BA0DC"/>
		<stop  offset="0.2801" style="stop-color:#128DCE"/>
		<stop  offset="0.4363" style="stop-color:#177FC4"/>
		<stop  offset="0.6328" style="stop-color:#1A77BE"/>
		<stop  offset="1" style="stop-color:#1B75BC"/>
	</linearGradient>
	<polygon class="st4" points="201.9,222.3 204.8,377.5 172.5,378.1 169.6,223 	"/>
</g>
<g>
	<defs>
		<path id="SVGID_16_" d="M220.1,187.6c-5.3,0-9.5,4.2-9.5,9.5v153.2c0,5.2,4.3,9.5,9.5,9.5h10.3c5.3,0,9.5-4.2,9.5-9.5V197.1
			c0-5.2-4.3-9.5-9.5-9.5H220.1z"/>
	</defs>
	<clipPath id="SVGID_17_">
		<use xlink:href="#SVGID_16_"  style="overflow:visible;"/>
	</clipPath>
	
		<linearGradient id="SVGID_18_" gradientUnits="userSpaceOnUse" x1="-200.2444" y1="721.259" x2="-195.4581" y2="721.259" gradientTransform="matrix(0.5056 26.3333 26.3333 -0.5056 -18667.5508 5864.8774)">
		<stop  offset="0" style="stop-color:#00BFF3"/>
		<stop  offset="2.515972e-002" style="stop-color:#02B9EE"/>
		<stop  offset="0.1452" style="stop-color:#0BA0DC"/>
		<stop  offset="0.2801" style="stop-color:#128DCE"/>
		<stop  offset="0.4363" style="stop-color:#177FC4"/>
		<stop  offset="0.6328" style="stop-color:#1A77BE"/>
		<stop  offset="1" style="stop-color:#1B75BC"/>
	</linearGradient>
	<polygon class="st5" points="239.9,187.1 243.2,359.7 210.6,360.4 207.3,187.7 	"/>
</g>
<g>
	<defs>
		<path id="SVGID_19_" d="M258.1,222.9c-5.3,0-9.5,4.2-9.5,9.5v135.7c0,5.2,4.3,9.5,9.5,9.5h10.3c5.2,0,9.5-4.2,9.5-9.5V232.4
			c0-5.2-4.3-9.5-9.5-9.5H258.1z"/>
	</defs>
	<clipPath id="SVGID_20_">
		<use xlink:href="#SVGID_19_"  style="overflow:visible;"/>
	</clipPath>
	
		<linearGradient id="SVGID_21_" gradientUnits="userSpaceOnUse" x1="-200.2442" y1="722.3861" x2="-195.4579" y2="722.3861" gradientTransform="matrix(0.5057 26.3356 26.3356 -0.5057 -18661.3965 5865.1841)">
		<stop  offset="0" style="stop-color:#00BFF3"/>
		<stop  offset="2.515972e-002" style="stop-color:#02B9EE"/>
		<stop  offset="0.1452" style="stop-color:#0BA0DC"/>
		<stop  offset="0.2801" style="stop-color:#128DCE"/>
		<stop  offset="0.4363" style="stop-color:#177FC4"/>
		<stop  offset="0.6328" style="stop-color:#1A77BE"/>
		<stop  offset="1" style="stop-color:#1B75BC"/>
	</linearGradient>
	<polygon class="st6" points="277.9,222.3 280.9,377.5 248.6,378.1 245.6,223 	"/>
</g>
<g>
	<defs>
		<path id="SVGID_22_" d="M296.1,222.9c-5.3,0-9.5,4.2-9.5,9.5v118c0,5.2,4.3,9.5,9.5,9.5h10.3c5.3,0,9.5-4.2,9.5-9.5v-118
			c0-5.2-4.3-9.5-9.5-9.5H296.1z"/>
	</defs>
	<clipPath id="SVGID_23_">
		<use xlink:href="#SVGID_22_"  style="overflow:visible;"/>
	</clipPath>
	
		<linearGradient id="SVGID_24_" gradientUnits="userSpaceOnUse" x1="-200.245" y1="723.5345" x2="-195.4587" y2="723.5345" gradientTransform="matrix(0.5057 26.3355 26.3355 -0.5057 -18653.3965 5865.0103)">
		<stop  offset="0" style="stop-color:#00BFF3"/>
		<stop  offset="2.515972e-002" style="stop-color:#02B9EE"/>
		<stop  offset="0.1452" style="stop-color:#0BA0DC"/>
		<stop  offset="0.2801" style="stop-color:#128DCE"/>
		<stop  offset="0.4363" style="stop-color:#177FC4"/>
		<stop  offset="0.6328" style="stop-color:#1A77BE"/>
		<stop  offset="1" style="stop-color:#1B75BC"/>
	</linearGradient>
	<polygon class="st7" points="315.9,222.3 318.6,359.8 286.6,360.4 284,223 	"/>
</g>
<g>
	<defs>
		<path id="SVGID_25_" d="M334.1,222.9c-5.2,0-9.5,4.2-9.5,9.5v118c0,5.2,4.3,9.5,9.5,9.5h10.3c5.3,0,9.5-4.2,9.5-9.5v-118
			c0-5.2-4.3-9.5-9.5-9.5H334.1z"/>
	</defs>
	<clipPath id="SVGID_26_">
		<use xlink:href="#SVGID_25_"  style="overflow:visible;"/>
	</clipPath>
	
		<linearGradient id="SVGID_27_" gradientUnits="userSpaceOnUse" x1="-200.246" y1="724.6766" x2="-195.4597" y2="724.6766" gradientTransform="matrix(0.5057 26.3349 26.3349 -0.5057 -18645.0039 5864.7256)">
		<stop  offset="0" style="stop-color:#00BFF3"/>
		<stop  offset="2.515972e-002" style="stop-color:#02B9EE"/>
		<stop  offset="0.1452" style="stop-color:#0BA0DC"/>
		<stop  offset="0.2801" style="stop-color:#128DCE"/>
		<stop  offset="0.4363" style="stop-color:#177FC4"/>
		<stop  offset="0.6328" style="stop-color:#1A77BE"/>
		<stop  offset="1" style="stop-color:#1B75BC"/>
	</linearGradient>
	<polygon class="st8" points="354,222.3 356.6,359.8 324.6,360.4 322,223 	"/>
</g>
<g>
	<defs>
		<path id="SVGID_28_" d="M372.2,242.6c-5.3,0-9.5,4.2-9.5,9.5v116c0,5.2,4.3,9.5,9.5,9.5h10.3c5.3,0,9.5-4.2,9.5-9.5v-116
			c0-5.2-4.3-9.5-9.5-9.5H372.2z"/>
	</defs>
	<clipPath id="SVGID_29_">
		<use xlink:href="#SVGID_28_"  style="overflow:visible;"/>
	</clipPath>
	
		<linearGradient id="SVGID_30_" gradientUnits="userSpaceOnUse" x1="-200.2465" y1="725.8079" x2="-195.4602" y2="725.8079" gradientTransform="matrix(0.5057 26.3352 26.3352 -0.5057 -18637.3672 5864.6338)">
		<stop  offset="0" style="stop-color:#00BFF3"/>
		<stop  offset="2.515972e-002" style="stop-color:#02B9EE"/>
		<stop  offset="0.1452" style="stop-color:#0BA0DC"/>
		<stop  offset="0.2801" style="stop-color:#128DCE"/>
		<stop  offset="0.4363" style="stop-color:#177FC4"/>
		<stop  offset="0.6328" style="stop-color:#1A77BE"/>
		<stop  offset="1" style="stop-color:#1B75BC"/>
	</linearGradient>
	<polygon class="st9" points="392,242 394.6,377.5 362.7,378.1 360.1,242.6 	"/>
</g>
<g>
	<defs>
		<path id="SVGID_31_" d="M410.2,212.7c-5.3,0-9.5,4.2-9.5,9.5v128.2c0,5.2,4.3,9.5,9.5,9.5h10.3c5.3,0,9.5-4.2,9.5-9.5V222.1
			c0-5.2-4.3-9.5-9.5-9.5H410.2z"/>
	</defs>
	<clipPath id="SVGID_32_">
		<use xlink:href="#SVGID_31_"  style="overflow:visible;"/>
	</clipPath>
	
		<linearGradient id="SVGID_33_" gradientUnits="userSpaceOnUse" x1="-200.2478" y1="726.9629" x2="-195.4615" y2="726.9629" gradientTransform="matrix(0.5056 26.3344 26.3344 -0.5056 -18628.7363 5864.3125)">
		<stop  offset="0" style="stop-color:#00BFF3"/>
		<stop  offset="2.515972e-002" style="stop-color:#02B9EE"/>
		<stop  offset="0.1452" style="stop-color:#0BA0DC"/>
		<stop  offset="0.2801" style="stop-color:#128DCE"/>
		<stop  offset="0.4363" style="stop-color:#177FC4"/>
		<stop  offset="0.6328" style="stop-color:#1A77BE"/>
		<stop  offset="1" style="stop-color:#1B75BC"/>
	</linearGradient>
	<polygon class="st10" points="430,212.1 432.9,359.8 400.7,360.4 397.9,212.7 	"/>
</g>
<g>
	<defs>
		<path id="SVGID_34_" d="M448.2,222.9c-5.3,0-9.5,4.2-9.5,9.5v118c0,5.2,4.3,9.5,9.5,9.5h10.3c5.2,0,9.5-4.2,9.5-9.5v-118
			c0-5.2-4.3-9.5-9.5-9.5H448.2z"/>
	</defs>
	<clipPath id="SVGID_35_">
		<use xlink:href="#SVGID_34_"  style="overflow:visible;"/>
	</clipPath>
	
		<linearGradient id="SVGID_36_" gradientUnits="userSpaceOnUse" x1="-200.2449" y1="728.1022" x2="-195.4586" y2="728.1022" gradientTransform="matrix(0.5057 26.3349 26.3349 -0.5057 -18621.1777 5864.252)">
		<stop  offset="0" style="stop-color:#00BFF3"/>
		<stop  offset="2.515972e-002" style="stop-color:#02B9EE"/>
		<stop  offset="0.1452" style="stop-color:#0BA0DC"/>
		<stop  offset="0.2801" style="stop-color:#128DCE"/>
		<stop  offset="0.4363" style="stop-color:#177FC4"/>
		<stop  offset="0.6328" style="stop-color:#1A77BE"/>
		<stop  offset="1" style="stop-color:#1B75BC"/>
	</linearGradient>
	<polygon class="st11" points="468.1,222.3 470.7,359.8 438.7,360.4 436.1,223 	"/>
</g>
<g>
	<defs>
		<path id="SVGID_37_" d="M486.3,222.9c-5.3,0-9.5,4.2-9.5,9.5v135.7c0,5.2,4.3,9.5,9.5,9.5h10.3c5.3,0,9.5-4.2,9.5-9.5V232.4
			c0-5.2-4.3-9.5-9.5-9.5H486.3z"/>
	</defs>
	<clipPath id="SVGID_38_">
		<use xlink:href="#SVGID_37_"  style="overflow:visible;"/>
	</clipPath>
	
		<linearGradient id="SVGID_39_" gradientUnits="userSpaceOnUse" x1="-200.2484" y1="729.2369" x2="-195.4621" y2="729.2369" gradientTransform="matrix(0.5057 26.3362 26.3362 -0.5057 -18614.1406 5864.3496)">
		<stop  offset="0" style="stop-color:#00BFF3"/>
		<stop  offset="2.515972e-002" style="stop-color:#02B9EE"/>
		<stop  offset="0.1452" style="stop-color:#0BA0DC"/>
		<stop  offset="0.2801" style="stop-color:#128DCE"/>
		<stop  offset="0.4363" style="stop-color:#177FC4"/>
		<stop  offset="0.6328" style="stop-color:#1A77BE"/>
		<stop  offset="1" style="stop-color:#1B75BC"/>
	</linearGradient>
	<polygon class="st12" points="506.1,222.3 509.1,377.5 476.8,378.1 473.8,223 	"/>
</g>
<g>
	<defs>
		<path id="SVGID_40_" d="M524.3,187.6c-5.3,0-9.5,4.2-9.5,9.5v153.2c0,5.2,4.3,9.5,9.5,9.5h10.3c5.3,0,9.5-4.2,9.5-9.5V197.1
			c0-5.2-4.3-9.5-9.5-9.5H524.3z"/>
	</defs>
	<clipPath id="SVGID_41_">
		<use xlink:href="#SVGID_40_"  style="overflow:visible;"/>
	</clipPath>
	
		<linearGradient id="SVGID_42_" gradientUnits="userSpaceOnUse" x1="-200.2502" y1="730.3942" x2="-195.4639" y2="730.3942" gradientTransform="matrix(0.5056 26.3338 26.3338 -0.5056 -18604.3574 5863.7114)">
		<stop  offset="0" style="stop-color:#00BFF3"/>
		<stop  offset="2.515972e-002" style="stop-color:#02B9EE"/>
		<stop  offset="0.1452" style="stop-color:#0BA0DC"/>
		<stop  offset="0.2801" style="stop-color:#128DCE"/>
		<stop  offset="0.4363" style="stop-color:#177FC4"/>
		<stop  offset="0.6328" style="stop-color:#1A77BE"/>
		<stop  offset="1" style="stop-color:#1B75BC"/>
	</linearGradient>
	<polygon class="st13" points="544.1,187.1 547.4,359.7 514.8,360.4 511.5,187.7 	"/>
</g>
<g>
	<defs>
		<path id="SVGID_43_" d="M562.3,222.9c-5.2,0-9.5,4.2-9.5,9.5v135.7c0,5.2,4.3,9.5,9.5,9.5h10.3c5.3,0,9.5-4.2,9.5-9.5V232.4
			c0-5.2-4.3-9.5-9.5-9.5H562.3z"/>
	</defs>
	<clipPath id="SVGID_44_">
		<use xlink:href="#SVGID_43_"  style="overflow:visible;"/>
	</clipPath>
	
		<linearGradient id="SVGID_45_" gradientUnits="userSpaceOnUse" x1="-200.2502" y1="731.5211" x2="-195.4639" y2="731.5211" gradientTransform="matrix(0.5057 26.3356 26.3356 -0.5057 -18597.8613 5863.9224)">
		<stop  offset="0" style="stop-color:#00BFF3"/>
		<stop  offset="2.515972e-002" style="stop-color:#02B9EE"/>
		<stop  offset="0.1452" style="stop-color:#0BA0DC"/>
		<stop  offset="0.2801" style="stop-color:#128DCE"/>
		<stop  offset="0.4363" style="stop-color:#177FC4"/>
		<stop  offset="0.6328" style="stop-color:#1A77BE"/>
		<stop  offset="1" style="stop-color:#1B75BC"/>
	</linearGradient>
	<polygon class="st14" points="582.1,222.3 585.1,377.5 552.8,378.1 549.8,223 	"/>
</g>
<g>
	<defs>
		<path id="SVGID_46_" d="M600.3,222.9c-5.3,0-9.5,4.2-9.5,9.5v118c0,5.2,4.3,9.5,9.5,9.5h10.3c5.2,0,9.5-4.2,9.5-9.5v-118
			c0-5.2-4.3-9.5-9.5-9.5H600.3z"/>
	</defs>
	<clipPath id="SVGID_47_">
		<use xlink:href="#SVGID_46_"  style="overflow:visible;"/>
	</clipPath>
	
		<linearGradient id="SVGID_48_" gradientUnits="userSpaceOnUse" x1="-200.2513" y1="732.6699" x2="-195.465" y2="732.6699" gradientTransform="matrix(0.5057 26.3349 26.3349 -0.5057 -18589.4082 5863.6206)">
		<stop  offset="0" style="stop-color:#00BFF3"/>
		<stop  offset="2.515972e-002" style="stop-color:#02B9EE"/>
		<stop  offset="0.1452" style="stop-color:#0BA0DC"/>
		<stop  offset="0.2801" style="stop-color:#128DCE"/>
		<stop  offset="0.4363" style="stop-color:#177FC4"/>
		<stop  offset="0.6328" style="stop-color:#1A77BE"/>
		<stop  offset="1" style="stop-color:#1B75BC"/>
	</linearGradient>
	<polygon class="st15" points="620.2,222.3 622.8,359.8 590.8,360.4 588.2,223 	"/>
</g>
<g>
	<defs>
		<path id="SVGID_49_" d="M20.4,293.5v56.8c0,5.2,4.2,9.5,9.5,9.5h10.3c5.3,0,9.5-4.2,9.5-9.5v-64.1C39.6,288.6,29.8,291,20.4,293.5
			"/>
	</defs>
	<clipPath id="SVGID_50_">
		<use xlink:href="#SVGID_49_"  style="overflow:visible;"/>
	</clipPath>
	
		<linearGradient id="SVGID_51_" gradientUnits="userSpaceOnUse" x1="-207.7507" y1="719.187" x2="-202.9643" y2="719.187" gradientTransform="matrix(0 15.3617 15.3617 0 -11012.8223 3477.6792)">
		<stop  offset="0" style="stop-color:#00ABE6"/>
		<stop  offset="5.645210e-002" style="stop-color:#05A2DF"/>
		<stop  offset="0.2168" style="stop-color:#0F8ECF"/>
		<stop  offset="0.3997" style="stop-color:#1680C4"/>
		<stop  offset="0.6228" style="stop-color:#1A77BE"/>
		<stop  offset="1" style="stop-color:#1B75BC"/>
	</linearGradient>
	<rect x="20.4" y="286.3" class="st16" width="29.3" height="73.5"/>
</g>
<g>
	<defs>
		<path id="SVGID_52_" d="M58.5,284.4v83.7c0,5.2,4.3,9.5,9.5,9.5h10.3c5.3,0,9.5-4.2,9.5-9.5v-89.4C77.7,280.5,68,282.4,58.5,284.4
			"/>
	</defs>
	<clipPath id="SVGID_53_">
		<use xlink:href="#SVGID_52_"  style="overflow:visible;"/>
	</clipPath>
	
		<linearGradient id="SVGID_54_" gradientUnits="userSpaceOnUse" x1="-202.4684" y1="718.2615" x2="-197.6824" y2="718.2615" gradientTransform="matrix(0 20.6531 20.6531 0 -14761.2168 4460.3027)">
		<stop  offset="0" style="stop-color:#00ABE6"/>
		<stop  offset="5.645210e-002" style="stop-color:#05A2DF"/>
		<stop  offset="0.2168" style="stop-color:#0F8ECF"/>
		<stop  offset="0.3997" style="stop-color:#1680C4"/>
		<stop  offset="0.6228" style="stop-color:#1A77BE"/>
		<stop  offset="1" style="stop-color:#1B75BC"/>
	</linearGradient>
	<rect x="58.5" y="278.7" class="st17" width="29.3" height="98.8"/>
</g>
<g>
	<defs>
		<path id="SVGID_55_" d="M96.5,277.2v73.1c0,5.2,4.3,9.5,9.5,9.5h10.3c5.2,0,9.5-4.2,9.5-9.5v-77.6
			C115.8,274.1,106,275.6,96.5,277.2"/>
	</defs>
	<clipPath id="SVGID_56_">
		<use xlink:href="#SVGID_55_"  style="overflow:visible;"/>
	</clipPath>
	
		<linearGradient id="SVGID_57_" gradientUnits="userSpaceOnUse" x1="-204.9643" y1="721.0536" x2="-200.1777" y2="721.0536" gradientTransform="matrix(0 18.182 18.182 0 -12999.0508 3999.4385)">
		<stop  offset="0" style="stop-color:#00ABE6"/>
		<stop  offset="5.645210e-002" style="stop-color:#05A2DF"/>
		<stop  offset="0.2168" style="stop-color:#0F8ECF"/>
		<stop  offset="0.3997" style="stop-color:#1680C4"/>
		<stop  offset="0.6228" style="stop-color:#1A77BE"/>
		<stop  offset="1" style="stop-color:#1B75BC"/>
	</linearGradient>
	<rect x="96.5" y="272.8" class="st18" width="29.3" height="87"/>
</g>
<g>
	<defs>
		<path id="SVGID_58_" d="M134.5,271.6v78.7c0,5.2,4.3,9.5,9.5,9.5h10.3c5.3,0,9.5-4.2,9.5-9.5v-82
			C153.9,269.3,144.1,270.4,134.5,271.6"/>
	</defs>
	<clipPath id="SVGID_59_">
		<use xlink:href="#SVGID_58_"  style="overflow:visible;"/>
	</clipPath>
	
		<linearGradient id="SVGID_60_" gradientUnits="userSpaceOnUse" x1="-204.2212" y1="722.0806" x2="-199.4346" y2="722.0806" gradientTransform="matrix(0 19.118 19.118 0 -13655.5615 4172.5981)">
		<stop  offset="0" style="stop-color:#00ABE6"/>
		<stop  offset="5.645210e-002" style="stop-color:#05A2DF"/>
		<stop  offset="0.2168" style="stop-color:#0F8ECF"/>
		<stop  offset="0.3997" style="stop-color:#1680C4"/>
		<stop  offset="0.6228" style="stop-color:#1A77BE"/>
		<stop  offset="1" style="stop-color:#1B75BC"/>
	</linearGradient>
	<rect x="134.5" y="268.3" class="st19" width="29.3" height="91.5"/>
</g>
<g>
	<defs>
		<path id="SVGID_61_" d="M172.5,267.5v100.6c0,5.2,4.3,9.5,9.5,9.5h10.3c5.2,0,9.5-4.2,9.5-9.5v-103
			C192,265.8,182.2,266.6,172.5,267.5"/>
	</defs>
	<clipPath id="SVGID_62_">
		<use xlink:href="#SVGID_61_"  style="overflow:visible;"/>
	</clipPath>
	
		<linearGradient id="SVGID_63_" gradientUnits="userSpaceOnUse" x1="-200.9349" y1="721.0899" x2="-196.1485" y2="721.0899" gradientTransform="matrix(0 23.4946 23.4946 0 -16754.4941 4985.9692)">
		<stop  offset="0" style="stop-color:#00ABE6"/>
		<stop  offset="5.645210e-002" style="stop-color:#05A2DF"/>
		<stop  offset="0.2168" style="stop-color:#0F8ECF"/>
		<stop  offset="0.3997" style="stop-color:#1680C4"/>
		<stop  offset="0.6228" style="stop-color:#1A77BE"/>
		<stop  offset="1" style="stop-color:#1B75BC"/>
	</linearGradient>
	<rect x="172.5" y="265.1" class="st20" width="29.3" height="112.5"/>
</g>
<g>
	<defs>
		<path id="SVGID_64_" d="M210.6,264.5v85.8c0,5.2,4.3,9.5,9.5,9.5h10.3c5.3,0,9.5-4.2,9.5-9.5v-87.3
			C230,263.4,220.2,263.9,210.6,264.5"/>
	</defs>
	<clipPath id="SVGID_65_">
		<use xlink:href="#SVGID_64_"  style="overflow:visible;"/>
	</clipPath>
	
		<linearGradient id="SVGID_66_" gradientUnits="userSpaceOnUse" x1="-203.4389" y1="724.3964" x2="-198.6525" y2="724.3964" gradientTransform="matrix(0 20.2133 20.2133 0 -14417.1992 4375.2251)">
		<stop  offset="0" style="stop-color:#00ABE6"/>
		<stop  offset="5.645210e-002" style="stop-color:#05A2DF"/>
		<stop  offset="0.2168" style="stop-color:#0F8ECF"/>
		<stop  offset="0.3997" style="stop-color:#1680C4"/>
		<stop  offset="0.6228" style="stop-color:#1A77BE"/>
		<stop  offset="1" style="stop-color:#1B75BC"/>
	</linearGradient>
	<rect x="210.6" y="263.1" class="st21" width="29.3" height="96.8"/>
</g>
<g>
	<defs>
		<path id="SVGID_67_" d="M248.6,262.8v105.3c0,5.2,4.3,9.5,9.5,9.5h10.3c5.2,0,9.5-4.2,9.5-9.5V262.2
			C268.1,262.2,258.3,262.4,248.6,262.8"/>
	</defs>
	<clipPath id="SVGID_68_">
		<use xlink:href="#SVGID_67_"  style="overflow:visible;"/>
	</clipPath>
	
		<linearGradient id="SVGID_69_" gradientUnits="userSpaceOnUse" x1="-200.6508" y1="723.3003" x2="-195.8646" y2="723.3003" gradientTransform="matrix(0 24.1086 24.1086 0 -17174.4746 5099.5591)">
		<stop  offset="0" style="stop-color:#00ABE6"/>
		<stop  offset="5.645210e-002" style="stop-color:#05A2DF"/>
		<stop  offset="0.2168" style="stop-color:#0F8ECF"/>
		<stop  offset="0.3997" style="stop-color:#1680C4"/>
		<stop  offset="0.6228" style="stop-color:#1A77BE"/>
		<stop  offset="1" style="stop-color:#1B75BC"/>
	</linearGradient>
	<rect x="248.6" y="262.2" class="st22" width="29.3" height="115.4"/>
</g>
<g>
	<defs>
		<path id="SVGID_70_" d="M286.6,262.1v88.3c0,5.2,4.3,9.5,9.5,9.5h10.3c5.3,0,9.5-4.2,9.5-9.5v-88c-8.2-0.1-16.5-0.2-24.9-0.2
			C289.6,262.1,288.1,262.1,286.6,262.1"/>
	</defs>
	<clipPath id="SVGID_71_">
		<use xlink:href="#SVGID_70_"  style="overflow:visible;"/>
	</clipPath>
	
		<linearGradient id="SVGID_72_" gradientUnits="userSpaceOnUse" x1="-203.3026" y1="727.1984" x2="-198.5161" y2="727.1984" gradientTransform="matrix(0 20.4172 20.4172 0 -14546.0703 4412.9502)">
		<stop  offset="0" style="stop-color:#00ABE6"/>
		<stop  offset="5.645210e-002" style="stop-color:#05A2DF"/>
		<stop  offset="0.2168" style="stop-color:#0F8ECF"/>
		<stop  offset="0.3997" style="stop-color:#1680C4"/>
		<stop  offset="0.6228" style="stop-color:#1A77BE"/>
		<stop  offset="1" style="stop-color:#1B75BC"/>
	</linearGradient>
	<rect x="286.6" y="262.1" class="st23" width="29.3" height="97.7"/>
</g>
<g>
	<defs>
		<path id="SVGID_73_" d="M324.6,350.3c0,5.2,4.3,9.5,9.5,9.5h10.3c5.3,0,9.5-4.2,9.5-9.5v-86.8c-9.7-0.5-19.5-0.8-29.3-1.1V350.3z"
			/>
	</defs>
	<clipPath id="SVGID_74_">
		<use xlink:href="#SVGID_73_"  style="overflow:visible;"/>
	</clipPath>
	
		<linearGradient id="SVGID_75_" gradientUnits="userSpaceOnUse" x1="-203.3614" y1="728.7532" x2="-198.5748" y2="728.7532" gradientTransform="matrix(0 20.3289 20.3289 0 -14475.4277 4396.6113)">
		<stop  offset="0" style="stop-color:#00ABE6"/>
		<stop  offset="5.645210e-002" style="stop-color:#05A2DF"/>
		<stop  offset="0.2168" style="stop-color:#0F8ECF"/>
		<stop  offset="0.3997" style="stop-color:#1680C4"/>
		<stop  offset="0.6228" style="stop-color:#1A77BE"/>
		<stop  offset="1" style="stop-color:#1B75BC"/>
	</linearGradient>
	<rect x="324.6" y="262.5" class="st24" width="29.3" height="97.3"/>
</g>
<g>
	<defs>
		<path id="SVGID_76_" d="M362.7,368.1c0,5.2,4.3,9.5,9.5,9.5h10.3c5.3,0,9.5-4.2,9.5-9.5V265.9c-9.7-0.8-19.4-1.4-29.4-1.9V368.1z"
			/>
	</defs>
	<clipPath id="SVGID_77_">
		<use xlink:href="#SVGID_76_"  style="overflow:visible;"/>
	</clipPath>
	
		<linearGradient id="SVGID_78_" gradientUnits="userSpaceOnUse" x1="-200.8275" y1="727.3228" x2="-196.0414" y2="727.3228" gradientTransform="matrix(0 23.7226 23.7226 0 -16876.6777 5028.1636)">
		<stop  offset="0" style="stop-color:#00ABE6"/>
		<stop  offset="5.645210e-002" style="stop-color:#05A2DF"/>
		<stop  offset="0.2168" style="stop-color:#0F8ECF"/>
		<stop  offset="0.3997" style="stop-color:#1680C4"/>
		<stop  offset="0.6228" style="stop-color:#1A77BE"/>
		<stop  offset="1" style="stop-color:#1B75BC"/>
	</linearGradient>
	<rect x="362.7" y="264" class="st25" width="29.4" height="113.5"/>
</g>
<g>
	<defs>
		<path id="SVGID_79_" d="M400.7,350.3c0,5.2,4.3,9.5,9.5,9.5h10.3c5.3,0,9.5-4.2,9.5-9.5v-80.8c-9.6-1.1-19.4-2-29.4-2.9V350.3z"/>
	</defs>
	<clipPath id="SVGID_80_">
		<use xlink:href="#SVGID_79_"  style="overflow:visible;"/>
	</clipPath>
	
		<linearGradient id="SVGID_81_" gradientUnits="userSpaceOnUse" x1="-203.9663" y1="732.6852" x2="-199.1797" y2="732.6852" gradientTransform="matrix(0 19.4617 19.4617 0 -13843.9209 4236.1792)">
		<stop  offset="0" style="stop-color:#00ABE6"/>
		<stop  offset="5.645210e-002" style="stop-color:#05A2DF"/>
		<stop  offset="0.2168" style="stop-color:#0F8ECF"/>
		<stop  offset="0.3997" style="stop-color:#1680C4"/>
		<stop  offset="0.6228" style="stop-color:#1A77BE"/>
		<stop  offset="1" style="stop-color:#1B75BC"/>
	</linearGradient>
	<rect x="400.7" y="266.7" class="st26" width="29.4" height="93.2"/>
</g>
<g>
	<defs>
		<path id="SVGID_82_" d="M438.7,350.3c0,5.2,4.3,9.5,9.5,9.5h10.3c5.2,0,9.5-4.2,9.5-9.5v-75.9c-9.6-1.4-19.4-2.7-29.3-3.9V350.3z"
			/>
	</defs>
	<clipPath id="SVGID_83_">
		<use xlink:href="#SVGID_82_"  style="overflow:visible;"/>
	</clipPath>
	
		<linearGradient id="SVGID_84_" gradientUnits="userSpaceOnUse" x1="-204.5834" y1="735.2902" x2="-199.7968" y2="735.2902" gradientTransform="matrix(0 18.65 18.65 0 -13259.7715 4086.0183)">
		<stop  offset="0" style="stop-color:#00ABE6"/>
		<stop  offset="5.645210e-002" style="stop-color:#05A2DF"/>
		<stop  offset="0.2168" style="stop-color:#0F8ECF"/>
		<stop  offset="0.3997" style="stop-color:#1680C4"/>
		<stop  offset="0.6228" style="stop-color:#1A77BE"/>
		<stop  offset="1" style="stop-color:#1B75BC"/>
	</linearGradient>
	<rect x="438.7" y="270.5" class="st27" width="29.3" height="89.3"/>
</g>
<g>
	<defs>
		<path id="SVGID_85_" d="M476.7,368.1c0,5.2,4.3,9.5,9.5,9.5h10.3c5.3,0,9.5-4.2,9.5-9.5v-87.2c-9.5-1.8-19.3-3.5-29.3-5.1V368.1z"
			/>
	</defs>
	<clipPath id="SVGID_86_">
		<use xlink:href="#SVGID_85_"  style="overflow:visible;"/>
	</clipPath>
	
		<linearGradient id="SVGID_87_" gradientUnits="userSpaceOnUse" x1="-202.1028" y1="733.5799" x2="-197.3166" y2="733.5799" gradientTransform="matrix(0 21.2664 21.2664 0 -15109.1836 4573.7593)">
		<stop  offset="0" style="stop-color:#00ABE6"/>
		<stop  offset="5.645210e-002" style="stop-color:#05A2DF"/>
		<stop  offset="0.2168" style="stop-color:#0F8ECF"/>
		<stop  offset="0.3997" style="stop-color:#1680C4"/>
		<stop  offset="0.6228" style="stop-color:#1A77BE"/>
		<stop  offset="1" style="stop-color:#1B75BC"/>
	</linearGradient>
	<rect x="476.7" y="275.8" class="st28" width="29.3" height="101.8"/>
</g>
<g>
	<defs>
		<path id="SVGID_88_" d="M514.8,350.3c0,5.2,4.3,9.5,9.5,9.5h10.3c5.3,0,9.5-4.2,9.5-9.5V289c-9.5-2.3-19.2-4.4-29.3-6.5V350.3z"/>
	</defs>
	<clipPath id="SVGID_89_">
		<use xlink:href="#SVGID_88_"  style="overflow:visible;"/>
	</clipPath>
	
		<linearGradient id="SVGID_90_" gradientUnits="userSpaceOnUse" x1="-206.8814" y1="742.9619" x2="-202.0948" y2="742.9619" gradientTransform="matrix(0 16.143 16.143 0 -11464.1592 3622.2158)">
		<stop  offset="0" style="stop-color:#00ABE6"/>
		<stop  offset="5.645210e-002" style="stop-color:#05A2DF"/>
		<stop  offset="0.2168" style="stop-color:#0F8ECF"/>
		<stop  offset="0.3997" style="stop-color:#1680C4"/>
		<stop  offset="0.6228" style="stop-color:#1A77BE"/>
		<stop  offset="1" style="stop-color:#1B75BC"/>
	</linearGradient>
	<rect x="514.8" y="282.5" class="st29" width="29.3" height="77.3"/>
</g>
<g>
	<defs>
		<path id="SVGID_91_" d="M552.8,368.1c0,5.2,4.3,9.5,9.5,9.5h10.3c5.3,0,9.5-4.2,9.5-9.5v-68.7c-9.4-2.9-19.2-5.7-29.3-8.3V368.1z"
			/>
	</defs>
	<clipPath id="SVGID_92_">
		<use xlink:href="#SVGID_91_"  style="overflow:visible;"/>
	</clipPath>
	
		<linearGradient id="SVGID_93_" gradientUnits="userSpaceOnUse" x1="-204.2988" y1="741.1375" x2="-199.5126" y2="741.1375" gradientTransform="matrix(0 18.0484 18.0484 0 -12808.8662 3978.429)">
		<stop  offset="0" style="stop-color:#00ABE6"/>
		<stop  offset="5.645210e-002" style="stop-color:#05A2DF"/>
		<stop  offset="0.2168" style="stop-color:#0F8ECF"/>
		<stop  offset="0.3997" style="stop-color:#1680C4"/>
		<stop  offset="0.6228" style="stop-color:#1A77BE"/>
		<stop  offset="1" style="stop-color:#1B75BC"/>
	</linearGradient>
	<rect x="552.8" y="291.2" class="st30" width="29.3" height="86.4"/>
</g>
<g>
	<defs>
		<path id="SVGID_94_" d="M590.8,350.3c0,5.2,4.3,9.5,9.5,9.5h10.3c5.2,0,9.5-4.2,9.5-9.5v-37.4c-9.2-3.8-18.9-7.4-29.3-10.8V350.3z
			"/>
	</defs>
	<clipPath id="SVGID_95_">
		<use xlink:href="#SVGID_94_"  style="overflow:visible;"/>
	</clipPath>
	
		<linearGradient id="SVGID_96_" gradientUnits="userSpaceOnUse" x1="-212.7101" y1="759.2363" x2="-207.9236" y2="759.2363" gradientTransform="matrix(0 12.0383 12.0383 0 -8534.4258 2862.8577)">
		<stop  offset="0" style="stop-color:#00ABE6"/>
		<stop  offset="5.645210e-002" style="stop-color:#05A2DF"/>
		<stop  offset="0.2168" style="stop-color:#0F8ECF"/>
		<stop  offset="0.3997" style="stop-color:#1680C4"/>
		<stop  offset="0.6228" style="stop-color:#1A77BE"/>
		<stop  offset="1" style="stop-color:#1B75BC"/>
	</linearGradient>
	<rect x="590.8" y="302.2" class="st31" width="29.3" height="57.6"/>
</g>
<g>
	<path d="M47.8,424.4c-0.7,1.3-1.8,2.4-3.2,3.2c-1.4,0.8-3,1.3-5,1.7c-2,0.3-4.2,0.5-6.7,0.5h-5.5v-20.3c1.6-0.2,4-0.2,7.1-0.2
		c1.9,0,3.8,0.2,5.5,0.4c1.7,0.3,3.3,0.8,4.6,1.6c1.3,0.8,2.4,1.8,3.1,3.1c0.8,1.3,1.2,2.9,1.2,4.9C49,421.4,48.6,423.1,47.8,424.4
		 M50.7,407c-3.9-2.8-9.5-4.2-16.8-4.2c-2.1,0-4.4,0.1-6.9,0.3c-2.5,0.2-4.8,0.5-6.8,1v51.1h7.3V436h5.8c3.6,0,6.9-0.3,9.8-0.9
		c2.9-0.6,5.3-1.6,7.4-2.9c2-1.3,3.6-3,4.6-5.2c1.1-2.1,1.6-4.7,1.6-7.7C56.6,413.9,54.6,409.7,50.7,407"/>
</g>
<polygon points="70.6,403.3 63.3,403.3 63.3,455.2 94.5,455.2 94.5,448.9 70.6,448.9 "/>
<g>
	<path d="M131,435.1c0,2.6-0.3,4.8-0.9,6.7c-0.6,1.9-1.5,3.4-2.6,4.6c-1.1,1.2-2.4,2.1-3.9,2.7c-1.5,0.6-3.2,0.9-5,0.9
		c-3.7,0-6.7-1.2-9-3.5c-2.3-2.3-3.4-6.1-3.4-11.3v-31.7h-7.3v32.5c0,2.9,0.4,5.6,1.2,8.1c0.8,2.5,2,4.6,3.6,6.5
		c1.6,1.8,3.6,3.2,6.1,4.3c2.5,1,5.4,1.6,8.8,1.6c3.4,0,6.3-0.5,8.8-1.6c2.5-1,4.5-2.5,6.1-4.3c1.6-1.8,2.8-4,3.6-6.5
		c0.8-2.5,1.2-5.2,1.2-8.1v-32.5H131V435.1z"/>
</g>
<rect x="197.8" y="403.3" width="7.3" height="51.8"/>
<g>
	<path d="M250.7,441.7c-1.6-2.6-3.5-5.7-5.9-9.1c-2.3-3.4-4.8-6.8-7.4-10.4c-2.6-3.5-5.3-6.9-7.9-10.2c-2.7-3.3-5.2-6.2-7.5-8.7
		h-5.8v51.8h7.1v-40.5c1.4,1.6,2.9,3.4,4.6,5.5c1.6,2.1,3.3,4.3,5.1,6.7c1.7,2.4,3.5,4.8,5.3,7.4c1.8,2.5,3.5,5,5.1,7.5
		c1.6,2.5,3.2,4.9,4.6,7.1c1.4,2.3,2.7,4.4,3.8,6.2h6.1v-51.8h-7.1V441.7z"/>
	<path d="M308.2,436c1.5-4.3,3.1-8.5,4.7-12.6c1.6-4.1,3.2-8,5-11.7c1.7,3.7,3.3,7.6,4.9,11.7c1.6,4.1,3.1,8.3,4.7,12.6H308.2z
		 M331.5,426.7c-1.7-4.2-3.3-8.2-5-12c-1.6-3.8-3.4-7.6-5.2-11.3h-6.7c-1.8,3.7-3.5,7.5-5.2,11.3c-1.6,3.8-3.3,7.8-5,12
		c-1.7,4.2-3.4,8.6-5.1,13.3c-1.8,4.7-3.6,9.7-5.6,15.2h7.6l4.7-13.2h23.5c0.8,2.2,1.6,4.5,2.3,6.6c0.7,2.2,1.5,4.4,2.4,6.6h7.9
		c-2-5.5-3.9-10.5-5.6-15.2C334.9,435.3,333.1,430.9,331.5,426.7"/>
</g>
<polygon points="355.2,403.3 348,403.3 348,455.2 379.1,455.2 379.1,448.9 355.2,448.9 "/>
<polygon points="392.4,403.3 385.2,403.3 385.2,455.2 416.4,455.2 416.4,448.9 392.4,448.9 "/>
<rect x="422.4" y="403.3" width="7.3" height="51.8"/>
<g>
	<path d="M449.8,436c1.5-4.3,3.1-8.5,4.7-12.6c1.6-4.1,3.2-8,5-11.7c1.7,3.7,3.3,7.6,4.9,11.7c1.6,4.1,3.2,8.3,4.7,12.6H449.8z
		 M473.1,426.7c-1.7-4.2-3.3-8.2-5-12c-1.6-3.8-3.4-7.6-5.2-11.3h-6.7c-1.8,3.7-3.5,7.5-5.2,11.3c-1.6,3.8-3.3,7.8-5,12
		c-1.7,4.2-3.4,8.6-5.1,13.3c-1.8,4.7-3.6,9.7-5.6,15.2h7.6l4.7-13.2h23.5c0.8,2.2,1.6,4.5,2.3,6.6c0.7,2.2,1.5,4.4,2.4,6.6h7.9
		c-2-5.5-3.9-10.5-5.6-15.2C476.4,435.3,474.7,430.9,473.1,426.7"/>
	<path d="M524,441.7c-1.6-2.6-3.6-5.7-5.9-9.1c-2.3-3.4-4.8-6.8-7.4-10.4c-2.6-3.5-5.3-6.9-7.9-10.2c-2.7-3.3-5.2-6.2-7.5-8.7h-5.8
		v51.8h7.1v-40.5c1.4,1.6,2.9,3.4,4.6,5.5c1.6,2.1,3.3,4.3,5.1,6.7c1.7,2.4,3.5,4.8,5.3,7.4c1.8,2.5,3.5,5,5.1,7.5
		c1.6,2.5,3.2,4.9,4.6,7.1c1.4,2.3,2.7,4.4,3.8,6.2h6.1v-51.8H524V441.7z"/>
	<path d="M573.4,448.9c-2.2,0.7-5,1-8.3,1c-2.9,0-5.4-0.5-7.6-1.5c-2.2-1-4-2.4-5.4-4.2c-1.4-1.8-2.5-4-3.2-6.5
		c-0.7-2.5-1.1-5.4-1.1-8.4c0-3.2,0.4-6.1,1.2-8.6c0.8-2.6,2-4.7,3.6-6.5c1.5-1.8,3.4-3.2,5.6-4.1c2.2-1,4.7-1.4,7.4-1.4
		c1.3,0,2.6,0.1,3.9,0.3c1.3,0.2,2.4,0.5,3.5,0.9c1.1,0.3,2,0.7,2.9,1c0.8,0.3,1.5,0.7,1.9,1l2.1-6c-0.3-0.2-0.8-0.5-1.6-0.9
		c-0.8-0.4-1.8-0.8-3.1-1.2c-1.3-0.4-2.8-0.8-4.5-1c-1.7-0.3-3.7-0.4-5.8-0.4c-3.4,0-6.6,0.6-9.6,1.8c-3,1.2-5.6,2.9-7.9,5.2
		c-2.2,2.3-4,5.1-5.4,8.5c-1.3,3.4-2,7.2-2,11.6c0,4.3,0.6,8.2,1.8,11.6c1.2,3.4,2.8,6.2,5,8.5c2.1,2.3,4.7,4,7.7,5.2
		c3,1.2,6.3,1.8,9.9,1.8c2.1,0,4-0.1,5.8-0.4c1.8-0.3,3.4-0.5,4.7-0.9c1.3-0.3,2.5-0.7,3.4-1.1c0.9-0.4,1.5-0.7,1.9-0.9l-1.9-6
		C577.2,447.6,575.6,448.2,573.4,448.9"/>
</g>
<polygon points="593.8,449 593.8,431 615.5,431 615.5,425 593.8,425 593.8,409.6 618.1,409.6 618.1,403.3 586.5,403.3 586.5,455.2 
	620,455.2 620,449 "/>
<g>
	<path d="M172.5,430.8h7.9V449c-0.7,0.2-1.7,0.4-3.2,0.6c-1.5,0.2-3.3,0.3-5.3,0.3c-3,0-5.5-0.5-7.7-1.5c-2.2-1-4-2.4-5.5-4.2
		c-1.5-1.8-2.6-4-3.3-6.5c-0.7-2.5-1.1-5.4-1.1-8.5c0-3.2,0.4-6.1,1.3-8.6c0.8-2.6,2-4.7,3.6-6.5c1.5-1.8,3.4-3.2,5.5-4.1
		c2.2-1,4.6-1.4,7.2-1.4c2.5,0,4.9,0.3,7.3,0.9s4.3,1.4,5.8,2.4l2.3-6.1c-0.3-0.2-0.9-0.5-1.7-0.9c-0.8-0.4-1.9-0.8-3.2-1.2
		c-1.3-0.4-2.9-0.8-4.7-1c-1.8-0.3-3.9-0.4-6.2-0.4c-3.4,0-6.7,0.6-9.7,1.8c-3,1.2-5.6,2.9-7.9,5.2c-2.2,2.3-4,5.1-5.3,8.5
		c-1.3,3.4-2,7.2-2,11.6c0,4.3,0.6,8.2,1.8,11.5c1.2,3.3,2.8,6.2,5,8.5c2.1,2.3,4.7,4,7.7,5.2c3,1.2,6.3,1.8,10,1.8
		c1.8,0,3.6-0.1,5.3-0.3c1.7-0.2,3.4-0.4,4.8-0.6c1.5-0.2,2.8-0.5,3.9-0.7c1.1-0.2,2-0.5,2.6-0.7v-23.1v-6.1h-15.2V430.8z"/>
</g>
</svg>
