<svg xmlns="http://www.w3.org/2000/svg" viewBox="0 0 1599.07 750.64">
  <path
    d="M1599.07 377.14v10.99c-.21 2.63-.6 5.27-.6 7.9-.05 45.29-5.57 90.02-16.19 133.94-13.27 54.89-27.99 109.44-41.86 164.19-1.26 4.96-2.94 6.71-8.42 6.71-320.93-.17-641.85-.16-962.78-.09-3.77 0-7.62.56-11.28 1.48-44.64 11.23-89.13 23.14-133.92 33.73-37 8.75-74.68 13.23-112.77 13.65-8.79.1-17.57.66-26.35 1.01h-40.97c-1.76-.32-3.52-.8-5.3-.93-29.73-2.21-59.46-4.95-88.47-11.85-48.83-11.61-97.4-24.35-146.11-36.46-3.65-.91-4.03-2.79-4.03-5.94C.07 481.93.08 268.41 0 54.88c0-3.5.76-5.15 4.49-6.1 23.84-6.07 47.61-12.4 71.38-18.73C136.61 13.87 197.84 1.16 261.11.16c52.94-.84 105.62 1.43 157.33 13.21 43.58 9.92 86.71 21.81 130.07 32.7 5.59 1.4 11.37 2.74 17.09 2.88 16.81.41 33.64.21 50.46.23 305.44.29 610.88.59 916.31.83 3.71 0 6.32 0 7.55 4.73 9.75 37.63 19.87 75.16 29.79 112.75 17.71 67.12 30.5 134.94 28.76 204.79-.04 1.61.39 3.24.6 4.86zm-538.71-2h487.15c1.33 0 2.69-.15 3.99.03 3.24.46 3.79-1.06 3.77-3.99-.34-51.09-5.48-101.62-17.89-151.25-10.12-40.45-20.87-80.75-31.13-121.16-1.04-4.12-2.59-5.36-6.87-5.36-309.28.11-618.56.11-927.84-.01-4.81 0-5.97 1.12-5.96 5.94.16 89.71.12 179.41.12 269.12 0 6.68 0 6.68 6.49 6.68h488.17zM95.88 122.02c2.07-.66 4.22-1.43 6.41-2.03 49.87-13.6 100.33-23.83 152.12-26.33 3.83-.18 4.64-1.42 4.58-4.99-.22-11.98-.26-23.97.02-35.95.1-4.07-.83-5.67-5.13-5.2-27.11 2.95-54.62 3.83-81.26 9.09-40.4 7.97-80.2 19-120.29 28.6-3.65.87-5.43 1.8-5.43 6.3.2 182.75.2 365.51.27 548.26 0 6.82.49 13.64.52 20.46.02 3.09 1.35 4.28 4.25 4.99 11.3 2.79 22.54 5.79 33.78 8.83 54.87 14.84 110.26 26.68 167.29 29.27 4.56.21 5.78-1.01 5.75-5.26-.1-12.31-.06-24.63.23-36.95.09-3.66-1.3-4.32-4.57-4.46-40.56-1.65-80.39-8.26-119.75-17.95-13.13-3.23-26.22-6.66-40.78-10.37 3.98-1.56 6.57-2.58 9.16-3.59 10.27-4.03 20.33-8.53 28.09-16.65 3.62-3.79 6.92-7.84 6.91-13.82-.11-66.74-.06-133.49-.09-200.23 0-1.62 0-3.44-.68-4.84-4.11-8.58-8.67-16.87-16.2-23.1-4.49-3.72-8.85-7.61-13.26-11.42.13-.21.27-.42.4-.63 57.08 25.09 114.15 50.18 172.52 75.85-2.96 1.25-4.37 2.02-5.88 2.45-9.37 2.64-14.27 8.48-13.75 18.5.16 3.15-.21 6.32-.21 9.48.02 28.63.03 57.25.14 85.88.02 6.15.21 12.32.69 18.45.83 10.7 11.27 19.46 22.48 19.16 11.28-.3 21.67-9.44 21.7-19.99.13-48.76.09-97.52-.22-146.28-.02-2.99-2.41-6.37-4.57-8.8-1.89-2.13-4.9-3.38-7.59-4.66-35.47-16.76-71.01-33.38-106.45-50.2-13.36-6.34-26.62-12.89-39.75-19.7-6.59-3.41-9.62-9.26-9.38-16.83.2-6.48.07-12.98.04-19.47-.27-45.93-.71-91.87-.72-137.8 0-10.79-4.03-18.68-13.34-23.72-9.16-4.93-18.53-9.49-28.05-14.35zm188.91 152.34c19.31-7.75 19.83-8.51 20.02-27.75.01-.83.02-1.66.02-2.5-.12-18.31-.47-36.61-.24-54.91.08-6.2-2.26-10.94-6.05-15.27-6.05-6.92-15.99-9.25-24.63-5.95-8.75 3.34-14.53 11.4-14.57 20.56-.12 29.46-.02 58.91-.37 88.36-.11 9.24 3.26 15.43 11.74 19.38 28.17 13.13 56.22 26.53 84.33 39.78 19.69 9.28 39.42 18.49 59.13 27.73 8.96 4.2 12.86 10.52 12.86 21.12 0 69.39.81 138.79 1.03 208.18.02 6.71 2.42 11.42 6.91 15.72 8.62 8.26 19.33 12.77 30.26 16.91 1.81.69 3.59 1.45 5.38 2.18v1.38c-25.56 5.86-51.03 12.17-76.71 17.47-27.9 5.76-56.17 9.13-84.68 9.94-3.5.1-4.47 1.15-4.42 4.59.19 12.81.15 25.63.02 38.44-.03 2.86.39 4.23 3.78 3.88 24.15-2.56 48.44-4.14 72.46-7.6 45.35-6.52 89.3-19.39 133.51-30.99 3.48-.91 4.25-2.44 4.24-5.8-.16-188.55-.26-377.1-.2-565.65 0-5.39-1.33-7.58-6.83-8.94-44.05-10.88-87.54-24.28-132.63-30.4-23.05-3.13-46.34-4.43-69.5-6.69-4.09-.4-4.93 1.16-4.86 4.95.23 11.98.22 23.96.01 35.94-.07 3.72.81 4.88 4.81 5.29 25.31 2.61 50.75 4.62 75.81 8.82 23.72 3.98 47.04 10.36 70.51 15.79 4.66 1.08 9.22 2.61 13.83 3.93-1.62 1.48-3.04 1.92-4.44 2.41-11.68 4.13-22.88 9.11-31.66 18.28-3.7 3.86-5.52 8.07-5.49 13.77.24 50.09.31 100.18-.03 150.27-.05 8.25 2.41 14.92 7.28 21.07 2.37 3 4.82 5.98 7.59 8.6 4.74 4.5 9.75 8.72 14.65 13.06-.09.17-.18.34-.27.5-57.09-25.09-114.18-50.18-172.6-75.85zM1313.51 591.4c-1.55-2.5-2.44-3.82-3.22-5.19-17.39-30.85-34.74-61.71-52.16-92.54-2.84-5.04-4.87-11.77-9.25-14.35-4.42-2.6-11.34-.77-17.11-1.33-3.48-.34-4.96 1.24-6.46 3.98-9.36 17.05-18.85 34.03-28.36 50.99-10.82 19.28-21.73 38.51-32.55 57.79-2.55 4.53-2.39 4.79 2.8 4.93 5.49.14 11.01.4 16.47.02 1.84-.12 4.25-1.59 5.21-3.17 3.64-5.95 6.96-12.11 10.07-18.36 1.32-2.65 3-3.36 5.81-3.35 22.82.1 45.63.1 68.45 0 2.67-.01 4.17.72 5.41 3.18 3.05 6.09 6.62 11.92 9.65 18.02 1.45 2.93 3.2 3.92 6.52 3.91 34.98-.14 69.95-.07 104.93-.1 5.29-.01 10.59-.24 15.88-.37.19-5.43.21-10.88.65-16.29.29-3.6-1.01-4.39-4.45-4.37-23.48.15-46.97-.03-70.45.18-4.12.04-5.25-.96-5.22-5.16.2-29.12.05-58.25.18-87.38.01-3.35-.64-4.79-4.32-4.51-4.31.33-8.68.38-12.98-.01-4.12-.37-4.85 1.25-4.85 5 0 33.95-.2 67.9-.36 101.86 0 1.76-.15 3.52-.29 6.62zM975.3 532.93c-11.33 0-22.65.11-33.97-.07-3.07-.05-4.12.8-3.91 3.9.26 3.81.3 7.67-.01 11.47-.3 3.63.71 4.84 4.58 4.77 13.49-.26 26.98-.1 40.47-.1 9.48 0 9.48 0 7.99 9.54-1.24 7.95-3.95 10.84-11.79 11.72-23.43 2.64-46.87 1.28-70.29-.32-4.57-.31-8-2.31-8.04-7.64-.16-18.26-.7-36.53-.32-54.78.19-8.73 2.41-11.01 11.29-11.37 20.59-.83 41.22-1.03 61.84-.99 14.78.02 16.38 1.83 17.19 16.66.15 2.71 1.05 3.35 3.54 3.27 4.99-.15 10-.25 14.98.03 3.34.19 4.02-1.18 3.61-4.06-.69-4.77-.96-9.61-1.94-14.31-2.86-13.69-9.68-20.1-23.63-21.74-26.59-3.12-53.24-2.18-79.76.49-17.19 1.73-24.75 8.91-27.98 25.59-4.15 21.41-3.91 43.05-.19 64.53 2.26 13.03 10.03 21.64 23.28 24.24 6.81 1.34 13.82 2.24 20.75 2.32 19.96.24 39.96.68 59.88-.33 16.5-.83 25.77-8.92 28.18-23.95 1.85-11.56 1.65-23.44 2.44-35.17.22-3.23-1.38-3.79-4.21-3.75-11.33.13-22.65.05-33.98.05zm-288.66 4.16c0 18.29.05 36.58-.05 54.87-.01 2.79.37 4.15 3.72 4.09 31.6-.55 63.2-.69 94.79-1.46 18.33-.45 28.94-9.27 33.51-27 4.25-16.49 3.56-33.29 2.29-50.07-.67-8.86-2.47-17.5-7.85-24.86-8.2-11.21-20.29-13.92-33.12-14.09-29.78-.38-59.56-.35-89.34-.66-3.49-.04-4.03 1.24-4.01 4.3.12 18.3.06 36.59.06 54.88zm430.08-59.08c-19.3 0-38.61.08-57.91-.08-3.41-.03-4.76.73-4.47 4.35.32 4.13.23 8.32.02 12.46-.16 3.04.47 4.37 3.99 4.32 14.14-.21 28.29.05 42.43-.18 3.71-.06 4.72.89 4.69 4.66-.18 25.11-.11 50.22-.08 75.33.01 5.46.23 10.91.35 16.37 5.59.2 11.2.21 16.77.68 3.92.33 4.97-.94 4.95-4.88-.18-28.93.03-57.87-.22-86.8-.04-4.57 1.3-5.44 5.54-5.36 14.14.27 28.29.01 42.43.17 3.2.04 4.42-.77 4.19-4.12-.28-4.14-.37-8.34.02-12.46.37-3.98-1.27-4.57-4.79-4.54-19.31.16-38.61.08-57.91.08zm-257.19 59.44c0-18.46-.08-36.92.07-55.38.03-3.29-.93-4.33-4.18-4.13-4.31.26-8.67.3-12.97-.01-3.81-.28-5.04.78-5.01 4.84.2 24.94.1 49.89.1 74.84 0 11.48.11 22.95-.07 34.42-.05 3.11.87 4.05 3.93 3.88 4.48-.25 9-.3 13.47.01 3.64.26 4.8-.73 4.76-4.59-.22-17.96-.1-35.92-.1-53.88zm190.88-.26c0-18.29-.1-36.59.08-54.88.04-3.55-.97-4.61-4.45-4.38-4.47.3-8.99.26-13.47.01-3.19-.18-4.29.72-4.23 4.09.21 11.14.08 22.28.08 33.43 0 25.28.09 50.56-.09 75.84-.03 3.78 1 4.93 4.71 4.63 4.13-.33 8.33-.32 12.47 0 3.83.29 5.05-.8 5-4.85-.23-17.96-.1-35.93-.1-53.89z" />
  <path
    d="M870.52 237.9c0-18.13.08-36.27-.07-54.4-.03-3.25.86-4.34 4.16-4.16 4.98.27 10.02.41 14.97-.03 4.49-.4 5.04 1.46 5.01 5.35-.16 28.78.03 57.57-.21 86.35-.04 4.53 1.24 5.42 5.52 5.38 24.47-.21 48.95-.17 73.42-.02 3.41.02 5.3-1.02 7.03-3.97 17.23-29.4 34.66-58.68 51.87-88.09 1.9-3.25 3.91-4.87 7.8-4.67 4.81.25 9.66-.35 14.47-.06 1.76.1 4.17 1.24 5.03 2.66 22.13 36.93 44.1 73.94 66.06 110.97 2.81 4.74 2.7 4.89-2.89 4.99-5.99.11-12 .23-17.97-.07-1.58-.08-3.67-1.34-4.53-2.69-3.92-6.17-7.31-12.67-11.28-18.81-1.02-1.58-3.44-3.19-5.23-3.2-24.47-.21-48.95-.2-73.42-.01-1.67.01-3.94 1.45-4.87 2.91-3.84 6.02-7.11 12.4-10.96 18.42-.94 1.47-3.27 2.91-4.98 2.93-38.12.32-76.25.37-114.38.67-4.56.04-4.21-2.83-4.24-5.53-.17-15.8-.22-31.61-.31-47.41-.01-2.52 0-5.02 0-7.51zm203.36 13.58c-9.12-15.51-17.89-30.42-26.95-45.84-1.3 1.91-2.3 3.21-3.12 4.61-7.13 12.16-14.23 24.33-21.32 36.51-2.91 4.99-2.78 5.32 2.94 5.35 14.28.07 28.56.04 42.85 0 1.6-.01 3.21-.35 5.6-.63zM790.35 299.74c-13.81-1.17-26.96-1.78-39.96-3.51-16.01-2.12-23.45-9.71-26.26-25.51-.87-4.89-.98-9.92-1.54-14.87-.27-2.4.16-3.69 3.05-3.59 5.82.19 11.66.16 17.49.01 2.62-.07 3.5.88 3.52 3.44.04 3.82.37 7.63.68 11.44.33 3.97 2.5 6.63 6.46 7.13 7.41.94 14.85 2.16 22.28 2.17 13.96.02 27.96-.21 41.86-1.33 11.91-.96 15.2-6.11 13.42-17.84-.67-4.41-2.9-6.98-7.5-7.11-12.81-.36-25.63-.47-38.42-1.08-13.28-.64-26.61-1.14-39.78-2.83-13.38-1.72-22-12.56-22.2-25.98-.03-2.16-.05-4.33.01-6.49.5-17.97 9.1-28.78 26.71-32.03 25.43-4.69 51.02-4.09 76.56-.65 13.67 1.84 21.73 10.03 24.87 23.15 1.07 4.5 1.29 9.19 1.94 13.79.38 2.68-.81 3.42-3.38 3.35-5.83-.16-11.66-.14-17.49-.01-2.34.05-3.25-.65-3.16-3.09.64-16.14-3.71-16.2-16.97-16.66-17.41-.61-34.88.31-52.31.72-2.27.05-4.54.95-6.78 1.55-3.91 1.05-5.7 3.78-5.82 7.71-.03 1-.03 2-.03 3-.01 8.94 2.14 11.44 10.97 11.77 13.97.52 27.95.69 41.92 1.15 9.48.31 19.01.31 28.4 1.43 16.97 2.02 24.36 9.71 26.01 26.73.57 5.89.39 12.04-.66 17.85-2.46 13.58-12.05 20.57-24.81 22.53-13.11 2.01-26.45 2.53-39.08 3.66zM1304.57 298.24c-18.31 0-36.63-.09-54.94.08-3.49.03-4.44-.89-4.43-4.41.13-36.77.14-73.53-.01-110.3-.01-3.66 1.2-4.33 4.54-4.28 36.45.47 72.91.84 109.36 1.11 3.26.02 4.39.97 4.18 4.25-.27 4.14-.32 8.33.01 12.47.3 3.71-1.23 4.3-4.54 4.28-28.13-.12-56.27.03-84.41-.17-4.18-.03-5.48 1.05-5.16 5.21.38 4.96.33 9.99.01 14.96-.24 3.81.8 5.03 4.85 5 26.64-.2 53.27.03 79.91-.23 4.57-.04 5.71 1.28 5.34 5.54-.43 4.94 1.64 12.06-.89 14.33-2.92 2.63-9.67 1.18-14.76 1.19-23.31.07-46.62.09-69.92-.04-3.34-.02-4.7.62-4.54 4.3.3 6.81.29 13.65 0 20.46-.15 3.6 1.06 4.37 4.48 4.36 28.47-.13 56.94.01 85.4-.17 4.07-.03 5.64.85 5.23 5.13-.4 4.12-.38 8.34 0 12.46.37 3.97-1.24 4.59-4.79 4.55-18.29-.17-36.6-.08-54.92-.08zM1176.56 179.4c20.47 0 40.94.09 61.4-.08 3.52-.03 4.64.93 4.39 4.43-.3 4.3-.31 8.66 0 12.96.26 3.63-.71 4.82-4.59 4.76-15.31-.24-30.62.04-45.93-.2-3.85-.06-4.63 1.1-4.61 4.74.15 29.1.02 58.2.16 87.3.02 3.72-.67 5.38-4.82 5.02-4.63-.4-9.33-.33-13.96-.01-3.62.25-4.37-1.07-4.35-4.47.13-29.1-.01-58.2.17-87.3.02-4.01-.78-5.37-5.09-5.29-14.97.29-29.95.01-44.93.19-3.33.04-4.3-.99-4.11-4.2.25-4.31.31-8.66-.01-12.96-.29-3.84.84-5.03 4.86-4.98 20.49.21 40.96.09 61.42.09zM1265.59 550.62h-53.23c1.03-2.06 1.76-3.67 2.62-5.21 6.98-12.65 14.02-25.26 20.94-37.94 1.57-2.87 2.69-3.97 4.76-.32 8.08 14.28 16.31 28.49 24.91 43.47zM747.67 499.81c11.63 0 23.26-.18 34.89.06 8.43.17 13.06 3.82 14.61 12.19 3.09 16.63 3.42 33.37-.16 50-1.7 7.9-6.29 11.67-14.93 11.9-19.11.49-38.23.65-57.35.83-5.25.05-12.21 1.56-15.24-1.13-2.61-2.32-.83-9.67-.84-14.79-.04-18.45.1-36.9-.11-55.34-.04-3.8 1.03-4.71 4.71-4.64 11.47.24 22.95.09 34.42.09v.83z" />
  </svg>
