<svg xmlns="http://www.w3.org/2000/svg" viewBox="0 0 2000 403">
  <path
    d="M179.91 403c-2.28-.77-4.52-1.72-6.85-2.29-11.9-2.92-23.83-5.72-35.74-8.62-.72-.17-1.31-.86-2.36-1.58 12-15.08 23.84-29.97 36.32-45.67h-8.07c-32.65 0-65.3.05-97.95-.11-2.03-.01-4.55-1.17-5.99-2.63-12.67-12.86-23.52-27.14-31.78-43.22-4.31-8.4-8.03-17.1-11.95-25.69-.66-1.45-.96-3.07-1.58-5.09h6.46c69.46 0 138.92.02 208.39-.14 2.09 0 4.82-1.42 6.17-3.06 11.32-13.72 22.45-27.59 33.44-41.57 1.22-1.56 2.03-4.26 1.63-6.13-3.61-16.67-7.7-33.24-11.26-49.92-.93-4.36-2.86-7-6.86-8.86-15.66-7.3-31.2-14.88-46.85-22.2-1.44-.67-3.68-.96-5.03-.33-16.39 7.72-32.73 15.55-48.94 23.65-2 1-3.98 3.52-4.51 5.69-4.2 17.05-8.16 34.17-11.88 51.33-.45 2.07.26 5.01 1.54 6.72 6.38 8.45 13.13 16.62 20.36 25.67-2.46.17-4.19.38-5.91.39-29.32.05-58.63.15-87.95-.07-2.35-.02-5.39-1.68-6.92-3.55-16.15-19.85-31.99-39.96-48.11-59.84-2.63-3.24-3.52-6.25-2.99-10.41 3.45-27.28 13.02-52.35 26.63-76.07 1.99-3.47 3.33-3.3 5.7-.29 10.99 13.98 22.15 27.82 33.26 41.71.49.61 1.07 1.16 2.13 2.32.93-3.56 1.79-6.49 2.46-9.46 7.39-32.49 14.71-64.99 22.22-97.45.47-2.04 1.89-4.49 3.61-5.51C125.48 15.93 152.21 6.9 180.9 3.77c.3-.03.63.17 2.1.61-4.49 19.92-8.99 39.94-13.7 60.86 5.98-2.78 11.33-5.21 16.63-7.75 28.46-13.68 56.89-27.42 85.39-41.01 1.55-.74 3.92-.94 5.48-.32 25.98 10.28 49.15 24.91 68.72 44.97.89.91 1.67 1.92 2.86 3.31-19.23 9.27-37.98 18.31-57.49 27.72 11.81 5.74 22.79 11.12 33.8 16.43 15.72 7.58 31.46 15.11 47.2 22.66 6.59 3.16 13.31 6.1 19.71 9.61 2.03 1.11 4.22 3.54 4.65 5.7 2.78 14.12 5.18 28.31 7.55 42.5 2.29 13.72.29 27.3-1.51 41.71-18.93-9.03-37.4-17.85-56.51-26.97 2.91 13.09 5.54 25.35 8.36 37.57 5.37 23.27 10.89 46.5 16.19 69.78.35 1.54-.14 3.7-1.04 5.02-15.92 23.18-35.89 42.2-59.75 57.12-.94.58-2.08.83-3.44 1.36-4.43-19.31-8.78-38.3-13.41-58.46-3.81 4.71-7 8.63-10.17 12.58-19.23 24-38.46 48-57.66 72.02-.49.61-.67 1.47-1 2.22-14.63-.01-29.29-.01-43.95-.01zM1306.04 109.87V42.98h50.99c.14 1.6.37 3.02.37 4.44.02 80.79 0 161.58.09 242.37 0 3.04-.87 4.27-3.85 4.27-14.66 0-29.31.01-43.97.11-3.39.02-4.34-1.58-4.05-4.66.18-1.92.03-3.87.03-6.42-2.95 2.01-5.47 3.74-8.01 5.47-15.88 10.82-33.36 12.5-51.43 7.9-29.71-7.56-44.24-29.44-51.75-57.11-6.62-24.4-7.06-49.31-2.83-74.04 3.55-20.77 11.48-39.91 28.07-54.15 13.73-11.79 29.89-16.62 47.94-15.96 13.98.52 26.24 5.28 38.4 14.67zm-.24 86.81v-16.45c-.01-5.48.19-10.98-.13-16.44-.14-2.35-.83-5.02-2.17-6.9-7.32-10.31-28.97-16.11-40.81-11.53-11.76 4.55-16.79 14.24-19.41 25.38-3.83 16.22-3.45 32.62.25 48.83 2.01 8.8 5.52 16.97 12.53 23.28 11.64 10.47 33.64 6.9 42.84-.68 4.55-3.75 7.3-8.17 7.02-14.58-.45-10.29-.12-20.6-.12-30.91zM935.66 99.78c16.21 0 31.85-.06 47.48.14 1.11.01 2.93 1.85 3.14 3.06.48 2.74.16 5.63.16 8.45.01 59.51.01 119.02.01 178.53 0 1.13-.14 2.26-.24 3.8h-50.88v-11.68c-5.73 3.57-10.63 7.29-16.06 9.89-28.17 13.51-67.76 7-85.63-20.41-9.92-15.21-14.44-32.19-14.81-49.96-.79-38.54-.68-77.09-.9-115.64-.01-1.94.34-3.89.55-6.21 16.34 0 32.3.02 48.26-.02 3.89-.01 3.03 2.86 3.03 4.96.05 21.44-.11 42.89.04 64.33.11 16.28.29 32.56 1.08 48.81.26 5.34 1.96 10.8 3.97 15.82 6 15 21.9 18.41 33.54 16.16 14.64-2.82 22.84-11.61 24.95-26.61 1.18-8.34 1.94-16.8 1.99-25.21.21-31.25.04-62.51.03-93.76.01-1.28.17-2.58.29-4.45zM1005.43 99.74c16.35 0 32.31-.06 48.27.15 1.02.01 2.66 2.07 2.88 3.37.45 2.68.14 5.49.14 7.84 8.24-4.23 15.74-9.44 24.05-12.13 34.48-11.17 77.01 1.42 88.35 48.15 2.94 12.14 4.37 24.89 4.59 37.39.61 35.23.17 70.48.35 105.73.02 3.16-1.28 3.8-3.7 3.81-14.82.07-29.65.03-44.47.16-3.93.03-3.56-2.45-3.56-5.01.04-33.08.36-66.17-.1-99.25-.13-9.14-1.59-18.57-4.25-27.31-4.18-13.75-15.48-19.77-31.92-18.87-12.72.7-23.14 8.92-25.97 21.69-1.85 8.35-3.15 17-3.25 25.53-.35 32.75-.18 65.5-.01 98.25.02 3.77-1.12 4.95-4.77 4.92-14.16-.12-28.32-.06-42.47-.02-2.88.01-4.47-.47-4.47-4.13.1-62.51.04-125.02.03-187.53 0-.65.13-1.3.28-2.74zM802.92 196.76c.23 23.79-4.82 45.39-17.91 64.46-15.44 22.51-36.69 35.36-64.45 37.12-21.43 1.36-40.91-3.51-57.87-16.75-16.39-12.8-26.72-29.7-32.16-49.69-5.6-20.54-6.43-41.25-1.8-62 6.69-30.02 21.78-54.12 50.76-67.34 33.74-15.39 77.11-6.66 101.23 24.31 13.36 17.16 22.88 42.78 22.2 69.89zm-125.07 1.16c-.41 10.92 1.34 22.14 6.25 32.73 5.51 11.9 15.11 18.65 27.96 19.54 12.54.86 22.52-4.68 29.34-15.39 9.46-14.85 11.13-31.19 9.39-48.27-1.02-10.07-3.57-19.56-9.14-28.08-13.12-20.06-42.79-19.47-55.05 1.03-6.96 11.65-9.03 24.43-8.75 38.44zM1695.53 364.02c1.06-3.29 1.82-6.12 2.86-8.84 7.15-18.76 14.43-37.47 21.45-56.28.78-2.09.83-4.98.04-7.05-16.45-42.91-33.08-85.75-49.67-128.61-7.85-20.26-15.7-40.52-23.53-60.79-.23-.59-.21-1.27-.37-2.35 1.41-.13 2.63-.34 3.85-.34 15.99-.01 31.98.22 47.96-.13 4.14-.09 5.59 1.62 6.68 4.88 5.56 16.67 11.21 33.32 16.74 50 7.14 21.56 14.23 43.14 21.24 64.75 1.47 4.55 2.47 9.25 4 15.06.9-2.06 1.59-3.34 2.04-4.7 11.34-33.82 22.62-67.65 33.98-101.46 2.8-8.33 5.68-16.65 8.81-24.86.56-1.48 2.53-3.44 3.87-3.45 16.81-.19 33.63-.08 50.45-.02.31 0 .62.23 1.46.56-.6 1.95-1.1 3.98-1.84 5.92-14.6 38.11-29.18 76.22-43.85 114.3-15.04 39.02-30.18 77.99-45.25 117-2.87 7.43-5.42 14.99-8.51 22.32-.72 1.71-3.07 3.88-4.7 3.91-15.65.3-31.29.18-47.71.18zM1660.25 195.69c.76 25.77-5.03 48.61-19.84 68.57-15.49 20.88-36.17 32.5-62.54 34.09-27.08 1.63-50.04-6.76-68.35-26.76-13.62-14.87-21.19-32.76-24.19-52.56-4.2-27.75-1.71-54.74 12.24-79.5 15.64-27.75 39.59-43.21 71.96-44.2 42.58-1.31 74.46 26.32 85.82 64.71 3.57 12.04 5.49 24.22 4.9 35.65zm-124.98 4.89c-.18 7.6 1.36 18.36 5.78 28.6 9.52 22.07 35.58 28.17 52.59 12.26 6.24-5.84 10.07-13.27 12.2-21.38 2.83-10.77 3.81-21.68 2.56-32.93-1.07-9.56-3.03-18.65-7.9-26.96-12.78-21.77-43.65-21.96-56.51-.36-6.86 11.5-8.69 24.19-8.72 40.77zM1919.73 95.25c23.88-.09 46.34 5.95 67.83 16.01 6.04 2.83 5.95 2.95 3.46 9.08-4.24 10.45-8.59 20.86-12.56 31.41-1.27 3.39-2.55 3.39-5.45 1.94-16.52-8.28-33.96-13.53-52.49-14.11-6.36-.2-12.83 1.12-19.15 2.31-4.14.78-7.12 3.44-7.8 8.04-.71 4.76 1.34 8.55 5.25 10.42 8.37 4 16.93 7.68 25.67 10.78 16.12 5.72 32.62 10.36 47.47 19.26 19.68 11.8 28.11 29.1 26.68 51.77-.8 12.66-4.31 24.14-12.55 33.91-8.5 10.08-19.88 15.89-32.33 18.62-39.83 8.71-77.87 3.65-113.58-16.65-2.74-1.56-3.46-2.84-2.11-5.8 4.81-10.58 9.44-21.23 13.98-31.92 1.57-3.7 3.64-3.46 6.66-1.83 20.32 11 42.17 15.93 65.18 15.84 4.29-.02 8.66-.5 12.84-1.46 4.99-1.16 9.29-3.5 10.51-9.32 1.28-6.14-.35-11.48-5.88-14-9.17-4.18-18.74-7.53-28.28-10.82-17.42-6.01-35.31-10.88-50.42-22.11-12.03-8.94-18.47-20.77-19.72-35.82-1.03-12.36-.01-24.19 6.02-35.17 7.51-13.66 19.81-21.58 34.33-25.4 11.79-3.1 24.09-4.25 36.16-6.27.1.43.19.86.28 1.29zM595.6 154.96c-7.97-3.18-15.46-6.76-23.32-9.2-16.73-5.18-33.7-8.97-51.34-4.25-4.79 1.28-8.17 3.82-8.91 8.88-.77 5.25 2.36 8.81 6.52 10.76 7.95 3.73 16.19 6.89 24.41 10.02 13.19 5.03 26.76 9.17 39.61 14.93 14.25 6.39 26.45 15.77 31.61 31.41 8.93 27.09 1.31 60.69-30.73 73.45-11.89 4.73-24.18 6.73-36.93 7.4-20.65 1.08-40.82-1.14-60.25-8.06-9.65-3.44-18.74-8.42-28.1-12.66-2.23-1.01-2.86-2.19-1.73-4.66 5.08-11.18 9.99-22.43 14.88-33.7 1.45-3.34 3.42-2.19 5.61-.99 11.74 6.45 24.23 11.03 37.36 13.47 12.92 2.4 25.99 3.67 39.15 1.56 7.34-1.18 11.5-4.46 12.56-10.21 1.21-6.63-.99-11.98-8.03-14.88-10.87-4.48-22.28-7.64-33.25-11.9-12.36-4.79-24.93-9.32-36.6-15.49-16.12-8.53-25.4-22.05-26.52-41.02-.91-15.46 1.02-29.81 11.36-41.91 9.96-11.66 23.38-17.2 38.07-20.05 33.94-6.59 66.05-.64 96.84 14.26 2.92 1.41 4.38 2.82 2.79 6.47-5.15 11.85-9.92 23.86-15.06 36.37zM1427.29 42.84v13.28c.01 12.63.16 25.26-.06 37.89-.08 4.35.78 6.07 5.75 5.9 12.77-.44 25.57-.15 38.71-.15v44.92c-12.96 0-25.74.19-38.51-.1-4.5-.1-6.05.98-6.01 5.76.23 26.42.03 52.85.22 79.27.03 3.72.83 7.67 2.28 11.08 3.14 7.4 8.93 8.76 17.43 8.46 7.67-.27 13.85-4.23 19.62-8.91 1.38-1.12 2.82-2.17 4.57-3.51.45 1.11.87 1.66.87 2.22-.01 14.12-.16 28.25-.06 42.37.02 3.07-.91 4.83-3.69 6.24-12.91 6.59-26.58 11.31-41 11.19-26.01-.22-43.32-14.66-49.8-40.98-1.18-4.78-1.39-9.89-1.39-14.85-.1-64.82-.04-129.63-.17-194.45-.01-4.55 1.23-5.89 5.9-5.77 13.48.35 26.97.12 40.46.12 1.45.01 2.9.02 4.88.02z" />
  </svg>
