<svg xmlns="http://www.w3.org/2000/svg" viewBox="0 0 417.13 199.13">
  <path
    d="M223.73 8.9c4.4 2.5 8.5 5.5 12.4 8.7.3 6.4-.3 12.9.8 19.3.2 1.1.1 2.4-.4 3.4-4.7 8.1-4.1 17.2-4.2 26 0 5.2-1.7 10-2.3 15.1-.9 7.7.1 15.5-2 23.1-.6 2.5-2.1 4.3-4.3 5.5-1 .8-3.2 0-3.3 2.2 0 .6 0 1.2-.1 1.9-.2.4-.4.7-.7 1-.8.7-1.7 1.3-2.4 2-1.6 1.4-3 3.2-4.9 4.4-.4.2-.9.1-1.3-.1-.8-.9-1.6-1.8-2.3-2.7-2.3-12.9-2.8-25.9-2.1-38.9.1-1.9.7-3.7 2-5 3.5-3.7 3.9-8.1 3.9-12.9-.2-9.7.1-19.5-.1-29.2-.4-10 5.3-16.9 11.3-23.8z"
    fill="#191943" />
  <path
    d="M223.73 8.9c-1.7 4.1-3.6 8-6.7 11.3-2.7 2.9-3.2 6.8-3.2 10.6-.1 11.6-.1 23.2 0 34.8 0 3.5-.5 6.5-3.3 8.9-2.2 1.8-2.8 4.3-2.7 7.1.1 6 .1 11.9 0 17.9 0 3.6.8 7.2 1.3 10.7.4 3-.2 5.7-.4 8.6-5.6-4.7-11-9.6-15.9-14.9-.2-.6-.5-1.1-1.2-1.1v.1c-1.3-3.2-1.5-6.4-.5-9.7.7-2.1.7-4.2.4-6.4-.5-4.2-.2-8.2 1.5-12.2.9-2.1 1.4-4.4 1.3-6.8-.5-8.6.6-17.2 1.3-25.7.5-6.7 1.8-13.7 6-19.6 2.9-4.1 1.8-8.1-1-11.9-.3-.6-.3-1.1.1-1.6.1-.6.5-.8 1.1-.9 1.4-.9 3-1.6 3.9-3.2 1.2-1.7 2.7-2.9 4.5-3.9.7-.2 1.4-.2 2.1 0 4 2.2 7.8 4.9 11.4 7.9z"
    fill="#151640" />
  <path
    d="M129.93 124.1c-11.5 0-22.9.1-34.4.1-9.5 0-18.9 0-28.4.1-.6 0-1.3.4-1.7-.3-.3-.6.4-.9.7-1.1 7.7-6.5 15.1-13.4 23.3-19.4.8-.1 1.3-.5 1.5-1.3 4.9-4.9 10.5-9 15.7-13.6 1-.9 1.9-1.2 3.2-.7 11 4.1 22.3 7.2 33.1 11.8 0 .2.1.4.1.5-2.1 1.9-7.9 12.5-8.5 15.6s-2 6-4.6 8.3z"
    fill="#111333" />
  <path
    d="M358.43 104c9.4 6.5 18.7 13 28.1 19.5-.5 1.3-1.4.9-2.1.9h-123.4c-1.2 0-2.3-.1-3.5-.2-.9-1.8.3-2.6 1.6-2.7 6-.6 9.7-7 16.3-6.2 1 .1 1.9-1.1 3-1.6 6.1-2.3 12.7-1.4 18.9-3.3 1.7-.3 3.3-.3 5-.3 4.4-.2 8.7-1.4 13-2 .9-.1 1.7 0 2.6 0 11.7-1.6 23.4-2.9 35.1-4.2 1.9-.3 3.6-.3 5.4.1z"
    fill="#2f2a55" />
  <path
    d="M200.73 9.9c1.3-.1 2.2.5 2.8 1.6 2.3 3.7 1.5 9.9-1.9 12.9-1.3 1.2-2.2 2.5-1.9 4.3.3 2-.1 4-1.1 5.7-2 3.7-1.8 7.6-2 11.5-.3 8.1-1.4 16.1-.9 24.2.1 1.7-.6 3.4-1.3 4.7-2.4 4.6-2.1 9.2-1.1 13.9.1.6.5 1.5.2 1.9-2.8 3.7-1.3 8-2.1 12-4.6-3.7-9-7.7-13-12.1.3-2.1-.8-3.1-2.7-4.1-5.6-2.9-6.8-7-3.7-12.5 1.8-3.2 2.7-6.5 2.1-10-1.1-6-.7-11.8.1-17.7.4-2.8.9-5.5.4-8.4-.3-1.8.3-3.4 1.9-4.3 3.9-2.3 5.3-6.1 6.7-10.1v.1c.8 0 1.1-.5 1.2-1.1.1-.5.4-.7.9-.7.6-.3 1-.6 1.3-1.2 2.9-3.2 6.4-5.9 9.9-8.5.8.4.6-.4.8-.7.5-.8 1-1.4 1.9-1.6.8-.1 1.2-.1 1.5.2z"
    fill="#13143d" />
  <path
    d="M226.73 105.5c2.1-7-.1-14.5 1.9-21.5.5-1.7.1-3.6.1-5.4 0-1.6-.2-3.3 1.2-4.6 1.4-1.3.9-3.2.8-4.7-.6-7.5 1.2-14.8 1.1-22.2 0-1.9.8-3.6 2.2-4.8 2.3-2 2.1-4.4 1.5-6.8-1.4-5.4-.5-10.8-.6-16.3 0-.7.7-1.1 1.3-1.3 7.3 4.6 14.3 9.6 21.1 14.9-3.2 6.2-4.4 12.4-3.7 19.6.5 5.4-.9 11.2-2.2 16.6-1.1 4.7-2.1 9.3-2.3 14-.1.5-.3.9-.5 1.4-.2.4-.5.8-.7 1.2-.1.2-.3.3-.4.5-.3.3-.6.6-1 .9-.3.2-.7.5-1 .7-.7.4-1 1.2-1.2 1.9-.9 2.3-3.1 3.6-4.3 5.6-.2.3-.5.7-.8.9-.6.5-1.2 1.1-1.7 1.7-.3.3-.5.6-.8.8-.6.5-1.1 1.1-1.6 1.8-1.1 1.3-2.3 2.5-3.7 3.4-1.7.4-2.6 2.2-4.7 1.7z"
    fill="#1d1d47" />
  <path
    d="M19.63 172.7c-6.7-.3-12.3-1.5-16.5-6.2-1.1-1.2-3.2-2.2-.8-4.4 2.1-1.8 3-.7 4.3.9 2.9 3.6 6.6 5.4 11.3 5.1 4.4-.3 8.7-3.1 9.9-7.2 1.3-4.4.6-8.5-2.9-11.9-2.2-2.1-5-3.2-7.7-4.4-2.9-1.3-5.8-2.3-8.6-3.7-11.6-5.6-10.1-20.4-3.7-26.6 8.6-8.3 24.5-7.1 31.2 2.7.7 1 1.9 2.1.1 3.3-1.4.9-2.4 1.6-3.5-.4-2.5-4.4-6.3-6.7-11.4-6.6-4.8.1-8.6 2.7-9.6 7.1-1.1 5-.6 8.2 4 11.3 2.4 1.6 5 2.6 7.6 3.7 1.8.8 3.7 1.5 5.5 2.4 8.8 4.4 12.1 10.5 10.7 19.6-1.2 7.7-7.7 13.7-16.4 15-1.6.2-2.9.2-3.5.3z"
    fill="#080808" />
  <path
    d="M183.43 23.5c1.3 5-1.4 8.1-5.3 10.5-1.5.9-2.9 1.7-2.2 3.8 1.6 4.4-.3 8.7-.7 13-.3 3.3-.7 6.5.1 9.8 1.3 5.5 1 10.9-2.7 15.4-1.7 2.1-1.7 3.7-.2 5.6 1.5 1.8 2 4.5 5.7 4.2 3.1-.3 3.2 1.3.5 4.9-6.9-5.8-13.4-12.1-19.9-18.5-.1-.9-.5-1.3-1.4-1.4-3.5-2.7-6.6-5.7-9.5-8.9-1.4-1.9-3.9-3.4-2.1-6.3l-.1.1c.6-.2.9-.6 1.1-1 .9-1.3 2-2.4 3.6-3 .7-.1 1.2-.5 1.4-1.2.1-.5.4-.7.9-.8.5-.2.9-.6 1.2-1 .5-1 1.4-1.7 2.5-2.1 1.6-.5 2.5-1.8 3.5-3 .5-.9 1.2-1.5 2.1-1.8.4-.7 1.6-.3 1.6-1.4l.3.3-.3-.3c1.1-.2 1.6-1 2.2-1.8l-.1.1c.5-.2.9-.6 1.1-1 .4-.9 1.2-1.5 2.1-1.8.4-.7 1.6-.3 1.7-1.3l-.1.1c.7 0 1-.5 1.2-1.1 3.7-3.8 7.7-7 11.8-10.1zm-53.5 100.6c.1-.8 0-1.8.4-2.4 3.8-4.7 4.3-10 2.9-15.6-.4-1.6-.3-2.6 1.6-2.7.9 0 1.7-.1 2.2-.8 1.4-2 3.6-2.6 5.8-3.2 1.5-.2 2.7.7 4 1.2.6.5 1.2.8 2 .8 2.5.3 4.9 1.3 7.1 2.4.2 1.2.9 1.3 1.8.7 7.1 1.9 14.1 4.4 20.9 7.1.6.5.9 1.7 2 .8 1.2-.1 2.1.4 3 1 1 4.4-1.3 7.6-4 10.7-16.5.3-33.1.3-49.7 0z"
    fill="#111239" />
  <path
    d="M247.73 84.6c-.2-2.4 1.2-4.6 0-7.2-.7-1.4-.2-3.3.8-4.7 2.1-2.9 2.2-6.1 2-9.5-.1-2.7 0-5.2 1.4-7.6 1.1-1.9.3-4.1 0-6.2-.9-6.3-.5-12.4 5.1-16.9 8.4 5.4 16.4 11.3 24.5 17.1 1.2 2.2-.4 3.5-1.7 4.7-9.4 9.5-18.9 19-28.5 28.4-.8 1.1-1.9 2.4-3.6 1.9z"
    fill="#22224c" />
  <path
    d="M329.43 83.5c3 2 6.4 3.6 8.7 6.5-.2 2.5-2.2 2.5-3.9 2.9-13.4 3.6-27 6.3-40.2 10.3-.5.2-1 .3-1.6.4-12.5 2.5-24.9 5.8-37.3 8.8-1.6.4-3.2 1.1-4.8 1.2-1.3.1-2.5.2-3.8.6-3.5.4-6.7 2.3-10.3 1.8-.5-.2-.8-.6-1-1.1-.2-1.5.8-2.3 1.9-3 .4-.2.9-.4 1.4-.6 5.5-1.3 10.7-3.5 16.2-4.9 6.3-2 12.7-4.1 19.1-5.9l2.7-.9c1.8-.5 3.5-1.3 5.3-2.1.5-.2.9-.3 1.4-.5 13.1-4.1 26.1-8.3 39.1-12.5 2.2-.5 4.6-1.5 7.1-1z"
    fill="#f45d07" />
  <path
    d="M311.93 71.5c3.4 1.6 6.6 3.5 8.8 6.8.3 2.3-1.5 2.7-3 3.2-12.3 4.3-24.1 9.6-36.3 14.2-.4.2-.8.3-1.3.4-.8.3-1.6.5-2.3.9-.4.2-.7.3-1.1.4-.5.2-1.1.3-1.6.5-.3.2-.7.3-1 .5-.7.3-1.4.7-2.2 1.1-.4.2-.8.4-1.2.5-6 2.5-12.2 4.8-18.2 7.3-5.1 1.5-10 3.5-14.9 5.3h.1c-1.7.4-3 1.9-4.9 1.4-.7-.3-1.2-.8-1.4-1.6.6-2.5 3-3 4.8-3.9 5.9-2.9 12-5.5 17.9-8.6 3.9-1.7 7.9-3.1 11.5-5.5.8-.4 1.5-.7 2.3-1.1.4-.2.8-.4 1.1-.6.8-.4 1.6-.8 2.3-1.3 13.7-6.3 27.2-13 40.6-19.9z"
    fill="#67ba2c" />
  <path
    d="M289.53 55.6c2.9 1.2 5.1 3.2 7.6 5.1 1 3.5-1.9 4.6-4 6-16.3 11.4-32.7 22.6-49 33.9-1.4.9-2.7 1.9-3.9 3-1.1.9-2.2 1.7-3.3 2.5-3.5 1.6-6.2 4.3-9.4 6.2-1.9 1.1-3.7 2.6-5.8 3.5-.7.2-1.4.2-2-.2-.3-.4-.3-.8.1-1.2.6-.6.8-1.5 1.4-2.2.3-.3.7-.6 1-.9 3.5-2.4 6.7-5.2 9.8-8.1.8-.7 1.6-1.5 2.4-2.2.7-.5 1.3-1.1 1.9-1.8.3-.3.7-.6 1.1-.8 15.9-13.1 31.6-26.4 47.3-39.8 1.3-1.3 2.8-2.7 4.8-3z"
    fill="#22224c" />
  <path
    d="M302.43 111c-1.6.5-3.2.3-4.9.3-5.6-.1-11.1.9-16.6 1.8-1.9.3-4.3 1.3-5.5-1.5.1-.5.3-.9.6-1.3 1.3-1.1 3.1-.9 4.6-1.4.4-.1.8-.2 1.3-.3 1.2-.2 2.5-.4 3.7-.9.8-.2 1.6-.4 2.5-.6.6-.2 1.2-.4 1.9-.5.9-.2 1.7-.3 2.6-.4 1.3 0 2.6-.1 3.8-.5.9-.2 1.7-.4 2.6-.6.7-.2 1.3-.4 2-.5.9-.2 1.8-.3 2.8-.4 1.5 0 2.9-.3 4.2-.9 10.4-2.7 21-3.9 31.5-6 1.8-.4 3.5-.9 5.3-1.1.5-.1 1-.1 1.5 0 .5 0 1 .1 1.5.4 2.9 1.6 5.7 3.3 8 5.8-1.3 1.8-3.2 1.9-5.2 2.2-11 1.7-22.2 1.8-33.1 4.5-.6.1-1.3.1-1.9.2-4.7-.5-9 .4-13.2 1.7z"
    fill="#f30d0e" />
  <path
    d="M266.63 94.7c-3.6 2.8-7.7 4.5-12 5.8-1.1.7-2.2.7-3.3-.1-.4-.6-.5-1.3-.5-2 .1-.4.3-.8.6-1.2.7-.5 1.5-.8 2.2-1.1.3-.2.7-.3 1-.5.7-.3 1.3-.7 1.9-1.1l.9-.6c.5-.3 1-.5 1.5-.7.3-.2.7-.4 1-.5l1.5-.9c.3-.3.7-.5 1.1-.7 5.2-3.1 10.4-6 15.5-9.1 1.4-.7 2.8-1.3 4-2.2 1.4-1 3-1.7 4.7-2.4.6-.3 1.2-.7 1.7-1.1 4.3-3.4 9.2-5.7 13.8-8.6 1.4-.9 2.8-.9 4.3-.5 1.9 1.3 4 2.3 5.4 4.3-.5 3.1-3.5 3.3-5.5 4.3-11.5 5.7-23.1 11.1-34.7 16.7-.3.1-.6.1-1 .1-.7.5-1.6.3-2.2 1-.5.5-1.5.3-1.9 1.1z"
    fill="#22224c" />
  <path
    d="M247.63 138.2c-.8 0-1.7-.2-2.5-.1-2.8.3-4.8 2-5.4 4.4-.6 2.7.1 4.8 2.8 6.3 2.3 1.3 4.8 2.1 7.2 3.4 4.9 2.6 6.7 5.7 6.1 10.8-.5 4.3-4 7.8-9 8.7-4.5.8-8.6.1-11.7-3.6-.5-.6-1.1-1.3-.1-2.1.8-.7 1.4-.5 2 .3 1.7 2.3 4 3.3 6.9 3 2.6-.2 4.4-1.6 5.3-3.8.9-2.2.6-4.6-1.1-6.5-1.1-1.3-2.6-2.1-4.1-2.8-1.7-.7-3.4-1.3-5-2.1-4.4-2.2-5.9-4.8-5.5-9.5.4-4.3 3-6.9 6.8-8.3 2.3-.8 4.8-1.3 7.3 0 .6.6.6 1.3 0 1.9zm160.6 0c-1.2 0-2.3-.1-3.5.1-2.4.4-3.7 2.1-4.3 4.3-.6 2.3.1 4.2 2 5.7 2.3 1.7 5.1 2.4 7.6 3.7 3 1.6 5.6 3.3 6.3 7.1 1.5 8.5-5 12.6-10.9 12.8-3 .1-5.9-.4-8.3-2.6-.1-1.9.9-1.8 2.1-1.2 5.4 2.1 9.1 1.2 10.7-2.5 1.6-3.8-.4-7.2-5.6-9.5-1.5-.7-3.1-1.2-4.6-1.9-4.4-2.2-6-4.9-5.6-9.5.3-4 3.1-7.3 7.3-8.5 2.2-.6 4.5-1.1 6.8.1.6.6.6 1.3 0 1.9z"
    fill="#0e0e0e" />
  <path
    d="M79.93 153.8c0-4.6.1-9.3 0-13.9-.1-2.4.4-3.6 3.2-3.5 4.6.3 9.3 0 13.9.1 1 0 2.8-.6 2.7 1.1-.1 1.5-1.9.7-2.9.8-2.8.1-5.6.1-8.5 0-1.7-.1-2.5.6-2.3 2.3v.5c.1 3.5-1.1 7.7.6 10.1 1.6 2.4 6.2.5 9.4.8.5.1 1 0 1.5 0 .6.1 1.4 0 1.4 1s-.8 1-1.4 1c-3 .1-6 .1-9 0-1.9-.1-2.7.6-2.6 2.5.1 3.3.1 6.6 0 9.9-.1 2 .8 2.5 2.7 2.5 3.3-.1 6.6 0 10 0 .6 0 1.4-.1 1.3 1-.1.9-.8.9-1.4.9-5.5 0-10.9 0-16.4.1-1.8 0-2.2-.8-2.2-2.4v-14.8z"
    fill="#080808" />
  <path
    d="M279.63 95.5c6.8-3.7 14.2-5.9 21.3-8.9 5.7-2.4 11.6-4.5 17.5-6.7.9-.4 1.9-.6 2.4-1.7 3.7.5 6 3.2 8.7 5.3-5.4 2.5-11.2 3.8-16.8 5.8-9 3.1-18.1 5.8-27.2 8.7-.9.3-1.9.4-2.9.6-.9-1.2-2.3-1.8-3-3.1z"
    fill="#312b41" />
  <path
    d="M128.43 137.6c-9-.3-13.1 3-14.8 11.8-.9 4.2-.5 8.2 1.1 12.1 2.9 7.3 9.6 9.9 16.6 6.5.6-.3 1.1-.7 1.7-1.1.8-.6 1.7-.5 2.1.3.3.6-.2 1.2-.8 1.6-4 2.8-8.5 3.7-13.2 2.8-10.4-2.2-16.5-11.9-14-22.5 2.3-9.8 12.3-15.3 22.8-12.5-.1.9-.6 1.3-1.5 1z"
    fill="#131313" />
  <path
    d="M239.33 103.1c1.9-2.8 5-4.2 7.7-6 15.3-10.7 30.7-21.2 46-31.8 1.7-1.2 4-2 4.1-4.6 2.1 1 3.9 2.3 5.4 4-.5 4.1-4.3 5-7 6.8-4.6 3.1-10 5.1-13.8 9.3-1.2.7-2.7.6-3.9 1.5-5.3 3.5-11.2 6.2-16.1 10.3-.5.6-1.5.4-2 1-.6.5-1.5.3-2 1-1 .7-2.2.9-3 2-.8.8-2.2 0-2.9 1-.7.4-1 1.2-1.5 1.9-.3.3-.6.6-1 .7-.9.4-1.9.8-2.7 1.4-.3.2-.7.4-1.1.6-.7.3-1.4.7-2 1.2-.3.3-.7.5-1 .6-.8.3-1.6.3-2.4 0-.6-.1-.8-.4-.8-.9z"
    fill="#01a4bb" />
  <path
    d="M278.53 114.4c-1.7 2.9-4.4 3.1-7.3 3-2.5-.1-4.7.1-4.7 3.5 0 1.3-1 1.5-2.1 1.5h-5c-1.3 0-1.8.7-1.8 1.8-13 .2-25.9.3-38.9-.1-.5-.8-.3-1.5.3-2.1 2.3-1.5 5.4-.3 7.7-2.2 8-2.3 16.4-2.2 24.5-3.6 7.5-1.3 15.1-2.2 22.7-2.7 1.6-.2 3.3-.4 4.6.9z"
    fill="#22224c" />
  <path
    d="M175.83 136.7c3.1-.5 6.3-.3 9.4-.2 5.5.3 9.3 4.2 9.4 9.7.1 3.8-1.8 7.1-6.6 8-2.2.4-2.3 1.3-1.3 3 2.3 3.8 4.5 7.7 6.7 11.6.7 1.2 1.3 2.2-1.1 2.3-3.2.2-5.2-.5-6.6-3.7-1.8-4.1-4-8-6.2-11.8-1-1.8-.6-2.2 1.3-2.4 3.6-.2 6.4-1.7 7.2-5.6 1.1-5-1.6-9-6.7-9.5-1.8-.2-3.7-.3-5.4.3-.6-.5-.6-1.1-.1-1.7z"
    fill="#131313" />
  <path
    d="M289.53 55.6c-4.5 4.8-9.8 8.6-14.8 12.9-5.4 4.7-11.1 9.3-16.6 14-6.7 5.6-13.3 11.2-20 16.8-.3.3-.9.2-1.4.3-.6-.7-.7-1.4-.1-2.1.6-.8 1.3-1.4 2-2 9.9-10 20.7-19.1 30.4-29.4 4.1-4.3 9.2-7.7 13.2-12.1.9-.9 1.9-1.9 3.5-1.4 1.3.8 2.9 1.4 3.8 3z"
    fill="#4d4fa2" />
  <path
    d="M149.83 154.5c0-4.3-.1-8.6 0-12.9.1-2.3-.7-3.4-3.1-3.2-.8.1-1.7 0-2.5 0-.6 0-1.4 0-1.2-1 .1-.6.6-.8 1.1-.8h17.4c.5 0 1 .2 1.1.7.2 1-.6 1-1.2 1.1-1.7.4-4.2-.9-5.1.8-.8 1.6-.4 3.8-.4 5.8v22.8c0 2.8-2.8 4.4-5.3 3.2-1.2-.6-.8-1.7-.8-2.6-.1-4.7 0-9.3 0-13.9zm26-17.8c0 .6.1 1.2.1 1.8 0 9.8.1 19.5.1 29.3 0 2.8-2.7 4.4-5.3 3.2-.9-.4-.9-1.3-.9-2.1v-29.8c0-1.9.6-2.8 2.6-2.6 1.1.1 2.2.1 3.4.2zm171.6 17.4c0 4.8-.1 9.6 0 14.4.1 2.5-1.3 2.5-3.1 2.5s-3.2.1-3.2-2.5c.1-9.9.1-19.9 0-29.8 0-2.7 1.7-2.3 3.4-2.3 1.6 0 2.9 0 2.9 2.2-.1 5.3 0 10.4 0 15.5z"
    fill="#080808" />
  <path
    d="M292.43 102.3c.2-.1.4-.2.7-.1 10.7-1.7 21-5.4 31.7-7.4 5.3-1 10.2-3.5 15.7-3.4 2.2 1 4.1 2.4 5.9 4.1.2.2.3.5.3.7 0 .3-.1.4-.1.4h-.1c-14.3 2.4-28.6 4.6-42.7 7.9-3.3.9-7 .2-10.1 2.1-.5.2-1.1.3-1.6.2-1.8-.2-3.5.6-5.3.4-1-.1-2.1-.4-2.2-1.5 0-1.1.9-1.6 2-1.8 1.9-.2 4.1-.1 5.8-1.6z"
    fill="#2f2a55" />
  <path
    d="M179.83 124.1c0-.5-.2-1.1.1-1.4 2.1-2.7 2.9-6 3.9-9.2 8.8 2.4 17.4 5.7 26 8.7.4-.3.8-.3 1.2 0 .4 1.1-.3 1.6-1.2 2-10.1.1-20.1.3-30-.1z"
    fill="#151640" />
  <path
    d="M285.63 52.6c-9.5 8.2-18.6 16.9-27.4 25.8-5.5 5.5-11.7 10.2-17 16-.7.8-1.6 1.2-2.6 1.1.4-3.2 3.8-4.2 5.1-6.8.3-1.1 1.1-1.6 2-2.1.3-.4.6-.7 1-1 .3-.4.7-.7 1-1 7.9-6.8 14.8-14.6 22.3-21.8 3.2-3.1 6.3-6.3 9.5-9.5 1-1 2.4-1.9 2.2-3.7 1.4.9 2.9 1.6 3.9 3z"
    fill="#92509e" />
  <path
    d="M281.53 80.4c.2-2.1 1.8-2.9 3.3-3.9 5.2-3.6 11.1-6.1 16.2-10 .7-.5 1.3-1 1.6-1.8 1.5.7 2.9 1.4 4 2.6-2.2.2-3.9 1.6-5.6 2.7-4.1 2.6-8.6 4.5-12.4 7.6-.4.4-.8.8-1.4.9-1.8.2-3 1.5-4.6 2.1-.5.5-.9.4-1.1-.2z"
    fill="#3daac7" />
  <path
    d="M317.33 109.1c2.2-2.7 5.3-2.4 8.3-2.7 8.6-.9 17.2-1.9 25.8-3 1.4-.2 2.9-.7 4.3-1.1 1.1.2 2 .9 2.7 1.7-9.1 1.8-18.2 2.8-27.4 3.5-2.9.3-5.9.8-8.8 1.4-1.6.4-3.2.6-4.9.2z"
    fill="#cd0d34" />
  <path
    d="M340.53 91.5c-12.3 3.6-24.9 6.2-37.3 9.3-3.4.8-6.5 2.3-10 1.5 8-3.1 16.5-4.3 24.7-6.6 6-1.7 12.2-2.9 18.3-4.3.9-.2 1.5-.7 2-1.3.7.4 1.9.2 2.3 1.4z"
    fill="#511f33" />
  <path
    d="M296.33 190.5c0 1.8.1 3.6-.5 5.4-.6 2-1.6 3.1-3.8 3.2-2.4.1-4-1.2-4.3-3.3-.4-3.3-.2-6.6-.1-9.9 0-.4.3-.9 1-.7.6.1.8.6.8 1.1.1 2.6.1 5.3.1 7.9 0 1.6.3 3.1 2.3 3 1.9-.1 2.5-1.3 2.6-3 0-2.5 0-4.9.1-7.4 0-.6-.1-1.4.8-1.5.8-.1 1.1.6 1.1 1.3-.1 1.3-.1 2.6-.1 3.9zm119.2 5.5c-.2-2.3-1.8-3.2-3.6-4.3-1.6-.9-2.8-2.4-2.3-4.4.3-1.5 1.2-2.7 2.8-3.1 1.6-.5 2.9.2 3.9 1.4.5.6 1.2 1.4.4 2.1-.9.8-1.3-.2-1.8-.8-1.1-1.3-2.4-1.1-3.3.1-.9 1.2-.1 2.1.9 2.9 1.8 1.5 4.8 1.9 4.6 5.2-.4.5-.8 1.1-1.6.9zm-93.2-6.9c-1.6 1.6-1.4 3.9-2.3 5.7-.6 1.3-.3 3.5-2 3.6-1.9.1-1.5-2.1-2-3.4-.6-1.7-.9-3.4-1.4-5.1.1-.4.3-.7.8-.9 1.7 1.5.9 4.1 2.6 5.6 2.1-2.5 1.6-6 3.4-8.6 1 .6 1.3 1.5 1.3 2.6-.1.2-.3.4-.4.5z"
    fill="#3daac7" />
  <path
    d="M389.63 192.4V188c0-1.1-.3-1.9-1.6-2-.4 0-1.3-.4-1.2-.5.2-.8.9-.6 1.5-.6h3.9c.8 0 2.2-.1 2.2.4.1.9-1.2.6-1.9.7-1.4.2-1.2 1.3-1.3 2.2v8.8c0 .4 0 1-.5 1.1-.6.1-.9-.5-.9-.9-.1-1.6 0-3.3 0-4.9-.1.1-.1.1-.2.1zm-119-1.4v.9c0 .5-.2.7-.7.6-2.2-.7-4-.8-3.8 2.4.1 1-.2 1.9-.3 2.9 0 .2-.5.5-.7.5s-.5-.4-.5-.6c0-3.8-.1-7.6-.1-11.3 0-1.3 1-1.6 2-1.6 1.3.1 2.6.3 3.9.5.2.8-.3 1.3-.9 1.6-3.2 1.2-2.1 2.3.1 3.3.5.2.8.5 1 .8z"
    fill="#1190b2" />
  <path
    d="M90.13 186.1c.6-1.6 1.5-1.2 1.7 0 .3 2.4.1 4.9.2 7.4.1 1.4-.5 3.1 1.6 3.7 2 .5 2.5-1.2 3.5-2.1.3-.5.7-.5 1 0-.7 3.4-1.5 4.2-4.1 4-2.5-.2-3.3-1.3-3.8-5.1.6-2.7.6-5.3-.1-7.9zM72.13 186.1c0 3.6-.1 7.2-.1 10.8 0 .8-.1 1.8-1.2 1.6-.7-.1-.7-1-.7-1.6 0-3.6-.1-7.2-.1-10.8.7-.6 1.4-.6 2.1 0zm174.6 0c0 3.6 0 7.2-.1 10.8 0 .8 0 1.8-1.2 1.6-.7-.1-.8-.9-.8-1.6 0-3.6-.1-7.2-.1-10.8.7-.7 1.4-.7 2.2 0z"
    fill="#3daac7" />
  <path
    d="M128.43 137.6c.5-.3.9-.7 1.4-1 3 .7 5.2 2.6 7.2 4.7.4.5.9 1.1.4 1.7-.7.7-1.5.6-2.1-.1-1.8-2.4-4.3-4-6.9-5.3zm249.8.3c0-.5 0-1 .1-1.5 3.3.4 5.6 2.5 7.8 4.8.4.4 1 1.1.5 1.7-.7.8-1.6.5-2.2-.2-1.8-2-3.8-3.6-6.2-4.8z"
    fill="#312b41" />
  <path
    d="M368.13 193c1 1.3 1.9 1.4 2-.5.2-2.4-.3-4.9.6-7.2.9 3.9.5 7.9.5 11.9 0 .6-.1 1.4-1 1.4-.7.1-1.3-.4-1.5-1-.6-1.5-1.1-3-1.7-4.6.5-.3.8-.3 1.1 0z"
    fill="#1190b2" />
  <path
    d="M195.93 188.2c0 3-.1 5.9-.1 8.9 0 .5.1 1.4-.9 1.4-.6 0-.9-.5-.9-1 .3-4.1-1.1-8.3.8-12.3.7.7 1.1 1.4 1.1 2.4v.6zm127.5-3.2c1.1.2 1 1.1 1 1.9v9.3c0 .8.4 2.3-1 2.2-1.3-.1-.9-1.5-.9-2.4-.1-2.3-.1-4.6-.2-6.8l.2-.3c.3-1.4-.4-2.9.9-3.9z"
    fill="#3daac7" />
  <path d="M408.23 138.2v-1.9c2.9.1 4.7 2 6.5 4 .4.5.7 1.1.1 1.7-.7.7-1.5.7-2.1-.1-1.2-1.7-2.7-2.9-4.5-3.7z"
    fill="#312b41" />
  <path d="M8.23 194.8c.7-2.8 1.4-5.7 2-8.5.2-.9.7-1.7 1.5-1.5.7.1.5 1.1.3 1.7-1.5 3.7-1.4 8-3.7 11.4-1-1-.8-2-.1-3.1z"
    fill="#3daac7" />
  <path d="M247.63 138.2v-1.9c2.9.1 4.7 1.9 6.4 4 .4.5.8 1.1.2 1.7-.7.7-1.6.7-2.1-.1-1.2-1.6-2.8-2.8-4.5-3.7z"
    fill="#312b41" />
  <path
    d="M315.43 189c-.3.3-.5.6-.8.9-1.1-1.1-1.2-.3-1.3.6-.4 2.5.9 5.1-.9 7.4-.8-4.3-.8-8.6 0-12.8 3.2-.3 2.9 2 3 3.9z"
    fill="#1190b2" />
  <path
    d="M6.03 196.2c-1.5-3.1-2.4-6.4-3-9.7-.1-.5-.4-1.1.1-1.3.7-.3 1.2.2 1.4.9.9 3 1.7 5.9 2.6 8.9 0 .7-.4 1.1-1.1 1.2zm195.7-1.3c0-2.8.1-5.6.1-8.4 0-.6 0-1.4 1-1.3.9.1.8.9.8 1.5-.1 2.8.3 5.6-.3 8.3-.5.5-1.1.5-1.6-.1z"
    fill="#3daac7" />
  <path
    d="M225.03 194c-1-.7-2-1.6-3.1-2.2-2.3-1.3-3-3.2-2-5.6.9-.2 1.2.1.9 1 0 2.2 1.6 3 3.2 3.9 2.3 1.3 3.3 3.1 2.5 5.8-2.3-.1-.9-2-1.5-2.9z"
    fill="#1190b2" />
  <path
    d="M225.03 194c1.3.6.1 2.3 1.4 2.9-.7 2.3-2.5 2.2-4.3 2.1-1.5-.1-2.4-1-2.9-2.3-.2-.4-.3-1-.1-1.3.5-.6 1-.2 1.5.2 3.1 2.3 3.5 2.2 4.4-1.6zm-24.6 2.4c-2.3-2.3-2.1-6-4.5-8.2l-.2-.3c-.2-1 .2-1.6 1.2-2 1.9 2.7 3 5.8 4 8.9.2.7.1 1.2-.5 1.6z"
    fill="#3daac7" />
  <path d="M363.43 189.3v8.8h-1.1V187c0-1 .1-2 1.5-2 1.3 0 1.5 1 1.7 2l-.3.6c-.6.6-1.5.9-1.8 1.7z" fill="#1190b2" />
  <path
    d="M49.13 192c.7-.3 1-.8.9-1.5.1-.3.4-.5.7-.6h1.1c-.9 1.6.7 3.1.4 4.6-.3 1.3 1.4 3.3-.6 3.7-1 .2-1.1-2-1.3-3.2-.1-1.1-.4-2.1-1.2-3z"
    fill="#3daac7" />
  <path d="M145.73 55.5c-.6 2.5 2.3 3.9 2.1 6.3-1.3-.4-2-1.6-3-2.3-2.5-1.9-1.1-3 .9-4z" fill="#111333" />
  <path d="M118.93 185.1c2 2.6 2.5 5.7 3.1 8.8-.2.2-.4.3-.6.5-.8.1-1.5 0-2-.7-1-2.1-1.6-4.2-1.4-6.6 0-.7.4-1.4.9-2z"
    fill="#3daac7" />
  <path d="M177.93 198.1c-1.6-3.9-1.2-7.9-1.2-12 0-.3.4-.8.5-.8.5.1.7.5.7 1v11.8z" fill="#1190b2" />
  <path d="M312.53 185.1v12.8c-1.3-3.4-1.3-9.4 0-12.8z" fill="#3daac7" />
  <path d="M200.73 166.9c.7.1 1.4.2 2.1.2-.2.8-.3 1.6-.6 2.4-.4 1.3-1.3 2-2.6 1.4-1.4-.7 0-1.6.1-2.4 0-.6.4-1.2 1-1.6z"
    fill="#312b41" />
  <path d="M138.93 198c-.7-3.6-.2-7.2-.3-10.8 0-.7.1-1.7.6-1.7 1 .1.7 1.2.7 2 0 3.1.1 6.3.1 9.4.2.9-.1 1.3-1.1 1.1z"
    fill="#1190b2" />
  <path
    d="M340.53 197.9c.6-.2.9-.6 1-1.2.2 0 .3 0 .5.1 1.6.6 3.6-.6 5 .9.1.1-.1.8-.3.8-2.1.3-4.3 1.4-6.2-.6zm-69.9-6.9c-.5-.1-.9-.2-1.4-.2-.2-1.6-.4-3.2.2-4.8.5-.1.9-.3 1-.9 2.8 2.7 2.8 2.8.2 5.9z"
    fill="#3daac7" />
  <path
    d="M270.73 191.9c.7.3 1 .8 1 1.5.1 1.7 1.6 4.5 0 4.7-2.1.2-.8-2.8-1.3-4.2-.2-.4-.3-.9-.4-1.4.2-.2.4-.4.7-.6zm-109.1-1.5c-.1 1.7-1.2 1.6-2.2 1.6-1.3 0-1.7-.7-1.7-1.9.1-1.4 1.1-1.3 2.1-1.3 1.3.1 2 .7 1.8 1.6z"
    fill="#1190b2" />
  <path d="M218.73 122.4v1.7c-1.7 0-3.3 0-5 .1-1-.4-1.7-1-.9-2.1.8-.6 1.7-.7 2.7-.8 1 0 1.9.1 2.7.6.2.1.3.3.5.5z"
    fill="#111333" />
  <path d="M138.93 198c.6-.2.9-.6 1.1-1.1 1.5.5 3.3-.5 4.6.9.1.1-.1.8-.3.8-1.9.3-3.8 1-5.4-.6z" fill="#3daac7" />
  <path d="M399.23 168.1c-.9.1-1.9 0-2.1 1.2-.5-.4-1.1-.7-1.5-1.2-.7-.8-1-1.6.1-2.4 1-.7 1.4-.2 2 .5.5.7 1 1.3 1.5 1.9z"
    fill="#312b41" />
  <path
    d="M122.03 193.9c.2.3.6.5.5.8 0 1.3 2 3.1.2 3.7-1.4.5-1.7-1.9-2.1-3.2 0-.6.7-.7 1.1-1l.3-.3zm246.1-.9h-1c-1.1-1.1-1.7-2.4-1.8-3.8-.5-.7-.6-1.4-.2-2.1l.4-.1c1.3 1.8 2.3 3.8 2.6 6z"
    fill="#3daac7" />
  <path
    d="M98.03 195h-1v-8.7c0-.3.2-.8.4-.8.6-.1.7.4.7.8 0 2.9-.1 5.8-.1 8.7zm317.5 1c.5-.3 1.1-.7 1.6-1-.6 4.3-1.4 4.7-6 3.1-.1-.5.2-.7.6-.5 1.6.2 3 .2 3.8-1.6z"
    fill="#1190b2" />
  <path
    d="M116.13 195.1c-1.4.7-.8 3.8-2.2 3.2-1.7-.7.4-2.7.2-4.2 0-.4.5-.8.7-1.2.2.1.4.2.6.4.5.5.7 1.1.7 1.8zm-1.2-2.2c.1-2.2.8-4.1 1.9-5.9.4-.3.8-.4 1.3-.1-.1 2.1.4 4.4-1.5 6.1-.4.3-.9.3-1.4.1l-.3-.2z"
    fill="#3daac7" />
  <path
    d="M115.13 193.2c.3-.1.6-.2.9-.2 1.4-.1 2.7-.2 3.8.9.7.1 1.3.2 2 .3-.1.6-.5.9-1.1 1-1.5 0-3 0-4.6-.1-1-.3-1.2-1-1-1.9zm131.6-7.1h-2.2c-.8-.1-2.2-.2-2.2-.4-.2-1.4 1-.7 1.6-.7 1.1-.1 2.3-.1 3.4 0 .6.1 1.7-.6 1.6.7 0 .2-1.4.2-2.2.4z"
    fill="#1190b2" />
  <path d="M220.83 187.2c-.3-.3-.6-.7-.9-1 1.3-1.6 2.7-3.2 4.9-1.2-.1.6-.6.7-1.1.9-1.1 0-2.1.6-2.9 1.3z"
    fill="#3daac7" />
  <path
    d="M90.13 186.1c1.4 2.6 1.4 5.3 0 7.9v-7.9zm-84.1 10.1c.4-.4.8-.8 1.1-1.2.3-.1.7-.1 1-.2v3.1c-1.6 1.1-1.6 1.1-2.1-1.7zm194.4.2c.1-.5.3-1.1.4-1.6.3.2.6.2.9.1.6 0 1.1.1 1.7.1v1.9c-.1.4-.3.8-.5 1.1-.5.2-.9.2-1.4.1-.8-.3-.9-1-1.1-1.7z"
    fill="#1190b2" />
  <path d="M205.63 4.8c.2 2.9-1.6 3.3-3.9 3.2 1.1-1.4 2.4-2.5 3.9-3.2z" fill="#111333" />
  <path
    d="M72.13 186.1h-2.2c-.8-.1-2.2-.2-2.2-.4-.2-1.4 1-.7 1.6-.7 1.1-.1 2.3-.1 3.4 0 .6.1 1.8-.6 1.6.7 0 .2-1.4.3-2.2.4z"
    fill="#1190b2" />
  <path d="M323.43 185c-.3 1.3.9 2.9-.9 3.8-.7-.8-1.1-1.7-1.1-2.8.2-1.2 1.1-1.1 2-1z" fill="#01a4bb" />
  <path d="M223.73 185.8c.4-.3.7-.6 1.1-.9.5.4 1.2.6 1.6 1.1.4.5.5 1.4-.1 1.8-.6.3-1.1-.4-1.5-.9-.3-.4-.7-.7-1.1-1.1z"
    fill="#1190b2" />
  <path d="M159.83 43.6c.1 2.4-1.2 3.3-3.5 3 .9-1.3 2-2.3 3.5-3z" fill="#111333" />
  <path d="M180.83 112.4v1.4c-.1.6-.2 1.4-1.1 1.2-.5-.1-.8-.5-.8-1 0-.8-.1-1.6-.1-2.4.8-.1 1.4.4 2 .8z"
    fill="#151640" />
  <path d="M212.73 122.5c.3.6.6 1.1 1 1.7-1.3.3-2.7.3-4 0l.9-1.5c.1-.5.5-.7 1-.8.5 0 .9.2 1.1.6z" fill="#2f2a55" />
  <path
    d="M411.13 198.1c-.4-.3-.9-.5-1.2-.8-.6-.6-1.1-1.6-.1-2s1.2.8 1.5 1.5c.1.3.3.6.4.9-.2 0-.4.2-.6.4zm-214.3-12.2c-.4.7-.8 1.3-1.2 2-1.4-.5-.7-1.8-.9-2.7 1-.4 1.7-.3 2.1.7zm-78.6 1.3c-.5-.1-.9-.2-1.4-.2.1-1.3.4-2.4 2.1-1.8 0 .7 0 1.4-.1 2.2-.2-.1-.4-.1-.6-.2z"
    fill="#1190b2" />
  <path d="M365.13 187.1c.1.7.1 1.4.2 2.1-.6 0-1.2.1-1.9.1-.2-1.3 0-2.3 1.7-2.2z" fill="#01a4bb" />
  <path d="M138.53 163.1c.3.7-.1 1.1-.5 1.2-.6.2-1.3 0-1.3-.8 0-.4.3-1.1.5-1.1.6-.1 1.2.1 1.3.7z" fill="#131313" />
  <path d="M148.93 101.5c-1.5 1.8-1.8.6-2-.8.8-.1 1.5.1 2 .8zm16.8-62.9c.2 1.7-.5 2.4-2.2 1.8.5-.8 1.2-1.5 2.2-1.8z"
    fill="#111333" />
  <path d="M211.73 122.3c-.4.1-.7.2-1.1.3-.3-.2-.6-.3-.9-.5.4-.3.8-.5 1.2-.8.2-.1.5-.1.7-.1.3.2.4.4.3.6-.1.4-.1.5-.2.5z"
    fill="#3daac7" />
  <path d="M157.83 104.5c-.3.3-.7.7-1 .7-.8-.1-.8-.8-.8-1.4.6.3 1.2.5 1.8.7z" fill="#111333" />
  <path d="M170.63 34.5c.1 1.3-.9 1.2-1.7 1.3.3-.7.9-1.1 1.7-1.3z" fill="#131313" />
  <path
    d="M163.53 40.4c.2 1.4-.8 1.3-1.6 1.4.3-.7.9-1.2 1.6-1.4zm-6.2 30.4c.9 0 1.4.5 1.4 1.4-.5-.5-.9-1-1.4-1.4zm-10.5-16.2c-.1.7-.5 1-1.1 1 .1-.6.5-.9 1.1-1zm4.9-4.2c-.1.8-.6 1.2-1.4 1.2.5-.4 1-.8 1.4-1.2zm2.1-1.7c-.1.6-.5 1-1.2 1 .2-.6.6-.9 1.2-1z"
    fill="#111333" />
  <path d="M90.93 102.1c-.1.9-.6 1.3-1.5 1.3.3-.7.8-1.1 1.5-1.3z" fill="#0e0e0e" />
  <path d="M191.53 102.7c.8 0 1.1.4 1.2 1.1-.7-.2-1.1-.5-1.2-1.1z" fill="#13143d" />
  <path d="M166.83 37.7c-.1.7-.5 1-1.1 1 .1-.6.5-.9 1.1-1z" fill="#111333" />
  <path
    d="M171.73 33.5c0 .7-.4 1.2-1.2 1.1.2-.6.6-.9 1.2-1.1zm13-11c0 .8-.4 1.2-1.2 1.1.1-.6.6-.9 1.2-1.1zm2.2-1.9c-.2.7-.6 1.1-1.3 1.2.2-.6.6-1 1.3-1.2z"
    fill="#131313" />
  <path d="M346.53 96.7c-.1-.4-.1-.8-.2-1.1.7 0 1 .5 1.3 1-.3 0-.7 0-1.1.1z" fill="#511f33" />
  <path d="M197.63 11.5c-.1.5.3 1.5-.8.7.2-.2.5-.4.8-.7zm3.1-1.6c-.4 0-.8 0-1.2-.1.2-.6.6-.9 1.2-1v1.1z"
    fill="#111333" />
  <path d="M202.83 198.1c-.1-.5.1-.9.5-1.1.3.5.1.9-.5 1.1z" fill="#3daac7" />
  <path d="M212.23.9h-2.1c.7-1.1 1.4-1.3 2.1 0z" fill="#111333" />
  <path d="M201.43 198.2c.5 0 .9-.1 1.4-.1-.4 1-.9.7-1.4.1z" fill="#3daac7" />
  <path
    d="M232.73 103.4c-3 3.9-6.7 6.9-11.1 9-1-1.5-.1-2.3 1.1-2.9 1.6-1 2.9-2.4 3.9-4 1.3-1 2.6-2 3.9-3.1.7.7 1.7.2 2.2 1z"
    fill="#4d4fa2" />
  <path
    d="M211.73 122.3v-1c1.6-1.7 2.9-3.7 5.1-4.7 1-.2 1.8-1.1 2.9-.9.6-.2 1.3-.3 1.9-.5l.5.5c.3 3.9-4.2 3.3-5.5 5.8-.2.3-.5.6-.8.9-1 .1-1.9.1-2.9.2-.5-.2-.9-.2-1.2-.3z"
    fill="#5d9183" />
  <path d="M222.83 109.5c-.4 1-1.4 1.7-1.1 2.9-.6.6-1.2.6-1.9.1-1.7-1.3-1.9-2.4.5-3 .8-.2 1.6 0 2.5 0z"
    fill="#1d1d47" />
  <path
    d="M219.63 115.7c-.8.9-1.4 2.5-2.9.9.4-1.5 1.3-2.3 3-2.2 0 .4 0 .9-.1 1.3zm.2-3.2c.6 0 1.3 0 1.9-.1-.3 1.1-1 1.7-2 2 0-.6 0-1.3.1-1.9z"
    fill="#4d4fa2" />
  <path
    d="M278.53 114.4c-6.8.8-13.7 1.5-20.5 2.3-7.1.9-14.3 1.8-21.4 2.7-3.4.4-6.8.3-9.9 1.8-2.1 1.2-4.4.4-6.6.5-1.3-2 .6-2.6 1.7-3.1 2.5-1.2 5-2.4 7.8-2.6.8-.1 1.7-.1 2.5-.1 7.4.4 14.3-2.1 21.4-3.3 5.7-.9 11.3-2.5 17.1-3.3 2-.3 4-.7 5.7.8.1.9-1 2.2 1.2 2.3 3.5 0 6.7-1.1 10.1-1.6 3.3-.5 6.7-1.4 9.9.4-3.2 1.5-6.7 1.5-10.1 1.9-3 .5-5.9.8-8.9 1.3zm23.9-3.4c.3-2.5 2.5-1.5 3.9-1.9 3-1 6.2-1.3 9.2.1-4.4.8-8.6 2.2-13.1 1.8z"
    fill="#cd0d34" />
  <path d="M232.73 103.4c-.8 0-1.7.1-2.1-1 1.3-1.1 2.5-2.1 3.8-3.2.4.1.7.4.8.7.1.6-.1 1.1-.6 1.5-.4 1-1 1.7-1.9 2z"
    fill="#92509e" />
  <path d="M236.63 97.4c0 .7.1 1.4.1 2.1-.7.5-1.4.5-2.1-.1l-.2-.2c.2-1.1.8-1.9 2.2-1.8z" fill="#92509e" />
  <path d="M245.73 86.6c-.3 1-1.1 1.6-2 2.1-1.5-2.8.6-2.1 2-2.1z" fill="#22224c" />
  <path d="M238.63 95.4c-.3 1.1-.9 1.8-2 2-.1-1.4.6-2 2-2z" fill="#92509e" />
  <path d="M247.73 84.6c-.1.6-.5.9-1 1 0-.6.4-.9 1-1zm-1 1c-.1.6-.4.9-1 1 0-.6.4-.9 1-1z" fill="#22224c" />
  <path d="M173.83 118.5c0 1.1-.3 1.9-1.7 1.8-1-.1-1.2-.9-1.3-1.7 0-1 .1-2 1.4-2 1.4-.1 1.6.8 1.6 1.9z"
    fill="#151640" />
  <path
    d="M276.33 110.2c-3.4-.3-6.6.7-9.8 1.3-9.8 2.1-19.8 3.2-29.6 5.3-1.8.4-3.6.3-5.4.6-.3-.4-.3-.9 0-1.3 1.2-.8 2.5-1.5 4-.6 3.8-.8 7.5-1.6 11.3-2.3.8-.5 1.9.1 2.6-.7 11.1-2.7 22.3-5.4 33.4-8.2 3.2-.8 6.3-1.8 9.6-2-.9 3-3.4 1.9-5.4 2.2-.9.1-1.9.4-1.9 1.3 0 1.2 1.2.7 1.9.7 1.8.1 3.6 0 5.5 0 .3.2.4.5.3.6-.1.2-.3.2-.4.2-1 .1-1.9.1-2.9.2-.4.2-.7.6-1.3.6l-2.7.3c-1.2.9-2.8-.1-4 .9-1.5 1.2-3.4 0-5 .9h-.2z"
    fill="#511f33" />
  <path d="M252.53 106.3c6.1-3.2 12.6-5.5 19.1-7.7.8 1.1 3 .6 2.9 2.7-6.5 2.6-13.1 4.7-19.8 6.2-1.3.6-2.3.7-2.2-1.2z"
    fill="#312b41" />
  <path d="M252.53 106.3c.4 1 1.2 1.1 2.1 1.2-5.6 1.8-11 4.6-17 5 4.6-2.9 9.8-4.5 14.9-6.2z" fill="#131313" />
  <path
    d="M274.53 101.2c-.6-1.3-3.4-.2-2.9-2.7.2-.1.5-.2.8-.2.7-.4 1.6-.3 2.2-.9h.1c.5-.6 1.4-.4 2-.9.3-.1.5-.2.8-.2.6-.5 1.5-.3 2.1-.9h.1c2.4-.4 3.2.8 2.9 3l-.3.1-.3-.1c-1.8.5-3.8.6-5.3 1.9-.6 1-1.4 1.1-2.2.9z"
    fill="#22224c" />
  <path d="M235.53 115.5c-1.1.5-2.2 1-3.5.9-.9.6-1.3.2-1.7-.6.3-1.1 1.2-1.6 2.2-1.8 1 0 2-.3 2.9.2.1.4.1.9.1 1.3z"
    fill="#67ba2c" />
  <path d="M276.63 100.5c1-2.7 3.3-2 5.3-1.9-1.6 1.2-3.3 1.9-5.3 1.9z" fill="#312b41" />
  <path d="M235.53 114.1h-2.8l-.2-.3.2-.3c1.8 0 3.2-1.6 5-1.2-.1 1.5-1.7.9-2.2 1.8z" fill="#131313" />
  <path d="M249.43 112.5c-.6 1.3-1.7.8-2.6.7.7-1.1 1.7-.7 2.6-.7z" fill="#cd0d34" />
  <path
    d="M251.53 99.2c.5 1.6 1.9 1.2 3.1 1.3-6.2 4.1-13.3 6.4-19.8 9.9-1.1.6-2.3 1.3-3.4 2-.7.5-1.3.4-1.8-.2 1.5-4.2 5.9-4.6 8.8-7l1.2-.6c1.1-.3 2.1-.5 3-1.1.7-1.1 2-1.3 3-2 1.1-1.2 2.7-1.3 4-2 .6-.6 1.2-.7 1.9-.3z"
    fill="#111333" />
  <path
    d="M229.63 112.4h1.8c.7.1 1.1.5 1.3 1.2v.1c-.8.8-1.7 1.3-2.8 1.3-.4-.1-.8-.3-1.1-.6-.4-.7-.2-1.2.3-1.8.1 0 .3-.1.5-.2z"
    fill="#5d9183" />
  <path d="M276.53 96.6c-.4.9-1.2.9-2 .9.5-.9 1.2-.9 2-.9zm3-1c-.4 1-1.3.9-2.1.9.5-.9 1.3-1 2.1-.9z" fill="#312b41" />
  <path d="M266.63 94.7c.2-1.2 1.1-1.2 2-1.1-.3.9-1.2 1-2 1.1zm2-1.1c.3-1.2 1.3-1 2.2-1-.5.9-1.3 1-2.2 1z"
    fill="#111333" />
  <path d="M274.53 97.5c-.4 1.1-1.3 1-2.2.9.6-.8 1.3-.9 2.2-.9z" fill="#312b41" />
  <path
    d="M239.73 105.5c-2.6 1.6-5.1 3.2-7.7 4.8-.9.6-2.1.8-2.4 2.1-.5.6-1.2.7-1.9.7-.7-.3-1.3-.6-1-1.5 3.2-2.1 5.8-5 9.5-6.2 1.2-.5 2.4-.9 3.5.1z"
    fill="#3daac7" />
  <path
    d="M226.73 111.5c.1.5.4.8.9.9.6 1.5-.8 1.8-1.6 2.5-.8.4-1.6.8-2.4 1.1-.7.2-1.3.1-1.9-.3 0-.2-.1-.4-.2-.5 1.4-1.7 3.3-2.7 5.2-3.7z"
    fill="#1190b2" />
  <path d="M239.73 105.5c-1.1-.1-2.3-.1-3.4-.2.8-1.1 1.8-1.9 3.1-2.2.1.1.2.3.4.4.4.7.4 1.3-.1 2z" fill="#01a4bb" />
  <path d="M234.63 99.5c.7 0 1.4 0 2.1.1 0 1.4-.8 2-2.1 2v-2.1z" fill="#4d4fa2" />
  <g fill="#131313">
    <path
      d="M278.73 135.6c-9.8.2-17.1 8.1-17 18.3s7.6 18.1 17.3 18.1c9.6 0 17.2-7.9 17.2-18.1 0-10.4-7.7-18.5-17.5-18.3zm8.6 28.6c-1.5 3.6-4.4 5.8-8.5 5.8-4.1-.1-6.8-2.2-8.4-5.9-1.5-3.4-2-7-1.8-10.5-.1-3.7.5-7.1 1.9-10.3 1.6-3.7 4.5-5.8 8.5-5.8 3.8 0 6.7 2 8.2 5.5 3.1 7 3.1 14.2.1 21.2zM330.33 167.8V140c0-.7 0-1.3-.1-2 0-.7-.1-1.4-1-1.4-1 0-1.4.7-1.4 1.6v18.9c0 .6 0 1.6-.4 1.8-.9.6-1.5-.4-1.9-1-4.7-6-9.3-12-13.9-18.1-.6-.8-1.1-1.7-1.8-2.4-1.5-1.5-3.5-1-5.2-.7-1.9.3-1.1 2.1-1.1 3.3-.1 4.6 0 9.3 0 13.9 0 4.3-.1 8.6 0 13 .1 1.4-1.2 4 1.2 4.1 3 .1 1.5-2.8 1.5-4.2.2-6.8.1-13.6.1-20.4 0-.5-.3-1.3.5-1.6s1.1.5 1.5 1c.6.6 1 1.3 1.5 2 5.4 7.1 10.9 14.2 16.3 21.3.8 1.1 1.5 2.4 3.1 2 1.9-.5 1.1-2.2 1.1-3.3z" />
  </g>
  <path
    d="M303.43 104.4c.5-.9 1.2-1.9 2.2-1.8 4.2.3 8-1.2 12-1.9 3.3-.6 6.7-1.5 10.1-1.7 5.9-.3 11.3-3.3 17.3-2.5.5.1 1 .1 1.5.2-5.6 2.4-11.8 2.6-17.7 3.8-7.1 1.5-14.2 2.7-21.3 4-1.1.8-2.3.4-3.5.4-.3-.2-.4-.4-.6-.5zm-9.9 2c0-1.4.8-1.9 2.2-1.9 2.6 0 5.2-.1 7.7-.1l.2.2c.3.3.3.5.2.6-.1.1-.2.2-.4.2-1 .1-1.9.1-2.9.2-.4.2-.8.6-1.3.6-.9.1-1.8.2-2.8.3-1 .6-2 .7-2.9-.1z"
    fill="#511f33" />
  <path
    d="M276.53 110.3c1.5-1.5 3.3-.7 5-.9-1.4 1.9-3.3.7-5 .9zm26.9-4.9c.1-.3.1-.6.2-.8 1.3 0 2.6-.1 3.9-.1-1.1 1.7-2.7.8-4.1.9zm-9.9 1c1 0 2 .1 3 .1-1.1 1.7-2.7.8-4.1.9.1-.3.1-.6.1-.9.3 0 .7 0 1-.1zm-12 3c1.1-1.5 2.6-.8 4-.9-1 1.7-2.6.8-4 .9zm6.7-1.2c.3-.4.7-.7 1.3-.6-.3.5-.7.7-1.3.6zm11-2c.3-.5.7-.7 1.3-.6-.3.6-.7.8-1.3.6z"
    fill="#cd0d34" />
  <path
    d="M72.33 145c-.8-5.1-4.4-8.1-10.1-8.4-3.6-.2-7.3.2-10.9-.1-2.8-.2-3.3 1-3.2 3.4.1 4.6 0 9.3 0 13.9 0 4.9.1 9.9-.2 14.9-.1 2.6 1.5 2.4 3.2 2.4 1.8.1 3.2 0 3.1-2.5-.2-3.1 0-6.3-.1-9.4 0-1.9.7-2.7 2.6-2.7 2.4.1 4.7.1 7-.2 6.6-.7 9.7-4.8 8.6-11.3zm-15.8 9.5c-1.7-.2-2.3-.8-2.3-2.4.1-1.9.1-3.9.1-5.9 0-.8-.2-1.7 0-2.5.5-1.9-1.7-4.9 1.8-5.7 4.2-.9 8.4 1.1 9.6 4.3 2.7 6.8-1.9 12.8-9.2 12.2z"
    fill="#0e0e0e" />
  <path d="M261.63 92.5c-.1-.9 0-1.8.8-2.2 5.3-2.4 9.5-6.8 15.1-8.8.6.1 1 .5 1.2 1.1-5.5 3.8-11.1 7.1-17.1 9.9z"
    fill="#3daac7" />
  <path d="M278.63 82.7c-.6-.1-1-.5-1.2-1.1 1-1.6 2.7-.8 4-1.2.4.1.7.1 1.1.2-1 1.2-2.3 1.8-3.9 2.1z" fill="#5d9183" />
  <path
    d="M254.63 96.5c-.2-2.4 1.5-2.1 3-2-.5 1.5-1.6 1.9-3 2zm-3.1 2.7c-.6.1-1.2.2-1.9.3-.2-1.5.6-2.1 2-1.9 0 .5 0 1.1-.1 1.6zm.1-1.6c.5-1.6 1.8-1 2.9-1-.6 1.2-1.6 1.3-2.9 1zm6-3.1c.2-1.2 1.1-1.1 2-1-.3 1-1.1 1.1-2 1zm2-1c.2-1.2 1.1-1 2-1-.4.9-1.2 1.1-2 1z"
    fill="#3daac7" />
  <path d="M287.13 78.5c.3-.5.8-.9 1.4-.9-.2.6-.7.9-1.4.9z" fill="#1d1d47" />
  <g fill="#131313">
    <path
      d="M200.73 166.9zM213.83 138c-.2-.4.1-1.5-.9-1.2-.3.1-.7.7-.9 1.1-3.8 9.6-7.6 19.3-11.3 29 .7.5 1.4.6 2.1.1 1.1-4.4 3.9-5.9 8.3-5.1.8.1 1.7.1 2.5 0 2.7-.4 4.4.5 5.1 3.3.4 1.6 1.2 3.1 1.9 4.6.5 1.1 5 1.9 5.8 1 1-1 .1-2.1-.3-3.1l-12.3-29.7zm-.8 22h-1.6c-5-.1-6.2 1.2-3.4-5.2 1-2.2 1.3-6.3 3.1-6.2 2.5.1 2.1 4.2 3.5 6.3.4.5.5 1.2.7 1.8 1.1 3.1 1 3.2-2.3 3.3zM387.23 162.7c-1.6-1.2-2 1.5-2.9 2.4-3.6 3.7-7.8 5-12.7 3.9-4.6-1-6.9-4.5-8.2-8.6-1.3-4.2-1.4-8.4-.3-12.7 2.1-7.8 6.9-11 15.1-9.8.4-.4.4-.9.1-1.4-7.1-2.1-13.2-.2-18 5.1-5 5.4-6.1 12-3.5 18.9 4.6 12 20.9 15.5 28.9 6.1.9-1 3.3-2.5 1.5-3.9z" />
  </g>
  <path d="M249.63 99.5c-1 1.3-2.3 2-4 2 .6-2.1 2.3-2.1 4-2z" fill="#3daac7" />
  <path d="M245.73 101.5c-.5 1.4-1.6 1.9-3 2-.2-2.4 1.5-2 3-2zm-6.1 4v-2h3c-.5 1.4-1.6 1.8-3 2z" fill="#3daac7" />
  <path d="M219.63 121.4c2.4 0 4.7-.1 7.1-.1-2.4 2.3-5.3.5-8 1.1-.2-.2-.4-.4-.3-.7 0-.3.1-.4.2-.4.3-.3.7-.2 1 .1z"
    fill="#111333" />
  <g fill="#1190b2">
    <path
      d="M51.13 185.5c-1.5-1.1-3.5-.6-5.3-.4-.3 0-.8.6-.8 1-.1 4-.2 8.1.6 12.1.6-1.3.7-2.6.6-3.9-.2-2.3 1.3-2.3 2.9-2.3.9.3 1.2-.1 1-.9-.08-.21-.23-.38-.42-.53-1.32.33-2.73.88-3.28-.97-.3-1-.6-2.3.4-3.2.8-.7 1.9-.6 2.8-.2 1.6.8 1.6 2.2 1.1 3.7-.06 0-.11.01-.17.02.39.37.78.37 1.17.08.7-1.6 1-3.4-.6-4.5zM27.73 185.3c-1.2 1.9-.3 4.1-.7 6.1.6 2.2-.7 4.7.9 6.7 1.7-2 .8-4.4.7-6.5-.1-2.1 1.3-4.5-.9-6.3zM344.03 190.9c-1.9 0-2.5-1-2.5-2.8 0-2.3 1.5-2.1 3-2.1.8 0 1.6.2 2.3-.5-.9-.9-2.1-.5-3.2-.6-2.5-.3-3.6.5-3.4 3.2.3 3.2.2 6.5.3 9.8 1 .2 1.3-.2 1-1.2.3-1.9-1.2-4.7 2.5-4.7.7 0 1.8.1 1.8-.4 0-1.1-1.2-.7-1.8-.7z" />
  </g>
  <path d="M218.73 121.6c0 .3-.1.5-.1.8h-3c.1-.3.2-.5.3-.8 1-1.1 1.9-1 2.8 0z" fill="#312b41" />
  <path
    d="M218.73 121.6h-2.8c-1.5-1-.5-1.5.4-2 1.8-1.2 4.5-1.2 5.4-3.8.7-.1 1.3-.2 2-.3 1.6.2 2.8-.7 4.2-1.2.2 0 .4-.1.6-.1.5.1.9.2 1.4.3.2.4.2.8.2 1.2 0 .6.1 1.2-.4 1.8-3.7.5-7.1 1.8-10.1 4-.3-.1-.6-.1-.9.1z"
    fill="#67ba2c" />
  <path d="M267.13 113.1c1.8-1.2 3.8-.4 5.6-.4-1.8 1.2-3.7.5-5.6.4z" fill="#f30d0e" />
  <path d="M229.73 117.4c.1-.6.1-1.2.2-1.8l.4-.1c.5.6 1 .9 1.8.9-.2.3-.4.7-.5 1h-1.9z" fill="#f45d07" />
  <path d="M230.33 115.5l-.4.1v-1.2c.9-.2 1.8-.5 2.7-.7v.4c-.2 1.4-1.4 1.2-2.3 1.4z" fill="#511f33" />
  <path d="M225.43 114.4c.7-.6 1.4-1.3 2.2-1.9.7 0 1.4-.1 2-.1.1.9-.8 1.1-1.1 1.8l-.1.1c-.9.8-1.9.9-3 .1z"
    fill="#312b41" />
  <path d="M225.43 114.4c1 0 2-.1 3-.1-1.4 1.3-2.6 3.3-4.8 1.2.3-1 1.1-1.1 1.8-1.1z" fill="#5d9183" />
</svg>
