<svg version="1" xmlns="http://www.w3.org/2000/svg" viewBox="0 0 114.125 28.75"><circle fill-rule="evenodd" clip-rule="evenodd" fill="#FFF" cx="14.267" cy="15.484" r="11.833"/><g fill-rule="evenodd" clip-rule="evenodd" fill="#C90827"><path d="M106.643 14.048c.83-.038 1.359.359 1.586.718.322.472.359 1.455.359 1.927 0 1.398-.34 2.55-1.813 2.55-1.795 0-1.852-1.719-1.852-2.55 0-1.399.34-2.588 1.72-2.645zm1.963 7.614c0 .811 0 1.851-1.757 1.851-.453 0-.736-.094-.926-.188-.774-.359-.812-.982-.851-1.417h-3.004c0 .528-.019 1.53.756 2.305.529.548 1.814 1.228 3.778 1.228.889 0 2.362-.15 3.363-.755 1.437-.832 1.474-2.097 1.512-3.174v-9.484h-2.721v.926c-.435-.416-1.134-1.077-2.645-1.077-3.27 0-4.194 2.853-4.194 4.836 0 1.701.51 3.231 1.832 4.082.643.435 1.436.642 2.248.642 1.342 0 2.041-.453 2.607-.831v1.056zm-9.712-9.636H96.06v9.881h2.909v-5.555c0-1.247.416-1.455 1.814-1.7l.963-.151v-2.569c-1.511.151-2.21.586-2.853 1.134v-1.04zm-10.932 3.722c.095-.415.188-.869.586-1.304a2 2 0 0 1 1.474-.642c.51 0 1.059.189 1.417.548.415.435.491.982.548 1.398h-4.025zm4.723 2.532c-.358.699-.907 1.738-2.494 1.738-1.568 0-2.268-1.228-2.248-2.456h7.047c-.037-1.115-.113-3.042-1.398-4.421-1.265-1.36-2.966-1.417-3.552-1.417-3.892 0-5.063 3.061-5.063 5.441 0 3.231 2.059 5.101 4.987 5.101 1.587 0 2.872-.603 3.723-1.397.51-.473.85-.964 1.19-1.474l-2.192-1.115zm-13.361-4.403c1.645-.094 2.136 1.417 2.136 2.985 0 .435-.058 1.719-.587 2.418a1.921 1.921 0 0 1-1.511.736c-.661 0-1.341-.32-1.719-.926-.341-.585-.454-1.492-.454-2.21 0-.584.02-2.889 2.135-3.003zM74.431 8.55v13.357h2.797l-.113-1.039c.358.396 1.152 1.304 2.891 1.304 1.965 0 3.174-1.247 3.685-2.361.434-.869.604-2.041.604-3.042 0-3.929-2.608-5.025-4.195-5.025-1.681 0-2.418.756-2.834 1.19V8.55h-2.835zm-7.703 3.514H63.8v9.843h2.91v-5.328c0-1.227 0-2.456 1.529-2.456.567 0 1.077.227 1.305.756.112.265.132.586.132 1.474v5.555h2.891v-6.745c0-1.53-.265-2.418-1.304-2.966-.511-.284-1.172-.397-1.757-.397-.699 0-1.342.17-1.795.359-.51.245-.699.472-.982.774v-.869zm-7.687 9.843h2.871v-9.881h-2.871v9.881zm0-11.109h2.871V8.55h-2.871v2.248zm-8.173 4.95c.094-.415.188-.869.585-1.304a2.002 2.002 0 0 1 1.474-.642c.51 0 1.058.189 1.417.548.416.435.491.982.548 1.398h-4.024zm4.723 2.532c-.359.699-.907 1.738-2.494 1.738-1.568 0-2.267-1.228-2.248-2.456h7.047c-.038-1.115-.113-3.042-1.398-4.421-1.266-1.36-2.966-1.417-3.552-1.417-3.892 0-5.063 3.061-5.063 5.441 0 3.231 2.06 5.101 4.988 5.101 1.587 0 2.872-.603 3.722-1.397.51-.473.85-.964 1.19-1.474l-2.192-1.115zm-12.783-6.027h-1.436v1.776h1.436v4.761c0 .944.019 1.644.416 2.229.623.907 1.719.964 2.721.964.529 0 .907-.057 1.53-.151v-2.267l-1.039.038c-.775 0-.775-.511-.756-1.115v-4.439h1.927v-1.776h-1.908v-3.08h-2.891v3.06zm-10.956 7.991c.624.586 2.041 1.908 4.78 1.908 2.324 0 4.667-1.134 4.667-3.457 0-2.343-2.305-2.872-4.289-3.231-.944-.17-1.568-.284-1.568-.851 0-.283.264-.737 1.398-.737.68 0 1.549.265 2.475.983l1.795-1.663c-.68-.472-2.078-1.473-4.402-1.473-2.758 0-4.157 1.681-4.157 3.306 0 .737.303 1.417.737 1.852.435.434 1.04.68 1.644.85.435.132.888.227 1.322.302.567.094 1.247.151 1.682.378.17.094.378.227.378.566 0 .736-1.058.964-1.757.964-1.096 0-2.078-.586-2.872-1.36l-1.833 1.663z"/><path d="M106.643 14.048c.83-.038 1.359.359 1.586.718.322.472.359 1.455.359 1.927 0 1.398-.34 2.55-1.813 2.55-1.795 0-1.852-1.719-1.852-2.55 0-1.399.34-2.588 1.72-2.645zm1.963 7.614c0 .811 0 1.851-1.757 1.851-.453 0-.736-.094-.926-.188-.774-.359-.812-.982-.851-1.417h-3.004c0 .528-.019 1.53.756 2.305.529.548 1.814 1.228 3.778 1.228.889 0 2.362-.15 3.363-.755 1.437-.832 1.474-2.097 1.512-3.174v-9.484h-2.721v.926c-.435-.416-1.134-1.077-2.645-1.077-3.27 0-4.194 2.853-4.194 4.836 0 1.701.51 3.231 1.832 4.082.643.435 1.436.642 2.248.642 1.342 0 2.041-.453 2.607-.831v1.056zm-9.712-9.636H96.06v9.881h2.909v-5.555c0-1.247.416-1.455 1.814-1.7l.963-.151v-2.569c-1.511.151-2.21.586-2.853 1.134v-1.04zm-10.932 3.722c.095-.415.188-.869.586-1.304a2 2 0 0 1 1.474-.642c.51 0 1.059.189 1.417.548.415.435.491.982.548 1.398h-4.025zm4.723 2.532c-.358.699-.907 1.738-2.494 1.738-1.568 0-2.268-1.228-2.248-2.456h7.047c-.037-1.115-.113-3.042-1.398-4.421-1.265-1.36-2.966-1.417-3.552-1.417-3.892 0-5.063 3.061-5.063 5.441 0 3.231 2.059 5.101 4.987 5.101 1.587 0 2.872-.603 3.723-1.397.51-.473.85-.964 1.19-1.474l-2.192-1.115zm-13.361-4.403c1.645-.094 2.136 1.417 2.136 2.985 0 .435-.058 1.719-.587 2.418a1.921 1.921 0 0 1-1.511.736c-.661 0-1.341-.32-1.719-.926-.341-.585-.454-1.492-.454-2.21 0-.584.02-2.889 2.135-3.003zM74.431 8.55v13.357h2.797l-.113-1.039c.358.396 1.152 1.304 2.891 1.304 1.965 0 3.174-1.247 3.685-2.361.434-.869.604-2.041.604-3.042 0-3.929-2.608-5.025-4.195-5.025-1.681 0-2.418.756-2.834 1.19V8.55h-2.835zm-7.703 3.514H63.8v9.843h2.91v-5.328c0-1.227 0-2.456 1.529-2.456.567 0 1.077.227 1.305.756.112.265.132.586.132 1.474v5.555h2.891v-6.745c0-1.53-.265-2.418-1.304-2.966-.511-.284-1.172-.397-1.757-.397-.699 0-1.342.17-1.795.359-.51.245-.699.472-.982.774v-.869zm-7.687 9.843h2.871v-9.881h-2.871v9.881zm0-11.109h2.871V8.55h-2.871v2.248zm-8.173 4.95c.094-.415.188-.869.585-1.304a2.002 2.002 0 0 1 1.474-.642c.51 0 1.058.189 1.417.548.416.435.491.982.548 1.398h-4.024zm4.723 2.532c-.359.699-.907 1.738-2.494 1.738-1.568 0-2.267-1.228-2.248-2.456h7.047c-.038-1.115-.113-3.042-1.398-4.421-1.266-1.36-2.966-1.417-3.552-1.417-3.892 0-5.063 3.061-5.063 5.441 0 3.231 2.06 5.101 4.988 5.101 1.587 0 2.872-.603 3.722-1.397.51-.473.85-.964 1.19-1.474l-2.192-1.115zm-12.783-6.027h-1.436v1.776h1.436v4.761c0 .944.019 1.644.416 2.229.623.907 1.719.964 2.721.964.529 0 .907-.057 1.53-.151v-2.267l-1.039.038c-.775 0-.775-.511-.756-1.115v-4.439h1.927v-1.776h-1.908v-3.08h-2.891v3.06zm-10.956 7.991c.624.586 2.041 1.908 4.78 1.908 2.324 0 4.667-1.134 4.667-3.457 0-2.343-2.305-2.872-4.289-3.231-.944-.17-1.568-.284-1.568-.851 0-.283.264-.737 1.398-.737.68 0 1.549.265 2.475.983l1.795-1.663c-.68-.472-2.078-1.473-4.402-1.473-2.758 0-4.157 1.681-4.157 3.306 0 .737.303 1.417.737 1.852.435.434 1.04.68 1.644.85.435.132.888.227 1.322.302.567.094 1.247.151 1.682.378.17.094.378.227.378.566 0 .736-1.058.964-1.757.964-1.096 0-2.078-.586-2.872-1.36l-1.833 1.663z"/></g><path fill="#C90827" d="M17.014 18.902c-.657.379-1.222.053-1.222-.706v-5.634c0-.758.565-1.084 1.222-.706l4.879 2.817c.657.379.657 1.032 0 1.411l-4.879 2.818z"/><path fill-rule="evenodd" clip-rule="evenodd" fill="#C90827" d="M106.643 14.048c.83-.038 1.359.359 1.586.718.322.472.359 1.455.359 1.927 0 1.398-.34 2.55-1.813 2.55-1.795 0-1.852-1.719-1.852-2.55 0-1.399.34-2.588 1.72-2.645zm1.963 7.614c0 .811 0 1.851-1.757 1.851-.453 0-.736-.094-.926-.188-.774-.359-.812-.982-.851-1.417h-3.004c0 .528-.019 1.53.756 2.305.529.548 1.814 1.228 3.778 1.228.889 0 2.362-.15 3.363-.755 1.437-.832 1.474-2.097 1.512-3.174v-9.484h-2.721v.926c-.435-.416-1.134-1.077-2.645-1.077-3.27 0-4.194 2.853-4.194 4.836 0 1.701.51 3.231 1.832 4.082.643.435 1.436.642 2.248.642 1.342 0 2.041-.453 2.607-.831v1.056zm-9.712-9.636H96.06v9.881h2.909v-5.555c0-1.247.416-1.455 1.814-1.7l.963-.151v-2.569c-1.511.151-2.21.586-2.853 1.134v-1.04zm-10.932 3.722c.095-.415.188-.869.586-1.304a2 2 0 0 1 1.474-.642c.51 0 1.059.189 1.417.548.415.435.491.982.548 1.398h-4.025zm4.723 2.532c-.358.699-.907 1.738-2.494 1.738-1.568 0-2.268-1.228-2.248-2.456h7.047c-.037-1.115-.113-3.042-1.398-4.421-1.265-1.36-2.966-1.417-3.552-1.417-3.892 0-5.063 3.061-5.063 5.441 0 3.231 2.059 5.101 4.987 5.101 1.587 0 2.872-.603 3.723-1.397.51-.473.85-.964 1.19-1.474l-2.192-1.115zm-13.361-4.403c1.645-.094 2.136 1.417 2.136 2.985 0 .435-.058 1.719-.587 2.418a1.921 1.921 0 0 1-1.511.736c-.661 0-1.341-.32-1.719-.926-.341-.585-.454-1.492-.454-2.21 0-.584.02-2.889 2.135-3.003zM74.431 8.55v13.357h2.797l-.113-1.039c.358.396 1.152 1.304 2.891 1.304 1.965 0 3.174-1.247 3.685-2.361.434-.869.604-2.041.604-3.042 0-3.929-2.608-5.025-4.195-5.025-1.681 0-2.418.756-2.834 1.19V8.55h-2.835zm-7.703 3.514H63.8v9.843h2.91v-5.328c0-1.227 0-2.456 1.529-2.456.567 0 1.077.227 1.305.756.112.265.132.586.132 1.474v5.555h2.891v-6.745c0-1.53-.265-2.418-1.304-2.966-.511-.284-1.172-.397-1.757-.397-.699 0-1.342.17-1.795.359-.51.245-.699.472-.982.774v-.869zm-7.687 9.843h2.871v-9.881h-2.871v9.881zm0-11.109h2.871V8.55h-2.871v2.248zm-8.173 4.95c.094-.415.188-.869.585-1.304a2.002 2.002 0 0 1 1.474-.642c.51 0 1.058.189 1.417.548.416.435.491.982.548 1.398h-4.024zm4.723 2.532c-.359.699-.907 1.738-2.494 1.738-1.568 0-2.267-1.228-2.248-2.456h7.047c-.038-1.115-.113-3.042-1.398-4.421-1.266-1.36-2.966-1.417-3.552-1.417-3.892 0-5.063 3.061-5.063 5.441 0 3.231 2.06 5.101 4.988 5.101 1.587 0 2.872-.603 3.722-1.397.51-.473.85-.964 1.19-1.474l-2.192-1.115zm-12.783-6.027h-1.436v1.776h1.436v4.761c0 .944.019 1.644.416 2.229.623.907 1.719.964 2.721.964.529 0 .907-.057 1.53-.151v-2.267l-1.039.038c-.775 0-.775-.511-.756-1.115v-4.439h1.927v-1.776h-1.908v-3.08h-2.891v3.06zm-10.956 7.991c.624.586 2.041 1.908 4.78 1.908 2.324 0 4.667-1.134 4.667-3.457 0-2.343-2.305-2.872-4.289-3.231-.944-.17-1.568-.284-1.568-.851 0-.283.264-.737 1.398-.737.68 0 1.549.265 2.475.983l1.795-1.663c-.68-.472-2.078-1.473-4.402-1.473-2.758 0-4.157 1.681-4.157 3.306 0 .737.303 1.417.737 1.852.435.434 1.04.68 1.644.85.435.132.888.227 1.322.302.567.094 1.247.151 1.682.378.17.094.378.227.378.566 0 .736-1.058.964-1.757.964-1.096 0-2.078-.586-2.872-1.36l-1.833 1.663zM4.755 15.441a9.486 9.486 0 0 1 9.486-9.486 9.486 9.486 0 1 1 0 18.971 9.484 9.484 0 0 1-9.486-9.485zm-2.79 0c0-6.78 5.496-12.275 12.276-12.275 6.78 0 12.276 5.496 12.276 12.275 0 6.78-5.496 12.275-12.276 12.275-6.78.001-12.276-5.494-12.276-12.275z"/></svg>