<svg xmlns="http://www.w3.org/2000/svg" viewBox="0 0 24.6 24.5">
  <circle cx="12.3" cy="12.3" r="11.8" fill-rule="evenodd" clip-rule="evenodd" fill="#fff" />
  <path d="M15 15.7c-.7.4-1.2.1-1.2-.7V9.4c0-.8.6-1.1 1.2-.7l4.9 2.8c.7.4.7 1 0 1.4L15 15.7z" fill="#c90827" />
  <path
    d="M2.8 12.3C2.8 7 7 2.8 12.3 2.8s9.5 4.2 9.5 9.5-4.2 9.5-9.5 9.5-9.5-4.3-9.5-9.5zm-2.8 0C0 5.5 5.5 0 12.3 0s12.3 5.5 12.3 12.3c0 6.8-5.5 12.3-12.3 12.3C5.5 24.6 0 19.1 0 12.3z"
    fill-rule="evenodd" clip-rule="evenodd" fill="#c90827" />
</svg>
