<svg xmlns="http://www.w3.org/2000/svg" viewBox="0 0 600 126.5">
  <path
    d="M534.6 125.1v-22-34.8L492 2.3h27l26.8 43.1L573 2.3h27l-43 66v32.2c0 22.7-22.4 24.6-22.4 24.6M574.2 109.9v3.6h1.3l1.8-.5.6-1.4-.9-1.4-1.9-.3h-.9m6.8 10.2h-3c-.4-3.3.2-4.6-3.8-4.4v4.4H571v-12.3h3.3c1.5 0 2.4.1 2.6.1.9.1 1.8.2 2.3.6 1.1.6 1.7 1.6 1.7 2.9 0 1-.3 1.8-.8 2.3-.6.4-1.3.8-2.2.8l1.8.7c.8.6 1.1 1.5 1.1 2.8v1.4l.1.4.1.3m-5.2-15.4c-2.5 0-4.7.9-6.5 2.8-1.8 1.7-2.7 3.9-2.7 6.4 0 2.6.9 4.8 2.7 6.5 1.8 1.8 3.9 2.7 6.5 2.7 2.5 0 4.7-.9 6.5-2.7 1.8-1.8 2.7-4 2.7-6.5 0-2.4-.8-4.6-2.6-6.4-1.9-1.8-4-2.8-6.6-2.8m0 20.3c-3.1 0-5.7-1-7.8-3.2-2.2-2.1-3.3-4.8-3.3-7.9 0-3.2 1.2-5.9 3.5-8.1 2.1-2 4.7-3 7.5-3 3.1 0 5.7 1.1 7.9 3.3 2.2 2.2 3.3 4.8 3.3 7.8 0 3.2-1.2 5.8-3.4 8-2 2-4.6 3.1-7.7 3.1M38.4 125V22.4H0V2.3h100.4v20.1H62.3v78.4c0 22.9-23.9 24.2-23.9 24.2M290.5 126.5c-3.5-.2-7.5-2.5-10.1-5l-58.3-79.4v66.1c-.7 7.1-8.3 16.9-19 16.9h-3.6V15.5c0-9.2 5-12 8.8-13.3 1.7-.4 3.3-.6 4.8-.6 12.1 0 18.7 12.8 26.3 24 13.2 18.9 24.8 35.5 39.7 56.4 0 0 .1-66.2.2-68.7.2-4.7 4-8.8 8.1-11.1 2.2-.8 4.7-1.3 7.2-1.3 4.2 0 8.3 1.3 11.2 4l53 77.1V19.1c.8-7.1 8.3-16.9 19.1-16.9h3.5v113.4c.1 7.5-4.8 10.6-11.2 10.6h-.3c-4.5 0-9.5-3.9-12.3-7.1l-56.1-77v73c.1 6.6-2.3 11.4-11 11.4M134.3 39l-13.8 32.8h27.8c-14-32.8-.1 0-14-32.8m59.9 86.1h-12.3c-16.1-2.3-17.6-19.8-23.9-30.9h-47.5c-6.2 11.1-7.8 28.6-23.8 30.9H74.5l31.3-80.8 16.4-42h24.4l16.3 42 31.3 80.8" />
  <path
    d="M449 22.3c-22.4 0-40.6 18.2-40.6 40.6 0 22.5 18.2 40.6 40.6 40.6 22.5 0 40.7-18.1 40.7-40.6 0-22.4-18.2-40.6-40.7-40.6m0 103.6c-34.7 0-62.8-28.2-62.8-62.9s28-63 62.8-63 62.9 28.2 62.9 62.9-28.1 63-62.9 63" />
</svg>
