<?xml version="1.0" encoding="utf-8"?>
<!-- Generator: Adobe Illustrator 24.2.1, SVG Export Plug-In . SVG Version: 6.00 Build 0)  -->
<svg version="1.1" id="layer" xmlns="http://www.w3.org/2000/svg" xmlns:xlink="http://www.w3.org/1999/xlink" x="0px" y="0px"
	 viewBox="0 0 687.7 509.4" style="enable-background:new 0 0 687.7 509.4;" xml:space="preserve">
<style type="text/css">
	.st0{fill:#FFFFFF;}
	.st1{fill:none;stroke:#231815;stroke-width:16.0273;}
	.st2{fill:#231815;}
</style>
<polyline class="st0" points="15.9,200.4 343.5,9.3 671.8,198.9 344.3,391.9 15.9,200.4 "/>
<polygon class="st1" points="15.9,200.4 343.5,9.3 671.8,198.9 344.3,391.9 "/>
<polygon class="st1" points="15.9,199.6 343.9,9.3 671.8,199.6 343.9,391.9 "/>
<path class="st2" d="M12.3,443.6v47.6c0,6.6,1.9,12.2,9.5,12.2s9.5-5.6,9.5-12.2v-47.6h7v47.8c0,10.4-4.8,18-16.5,18
	s-16.5-7.5-16.5-18v-47.8L12.3,443.6"/>
<polyline class="st2" points="69.2,443.6 85.9,491.4 86.1,491.4 86.1,443.6 93.1,443.6 93.1,508.4 85.6,508.4 65.4,452 65.3,452 
	65.3,508.4 58.3,508.4 58.3,443.6 69.2,443.6 "/>
<rect x="113.6" y="443.6" class="st2" width="7" height="64.8"/>
<polyline class="st2" points="144.4,443.6 155.8,495 156,495 167.4,443.6 174.4,443.6 159.2,508.4 152.7,508.4 137.4,443.6 
	144.4,443.6 "/>
<polyline class="st2" points="220.4,443.6 220.4,449.5 197.8,449.5 197.8,471.6 214.5,471.6 214.5,477.5 197.8,477.5 197.8,502.5 
	221.5,502.5 221.5,508.4 190.8,508.4 190.8,443.6 220.4,443.6 "/>
<path class="st2" d="M239.6,443.6h15.6c10.4,0,17.8,6.1,17.8,16.8c0,7.3-3.2,13.4-10.4,15.9l11,32.1h-7.4l-10.4-30.7l-9.2,0.4v30.3
	h-7V443.6 M246.6,472h6.1c10.1,0,13.3-4,13.3-11.2c0-7.3-3.2-11.2-13.3-11.2h-6.1V472z"/>
<path class="st2" d="M316.6,460.3c-0.5-6.6-3.2-11.7-10-11.7c-5.4,0-8.9,3.6-8.9,8.5c0,14.6,26,14.8,26,35.6
	c0,10.3-5.9,16.5-16.6,16.5c-10.2,0-16.3-7.5-16.4-18.3h6.5c0.2,7.6,3.8,12.4,10.7,12.4c5.8,0,9.6-3.8,9.6-10.7
	c0-14.7-26-16.4-26-34.9c0-9.1,6.3-15.1,15.6-15.1c9.3,0,15.4,6.3,16,17.6h-6.5"/>
<path class="st2" d="M361.2,443.6l14.3,64.8h-7l-3.9-19.2h-16.5l-3.9,19.2h-7l14.3-64.8L361.2,443.6 M349,483.3h14.5l-7.2-34.8h-0.2
	L349,483.3z"/>
<polyline class="st2" points="398.1,443.6 398.1,502.5 419.1,502.5 419.1,508.4 391.1,508.4 391.1,443.6 398.1,443.6 "/>
<path class="st2" d="M482.8,443.6l14.3,64.8h-7l-3.9-19.2h-16.5l-3.9,19.2h-7l14.3-64.8L482.8,443.6 M470.7,483.3h14.5l-7.2-34.8
	h-0.2L470.7,483.3z"/>
<path class="st2" d="M519.8,443.6v47.6c0,6.6,1.9,12.2,9.5,12.2s9.5-5.6,9.5-12.2v-47.6h7v47.8c0,10.4-4.8,18-16.5,18
	s-16.5-7.5-16.5-18v-47.8L519.8,443.6"/>
<path class="st2" d="M566.6,443.6h12c13.7,0,21.9,7.5,21.9,32.4c0,24.9-8.3,32.4-21.9,32.4h-12V443.6 M573.6,502.5h3.8
	c10.2,0,16.2-4.3,16.2-26.5s-5.9-26.5-16.2-26.5h-3.8V502.5z"/>
<rect x="621" y="443.6" class="st2" width="7" height="64.8"/>
<path class="st2" d="M665.9,509.3c-11,0-18.3-9.1-18.3-33.3c0-24.1,7.4-33.3,18.3-33.3c11,0,18.3,9.2,18.3,33.3
	C684.2,500.2,676.9,509.3,665.9,509.3 M665.9,448.6c-6.3,0-11.3,5.4-11.3,27.4s5,27.4,11.3,27.4s11.3-5.4,11.3-27.4
	C677.2,454,672.2,448.6,665.9,448.6z"/>
<path class="st2" d="M412.3,228.2l156.7-8.6v-7.2l-156.7-0.7v-81.4c0,0,0-2.8-0.1-6c0-1.9,0.1-4.3,0.1-7.2
	c0.3-55.1-47.2-51.7-48-51.6c-0.8-0.1-48.3-3.5-48,51.6c0,2.9,0,5.3,0.1,7.2c0,3.2-0.1,6-0.1,6v81.1h-10.4l-17.5,23.7l27.9-1.5v25.1
	c0,0,0,8,0,13.7c-0.1,31.3-25.1,29.3-25.7,29.2l0,0l0,0c-0.7,0.1-26,2.1-26.1-29.2c0-5.7,0-13.7,0-13.7V155.2c0,0,0-2.8-0.1-6
	c0-1.9,0.1-7.5,0.1-10.4c-0.7-48.6-57.2-31-57.2-31s34.8-1.1,34.9,30.7c0,4.1,0.1,12.7,0.2,15.4c0,0.8,0,1.3,0,1.3v103.5
	c0,0,0.1,3.8,0,13.2c-0.3,55.4,47.8,52,48.2,52c0.3,0,48.3,3.4,48-52c-0.1-9.3,0-13.2,0-13.2v-26.4l51.8-2.9v43.7h-0.1
	c0,1.9-0.1,7.5-0.1,10.4c0.7,48.6,57.2,31,57.2,31s-34.8,1.1-34.9-30.7c0-2.3,0-5.9-0.1-9.2l0,0L412.3,228.2 M338.4,211.4v-81.1
	c0,0,0-0.5,0-1.3c0-2.7,0.2-8.1,0.2-12.2c0.1-31.7,25.9-29.3,25.9-29.3S390,85,390,116.8c0,4.1,0.1,9.5,0.2,12.2c0,0.8,0,1.3,0,1.3
	v81.3L338.4,211.4z"/>
<rect x="490.6" y="166.1" class="st2" width="3.4" height="30.7"/>
<path class="st2" d="M516.8,166.1h3.4v30.7h-5.6l-8.6-24.6c-0.5-1.4-0.8-2.8-1.1-4.6h-0.1c0.1,1.6,0.1,3.2,0.1,4.7v24.5h-3.4v-30.7
	h5.5l8.7,25.1c0.3,0.9,0.6,1.9,1,3.4h0.1c0-1.1-0.1-2.3-0.1-3.4L516.8,166.1"/>
<path class="st2" d="M541,175.4c-0.1-3.6-1.3-6.8-5.5-6.8c-5.9,0-6,8.4-6,12.5c-0.2,4.2-0.3,13.5,6,13.5c4,0,4.9-3.3,5.3-6.7
	c0.1-0.7,0.1-1.4,0.2-2.1h3.4c-0.1,0.6-0.1,1.3-0.2,1.9c-0.2,2.5-0.4,4.4-1.8,6.5c-1.6,2.2-3.7,3.4-6.7,3.4c-9.4,0-9.8-9.1-9.8-16.5
	c0-6.9,1-15.6,9.8-15.6c5.8,0,8.8,4.3,8.7,9.8H541"/>
<rect x="550.2" y="192.7" class="st2" width="3.7" height="4.1"/>
</svg>
