<svg width="39" height="35" viewBox="0 0 39 35" fill="none" xmlns="http://www.w3.org/2000/svg"><path d="M33.891 28.827c3.242-3.49 5.11-8.106 5.11-12.83 0-6.28-3.187-12.132-8.46-15.675L30.155 0l-1.209 1.181.275.376c1.703 2.308 2.472 5.1 2.252 7.945-.165 2.04-.879 3.865-1.977 5.475-2.582-2.47-6.098-3.972-9.999-3.972-3.9 0-7.416 1.503-9.998 3.972a11.565 11.565 0 0 1-2.033-6.55c0-2.468.77-4.884 2.308-6.87l.274-.376L8.841 0l-.385.268C2.413 4.348-.773 11.327.161 18.52c.494 3.919 2.307 7.462 4.944 10.253V35h28.786v-6.173zm0-1.718v-2.04c0-.698-.055-1.342-.164-1.986a16.433 16.433 0 0 0 3.076-9.555c0-1.557-.22-3.114-.66-4.563l.385.214a17.529 17.529 0 0 1 1.374 6.764c-.055 4.08-1.429 7.999-4.01 11.166zm-14.557 6.817c-.66 0-1.264-.053-1.923-.107a18.544 18.544 0 0 1-11.152-5.422v-3.274-.698a17.388 17.388 0 0 0 13.24 6.066 17.387 17.387 0 0 0 13.239-6.066v3.972l-.99.966c-3.405 3.007-7.69 4.563-12.25 4.563h-.165zM4.336 8.106l.385-.215c-.22 1.02-.33 2.094-.33 3.167 0 2.845.824 5.53 2.252 7.784-.44.859-.769 1.771-1.043 2.684a15.422 15.422 0 0 1-2.253-7.998c0-1.825.33-3.704.99-5.422zm3.022 11.81c2.746 3.596 7.196 5.958 12.14 5.958 4.944 0 9.394-2.362 12.141-5.958.44.912.714 1.932.934 2.952a16.349 16.349 0 0 1-13.075 6.495 16.349 16.349 0 0 1-13.074-6.495c.22-1.073.494-2.04.934-2.952zm3.076-2.148c2.637 2.47 6.153 3.704 9.778 3.49 3.736-.215 7.087-1.933 9.34-4.617.549.644 1.098 1.342 1.483 2.094-2.472 3.65-6.757 6.012-11.537 6.012-4.78 0-9.064-2.362-11.591-5.959.44-.751.934-1.449 1.483-2.093.33.376.66.751 1.044 1.073zm2.966.806c1.758-1.235 3.9-1.88 6.098-1.88s4.285.645 6.043 1.88a12.315 12.315 0 0 1-5.384 1.61c-2.417.107-4.724-.43-6.757-1.61zM34.66 8.106c.66 1.718.99 3.597.99 5.475 0 2.9-.825 5.637-2.253 7.999a14.388 14.388 0 0 0-1.044-2.684 14.532 14.532 0 0 0 2.252-7.784c0-1.074-.11-2.147-.33-3.167l.386.16zm-2.032 1.503c.11-.913.055-1.879-.055-2.792l.385.215c.384 1.289.604 2.63.604 4.026 0 2.416-.66 4.724-1.758 6.657a13.005 13.005 0 0 0-1.483-1.933 12.839 12.839 0 0 0 2.307-6.173zm-13.13 2.523a13.51 13.51 0 0 1 9.34 3.758 11.747 11.747 0 0 1-2.253 2.093c-2.033-1.503-4.505-2.362-7.087-2.362s-5.054.86-7.086 2.362c-.44-.322-.824-.644-1.209-.966-.384-.322-.714-.698-1.044-1.127a13.51 13.51 0 0 1 9.34-3.758zm-10.822 3.65c-.55.59-1.044 1.235-1.483 1.933-1.154-1.986-1.758-4.241-1.758-6.657 0-1.395.22-2.737.604-4.026l.33-.215c-.055.537-.11 1.074-.11 1.61.055 2.685.879 5.262 2.417 7.355zM1.26 18.36c-.44-3.167 0-6.335 1.208-9.18l.385-.214a16.089 16.089 0 0 0-.66 4.563c0 3.543 1.154 6.87 3.077 9.555a11.64 11.64 0 0 0-.165 1.986v1.986A17.039 17.039 0 0 1 1.26 18.36zM6.204 29.9c1.923 1.772 4.23 3.114 6.702 4.026H6.204V29.9zm19.886 4.026c2.363-.805 4.505-2.093 6.428-3.757.11-.054.165-.161.275-.215v3.972H26.09z" fill="#000"/></svg>