<svg xmlns="http://www.w3.org/2000/svg" viewBox="0 0 256 256" enable-background="new 0 0 256 256">
  <defs>
    <filter id="a" filterUnits="userSpaceOnUse" x="-.2" y=".7" width="256.2" height="254.7">
      <feColorMatrix values="1 0 0 0 0 0 1 0 0 0 0 0 1 0 0 0 0 0 1 0" />
    </filter>
  </defs>
  <mask maskUnits="userSpaceOnUse" x="-.2" y=".7" width="256.2" height="254.7" id="b">
    <path
      d="M181.5 254.3c4 1.6 8.6 1.5 12.7-.5l52.7-25.4c5.5-2.7 9.1-8.3 9.1-14.4V42c0-6.1-3.5-11.8-9.1-14.4L194.2 2.2c-5.3-2.6-11.6-1.9-16.3 1.5-.7.5-1.3 1-1.9 1.6L75.1 97.4 31.2 64c-4.1-3.1-9.8-2.9-13.6.6L3.5 77.5c-4.6 4.2-4.7 11.5 0 15.8L41.6 128 3.5 162.8c-4.6 4.2-4.6 11.5 0 15.8l14.1 12.8c3.8 3.5 9.5 3.7 13.6.6l43.9-33.4L176 250.7c1.6 1.6 3.5 2.8 5.5 3.6zM192 69.9L115.5 128l76.6 58.1V69.9z"
      fill-rule="evenodd" clip-rule="evenodd" fill="#fff" filter="url(#a)" />
  </mask>
  <g mask="url(#b)">
    <path
      d="M246.9 27.6L194.2 2.2C188.1-.7 180.8.5 176 5.3L3.3 162.8c-4.6 4.2-4.6 11.5 0 15.8l14.1 12.8c3.8 3.5 9.5 3.7 13.6.6L239 34.2c7-5.3 17-.3 17 8.4V42c0-6.1-3.5-11.7-9.1-14.4z"
      fill="#0065a9" />
    <path
      d="M246.9 228.4l-52.7 25.4c-6.1 2.9-13.4 1.7-18.2-3.1L3.3 93.2c-4.6-4.2-4.6-11.5 0-15.8l14.1-12.8c3.8-3.5 9.5-3.7 13.6-.6l208 157.8c7 5.3 17 .3 17-8.4v.6c0 6.1-3.5 11.7-9.1 14.4z"
      fill="#007acc" />
    <path
      d="M194.2 253.8c-6.1 2.9-13.4 1.7-18.2-3.1 5.9 5.9 16 1.7 16-6.6V12c0-8.4-10.1-12.5-16-6.6 4.8-4.8 12.1-6 18.2-3.1l52.7 25.4c5.5 2.7 9.1 8.3 9.1 14.4v172c0 6.1-3.5 11.8-9.1 14.4l-52.7 25.3z"
      fill="#1f9cf0" />
    <g opacity=".25">
      <linearGradient id="c" gradientUnits="userSpaceOnUse" x1="127.844" y1="257.34" x2="127.844" y2="2.66"
        gradientTransform="matrix(1 0 0 -1 0 258)">
        <stop offset="0" stop-color="#fff" />
        <stop offset="1" stop-color="#fff" stop-opacity="0" />
      </linearGradient>
      <path
        d="M181.4 254.3c4 1.6 8.6 1.5 12.7-.5l52.7-25.4c5.5-2.7 9.1-8.3 9.1-14.4V42c0-6.1-3.5-11.8-9.1-14.4L194.1 2.2c-5.3-2.6-11.6-1.9-16.3 1.5-.7.5-1.3 1-1.9 1.6L75 97.4 31 64c-4.1-3.1-9.8-2.9-13.6.6L3.3 77.5c-4.6 4.2-4.7 11.5 0 15.8L41.4 128 3.3 162.8c-4.6 4.2-4.6 11.5 0 15.8l14.1 12.8c3.8 3.5 9.5 3.7 13.6.6l44-33.4 100.9 92.1c1.6 1.6 3.5 2.8 5.5 3.6zm10.5-184.4L115.3 128l76.6 58.1V69.9z"
        fill-rule="evenodd" clip-rule="evenodd" fill="url(#c)" />
    </g>
  </g>
</svg>
