<svg xmlns="http://www.w3.org/2000/svg" viewBox="0 0 602.4 182.6">
  <path
    d="M176.9 172.9l-16.4-19.2-16.2 19.2h32.6zm2.5 2.7H142l-5.7 6.6h-8.8l27.1-31.4h11.7l27.6 31.4h-8.7l-5.8-6.6zM256.1 150.9h8.3v22c0 4-1.9 6.6-5.7 7.8-3.8 1.2-11.7 1.9-23.8 1.9-11.3 0-19-.6-23-1.8-4.1-1.2-6.1-3.5-6.1-6.9v-23h8.3v22c0 3 1.1 4.8 3.4 5.6 2.3.8 7.9 1.1 16.8 1.1 9.7 0 15.7-.4 18.1-1.1s3.6-2.6 3.6-5.6v-22h.1zM291.3 179.3h24.1c8.8 0 14.5-.7 17.1-2.3 2.6-1.5 3.8-4.8 3.8-10 0-5.7-1.1-9.3-3.3-10.8-2.2-1.5-7.5-2.3-15.9-2.3h-25.8v25.4zm-8.4 3v-31.4h34.2c10.6 0 17.7 1 21.5 3s5.6 5.8 5.6 11.4c0 6.8-1.7 11.3-5 13.6s-10 3.4-20 3.4h-36.3zM362.3 150.9h8.3v31.4h-8.3zM420.3 153.5c-11.7 0-18.5.6-20.5 1.7s-3 4.9-3 11.4 1 10.3 3 11.4 8.8 1.7 20.5 1.7 18.6-.6 20.6-1.7 3-4.9 3-11.4v-5c0-3.5-1.4-5.7-4.1-6.6-2.8-1-9.3-1.5-19.5-1.5m.1-2.9c14 0 22.7.9 26.2 2.6s5.3 6.1 5.3 13c0 7.5-1.7 12.1-5 13.8-3.4 1.7-12.2 2.6-26.4 2.6s-23-.9-26.4-2.6-5.1-6.2-5.1-13.4v-2.2l.1-3c0-4.2 2.2-7 6.6-8.5 4.3-1.6 12.6-2.3 24.7-2.3" />
  <path
    d="M165.3 92c0 8.5-.8 15.2-2.4 19.9-1.6 4.7-4.5 9.1-8.8 13.3-4.2 4.2-9.4 7.3-15.6 9.6-6.2 2.2-12.7 3.3-19.6 3.3-8.6 0-15.7-1.1-21.2-3.3-5.5-2.2-10.5-5.9-14.9-11.2-7.5 9.7-18.8 14.5-33.9 14.5-14.2 0-25.6-3.8-34-11.4S2.3 108.8 2.3 96V11.8h32.9v80.6c0 12.3 5.2 18.4 15.5 18.4 10.9 0 16.3-6.2 16.3-18.6V11.8h32.9v80.8c0 12.1 5.4 18.2 16.3 18.2 5.6 0 9.7-1.5 12.3-4.6s3.8-8 3.8-14.7V11.8h32.9l.1 80.2z"
    fill="#fa4c06" />
  <path
    d="M165.3 92c0 8.5-.8 15.2-2.4 19.9-1.6 4.7-4.5 9.1-8.8 13.3-4.2 4.2-9.4 7.3-15.6 9.6-6.2 2.2-12.7 3.3-19.6 3.3-8.6 0-15.7-1.1-21.2-3.3-5.5-2.2-10.5-5.9-14.9-11.2-7.5 9.7-18.8 14.5-33.9 14.5-14.2 0-25.6-3.8-34-11.4S2.3 108.8 2.3 96V11.8h32.9v80.6c0 12.3 5.2 18.4 15.5 18.4 10.9 0 16.3-6.2 16.3-18.6V11.8h32.9v80.8c0 12.1 5.4 18.2 16.3 18.2 5.6 0 9.7-1.5 12.3-4.6s3.8-8 3.8-14.7V11.8h32.9l.1 80.2h0z"
    fill="none" stroke="#fa4c06" stroke-width="4.681" />
  <path
    d="M282.7 136.1H250V87.7l-29.3.1V63.9H250v-4.8c0-14.7-5.9-22.1-17.6-22.1-12.3 0-18.4 7.1-18.4 21.4v77.7h-32.7V59.2c0-15.2 4.5-27.3 13.5-36.1s21.3-13.3 36.8-13.3c16 0 28.6 4.4 37.6 13.3s13.5 21.3 13.5 37.3v75.7z"
    fill="#fa4c06" />
  <path
    d="M282.7 136.1H250V87.7l-29.3.1V63.9H250v-4.8c0-14.7-5.9-22.1-17.6-22.1-12.3 0-18.4 7.1-18.4 21.4v77.7h-32.7V59.2c0-15.2 4.5-27.3 13.5-36.1s21.3-13.3 36.8-13.3c16 0 28.6 4.4 37.6 13.3s13.5 21.3 13.5 37.3v75.7z"
    fill="none" stroke="#fa4c06" stroke-width="4.681" />
  <path
    d="M396.6 136.1h-32.7v-28.4c0-7.1-1.1-12.1-3.4-15.1s-6.8-4.6-13.6-4.6l-9.1-.1-.1-23.9h5.4c11.7 0 17.6-4.5 17.6-13.4 0-4.1-1.2-7.4-3.6-9.8-2.4-2.5-5.7-3.7-10-3.7-6.1 0-10.6 2.4-13.2 7.3-2 3.1-3 8.7-3 16.7v75.1h-32.6V54.9c0-14.1 4.3-25.2 12.9-33.2s20.5-12 35.8-12c13.4 0 24.6 3.5 33.8 10.6 9.2 7.1 13.7 15.7 13.7 26 0 5.7-1.1 10.7-3.4 15s-5.9 8.1-11 11.4c6.1 2.4 10.5 5.7 12.9 10.1 2.5 4.4 3.7 10.8 3.7 19.1l-.1 34.2z"
    fill="#fa4c06" />
  <path
    d="M396.6 136.1h-32.7v-28.4c0-7.1-1.1-12.1-3.4-15.1s-6.8-4.6-13.6-4.6l-9.1-.1-.1-23.9h5.4c11.7 0 17.6-4.5 17.6-13.4 0-4.1-1.2-7.4-3.6-9.8-2.4-2.5-5.7-3.7-10-3.7-6.1 0-10.6 2.4-13.2 7.3-2 3.1-3 8.7-3 16.7v75.1h-32.6V54.9c0-14.1 4.3-25.2 12.9-33.2s20.5-12 35.8-12c13.4 0 24.6 3.5 33.8 10.6 9.2 7.1 13.7 15.7 13.7 26 0 5.7-1.1 10.7-3.4 15s-5.9 8.1-11 11.4c6.1 2.4 10.5 5.7 12.9 10.1 2.5 4.4 3.7 10.8 3.7 19.1l-.1 34.2h0z"
    fill="none" stroke="#fa4c06" stroke-width="4.681" />
  <path
    d="M413.2 55.7c0-8.5.8-15.2 2.4-19.9s4.5-9.1 8.8-13.3c4.2-4.2 9.4-7.3 15.6-9.6 6.2-2.2 12.7-3.3 19.5-3.3 8.6 0 15.7 1.1 21.2 3.3s10.5 5.9 14.9 11.2c7.5-9.7 18.8-14.5 33.9-14.5 14.2 0 25.6 3.8 34 11.4s12.6 17.9 12.6 30.8v84.1h-32.9V55.3c0-12.3-5.2-18.4-15.5-18.4-10.9 0-16.3 6.2-16.3 18.6v80.4h-32.9V55.1c0-12.1-5.4-18.2-16.3-18.2-5.6 0-9.7 1.5-12.3 4.6-2.6 3.1-3.8 8-3.8 14.7v79.7h-32.9V55.7z"
    fill="#fa4c06" />
  <path
    d="M413.2 55.7c0-8.5.8-15.2 2.4-19.9s4.5-9.1 8.8-13.3c4.2-4.2 9.4-7.3 15.6-9.6 6.2-2.2 12.7-3.3 19.5-3.3 8.6 0 15.7 1.1 21.2 3.3s10.5 5.9 14.9 11.2c7.5-9.7 18.8-14.5 33.9-14.5 14.2 0 25.6 3.8 34 11.4s12.6 17.9 12.6 30.8v84.1h-32.9V55.3c0-12.3-5.2-18.4-15.5-18.4-10.9 0-16.3 6.2-16.3 18.6v80.4h-32.9V55.1c0-12.1-5.4-18.2-16.3-18.2-5.6 0-9.7 1.5-12.3 4.6-2.6 3.1-3.8 8-3.8 14.7v79.7h-32.9V55.7h0z"
    fill="none" stroke="#fa4c06" stroke-width="4.681" />
  <path fill="#000"
    d="M580.3 16.5h-1.8v-14h-3.7V.9h9.3v1.6h-3.8zM587.9 0l5.7 13.1L599.2 0l3.2 16.5h-1.8l-2-10.5-5 11.2L588.5 6l-2 10.5h-1.8z" />
</svg>
