<svg xmlns="http://www.w3.org/2000/svg" xmlns:xlink="http://www.w3.org/1999/xlink" viewBox="0 0 64 64">
  <symbol id="wasabi-a" viewBox="-32 -32 64 64">
    <path
      d="M22.6-22.6c-12.5-12.5-32.8-12.5-45.3 0s-12.5 32.8 0 45.3 32.8 12.5 45.3 0 12.5-32.8 0-45.3zm3.5 19.7L12.3-15.4-9.2 4.9V-5.5L2-16.2l8.4-7.9C19.1-20.3 25-12.3 26.1-2.9zm-.2 7.5c-.5 2.7-1.4 5.4-2.8 7.9l-7.8-7.2V-5.1l10.6 9.7zM4-26l-5.9 5.6-7.3 6.9v-11.2C-5-26.2-.4-26.6 4-26zM-15 5.1l-10.9-9.8c.5-2.8 1.5-5.5 2.9-8l8 7.2V5.1zm0-26.7v8.3l-4.7-4.2c1.5-1.5 3-2.9 4.7-4.1zM-26.1 2.8L-12 15.4 9.5-4.8V5.4l-19.8 18.8c-8.8-3.8-14.8-12-15.8-21.4zM-4 25.9L9.5 13.3v11.2c-3 1.2-6.2 1.8-9.5 1.8-1.3-.1-2.6-.2-4-.4zm19.2-4.5v-8.3l4.6 4.1c-1.4 1.6-2.9 3-4.6 4.2z"
      fill="#00ce3e" />
  </symbol>
  <use xlink:href="#wasabi-a" width="64" height="64" x="-32" y="-32" transform="translate(32 32)" overflow="visible" />
</svg>
