<svg xmlns="http://www.w3.org/2000/svg" viewBox="0 0 652 652">
  <path fill="#000" d="M195.3 574h23.9l33.9-84.2h-21.2l-24.6 62.6-24.7-62.6h-21.2" />
  <path fill="#000" d="M125.3 574h23.9l33.9-84.2h-21.2l-24.6 62.6-24.7-62.6H91.4" />
  <path d="M231.7 574.7h21.6l5.7-14.9h39.2l6 14.9h21.5L291 490.5h-25.2m12.6 19.5l12.5 31.6h-24.7l12.2-31.6z"
    fill-rule="evenodd" clip-rule="evenodd" fill="#000" />
  <path fill="#000"
    d="M338.9 574.7h23.8l33.9-84.2h-21.1L350.8 553l-24.7-62.5h-21.2M403.2 574.7h70.2v-20.3h-50.8v-13.5h47v-17.4h-47V510h49.6v-19.5h-69M480 552.9c0 18.3 7.1 22.7 24.7 22.7h23.4c25.7 0 31.5-3.7 31.5-26.4 0-24.5-7-27-37-26.9-20.7.1-23.1-.1-23.1-7.4 0-4.5 3-6.5 7.3-6.5h21.4c8.9 0 9.4 2.6 9.4 8.7H557v-2.7c0-14.8-2.1-24.9-24.4-24.9h-27c-24.4 0-25.4 11.7-25.4 27 0 20.7 3.3 25.3 32.4 25.3 24.9 0 27.2.5 27.2 7.8 0 6.5-4.2 7.1-8.3 7.1h-23.7c-5.6 0-8.3-.7-8.4-9.7H480M182.5 259.4s-11.6-66.2-14.4-83.5c-2.9-15.5-5.1-28.6-9.4-48.9-3.6-19.1-5.1-23.9-9.4-36.4-2.1-6.6-5.8-14.9-13.7-14.9-7.2 0-10.1 7.2-12.3 14.3-3.6 12.5-6.5 20.9-10.1 38.2-3.6 19.1-5.8 29.8-9.4 47.7-3.6 19.1-13 83.5-13 83.5h91.7c3.6 22.1 10.9 63.8 14.5 82.9 3.6 17.9 5.8 28.6 10.2 47.7 3.6 17.3 6.5 25.7 10.1 38.8 2.2 6.5 5.1 14.3 12.3 14.3 8 0 10.9-8.9 13-14.9 4.3-13.1 5.8-17.9 10.1-37 4.3-20.3 6.5-33.4 9.4-48.9 3.6-20.9 10.1-62.1 14.5-82.9M370.8 259.4c-4.3-26.8-10.9-66.2-13.8-83.5-2.9-15.5-5.1-28.6-9.4-48.9-4.3-19.1-5.8-23.9-10.2-36.4-2.1-6.6-5-14.9-13-14.9-7.3 0-10.1 7.2-12.3 14.3-3.6 10.8-7.3 20.3-10.9 37.6-3.6 19.7-5.8 30.4-9.4 48.3-3.6 19.1-11.6 63.2-15.2 83.5h94.2c5 29.2 9.4 52.5 15.2 81.7 3.6 17.9 5.8 28.6 10.1 48.3 3.6 17.3 6.5 25.1 10.1 38.2 2.2 6.6 5.1 14.3 12.3 14.3 6.5 0 10.8-8.9 13-14.9 4.4-13.1 5.8-17.9 10.2-37 4.4-20.3 6.5-33.4 9.4-48.3 2.9-17.3 11.6-68.6 13.8-82.3M543.8 175.8c-2.2-15.5-5.1-28.6-9.4-48.9-3.6-19.1-5.1-23.9-9.4-36.4-2.2-6.6-5.8-14.9-13.8-14.9-7.3 0-9.4 7.2-11.6 14.3-4.3 12.5-7.2 20.9-10.9 38.2-3.6 19.1-5.8 29.8-9.4 47.7-3.6 19.1-10.1 63.2-14.4 83.5h93.4c-3.7-28-11.6-66.2-14.5-83.5" />
</svg>
