<svg xmlns="http://www.w3.org/2000/svg" viewBox="0 0 437.3 437.3">
  <path
    d="M366.6 366.6c-38.8 38.8-93.2 61.3-148 61.3s-109.3-22.6-148-61.3c-38.7-38.8-61.3-93.2-61.3-148s22.6-109.3 61.3-148c38.7-38.8 93.2-61.3 148-61.3s109.3 22.6 148 61.3 61.3 93.2 61.3 148-22.5 109.3-61.3 148zM373.2 64C332.8 23.6 275.9 0 218.6 0 161.4 0 104.5 23.6 64 64 23.6 104.5 0 161.4 0 218.6s23.6 114.1 64 154.6c40.5 40.5 97.4 64 154.6 64s114.1-23.6 154.6-64c40.5-40.5 64-97.4 64-154.6.1-57.2-23.5-114.1-64-154.6z"
    fill="#273691" />
  <path fill="#273691"
    d="M206.6 211.7v13.9l12 6.9 12.1-6.9v-13.9l-12.1-7zM229.1 178.4v-29.5c0-2.7-1.1-5.5-3.1-7.4-1.9-1.9-4.7-3.1-7.4-3.1s-5.5 1.1-7.4 3.1c-1.9 1.9-3.1 4.7-3.1 7.4v29.5l10.5 6 10.5-6zM153 244.4c-2.4 1.4-4.2 3.7-4.9 6.3s-.3 5.6 1 7.9c1.4 2.4 3.7 4.2 6.3 4.9 2.6.7 5.6.3 7.9-1l25.5-14.7v-12.1l-10.5-6-25.3 14.7zM284.2 244.4l-25.5-14.7-10.5 6v12.1l25.5 14.7c2.4 1.4 5.3 1.8 7.9 1 2.6-.7 5-2.5 6.3-4.9 1.4-2.4 1.8-5.3 1-7.9-.5-2.6-2.3-4.9-4.7-6.3z" />
  <path
    d="M369.7 308c-.6.3-1.3.4-1.9.2l-45.9-8.6c-1.1-.2-2.2-.8-2.9-1.6-.8-.8-1.2-2-1.3-3.1-.3-3.3-1.6-6.5-3.6-9-2.1-2.5-5-4.4-8.1-5.3-3.2-.9-6.6-.8-9.7.3-5.6 2-11.6 2.7-17.4 2.2-5.9-.6-11.6-2.4-16.8-5.3l-13.6-7.9v89.3h-19.1V258.8l-10.5-6-10.5 6v100.4H189v-89.3l-13.6 7.9c-5.1 3-10.9 4.8-16.8 5.3s-11.9-.2-17.5-2.2c-3.1-1.1-6.5-1.2-9.7-.3-3.2.9-6.1 2.8-8.2 5.3s-3.4 5.7-3.6 9c-.1 1.1-.6 2.2-1.3 3.1-.8.8-1.8 1.4-2.9 1.6l-45.9 8.6c-.6.1-1.3 0-1.9-.2-.6-.3-1.1-.7-1.4-1.3-.3-.6-.5-1.3-.4-1.9.1-.7.3-1.3.8-1.8L97 267.5c.7-.9 1.8-1.5 2.9-1.7s2.3-.1 3.3.4c3 1.4 6.4 1.9 9.6 1.3 3.2-.5 6.3-2.1 8.7-4.4 2.4-2.3 4-5.3 4.6-8.6 1.1-5.8 3.4-11.4 6.9-16.2 3.4-4.8 7.9-8.9 13-11.9l13.6-7.9L82.1 174l9.6-16.6 87 50.2 10.5-6v-12.1l-87-50.2 9.6-16.6 77.4 44.7v-15.7c0-5.9 1.3-11.8 3.8-17.2s6.1-10.2 10.6-14c2.5-2.1 4.3-5.1 5.1-8.2.8-3.2.6-6.6-.5-9.7-1.2-3.1-3.3-5.8-6-7.7-.9-.7-1.7-1.6-2-2.7-.4-1.1-.3-2.3 0-3.4l15.5-44.1c.2-.6.6-1.2 1.2-1.6.5-.4 1.2-.6 1.9-.6s1.3.2 1.9.6c.5.4 1 .9 1.2 1.6l15.5 44.1c.4 1.1.4 2.3 0 3.4s-1.1 2-2 2.7c-2.7 1.9-4.8 4.6-6 7.7s-1.3 6.5-.5 9.7 2.6 6.1 5.1 8.2c4.5 3.8 8.1 8.7 10.6 14 2.5 5.4 3.8 11.3 3.8 17.2v15.7l77.4-44.7 9.6 16.6-87 50.2v12.1l10.5 6 87-50.2 9.6 16.6-77.4 44.7 13.6 7.9c5.1 3 9.6 7 13 11.9 3.4 4.8 5.8 10.4 6.9 16.2.6 3.2 2.2 6.3 4.6 8.6s5.4 3.9 8.7 4.4c3.2.6 6.7.1 9.6-1.3 1-.5 2.2-.6 3.3-.4 1.1.2 2.2.8 2.9 1.7l30.4 35.5c.4.5.7 1.2.8 1.8.1.7-.1 1.3-.4 1.9-.7.4-1.2.8-1.8 1.1zM349.9 87.3c-34.4-34.4-82.7-54.4-131.3-54.4s-96.9 20-131.3 54.4S32.9 170 32.9 218.6s20 96.9 54.4 131.3 82.7 54.4 131.3 54.4 96.9-20 131.3-54.4 54.4-82.7 54.4-131.3c0-48.6-20-96.9-54.4-131.3z"
    fill="#273691" />
</svg>
