<?xml version="1.0" encoding="utf-8"?>
<!-- Generator: Adobe Illustrator 23.0.1, SVG Export Plug-In . SVG Version: 6.00 Build 0)  -->
<svg version="1.1" id="Capa_1" xmlns="http://www.w3.org/2000/svg" xmlns:xlink="http://www.w3.org/1999/xlink" x="0px" y="0px"
	 viewBox="0 0 437.3 437.3" style="enable-background:new 0 0 437.3 437.3;" xml:space="preserve">
<style type="text/css">
	.st0{fill:#273691;}
</style>
<path class="st0" d="M366.6,366.6c-38.8,38.8-93.2,61.3-148,61.3c-54.8,0-109.3-22.6-148-61.3c-38.7-38.8-61.3-93.2-61.3-148
	s22.6-109.3,61.3-148c38.7-38.8,93.2-61.3,148-61.3c54.8,0,109.3,22.6,148,61.3c38.7,38.7,61.3,93.2,61.3,148
	S405.4,327.9,366.6,366.6L366.6,366.6L366.6,366.6z M373.2,64C332.8,23.6,275.9,0,218.6,0C161.4,0,104.5,23.6,64,64
	C23.6,104.5,0,161.4,0,218.6c0,57.2,23.6,114.1,64,154.6c40.5,40.5,97.4,64,154.6,64c57.2,0,114.1-23.6,154.6-64
	c40.5-40.5,64-97.4,64-154.6C437.3,161.4,413.7,104.5,373.2,64L373.2,64z"/>
<polygon class="st0" points="206.6,211.7 206.6,225.6 218.6,232.5 230.7,225.6 230.7,211.7 218.6,204.7 206.6,211.7 "/>
<path class="st0" d="M229.1,178.4v-29.5c0-2.7-1.1-5.5-3.1-7.4c-1.9-1.9-4.7-3.1-7.4-3.1c-2.7,0-5.5,1.1-7.4,3.1
	c-1.9,1.9-3.1,4.7-3.1,7.4v29.5l10.5,6L229.1,178.4L229.1,178.4z"/>
<path class="st0" d="M153,244.4c-2.4,1.4-4.2,3.7-4.9,6.3c-0.7,2.6-0.3,5.6,1,7.9c1.4,2.4,3.7,4.2,6.3,4.9c2.6,0.7,5.6,0.3,7.9-1
	l25.5-14.7v-12.1l-10.5-6L153,244.4L153,244.4z"/>
<path class="st0" d="M284.2,244.4L284.2,244.4l-25.5-14.7l-10.5,6v12.1l25.5,14.7c2.4,1.4,5.3,1.8,7.9,1c2.6-0.7,5-2.5,6.3-4.9
	c1.4-2.4,1.8-5.3,1-7.9C288.4,248.1,286.6,245.8,284.2,244.4L284.2,244.4z"/>
<path class="st0" d="M369.7,308c-0.6,0.3-1.3,0.4-1.9,0.2l-45.9-8.6c-1.1-0.2-2.2-0.8-2.9-1.6c-0.8-0.8-1.2-2-1.3-3.1
	c-0.3-3.3-1.6-6.5-3.6-9c-2.1-2.5-5-4.4-8.1-5.3c-3.2-0.9-6.6-0.8-9.7,0.3c-5.6,2-11.6,2.7-17.4,2.2c-5.9-0.6-11.6-2.4-16.8-5.3
	l-13.6-7.9v89.3h-19.1V258.8l-10.5-6l-10.5,6v100.4H189v-89.3l-13.6,7.9c-5.1,3-10.9,4.8-16.8,5.3c-5.9,0.5-11.9-0.2-17.5-2.2
	c-3.1-1.1-6.5-1.2-9.7-0.3c-3.2,0.9-6.1,2.8-8.2,5.3c-2.1,2.5-3.4,5.7-3.6,9c-0.1,1.1-0.6,2.2-1.3,3.1c-0.8,0.8-1.8,1.4-2.9,1.6
	l-45.9,8.6c-0.6,0.1-1.3,0-1.9-0.2c-0.6-0.3-1.1-0.7-1.4-1.3c-0.3-0.6-0.5-1.3-0.4-1.9c0.1-0.7,0.3-1.3,0.8-1.8l30.4-35.5
	c0.7-0.9,1.8-1.5,2.9-1.7c1.1-0.2,2.3-0.1,3.3,0.4c3,1.4,6.4,1.9,9.6,1.3c3.2-0.5,6.3-2.1,8.7-4.4c2.4-2.3,4-5.3,4.6-8.6
	c1.1-5.8,3.4-11.4,6.9-16.2c3.4-4.8,7.9-8.9,13-11.9l13.6-7.9L82.1,174l9.6-16.6l87,50.2l10.5-6v-12.1l-87-50.2l9.6-16.6l77.4,44.7
	v-15.7c0-5.9,1.3-11.8,3.8-17.2c2.5-5.4,6.1-10.2,10.6-14c2.5-2.1,4.3-5.1,5.1-8.2c0.8-3.2,0.6-6.6-0.5-9.7c-1.2-3.1-3.3-5.8-6-7.7
	c-0.9-0.7-1.7-1.6-2-2.7c-0.4-1.1-0.3-2.3,0-3.4l15.5-44.1c0.2-0.6,0.6-1.2,1.2-1.6c0.5-0.4,1.2-0.6,1.9-0.6c0.7,0,1.3,0.2,1.9,0.6
	c0.5,0.4,1,0.9,1.2,1.6l15.5,44.1c0.4,1.1,0.4,2.3,0,3.4c-0.4,1.1-1.1,2-2,2.7c-2.7,1.9-4.8,4.6-6,7.7c-1.2,3.1-1.3,6.5-0.5,9.7
	c0.8,3.2,2.6,6.1,5.1,8.2c4.5,3.8,8.1,8.7,10.6,14c2.5,5.4,3.8,11.3,3.8,17.2v15.7l77.4-44.7l9.6,16.6l-87,50.2v12.1l10.5,6l87-50.2
	l9.6,16.6l-77.4,44.7l13.6,7.9c5.1,3,9.6,7,13,11.9c3.4,4.8,5.8,10.4,6.9,16.2c0.6,3.2,2.2,6.3,4.6,8.6c2.4,2.3,5.4,3.9,8.7,4.4
	c3.2,0.6,6.7,0.1,9.6-1.3c1-0.5,2.2-0.6,3.3-0.4c1.1,0.2,2.2,0.8,2.9,1.7l30.4,35.5c0.4,0.5,0.7,1.2,0.8,1.8
	c0.1,0.7-0.1,1.3-0.4,1.9C370.8,307.3,370.3,307.7,369.7,308L369.7,308L369.7,308z M349.9,87.3c-34.4-34.4-82.7-54.4-131.3-54.4
	c-48.6,0-96.9,20-131.3,54.4C52.9,121.7,32.9,170,32.9,218.6c0,48.6,20,96.9,54.4,131.3c34.4,34.4,82.7,54.4,131.3,54.4
	c48.6,0,96.9-20,131.3-54.4c34.4-34.4,54.4-82.7,54.4-131.3C404.3,170,384.3,121.7,349.9,87.3L349.9,87.3z"/>
</svg>
