<svg version="1.1" id="layer" xmlns="http://www.w3.org/2000/svg" x="0" y="0" viewBox="0 0 600 100" xml:space="preserve">
  <g id="Symbols">
    <g id="header" transform="translate(-60 -60)">
      <g transform="translate(60 60)" id="logo">
        <g id="Ebene-1">
          <g transform="translate(0 -.138)" id="Group">
            <g id="Group-2">
              <path id="Shape" class="st0"
                d="M32.4 41c0 4.2-3.4 7.7-7.8 7.7-4.3 0-7.8-3.5-7.8-7.7 0-4.3 3.5-7.7 7.8-7.7 4.4-.1 7.8 3.3 7.8 7.7" />
              <path id="Shape_1_" class="st0"
                d="M51 7.8c0 8.5-.9 9.2-9.2 9.2-4.3 0-7.8 3.4-7.8 7.7 0 4.3 3.5 7.7 7.8 7.7 4.2 0 7.6-3.3 7.6-7.7 0-8.4.7-9.1 9.2-9.1 4.3 0 7.8-3.5 7.8-7.8S63 .1 58.6.1C54.4.1 51 3.5 51 7.8" />
              <path id="Shape_2_" class="st0"
                d="M67.4 75.5c0 8.5-.6 9.2-9.2 9.2-4.3 0-7.7 3.5-7.7 7.7 0 4.3 3.3 7.7 7.7 7.7 4.3 0 7.8-3.5 7.8-7.7 0-8.3.7-9.2 9.2-9.2 4.3 0 7.8-3.5 7.8-7.7 0-4.3-3.4-7.7-7.8-7.7-4.4-.1-7.8 3.4-7.8 7.7" />
              <path id="Shape_3_" class="st0"
                d="M67.4 41.6c0 8.5-.8 9.2-9.2 9.2-4.3 0-7.7 3.5-7.7 7.7 0 4.3 3.3 7.8 7.7 7.8 4.3 0 7.8-3.5 7.8-7.8 0-8.4.7-9.1 9.2-9.1 4.3 0 7.8-3.5 7.8-7.8 0-4.1-3.4-7.6-7.8-7.6-4.4.1-7.8 3.6-7.8 7.6" />
              <path id="Shape_4_" class="st0"
                d="M33.6 92.3c0 4.3 3.5 7.7 7.8 7.7 4.2 0 7.6-3.5 7.6-7.7s-3.4-7.7-7.6-7.7c-4.3.1-7.8 3.6-7.8 7.7" />
              <path id="Shape_5_" class="st0"
                d="M15.4 41.5c0 8.5.7 9.2 9.2 9.2 4.3 0 7.8 3.5 7.8 7.7 0 4.3-3.4 7.8-7.8 7.8s-7.8-3.5-7.8-7.8c0-8.4-.7-9.1-9-9.1-4.3 0-7.8-3.5-7.8-7.8s3.5-7.7 7.8-7.7c4.1-.1 7.6 3.3 7.6 7.7" />
              <path id="Shape_6_" class="st0"
                d="M15.4 58.4c0 8.5.7 9.2 9.2 9.2 4.3 0 7.8 3.5 7.8 7.6 0 4.3-3.4 7.8-7.8 7.8s-7.8-3.5-7.8-7.8c0-8.2-.7-8.9-9-8.9-4.3 0-7.8-3.5-7.8-7.8 0-4.2 3.5-7.7 7.8-7.7 4.1-.1 7.6 3.3 7.6 7.6" />
              <path id="Shape_7_" class="st0"
                d="M49.3 58.4c0 8.5.7 9.2 9.2 9.2 4.2 0 7.6 3.5 7.6 7.6 0 4.3-3.4 7.8-7.6 7.8-4.3 0-7.8-3.5-7.8-7.8 0-8.2-.7-8.9-9.1-8.9-4.3 0-7.8-3.5-7.8-7.8 0-4.2 3.5-7.7 7.8-7.7 4.3-.1 7.7 3.3 7.7 7.6" />
              <path id="Shape_8_" class="st0"
                d="M15.4 75.1c0 8.5.7 9.2 9.2 9.2 4.3 0 7.8 3.5 7.8 7.8s-3.4 7.7-7.8 7.7-7.8-3.5-7.8-7.7c0-8.5-.7-9.2-9-9.2-4.3 0-7.8-3.5-7.8-7.8 0-4.1 3.5-7.6 7.8-7.6 4.1.1 7.6 3.6 7.6 7.6" />
              <path id="Shape_9_" class="st0"
                d="M75.7 66c-4.3 0-7.8-3.5-7.8-7.8s3.4-7.7 7.8-7.7c4.3 0 7.8 3.5 7.8 7.7-.1 4.4-3.5 7.8-7.8 7.8" />
              <path id="Shape_10_" class="st0"
                d="M58.2 49c-4.3 0-7.7-3.5-7.7-7.8s3.3-7.7 7.7-7.7c4.3 0 7.8 3.4 7.8 7.7 0 4.3-3.5 7.8-7.8 7.8" />
              <path id="Shape_11_" class="st0"
                d="M32.4 24.4c0 4.3-3.4 7.8-7.8 7.8-4.3 0-7.8-3.5-7.8-7.8s3.5-7.7 7.8-7.7c4.4-.1 7.8 3.3 7.8 7.7" />
            </g>
            <path id="Shape_12_" class="st0"
              d="M149.1 41.8h-.2l-5.6 29h11.5l-5.7-29zm-4.9-23.1h9.6l17.9 80.1h-11.5l-3.4-17.2h-15.7l-3.4 17.2h-11.5l18-80.1z" />
            <path id="Shape_13_" class="st0"
              d="M194.5 88h5.3c6.4 0 8.9-3.1 8.9-10V39.4c0-6.3-2.1-9.9-8.9-9.9h-5.3V88zM183 18.7h17c13 0 20.2 7.8 20.2 20.7v37.4c0 14.8-7.7 21.9-21.2 21.9h-16v-80z" />
            <path id="Shape_14_" class="st0"
              d="M254.3 41.8h-.2l-5.6 29H260l-5.7-29zm-4.9-23.1h9.6l17.9 80.1h-11.5L262 81.6h-15.7l-3.4 17.2h-11.5l18-80.1z" />
            <path id="Shape_15_" class="st0"
              d="M288.2 18.7h11.1L314 61.1h.3l14.6-42.4h11.2v80.1h-11.5V50.1h-.2L317 84.5h-5.8l-11.3-34.4h-.2v48.7h-11.5z" />
            <path id="Shape_16_" class="st0"
              d="M392.2 41.8h-.2l-5.6 29h11.5l-5.7-29zm-4.9-23.1h9.6l17.9 80.1h-11.5l-3.4-17.2h-15.7l-3.4 17.2h-11.5l18-80.1z" />
            <path id="Shape_17_" class="st0"
              d="M463.3 80.8c0 10.5-8.3 18.7-18.6 18.7s-18.6-8.2-18.6-18.7V18.7h11.5v61c0 5.6 3 8.3 7.1 8.3s7.1-2.7 7.1-8.3v-61h11.5v62.1z" />
            <path id="Shape_18_" class="st0"
              d="M491.3 88h5.3c6.4 0 8.9-3.1 8.9-10V39.4c0-6.3-2.1-9.9-8.9-9.9h-5.3V88zm-11.5-69.3h17c13 0 20.2 7.8 20.2 20.7v37.4c0 14.8-7.7 21.9-21.2 21.9h-16v-80z" />
            <path id="Rectangle-path_1_" class="st0" d="M533.8 18.7h11.5v80.1h-11.5z" />
            <path id="Shape_19_" class="st0"
              d="M572.9 79.9c0 5.5 3.6 8.1 7.8 8.1s7.8-2.6 7.8-8.1V37.6c0-5.5-3.6-8.1-7.8-8.1s-7.8 2.6-7.8 8.1v42.3zm-11.5-42.3c0-13 9.9-19.6 19.3-19.6S600 24.5 600 37.6v42.3c0 13-9.9 19.6-19.3 19.6s-19.3-6.5-19.3-19.6V37.6z" />
          </g>
        </g>
      </g>
    </g>
  </g>
</svg>
