<svg id="Layer_1" xmlns="http://www.w3.org/2000/svg" viewBox="0 0 612 216"><style>.st0{fill:#7d77b7}.st1{fill-rule:evenodd;clip-rule:evenodd}.st1,.st2{stroke:#fff;stroke-width:.863}</style><path d="M58.1 151.2v1.6h4.3l2.3 4.2h2.2l-8.7-15.6-.1.2v3.9l.1-.2 3.3 5.9zM58.1 145.5v-3.9L49 157h2.4l2.5-4.2h4.2v-1.6h-3.4zM75.5 148.7v1.8c1.2-.2 2.4-.5 3.4-1.1 1.1-.8 1.8-1.9 1.8-3 0-1.5-.8-2.8-2.3-3.5-.9-.4-1.9-.5-2.9-.6v1.4c1.6.2 2.9.8 2.9 2.4 0 1.7-1.3 2.4-2.9 2.6z"/><path d="M75.5 143.8v-1.4c-.7 0-1.4-.1-2.1-.1h-3.3V157h2.4v-6.4h3.1v-1.8c-.6.1-1.2.1-1.7.1h-1.3v-5.2h.7c.7-.1 1.4 0 2.2.1zM89.8 148.7v1.8c1.2-.2 2.3-.5 3.3-1.1 1.2-.8 1.8-1.9 1.8-3 0-1.5-.8-2.8-2.2-3.5-.9-.4-1.9-.5-2.9-.6v1.4c1.6.2 2.9.8 2.9 2.4 0 1.7-1.3 2.4-2.9 2.6z"/><path d="M89.8 143.8v-1.4c-.7 0-1.4-.1-2.1-.1h-3.2V157h2.3v-6.4h3v-1.8c-.6.1-1.2.1-1.7.1h-1.3v-5.2h.7c.7-.1 1.5 0 2.3.1zM101 142.3h-2.1V157h7.6v-1.7H101zM109.9 142.3h2.1V157h-2.1zM117.1 157h10.3v-1.7h-8v-5.8h7.8v-1.4h-7.8v-4.5h8v-1.3h-10.3zM139.6 155v1.7c1.4-.3 2.8-.8 4.2-1.6 2.1-1.5 3.3-3.5 3.3-5.5 0-2.3-1.1-4.2-3.4-5.6-1.4-.7-2.7-1.1-4.1-1.3v1.4c.9.2 1.8.6 2.7 1.1 1.6 1.1 2.5 2.8 2.5 4.5 0 1.6-.9 3.3-2.4 4.2-.9.5-1.9.9-2.8 1.1z"/><path d="M139.6 144v-1.4c-1.2-.2-2.4-.3-3.6-.3h-3.9V157h3.8c1.3 0 2.5 0 3.7-.3V155c-1.2.3-2.4.3-3.6.3h-1.6v-11.7h1.6c1.3 0 2.4.1 3.6.4zM165.3 150.3v2.7l3.7 4h2.8zM165.3 148.8v1.4c3.1-.2 5-1.8 5-4.1 0-2.5-2.3-3.5-5-3.7v1.3c1.6.2 2.9.9 2.9 2.7 0 1.7-1.3 2.2-2.9 2.4zM165.3 143.8v-1.3c-.8-.1-1.5-.2-2.2-.2h-3V157h2.2v-6.4h.7l2.3 2.5v-4.2c-.7.1-1.5.1-2.2.1h-.8v-5.3h.8c.7-.1 1.5 0 2.2.1zM175.5 157h10.3v-1.7h-8v-5.8h7.8v-1.4h-7.8v-4.5h8v-1.3h-10.3zM201.3 144.2c-1-1.4-2.8-2.3-5-2.3-3 0-5.5 1.6-5.5 3.8 0 2.1 2 3 4.4 3.8l1.2.4c1.8.7 3.6 1.2 3.6 3.1 0 1.4-1.9 2.7-4 2.7s-3.7-1.3-4-2.6l-2.2.4c.6 2.2 3 3.8 6.1 3.8 3.4 0 6.2-2.1 6.2-4.6 0-2.5-2.1-3.3-4.7-4.2l-1.4-.6c-1.4-.3-3.2-.8-3.2-2.1 0-1.4 1.6-2.3 3.3-2.3 1.7 0 2.8.4 3.5 1.5l1.7-.8zM206.4 157h10.3v-1.7h-8v-5.8h7.7v-1.4h-7.7v-4.5h8v-1.3h-10.3zM228.6 151.2v1.6h4.4l2.2 4.2h2.4l-8.8-15.6-.2.4v3.9l.2-.4 3.1 5.9zM228.6 145.7v-3.9l-9 15.2h2.5l2.3-4.2h4.2v-1.6h-3.4zM245.9 150.3v2.9l3.6 3.8h2.8zM245.9 148.8v1.4c3.1-.2 5.1-1.8 5.1-4.1 0-2.5-2.4-3.5-5.1-3.7v1.3c1.6.2 2.9.9 2.9 2.7 0 1.7-1.4 2.2-2.9 2.4z"/><path d="M245.9 143.8v-1.3c-.8-.1-1.6-.2-2.3-.2H241V157h2.1v-6.4h.5l2.4 2.7v-4.4c-.7.1-1.5.1-2.1.1h-.8v-5.3h.6c.6-.1 1.4 0 2.2.1zM271.3 143.3c-1.8-.8-3.7-1.4-5.9-1.4-5.7 0-10.3 3.4-10.3 7.6 0 4.2 4.7 7.6 10.3 7.6 2.2 0 4.3-.7 5.9-1.5v-2.1c-1.7 1.2-3.8 2-5.9 2-4.5 0-8-2.7-8-6 0-3.1 3.6-6 8-6 2.2 0 4.3.7 5.9 1.9v-2.1zM278.2 148.1v-5.8h-2.1V157h2.1v-7.4h10.3v7.4h2.1v-14.7h-2.1v5.8zM312.1 151.2v1.6h4.2l2.4 4.2h2.3l-8.7-15.6-.2.4v3.7l.1-.2 3.2 5.9zM312.1 145.5v-3.7L303 157h2.3l2.5-4.2h4.3v-1.6h-3.3zM324.4 157h2.2v-11.5l15.4 12.1v-15.3h-2.2v11.3l-15.4-12.2zM354.5 155v1.7c1.4-.3 2.8-.8 4.2-1.6 2.1-1.5 3.2-3.5 3.2-5.5 0-2.3-1-4.2-3.4-5.6-1.3-.7-2.6-1.1-4-1.3v1.4c.9.3 1.8.6 2.7 1.1 1.5 1.1 2.5 2.8 2.5 4.5 0 1.6-1 3.3-2.4 4.2-1 .5-1.9.9-2.8 1.1zM354.5 144v-1.4c-1.2-.2-2.4-.3-3.6-.3H347V157h3.8c1.3 0 2.5 0 3.7-.3V155c-1.2.3-2.4.3-3.6.3h-1.6v-11.7h1.6c1.4 0 2.4.1 3.6.4zM380.4 143.6h4.8v-1.3h-11.7v1.3h4.7V157h2.2zM388.6 157h10.2v-1.7h-7.9v-5.8h7.8v-1.4h-7.8v-4.5h7.9v-1.3h-10.2zM418.8 143.3c-1.9-.8-3.7-1.4-5.9-1.4-5.6 0-10.4 3.4-10.4 7.6 0 4.2 4.9 7.6 10.4 7.6 2.2 0 4.3-.7 5.9-1.5v-2.1c-1.6 1.2-3.8 2-6 2-4.5 0-8-2.7-8-6 0-3.1 3.6-6 8-6 2.3 0 4.5.7 6 1.9v-2.1zM425.9 148.1v-5.8h-2.3V157h2.3v-7.4h10v7.4h2.2v-14.7h-2.2v5.8zM443.4 157h2.3v-11.5l15.3 12.1v-15.3h-2.2v11.3l-15.4-12.2z"/><g><path d="M475.5 155.6v1.6c5.6 0 10.4-3.5 10.4-7.6s-4.8-7.5-10.4-7.5v1.6c4.7 0 8.1 2.7 8.1 5.9 0 3.3-3.4 6-8.1 6zM475.5 143.6V142c-.1 0-.1-.1-.1-.1-5.4 0-10.3 3.4-10.3 7.6 0 4.2 4.9 7.6 10.3 7.6 0 0 0 .1.1 0v-1.6h-.1c-4.5 0-7.9-2.7-7.9-6s3.5-6 8-5.9c-.1-.1-.1 0 0 0z"/></g><path d="M492.2 142.3h-2.4V157h7.7v-1.7h-5.3z"/><g><path d="M510.1 155.6v1.6c5.7 0 10.3-3.5 10.3-7.6s-4.6-7.5-10.3-7.5v1.6c4.7 0 8.1 2.7 8.1 5.9 0 3.3-3.5 6-8.1 6z"/><path d="M510.1 143.6V141.9c-5.5 0-10.3 3.4-10.3 7.6 0 4.2 4.8 7.6 10.3 7.6 0 0 0 .1 0 0v-1.6c-4.5 0-8.1-2.7-8.1-6s3.5-6 8.1-5.9z"/></g><path d="M534.4 149.4v1.6h5.9c0 2.6-3.6 4.6-6.9 4.6-2 0-4.2-.8-5.7-2-1.4-1-2.3-2.5-2.3-4.1 0-3.4 3.6-6 8.1-6 2.9 0 5.2.9 6.7 2.7l1.8-1.1c-2.2-2-5.1-3.2-8.5-3.2-5.5 0-10.2 3.4-10.2 7.6 0 4.1 4.7 7.6 10.1 7.6 2.8 0 5.6-.9 7.3-2.5 1.8-1.6 2.2-3.3 2-5.2h-8.3zM551.7 150.6v6.4h2.2v-6.4l6.5-8.3h-2.6l-5 6.4-5.1-6.4h-2.5z"/><path class="st0" d="M172.5 127.6l-47.1-81.3-46.9 81.3z"/><g><path class="st1" d="M221 45.9L196.2 89h6.6l6.4-11.6h22.9l6.3 11.6h6.6l-24-43.1zm-9.2 27l9.1-16.3 8.9 16.3h-18zM368.6 70.5c8.2-.6 13.5-5.1 13.5-11.5 0-9.1-9.5-11.2-19.7-11.2h-7.9v41.1h6.1v-18h1.6l16.2 18h7.2l-17-18.4zm-8-3.6V52h1.8c7.1 0 13.7.7 13.7 7.5 0 6.2-6.7 7.3-13.7 7.3h-1.8z"/><path class="st2" d="M514.2 52h13v-4.1h-32V52h12.9v36.9h6.1z"/></g><path d="M48.9 104.2v9.3H83l5.5-9.3zM163.2 104.1l5.6 9.4h391.8v-9.3z"/></svg>