<svg xmlns="http://www.w3.org/2000/svg" xmlns:xlink="http://www.w3.org/1999/xlink" width="159.316" height="40.972" viewBox="0 0 159.316 40.972"><defs><path id="a" d="M-69.158-91.467h297.632v297.632H-69.158z"/></defs><clipPath id="b"><use xlink:href="#a" overflow="visible"/></clipPath><path clip-path="url(#b)" d="M146.099 32.082h2.236V20.547l8.746 11.535h2.235v-15.21h-2.235v11.535l-8.746-11.535h-2.236v15.21zm-14.634-2.037V18.909h3.145c3.52 0 5.978 2.302 5.978 5.557 0 3.277-2.458 5.579-5.978 5.579h-3.145zm-2.236 2.037h5.247c4.915 0 8.414-3.167 8.414-7.616 0-4.45-3.499-7.594-8.414-7.594h-5.247v15.21zm-8.125.266c2.17 0 4.162-.931 5.603-2.391l-1.573-1.506c-1.019 1.107-2.457 1.838-4.029 1.838-3.033 0-5.601-2.657-5.601-5.823 0-3.144 2.567-5.801 5.601-5.801 1.572 0 3.011.731 4.029 1.838l1.573-1.505c-1.44-1.484-3.433-2.392-5.603-2.392-4.272 0-7.903 3.587-7.903 7.86-.001 4.273 3.63 7.882 7.903 7.882m-18.553 3.719c1.639-.023 2.856-.886 3.676-2.944l5.047-12.487h-2.28l-3.476 9.032-3.675-9.032h-2.346l4.913 11.512-.575 1.218c-.376.664-.863.885-1.572.885-.442 0-.951-.11-1.395-.354l-.486 1.683c.597.31 1.394.487 2.169.487M93.098 20.37c-1.55 0-2.944.797-3.631 1.926v-1.66h-2.192v11.446h2.192v-7.417c.177-1.351 1.55-2.391 3.144-2.391 1.55 0 2.635 1.196 2.635 2.9v6.908h2.147v-7.284c0-2.591-1.771-4.428-4.295-4.428m-13.263 0c-1.549 0-2.944.797-3.63 1.926v-1.66h-2.193v11.446h2.193v-7.417c.176-1.351 1.549-2.391 3.143-2.391 1.55 0 2.635 1.196 2.635 2.9v6.908h2.147v-7.284c.001-2.591-1.771-4.428-4.295-4.428m-11.201.266v7.416c-.178 1.351-1.55 2.391-3.144 2.391-1.55 0-2.635-1.195-2.635-2.9v-6.907h-2.148v7.283c0 2.591 1.771 4.429 4.295 4.429 1.55 0 2.945-.797 3.632-1.927v1.661h2.191V20.636h-2.191zm-20.547 9.475v-5.003h4.76c1.705 0 2.9 1.04 2.9 2.501 0 1.462-1.195 2.502-2.9 2.502h-4.76zm0-6.907v-4.362h4.428c1.527 0 2.612.93 2.612 2.192s-1.085 2.17-2.612 2.17h-4.428zm-2.235 8.878h7.505c2.724 0 4.672-1.705 4.672-4.14 0-1.683-1.019-3.055-2.79-3.919 1.373-.775 2.17-1.771 2.17-3.365 0-2.214-1.793-3.786-4.339-3.786h-7.218v15.21z"/><g><defs><path id="c" d="M15.876 11.687l8.322 1.439c-6.242-1.08-6.626-6.274-15.024-10.843-.917 3.029.982 8.492 6.702 9.404"/></defs><clipPath id="d"><use xlink:href="#c" overflow="visible"/></clipPath><linearGradient id="e" gradientUnits="userSpaceOnUse" x1="-70.017" y1="369.009" x2="-69.335" y2="369.009" gradientTransform="matrix(22.3552 0 0 -15.9007 1574.2 5875.193)"><stop offset="0" stop-color="#ffa600"/><stop offset=".34" stop-color="#ff9f00"/><stop offset=".69" stop-color="#ff7300"/><stop offset="1" stop-color="#f52900"/></linearGradient><path clip-path="url(#d)" fill="url(#e)" d="M8.257 2.283h15.941v10.843H8.257z"/><defs><path id="f" d="M9.174 2.283c8.398 4.568 8.782 9.763 15.024 10.843 3.133.542.304 5.888-3.038 5.324 6.004 2.041 11.482-3.399 8.349-5.105L9.174 2.283z"/></defs><clipPath id="g"><use xlink:href="#f" overflow="visible"/></clipPath><linearGradient id="h" gradientUnits="userSpaceOnUse" x1="-69.774" y1="364.3" x2="-69.092" y2="364.3" gradientTransform="matrix(31.1579 0 0 -24.3694 2183.182 8889.158)"><stop offset="0" stop-color="#ffa600"/><stop offset=".34" stop-color="#ff9f00"/><stop offset=".69" stop-color="#ff7300"/><stop offset="1" stop-color="#f52900"/></linearGradient><path clip-path="url(#g)" fill="url(#h)" d="M9.174 2.283h23.469v18.208H9.174z"/><g><defs><path id="i" d="M21.166 18.45h-.005a3.28 3.28 0 0 1-1.192-.463c-2.512-1.563-5.04-2.069-7.328-1.822 4.775.584 9.316 6.838 8.752 11.467a5.698 5.698 0 0 1-1.663 4.399l-2.755 2.755c2.125 1.399 5.353-.059 6.339-2.088l5.557-11.432c1.364-.323 10.068-2.579 6.141-4.928L29.52 13.35c3.108 1.713-2.361 7.135-8.354 5.1"/></defs><clipPath id="j"><use xlink:href="#i" overflow="visible"/></clipPath><linearGradient id="k" gradientUnits="userSpaceOnUse" x1="-69.747" y1="362.249" x2="-69.064" y2="362.249" gradientTransform="matrix(34.2867 0 0 -32.2475 2404.017 11706.41)"><stop offset="0" stop-color="#ffa600"/><stop offset=".34" stop-color="#ff9f00"/><stop offset="1" stop-color="#ff6200"/></linearGradient><path clip-path="url(#j)" fill="url(#k)" d="M12.641 13.35h26.298v22.835H12.641z"/></g><g><defs><path id="l" d="M12.636 16.165c-7.473.813-12.369 9.682-5.714 16.093l5.575 5.575c-3.657-3.657-4.006-9.005-1.749-12.723.242-.415.542-.806.898-1.162a5.712 5.712 0 0 1 8.083 0 5.69 5.69 0 0 1 1.663 3.683c.564-4.628-3.975-10.878-8.747-11.466h-.009z"/></defs><clipPath id="m"><use xlink:href="#l" overflow="visible"/></clipPath><linearGradient id="n" gradientUnits="userSpaceOnUse" x1="-69.793" y1="362.397" x2="-69.111" y2="362.397" gradientTransform="matrix(25.8911 0 0 -31.7769 1810.799 11542.856)"><stop offset="0" stop-color="#ffa600"/><stop offset=".34" stop-color="#ff9f00"/><stop offset=".69" stop-color="#ff7300"/><stop offset="1" stop-color="#f52900"/></linearGradient><path clip-path="url(#m)" fill="url(#n)" d="M.267 16.165h21.69v21.668H.267z"/></g><g><defs><path id="o" d="M12.497 37.833l3.139 3.138c1.048-.833 1.675-3.275.05-4.899l-4.041-4.042a5.717 5.717 0 0 1-.898-6.92c-2.256 3.718-1.907 9.066 1.75 12.723"/></defs><clipPath id="p"><use xlink:href="#o" overflow="visible"/></clipPath><linearGradient id="q" gradientUnits="userSpaceOnUse" x1="-53.277" y1="341.073" x2="-52.595" y2="341.073" gradientTransform="matrix(-8.0581 -7.2523 -7.5379 8.3754 2157.375 -3207.432)"><stop offset="0" stop-color="#ffa600"/><stop offset=".34" stop-color="#ff9f00"/><stop offset=".69" stop-color="#ff7300"/><stop offset="1" stop-color="#f52900"/></linearGradient><path clip-path="url(#p)" fill="url(#q)" d="M13.364 45.358L.604 33.874l11.834-13.149 12.76 11.484z"/></g><g><defs><path id="r" d="M20.055 6.421l9.354 5.089L20.741 0c-1.186 1.351-1.761 4.03-.686 6.421"/></defs><clipPath id="s"><use xlink:href="#r" overflow="visible"/></clipPath><linearGradient id="t" gradientUnits="userSpaceOnUse" x1="-70.764" y1="368.163" x2="-70.082" y2="368.163" gradientTransform="matrix(14.5536 0 0 -16.8792 1049.358 6220.035)"><stop offset="0" stop-color="#ffa600"/><stop offset=".34" stop-color="#ff9f00"/><stop offset="1" stop-color="#ff6200"/></linearGradient><path clip-path="url(#s)" fill="url(#t)" d="M18.98 0h10.429v11.51H18.98z"/></g><g><defs><path id="u" d="M13.559 27.989a2.13 2.13 0 1 0 4.258 0 2.13 2.13 0 0 0-4.258 0"/></defs><clipPath id="v"><use xlink:href="#u" overflow="visible"/></clipPath><linearGradient id="w" gradientUnits="userSpaceOnUse" x1="-72.509" y1="391.991" x2="-71.827" y2="391.991" gradientTransform="matrix(6.2442 0 0 -6.2442 466.316 2475.657)"><stop offset="0" stop-color="#ffa600"/><stop offset=".34" stop-color="#ff9f00"/><stop offset="1" stop-color="#ff6200"/></linearGradient><path clip-path="url(#v)" fill="url(#w)" d="M13.559 25.86h4.258v4.258h-4.258z"/></g><g><defs><path id="x" d="M0 17.698a2.129 2.129 0 1 0 4.259 0 2.129 2.129 0 0 0-4.259 0"/></defs><clipPath id="y"><use xlink:href="#x" overflow="visible"/></clipPath><linearGradient id="z" gradientUnits="userSpaceOnUse" x1="-71.503" y1="391.159" x2="-70.821" y2="391.159" gradientTransform="matrix(6.2439 0 0 -6.2445 446.456 2460.285)"><stop offset="0" stop-color="#ffa600"/><stop offset=".34" stop-color="#ff9f00"/><stop offset="1" stop-color="#ff6200"/></linearGradient><path clip-path="url(#y)" fill="url(#z)" d="M0 15.569h4.258v4.258H0z"/></g></g></svg>