<svg xmlns="http://www.w3.org/2000/svg" viewBox="0 0 225.7 263.3">
  <path
    d="M212.4 263.3H12.9C2.8 258.3.3 250 .7 239.2c.6-21.2.1-42.5.2-63.7 0-15.6.1-31.2.2-46.8 8.9-14.1 17.5-28.3 28.6-40.8C40.9 75.2 53 63.6 69.3 57.6c1.1 1.8 2.3 3.6 3.3 5.5 4.8 8.9 9.7 17.7 15.9 25.7 8.9 11.7 19.9 20.6 34.4 24.4 8.7 2.3 17.6 1.8 26.5 1.4 16.5 30.8 50.1 28 65.6 5 3.2-4.8 6.8-9.3 10.2-13.9.1 2 .2 4 .2 6 0 43.2-.2 86.3.2 129.5.1 10.7-3.2 18.1-13.2 22.1zM72.2 209.4c-5.7-9.1-10.6-17.6-16.2-25.5-2.8-3.9-2.4-6.4.6-9.8 5.3-6 10.1-12.5 15.8-19.5-6.8 0-12.4.2-18-.1-3-.1-4.8 1-6.5 3.4-3.9 5.4-8 10.7-12 16-.9-1.8-.9-3.3-1-4.7-.3-4.8 2.1-11.1-.9-13.8-3.2-2.8-9.5-.5-14.4-.9-2.6-.2-3.4.8-3.4 3.4.1 16.5.1 32.9 0 49.4 0 2.7.9 3.5 3.4 3.4 3-.2 6-.3 8.9 0 5 .6 7.4-.9 6.4-6.3-.8-4.5.8-8.1 4.9-11 2.9 4.8 5.9 9.5 8.8 14.3 1.1 1.8 2.2 2.9 4.6 2.9 11.9-.1 23.8 0 35.7-.1 1.4 0 3.2.5 3.5-1.7.9-6.4 5.4-6.3 10.3-5.9 2.5.2 5 .2 7.4 0 3-.3 4.5.9 5.3 3.7.5 1.7.7 4 3.6 4 5.9-.1 11.8 0 18.2 0-.7-2-1.2-3.3-1.8-4.7-5.4-13-10.8-26-16.3-39-1.8-4.3-2.7-10-5.9-12.2-3-2.1-8.6-.4-13.1-.8-3.7-.3-5.5 1-6.9 4.5-6.7 16.6-13.7 33.3-21 51zm68.7-27.7c.1 0 .1 0 0 0 .1 8.1.1 16.3 0 24.4 0 3.3 1 4.6 4.5 4.5 9.6-.3 19.2-.1 28.8-.1 11.9 0 11.8 0 11.7-11.9 0-3.1-.7-4.4-4.1-4.2-5.9.3-11.9-.1-17.9.1-3.2.1-4.3-.8-4.2-4.1.2-10.6 0-21.3.1-31.9 0-2.9-.5-4.2-3.8-4-3.8.3-7.6.2-11.4 0-3-.2-4 .6-3.9 3.8.4 7.7.2 15.6.2 23.4zm69.6.8c0-4.5.1-9 0-13.4-.2-4.7 2.1-11.1-.9-13.8-3.2-2.8-9.5-.5-14.4-.8-2.5-.2-3.5.7-3.4 3.4.1 16.4.1 32.8 0 49.2 0 2.5.7 3.6 3.3 3.5 4-.2 7.9-.2 11.9 0 2.8.2 3.7-.8 3.6-3.6-.2-8.2-.1-16.3-.1-24.5zm-30.2 54.7c.1 8.6 6.6 15 15.2 14.9 8.9-.1 15.1-6.6 15-15.6-.1-8.4-6.5-14.6-14.9-14.6-8.8-.1-15.4 6.5-15.3 15.3zm-72.2-.3v3c0 12.1 0 12.1 12 11.5 8.5-.4 14.1-6.3 14-14.8-.1-8.9-6.2-14.2-16.6-14.3-9.4-.1-9.4-.1-9.4 9.1v5.5zm-21.3-4.3h.3v-7.5c0-1.7-.3-2.8-2.4-2.9-2.4-.1-2.7 1.1-2.7 3 0 5 0 9.9-.3 14.9-.3 4.5-2.7 7.1-7.3 7-4.2 0-6.8-3.2-6.8-8.1-.1-4.6-.1-9.3 0-13.9 0-2-.4-3-2.7-2.9-2.4 0-2.7 1.2-2.6 3.1.1 5-.1 10 .1 14.9.3 7.5 4.2 11.3 11.4 11.8s12.1-3.2 13.1-10.5c.3-2.9-.1-5.9-.1-8.9zm-42.3 18.3c-3.8-8.8-7.7-17.6-11.4-26.4-.7-1.6-1.6-2.3-3.3-2.3-1.6 0-2.8.1-3.5 1.9-3.8 8.9-7.7 17.8-11.5 26.7 3.8 1.5 5.8.3 6.7-3.1.7-2.8 2.4-3.6 5.1-3.3 2.1.2 4.3.2 6.4 0 2.6-.3 4.1.8 4.6 3.2.9 3.9 3.2 4.6 6.9 3.3zm115.4-13.7c0-4.1-.1-8.3 0-12.4 0-2-.8-2.5-2.7-2.5s-2.6.7-2.6 2.6c.1 8 0 15.9 0 23.9 0 1.7.3 2.7 2.4 2.8 2.2 0 2.9-.7 2.8-2.9 0-3.9.1-7.7.1-11.5z"
    fill="#535454" />
  <path
    d="M13.9 0h198.5c10.1 4 14.1 11.5 13.1 22.2-.5 5.1-.2 10.3 0 15.4.1 2.6-.7 4.8-2.1 6.9-9.2 13.6-19.5 26.4-31.5 37.7-11.2 10.5-23.5 19.3-38.7 23.1-3.4-6.3-6.7-12.5-10.2-18.7-5.3-9.4-10.8-18.7-18.8-26C109.7 47.3 93 42.8 73.9 47.9 69 41.1 65.2 33.5 59.7 27 45.5 10.3 22.2 7.5 4.6 20.7c-1.3 1-2.4 3-4.6 2.3v-8C2.7 8.1 6.8 2.6 13.9 0z"
    fill="#535454" />
  <path
    d="M1.1 128.8c-.4-5.3-.4-10.6 0-15.9 8.1-11.7 15.9-23.6 25.6-34C37.9 67 49.8 56.3 65.4 50.4c2 2 3.4 4.4 4 7.2-16.3 6-28.4 17.6-39.6 30.3-11.2 12.5-19.9 26.8-28.7 40.9zM225.1 93.2c.6 4.2.4 8.3.1 12.5-3.4 4.6-7 9.1-10.2 13.9-15.4 23-49.1 25.8-65.6-5 2.7-1.3 5.6-1.9 8.6-2 9 14.5 20.2 19.4 34.5 14.9 8.4-2.6 13.4-9.2 18.3-16 4.5-6.3 8.5-13 14.3-18.3zM77.5 55.2c-1.6-2.2-3.2-4.4-3.6-7.2 19.1-5.1 35.8-.6 50.3 12.6 8 7.3 13.6 16.6 18.8 26 3.5 6.2 6.8 12.5 10.2 18.7-2.9 1-5.7 2.2-8.9 1.3-5.2-10.7-10.8-21.3-17.8-31-12.2-16.6-28.2-24.5-49-20.4z"
    fill="#04c0ea" />
  <path
    d="M65.4 50.4C49.8 56.3 37.9 67 26.7 78.9 17 89.3 9.2 101.2 1.1 112.8L.8 37.6c0-1.2.4-2.2 1.1-3.2C14.7 17 39.2 15.9 51.5 29.9c5.5 6.3 10.4 12.9 13.9 20.5zM225.1 93.2c-5.8 5.3-9.9 12-14.4 18.3-4.8 6.8-9.9 13.4-18.3 16-14.3 4.5-25.5-.4-34.5-14.9 28.9-10.4 48.6-31.9 67.2-56.7v37.3zM77.5 55.2c20.8-4 36.8 3.8 49 20.5 7 9.7 12.5 20.2 17.8 31-20.3 2.6-35.9-5.7-48.3-21.1-7.5-9.3-13.2-19.8-18.5-30.4zM104.6 176.9c1.6 4.4 3.1 8.2 4.6 12.4h-9.3c1-4.2 2.5-8.1 4.7-12.4zM195.1 247.2c-5.4-.2-9.6-5.1-9.4-10.7.2-5.4 4.7-10 9.8-9.9 5.2.1 9.9 5.1 9.8 10.6-.1 5.6-4.9 10.3-10.2 10zM113.2 236.5c0-.7-.1-1.3 0-2 .3-2.4-1.3-6 .8-6.9 3.2-1.3 7.1-.9 10.4 1.1 4.4 2.7 5.7 8.9 2.9 13.6-2.1 3.5-9.9 6-13.3 4.2-1.1-.6-.9-1.6-.9-2.5 0-2.5.1-5 .1-7.5zM29.2 229.4c2.1 1.8 2.2 4.3 3.4 6.2 2.2 3.6 1 4.5-3 4.6-4.6.1-4.9-1.3-2.9-4.9.9-1.8 1.6-3.8 2.5-5.9z"
    fill="#535454" />
</svg>
