<svg xmlns="http://www.w3.org/2000/svg" viewBox="0 0 600 142.8"><path d="M110.6 67.7l-10.8-4.6-19.1 11.5-7-18.8L60.8 64l1.6 3.9 28 11.2-10.3 28.4 6.4 2.2-2.8 7.6-14.2-5 10.2-28.5-13.8-5.6 6.3 16.1-34.7.1-1.9 6.2-7.7-2.8 4-11.3h28.8l-9.7-26 19.7-12.1-4.1-10.9-15.3 20.7-12-4.8 3.3-7.9 6.3 2.6 15.7-21 8.3 3.4 12.1 32L99.4 54l14.5 5.9-3.3 7.8zM91.1 45.4c2.1 0 3.9-1.7 3.9-3.9s-1.7-3.9-3.9-3.9c-2.1 0-3.9 1.7-3.9 3.9 0 2.1 1.8 3.9 3.9 3.9zm-11.6-3.9c0-6.5 5.2-11.7 11.6-11.7 6.4 0 11.6 5.2 11.6 11.7s-5.2 11.7-11.6 11.7c-6.4 0-11.6-5.3-11.6-11.7z"/><path d="M0 71.4c0 39.4 31.7 71.4 70.7 71.4s70.7-32 70.7-71.4S109.7 0 70.7 0 0 32.1 0 71.4zm5.8 0c0-36.1 29.1-65.6 64.9-65.6s64.9 29.4 64.9 65.6S106.5 137 70.7 137 5.8 107.6 5.8 71.4zM575 59.1v19.3h-39.2v5.2h39.3v14h-39.2v4.8h39.2v15.1h-71.5V59.2H575M464.9 59.1h32.2v58.3h-32.2V59.1zM463.9 59.1h-39l-15.2 22.6V59.1h-32.4v58.3h32.2v-19l15.5 19h37.1l-25.3-28.1 27.1-30.2M266.8 73.4l7.1 20.7h-10.2v16.1h13.8l2 7.1h33.8L292.6 59h-51.3l-20.7 58.3h32.7l13.5-43.9"/><path d="M220.5 59.1v58.3h-30.4V88l-11.5 29.4h-17.1L150 86.7v30.7h-30V59h40.7l10 30 9.5-29.9h40.3M600 110.8c0 4.1-2.9 7.8-10 7.8s-10-4.1-10-7.8 2.9-7.8 10-7.8c7.2 0 10 3.7 10 7.8M372.3 59.9s-14.4-2-27.6-2c-17.8 0-38.8 5.7-38.8 31.2 0 15.8 11.4 30 36.4 30 14.9 0 29.7-3.2 29.7-3.2V96.7s-5.6 2.3-18.2 2.3c-13.7 0-14-5.6-14-9.8 0-4.2 4.4-8.3 14.6-8.3 12 0 17.9 1.7 17.9 1.7V59.9M579.7 63.2c0-3.1 2.5-5.6 5.5-5.6s5.5 2.5 5.5 5.6-2.4 5.6-5.5 5.6c-3 0-5.5-2.5-5.5-5.6zm10.3 0c0-2.7-2.2-4.9-4.8-4.9-2.7 0-4.8 2.2-4.8 4.9s2.1 4.9 4.8 4.9c2.6.1 4.8-2.1 4.8-4.9zm-2.1 3.2h-.9l-1.7-2.9h-1.4v2.9h-.7v-6.2h2.7c.5 0 1 0 1.5.3s.7.8.7 1.3c0 1.2-.8 1.7-1.9 1.7l1.7 2.9zm-2.9-3.5h.5c.8 0 1.7-.1 1.7-1.1s-.8-1.1-1.6-1.1h-1.7v2.2h1.1zM59.1 111.1c0-2 1.6-3.7 3.7-3.7 2 0 3.6 1.7 3.6 3.7 0 2.1-1.6 3.7-3.6 3.7-2.1 0-3.7-1.7-3.7-3.7zm6.8 0c0-1.8-1.4-3.3-3.2-3.3-1.8 0-3.2 1.5-3.2 3.3s1.4 3.3 3.2 3.3c1.8 0 3.2-1.5 3.2-3.3zm-1.4 2.1h-.6l-1.2-1.9h-.9v1.9h-.5V109h1.8c.3 0 .7 0 1 .2.3.2.5.6.5.9 0 .8-.6 1.1-1.3 1.1l1.2 2zm-1.9-2.4h.3c.5 0 1.1-.1 1.1-.8 0-.6-.6-.7-1.1-.7h-1.2v1.5h.9z"/></svg>