<svg xmlns="http://www.w3.org/2000/svg" viewBox="0 0 398.8 127.8">
  <path
    d="M398.8 127.5h-2c-2.2-1.6-4.8-.9-7.3-.9H0v-1c1.4-1.7 1-3.8 1-5.7V7.7c0-1.9.4-4-1-5.7V1C.3.7.7.5 1 .2 3 .1 5 0 7 0h381.5c10.1 0 10.1 0 10.1 9.9 0 39.3.1 78.4.2 117.6zM221.3 76.1c-4.2 0-6-2.5-6.1-6.3-.2-5.1.1-10.2-.3-15.3-.3-3.5 1.2-4 4.3-4 9.5.2 18.9-.1 28.4.1 3.4.1 3.7-1.3 3.7-4.1 0-2.6-.1-4.2-3.6-4.1-9.3.2-18.6 0-27.9.1-3.3.1-5.5-.3-4.7-4.4.7-3.9-2.3-3.2-4.4-3.1-2 .1-4.8-1.1-4.7 2.9.2 11 0 22 .3 33 .2 7.7 4.2 12 12.1 13.1 11.5 1.6 23 .4 36 .8-4.1-3.3-7.1-5.7-10-8-.6-.5-1.1-1.6-1.7-1.6-7.3.2-14.4-.9-21.4.9zm-47-24.7c-.8.2-1.7.1-2.4.6-4.5 3.2-4.6.5-4.5-3.1.1-5.4.1-10.7 0-16.1 0-1.2.7-3.3-1.8-3.3-3.5 2.3-8.6 3.3-8.7 8.5-.2 14.5.1 29-.2 43.5-.1 4.2 2.4 3.3 4.8 3.5 2.8.2 4.8.1 4.5-3.7-.4-4-.1-8-.1-12.8 6.3 3.9 12.2 6.8 17.3 10.7 7.1 5.5 14.7 6.8 24.2 5.4-11.6-7.4-22.6-14.4-34-21.6 10.1-6.7 19.7-13.1 30.4-20.3-4.1 0-6.6.1-9 0-4.2-.2-8.1.1-11.4 3.1-2.8 2.3-5.8 4.1-9.1 5.6zm108.6 33.5c6.1.1 12.3-.1 18.4.2 3.2.1 3.9-.9 3.8-3.9-.2-7.2 0-14.5-.1-21.7-.1-11.6-4.9-16.4-16.6-16.7-9.1-.2-18.3 0-27.4-.2-3.2-.1-4.3.7-4.3 4.1 0 3.2.9 4.2 4.2 4.1 9-.1 17.9 0 26.9.2 2.3 0 4.7.1 6.5 2 1.2 1.2 2.1 2.8 1.5 4.5-.6 1.6-2.3.8-3.5.8-8.6.1-17.3 0-25.9.1-12.2.2-13.8 4-13.8 14.8 0 8.2 3.5 11.5 11.9 11.8 6.1 0 12.3-.1 18.4-.1zM130.7 66.1h14.9c7.4 0 7.3 0 6.9-7.5-.3-6-1.1-12.1-7.8-14.1-12.1-3.6-24.5-3.5-36.7 0-3.6 1-6.5 3.8-7 7.5-.8 5.5-1.1 11.1-.7 16.7.9 12.2 4 15.5 16.3 16.4 7.5.5 15.2 1.3 22.6.3 4.6-.6 9.8-2.9 11.9-8.3.4-1.1 1.5-2.8-.9-2.9-2.6-.2-5.7-.8-7.8.4-8.7 4.6-17.8 2.2-26.8 2.2-1.1 0-2.3-.5-3.3-1-3.5-1.6-2.8-4.9-2.7-7.7.2-3.5 3.1-1.7 4.6-1.7 5.6-.4 11-.3 16.5-.3zm-86.9 2.7h-.2c0 4.3.3 8.6-.1 12.8-.3 3.8 2 3.4 4.3 3.3s5 1 4.9-3.3c-.3-7.4-.1-14.8 0-22.2.1-6.1 2.2-8.5 8.2-8.8s12-.3 17.9 0 8 2.5 8.2 8.3c.2 7.6.3 15.1 0 22.7-.1 3.7 2 3.4 4.4 3.3 2.3-.1 5.1 1.1 4.9-3.3-.3-7.9.1-15.8-.2-23.7-.3-9.9-5.1-14.8-15.4-15.4-8.1-.5-16.2-.5-24.4.2-6.7.6-12.2 6-12.5 12.8-.2 4.4 0 8.9 0 13.3zm321.4-25.9c-14.7 0-27.8-.4-40.8.1-9.6.4-14.9 5.1-14.9 15.2 0 7.7.2 15.5-.2 23.2-.2 4.1 2.1 3.6 4.7 3.6 2.5 0 4.9.6 4.7-3.5-.4-7.2-.2-14.5 0-21.7.1-6.6 1.7-8.3 8.2-8.6 7.6-.4 15.2-.3 22.9-.4 6-.2 9.5-4.8 15.4-7.9z"
    fill="#f40126" />
  <path
    d="M0 126.5h389.5c2.4 0 5-.7 7.3.9-130.8 0-261.5 0-392.3-.1-1.5.2-3.4 1.3-4.5-.8zM0 2c1.4 1.7 1 3.8 1 5.7v112.1c0 1.9.4 4-1 5.7V2zM0 0c.3.1.7.1 1 .2C.7.5.3.7 0 1V0zM174.3 51.4c-2 2.7-5.1 3.8-8.8 6.5V29.5c2.6 0 1.8 2.1 1.8 3.3.1 5.4.1 10.7 0 16.1-.1 3.5.1 6.3 4.5 3.1.7-.5 1.7-.4 2.5-.6zM244.2 77c-7.6-.9-15.3.4-22.9-1 7-1.8 14.1-.7 21.2-.6.6.1 1.2 1.1 1.7 1.6z"
    fill="#f51537" />
  <path
    d="M264.2 76.1c-3.5-1.4-2.4-4.2-2.1-6.7.3-2.4 2.2-3.1 4.4-3.1 9.1-.1 18.2-.1 27.3-.2 2 0 2.6.8 2.4 2.6-.1 2.1-.1 4.3-.1 6.4-6.1 0-12.1-.1-18.2.1-4.6.2-9.3-.9-13.7.9z"
    fill="#f40126" />
  <path d="M264.2 76.1c4.4-1.8 9.1-.7 13.6-.8 6.1-.2 12.1-.1 18.2-.1.1.8.1 1.8-1 1.8-10.3-.4-20.6 1.1-30.8-.9z"
    fill="#f51537" />
  <path
    d="M126.5 58.5c-4.3 0-8.6.1-12.9-.1-1.3 0-3.3 1-3.7-1.1-.4-1.6.3-3.2 1.5-4.5.2-.2.5-.4.8-.6 3.5-2.6 25-2.6 28.7-.1 1.9 1.3 2.6 3.2 2.2 5.1-.4 2.4-2.7 1.1-4.1 1.2-4.2.3-8.4.1-12.5.1z"
    fill="#f40126" />
</svg>
