<svg xmlns="http://www.w3.org/2000/svg" viewBox="0 0 600 132.3">
  <path
    d="M191.5 44.5h5.6l9.9 19.7c1.6 3 2.7 6.3 3.5 8.8h.1c-.3-2.3-.6-6.4-.6-10.1V44.5h5.3v36.2h-6l-9.2-18.4c-2.2-4.5-3-7-3.8-9.6h-.1c.2 2.3.6 6.5.6 10.7v17.3h-5.3V44.5M225 44.5h19.6v4.9h-13.9v10h11.5v4.8h-11.5v11.6h14.8v4.9H225V44.5M253 69.9V44.5h5.6v25c0 4.7 1.2 7.1 5.4 7.1 3.5 0 6.1-1.7 7.5-3.1v-29h5.6v36.2H273l-.9-3.2c-2.1 2.1-4.9 4-8.9 4-5.4 0-10.2-3.1-10.2-11.6M286.9 44.5h8.4l5.8 19.5c.9 2.9 1.2 5.2 1.4 7.2h.1c.2-2 .3-4.3 1.2-7.2l5.7-19.5h8.6v36.2h-5.6V59.9c0-4.4.4-10 .4-11.4h-.4c-.3 1.5-1.4 6.7-2.8 11.1L305 74.5h-5.7l-4.7-14.6c-1.3-4.1-2.5-10.2-2.7-11.5h-.1c0 1.6.3 7.4.3 12v20.3h-5.2V44.5M335.6 44.5h6.1l10.8 36.2h-6.2l-2.5-9.3h-11l-2.6 9.3h-5.9l11.3-36.2m-1.5 22.4h8.5l-1.9-7.1c-1.4-5-1.7-7.6-2.1-10h-.1c-.5 2.6-.9 5-2.3 10l-2.1 7.1zM358.9 44.5h5.6l9.9 19.7c1.6 3 2.7 6.3 3.5 8.8h.1c-.3-2.3-.6-6.4-.6-10.1V44.5h5.3v36.2h-6l-9.2-18.4c-2.2-4.5-3-7-3.8-9.6h-.1c.2 2.3.6 6.5.6 10.7v17.3h-5.3V44.5M392.4 44.5h5.6l9.9 19.7c1.6 3 2.7 6.3 3.5 8.8h.1c-.3-2.3-.6-6.4-.6-10.1V44.5h5.3v36.2h-5.9l-9.2-18.4c-2.2-4.5-3-7-3.8-9.6h-.1c.2 2.3.6 6.5.6 10.7v17.3h-5.3V44.5M424 76.8c0-2.5 1.9-4.5 4.4-4.5s4.4 1.9 4.4 4.5c0 2.5-1.9 4.5-4.4 4.5s-4.4-2-4.4-4.5"
    fill="#151616" />
  <path
    d="M440.1 44.5h11.6c6.9 0 10 3.6 10 9.5 0 3.8-1.1 6.1-4.7 7.6 3.7 1 6.3 3.5 6.3 8.8 0 7.2-4.3 10.3-11.3 10.3h-11.9V44.5m11.2 15c3.8 0 4.7-1.7 4.7-5.2s-1-5.2-4.8-5.2h-5.4v10.3h5.5v.1zm0 16.5c4.5 0 6-1.7 6-5.8 0-4-1.7-5.8-6.2-5.8h-5.2V76h5.4zM470.9 44.5h19.5v4.9h-13.8v10h11.5v4.8h-11.5v11.6h14.8v4.9h-20.5V44.5M499 44.5h10.9c7.6 0 11.6 3.4 11.6 10.1 0 5.6-2.1 8.1-6.8 9.5 2.1.7 3.6 2.6 4.9 6.3l3.6 10.2h-6.1l-3.4-10.2c-1.4-4.1-3-5-6-5h-3v15.3H499V44.5m10.9 16.4c4.4 0 5.8-1.9 5.8-6.1 0-3.9-1.5-5.5-5.8-5.5h-5.2v11.6h5.2zM529.8 44.5h5.7v31.3h12.7v4.9h-18.4V44.5M554.1 77.6l4.1-.6V48.3l-4.1-.7v-3.1H568v3.1l-4.1.7V77l4.1.6v3.1h-13.9v-3.1M576.2 44.5h5.6l9.9 19.7c1.6 3 2.7 6.3 3.5 8.8h.1c-.3-2.3-.6-6.4-.6-10.1V44.5h5.3v36.2h-6l-9.2-18.4c-2.2-4.5-3-7-3.8-9.6h-.1c.2 2.3.6 6.5.6 10.7v17.3h-5.3V44.5"
    fill="#b6b7b7" />
  <path fill="#ef7622" d="M149.6 52.8v24.9l11.3-12.5-11.3-12.4M165 52.8v24.9l11.3-12.5L165 52.8" />
  <path
    d="M72.6 68.3V19.8H59.8v34l-1.6-1.9V18.3h15.9v51.9l-1.5-1.9M59.8 64v48.4h12.8V78.7l1.5 1.8v33.6H58.2V62.3l1.6 1.7zm6.4 62.5L5.8 66.2 66.2 5.9l60.3 60.3-60.3 60.3zm0 5.8L0 66.2 66.1 0l66.1 66.1-66 66.2zm-6.4-71l-3.7-4.2v37.5C44.5 90.4 36 79.2 36 66.2c0-6.5 2.1-12.6 5.6-17.5 3.6-5 8.6-8.8 14.4-10.9v1.9c-10.7 4.1-18.4 14.5-18.4 26.5 0 11 6.3 20.7 15.6 25.3v-1.8c-8.3-4.6-14-13.5-14-23.6 0-11.3 7-21 16.8-24.9v1.9c-8.8 3.9-15.1 12.7-15.1 23 0 9.1 4.8 17.3 12.3 21.7v-1.9c-6.4-4.2-10.6-11.6-10.6-19.7 0-9.3 5.6-17.6 13.4-21.4v2c-7 3.8-11.8 10.9-11.8 19.3 0 7.2 3.4 13.8 9 17.7V51l1-.7 5.4 6.2v4.8h.2zM72.6 71l3.6 4.1V37.7c11.7 4.2 20.1 15.4 20.1 28.4 0 6.5-2.1 12.6-5.6 17.5-3.6 5-8.6 8.8-14.4 10.9v-1.9C87 88.5 94.6 78.1 94.6 66.1c0-11.1-6.3-20.7-15.6-25.4v1.8c8.3 4.6 14.1 13.5 14.1 23.6 0 11.2-7 21-16.8 24.9v-1.9c8.8-3.9 15.1-12.7 15.1-22.9 0-9.2-4.8-17.3-12.3-21.7v1.9c6.4 4.2 10.6 11.6 10.6 19.8 0 9.3-5.5 17.6-13.4 21.3v-2c7-3.8 11.8-10.9 11.8-19.3 0-7.3-3.4-13.9-9-17.8v32.9l-1 .7-5.3-6.2V71h-.2zM61.7 99.2h1.8l5.4 8.3v-8.3h1.8v11.4h-1.8l-5.4-8.2v8.2h-1.8V99.2zm0-12.9h1.8l5.4 8.3v-8.3h1.8v11.4h-1.8l-5.4-8.2v8.2h-1.8V86.3zm3.6-13h1.9l3.5 11.4h-1.9l-.5-1.8h-4.2l-.6 1.8h-1.8l3.6-11.4zm.9 3l-1.6 4.9h3.1l-1.5-4.9zm-4.5-4.5V60.4h1.2l3.3 3.9 3.3-3.9h1.2v11.3h-1.8v-7.9L66.3 67l-2.8-3.2v7.9h-1.8v.1zm0-17.1v-7.2h1.8v7c0 1.9 1.5 2.7 2.7 2.7 1.3 0 2.7-.7 2.7-2.7v-7h1.8v7.2c0 2.5-1.9 4.4-4.5 4.4s-4.5-1.8-4.5-4.4zm0-33.1h1.8l5.4 8.3v-8.3h1.8V33h-1.8l-5.4-8.2V33h-1.8V21.6zm0 13h9v1.8h-7.2v3.1h7.2v1.8h-7.2v2.9h7.2V46h-9V34.6z"
    fill-rule="evenodd" clip-rule="evenodd" fill="#b6b7b7" />
</svg>
