<svg xmlns="http://www.w3.org/2000/svg" xmlns:xlink="http://www.w3.org/1999/xlink" viewBox="0 0 599.9 269">
  <defs>
    <path id="a"
      d="M9.7 35.3c-5.3 0-9.5 4.2-9.5 9.5v118c0 5.2 4.2 9.5 9.5 9.5H20c5.3 0 9.5-4.2 9.5-9.5v-118c0-5.2-4.3-9.5-9.5-9.5H9.7z" />
  </defs>
  <clipPath id="b">
    <use xlink:href="#a" overflow="visible" />
  </clipPath>
  <linearGradient id="c" gradientUnits="userSpaceOnUse" x1="-571.747" y1="724.871" x2="-566.961" y2="724.871"
    gradientTransform="scale(26.3398 -26.3398) rotate(-88.9 -655.911 69.933)">
    <stop offset="0" stop-color="#00bff3" />
    <stop offset=".025" stop-color="#02b9ee" />
    <stop offset=".145" stop-color="#0ba0dc" />
    <stop offset=".28" stop-color="#128dce" />
    <stop offset=".436" stop-color="#177fc4" />
    <stop offset=".633" stop-color="#1a77be" />
    <stop offset="1" stop-color="#1b75bc" />
  </linearGradient>
  <path clip-path="url(#b)" fill="url(#c)" d="M29.6 34.7l2.6 137.5-32 .6-2.6-137.4z" />
  <defs>
    <path id="d"
      d="M47.8 55c-5.2 0-9.5 4.2-9.5 9.5v116c0 5.2 4.3 9.5 9.5 9.5h10.3c5.3 0 9.5-4.2 9.5-9.5v-116c0-5.2-4.3-9.5-9.5-9.5H47.8z" />
  </defs>
  <clipPath id="e">
    <use xlink:href="#d" overflow="visible" />
  </clipPath>
  <linearGradient id="f" gradientUnits="userSpaceOnUse" x1="-571.748" y1="726.003" x2="-566.962" y2="726.003"
    gradientTransform="scale(26.34 -26.34) rotate(-88.9 -655.76 69.784)">
    <stop offset="0" stop-color="#00bff3" />
    <stop offset=".025" stop-color="#02b9ee" />
    <stop offset=".145" stop-color="#0ba0dc" />
    <stop offset=".28" stop-color="#128dce" />
    <stop offset=".436" stop-color="#177fc4" />
    <stop offset=".633" stop-color="#1a77be" />
    <stop offset="1" stop-color="#1b75bc" />
  </linearGradient>
  <path clip-path="url(#e)" fill="url(#f)" d="M67.6 54.4l2.6 135.5-31.9.6L35.7 55z" />
  <defs>
    <path id="g"
      d="M85.8 25.1c-5.2 0-9.5 4.2-9.5 9.5v128.2c0 5.2 4.3 9.5 9.5 9.5h10.3c5.2 0 9.5-4.2 9.5-9.5V34.5c0-5.2-4.3-9.5-9.5-9.5l-10.3.1z" />
  </defs>
  <clipPath id="h">
    <use xlink:href="#g" overflow="visible" />
  </clipPath>
  <linearGradient id="i" gradientUnits="userSpaceOnUse" x1="-571.749" y1="727.157" x2="-566.962" y2="727.157"
    gradientTransform="scale(26.3393 -26.3393) rotate(-88.9 -655.603 69.63)">
    <stop offset="0" stop-color="#00bff3" />
    <stop offset=".025" stop-color="#02b9ee" />
    <stop offset=".145" stop-color="#0ba0dc" />
    <stop offset=".28" stop-color="#128dce" />
    <stop offset=".436" stop-color="#177fc4" />
    <stop offset=".633" stop-color="#1a77be" />
    <stop offset="1" stop-color="#1b75bc" />
  </linearGradient>
  <path clip-path="url(#h)" fill="url(#i)" d="M105.6 24.5l2.8 147.7-32.1.6-2.8-147.7z" />
  <defs>
    <path id="j"
      d="M123.8 35.3c-5.2 0-9.5 4.2-9.5 9.5v118c0 5.2 4.3 9.5 9.5 9.5h10.3c5.3 0 9.5-4.2 9.5-9.5v-118c0-5.2-4.3-9.5-9.5-9.5h-10.3z" />
  </defs>
  <clipPath id="k">
    <use xlink:href="#j" overflow="visible" />
  </clipPath>
  <linearGradient id="l" gradientUnits="userSpaceOnUse" x1="-571.75" y1="728.296" x2="-566.963" y2="728.296"
    gradientTransform="scale(26.3398 -26.3398) rotate(-88.9 -655.45 69.48)">
    <stop offset="0" stop-color="#00bff3" />
    <stop offset=".025" stop-color="#02b9ee" />
    <stop offset=".145" stop-color="#0ba0dc" />
    <stop offset=".28" stop-color="#128dce" />
    <stop offset=".436" stop-color="#177fc4" />
    <stop offset=".633" stop-color="#1a77be" />
    <stop offset="1" stop-color="#1b75bc" />
  </linearGradient>
  <path clip-path="url(#k)" fill="url(#l)" d="M143.6 34.7l2.7 137.5-32 .6-2.6-137.4z" />
  <defs>
    <path id="m"
      d="M161.8 35.3c-5.3 0-9.5 4.2-9.5 9.5v135.7c0 5.2 4.3 9.5 9.5 9.5h10.3c5.2 0 9.5-4.2 9.5-9.5V44.8c0-5.2-4.3-9.5-9.5-9.5h-10.3z" />
  </defs>
  <clipPath id="n">
    <use xlink:href="#m" overflow="visible" />
  </clipPath>
  <linearGradient id="o" gradientUnits="userSpaceOnUse" x1="-571.751" y1="729.43" x2="-566.964" y2="729.43"
    gradientTransform="scale(26.341 -26.341) rotate(-88.9 -655.295 69.33)">
    <stop offset="0" stop-color="#00bff3" />
    <stop offset=".025" stop-color="#02b9ee" />
    <stop offset=".145" stop-color="#0ba0dc" />
    <stop offset=".28" stop-color="#128dce" />
    <stop offset=".436" stop-color="#177fc4" />
    <stop offset=".633" stop-color="#1a77be" />
    <stop offset="1" stop-color="#1b75bc" />
  </linearGradient>
  <path clip-path="url(#n)" fill="url(#o)" d="M181.7 34.7l2.9 155.2-32.3.6-2.9-155.1z" />
  <defs>
    <path id="p"
      d="M199.9 0c-5.3 0-9.5 4.2-9.5 9.5v153.2c0 5.2 4.3 9.5 9.5 9.5h10.3c5.3 0 9.5-4.2 9.5-9.5V9.5c0-5.2-4.3-9.5-9.5-9.5h-10.3z" />
  </defs>
  <clipPath id="q">
    <use xlink:href="#p" overflow="visible" />
  </clipPath>
  <linearGradient id="r" gradientUnits="userSpaceOnUse" x1="-571.75" y1="730.589" x2="-566.964" y2="730.589"
    gradientTransform="scale(26.3382 -26.3382) rotate(-88.9 -655.14 69.177)">
    <stop offset="0" stop-color="#00bff3" />
    <stop offset=".025" stop-color="#02b9ee" />
    <stop offset=".145" stop-color="#0ba0dc" />
    <stop offset=".28" stop-color="#128dce" />
    <stop offset=".436" stop-color="#177fc4" />
    <stop offset=".633" stop-color="#1a77be" />
    <stop offset="1" stop-color="#1b75bc" />
  </linearGradient>
  <path clip-path="url(#q)" fill="url(#r)" d="M219.7-.5l3.3 172.6-32.6.7L187.1.1z" />
  <defs>
    <path id="s"
      d="M237.9 35.3c-5.3 0-9.5 4.2-9.5 9.5v135.7c0 5.2 4.3 9.5 9.5 9.5h10.3c5.2 0 9.5-4.2 9.5-9.5V44.8c0-5.2-4.3-9.5-9.5-9.5h-10.3z" />
  </defs>
  <clipPath id="t">
    <use xlink:href="#s" overflow="visible" />
  </clipPath>
  <linearGradient id="u" gradientUnits="userSpaceOnUse" x1="-571.752" y1="731.715" x2="-566.966" y2="731.715"
    gradientTransform="scale(26.3405 -26.3405) rotate(-88.9 -654.989 69.029)">
    <stop offset="0" stop-color="#00bff3" />
    <stop offset=".025" stop-color="#02b9ee" />
    <stop offset=".145" stop-color="#0ba0dc" />
    <stop offset=".28" stop-color="#128dce" />
    <stop offset=".436" stop-color="#177fc4" />
    <stop offset=".633" stop-color="#1a77be" />
    <stop offset="1" stop-color="#1b75bc" />
  </linearGradient>
  <path clip-path="url(#t)" fill="url(#u)" d="M257.7 34.7l3 155.2-32.3.6-3-155.1z" />
  <defs>
    <path id="v"
      d="M275.9 35.3c-5.3 0-9.5 4.2-9.5 9.5v118c0 5.2 4.3 9.5 9.5 9.5h10.3c5.3 0 9.5-4.2 9.5-9.5v-118c0-5.2-4.3-9.5-9.5-9.5h-10.3z" />
  </defs>
  <clipPath id="w">
    <use xlink:href="#v" overflow="visible" />
  </clipPath>
  <linearGradient id="x" gradientUnits="userSpaceOnUse" x1="-571.753" y1="732.864" x2="-566.966" y2="732.864"
    gradientTransform="scale(26.3404 -26.3404) rotate(-88.9 -654.835 68.878)">
    <stop offset="0" stop-color="#00bff3" />
    <stop offset=".025" stop-color="#02b9ee" />
    <stop offset=".145" stop-color="#0ba0dc" />
    <stop offset=".28" stop-color="#128dce" />
    <stop offset=".436" stop-color="#177fc4" />
    <stop offset=".633" stop-color="#1a77be" />
    <stop offset="1" stop-color="#1b75bc" />
  </linearGradient>
  <path clip-path="url(#w)" fill="url(#x)" d="M295.7 34.7l2.7 137.5-32 .6-2.6-137.4z" />
  <defs>
    <path id="y"
      d="M313.9 35.3c-5.2 0-9.5 4.2-9.5 9.5v118c0 5.2 4.3 9.5 9.5 9.5h10.3c5.3 0 9.5-4.2 9.5-9.5v-118c0-5.2-4.3-9.5-9.5-9.5h-10.3z" />
  </defs>
  <clipPath id="z">
    <use xlink:href="#y" overflow="visible" />
  </clipPath>
  <linearGradient id="A" gradientUnits="userSpaceOnUse" x1="-571.753" y1="734.005" x2="-566.967" y2="734.005"
    gradientTransform="scale(26.3398 -26.3398) rotate(-88.9 -654.68 68.727)">
    <stop offset="0" stop-color="#00bff3" />
    <stop offset=".025" stop-color="#02b9ee" />
    <stop offset=".145" stop-color="#0ba0dc" />
    <stop offset=".28" stop-color="#128dce" />
    <stop offset=".436" stop-color="#177fc4" />
    <stop offset=".633" stop-color="#1a77be" />
    <stop offset="1" stop-color="#1b75bc" />
  </linearGradient>
  <path clip-path="url(#z)" fill="url(#A)" d="M333.8 34.7l2.6 137.5-32 .6-2.6-137.4z" />
  <defs>
    <path id="B"
      d="M352 55c-5.3 0-9.5 4.2-9.5 9.5v116c0 5.2 4.3 9.5 9.5 9.5h10.3c5.3 0 9.5-4.2 9.5-9.5v-116c0-5.2-4.3-9.5-9.5-9.5H352z" />
  </defs>
  <clipPath id="C">
    <use xlink:href="#B" overflow="visible" />
  </clipPath>
  <linearGradient id="D" gradientUnits="userSpaceOnUse" x1="-571.754" y1="735.138" x2="-566.968" y2="735.138"
    gradientTransform="scale(26.34 -26.34) rotate(-88.9 -654.529 68.578)">
    <stop offset="0" stop-color="#00bff3" />
    <stop offset=".025" stop-color="#02b9ee" />
    <stop offset=".145" stop-color="#0ba0dc" />
    <stop offset=".28" stop-color="#128dce" />
    <stop offset=".436" stop-color="#177fc4" />
    <stop offset=".633" stop-color="#1a77be" />
    <stop offset="1" stop-color="#1b75bc" />
  </linearGradient>
  <path clip-path="url(#C)" fill="url(#D)" d="M371.8 54.4l2.6 135.5-31.9.6L339.9 55z" />
  <defs>
    <path id="E"
      d="M390 25.1c-5.3 0-9.5 4.2-9.5 9.5v128.2c0 5.2 4.3 9.5 9.5 9.5h10.3c5.3 0 9.5-4.2 9.5-9.5V34.5c0-5.2-4.3-9.5-9.5-9.5l-10.3.1z" />
  </defs>
  <clipPath id="F">
    <use xlink:href="#E" overflow="visible" />
  </clipPath>
  <linearGradient id="G" gradientUnits="userSpaceOnUse" x1="-571.755" y1="736.293" x2="-566.968" y2="736.293"
    gradientTransform="scale(26.3393 -26.3393) rotate(-88.9 -654.373 68.425)">
    <stop offset="0" stop-color="#00bff3" />
    <stop offset=".025" stop-color="#02b9ee" />
    <stop offset=".145" stop-color="#0ba0dc" />
    <stop offset=".28" stop-color="#128dce" />
    <stop offset=".436" stop-color="#177fc4" />
    <stop offset=".633" stop-color="#1a77be" />
    <stop offset="1" stop-color="#1b75bc" />
  </linearGradient>
  <path clip-path="url(#F)" fill="url(#G)" d="M409.8 24.5l2.9 147.7-32.2.6-2.8-147.7z" />
  <g>
    <defs>
      <path id="H"
        d="M428 35.3c-5.3 0-9.5 4.2-9.5 9.5v118c0 5.2 4.3 9.5 9.5 9.5h10.3c5.2 0 9.5-4.2 9.5-9.5v-118c0-5.2-4.3-9.5-9.5-9.5H428z" />
    </defs>
    <clipPath id="I">
      <use xlink:href="#H" overflow="visible" />
    </clipPath>
    <linearGradient id="J" gradientUnits="userSpaceOnUse" x1="-571.753" y1="737.432" x2="-566.966" y2="737.432"
      gradientTransform="scale(26.3398 -26.3398) rotate(-88.9 -654.22 68.275)">
      <stop offset="0" stop-color="#00bff3" />
      <stop offset=".025" stop-color="#02b9ee" />
      <stop offset=".145" stop-color="#0ba0dc" />
      <stop offset=".28" stop-color="#128dce" />
      <stop offset=".436" stop-color="#177fc4" />
      <stop offset=".633" stop-color="#1a77be" />
      <stop offset="1" stop-color="#1b75bc" />
    </linearGradient>
    <path clip-path="url(#I)" fill="url(#J)" d="M447.9 34.7l2.6 137.5-32 .6-2.6-137.4z" />
  </g>
  <g>
    <defs>
      <path id="K"
        d="M466.1 35.3c-5.3 0-9.5 4.2-9.5 9.5v135.7c0 5.2 4.3 9.5 9.5 9.5h10.3c5.3 0 9.5-4.2 9.5-9.5V44.8c0-5.2-4.3-9.5-9.5-9.5h-10.3z" />
    </defs>
    <clipPath id="L">
      <use xlink:href="#K" overflow="visible" />
    </clipPath>
    <linearGradient id="M" gradientUnits="userSpaceOnUse" x1="-571.757" y1="738.565" x2="-566.97" y2="738.565"
      gradientTransform="scale(26.341 -26.341) rotate(-88.9 -654.065 68.124)">
      <stop offset="0" stop-color="#00bff3" />
      <stop offset=".025" stop-color="#02b9ee" />
      <stop offset=".145" stop-color="#0ba0dc" />
      <stop offset=".28" stop-color="#128dce" />
      <stop offset=".436" stop-color="#177fc4" />
      <stop offset=".633" stop-color="#1a77be" />
      <stop offset="1" stop-color="#1b75bc" />
    </linearGradient>
    <path clip-path="url(#L)" fill="url(#M)" d="M485.9 34.7l3 155.2-32.3.6-3-155.1z" />
  </g>
  <g>
    <defs>
      <path id="N"
        d="M504.1 0c-5.3 0-9.5 4.2-9.5 9.5v153.2c0 5.2 4.3 9.5 9.5 9.5h10.3c5.3 0 9.5-4.2 9.5-9.5V9.5c0-5.2-4.3-9.5-9.5-9.5h-10.3z" />
    </defs>
    <clipPath id="O">
      <use xlink:href="#N" overflow="visible" />
    </clipPath>
    <linearGradient id="P" gradientUnits="userSpaceOnUse" x1="-571.756" y1="739.723" x2="-566.97" y2="739.723"
      gradientTransform="scale(26.3387 -26.3387) rotate(-88.9 -653.909 67.971)">
      <stop offset="0" stop-color="#00bff3" />
      <stop offset=".025" stop-color="#02b9ee" />
      <stop offset=".145" stop-color="#0ba0dc" />
      <stop offset=".28" stop-color="#128dce" />
      <stop offset=".436" stop-color="#177fc4" />
      <stop offset=".633" stop-color="#1a77be" />
      <stop offset="1" stop-color="#1b75bc" />
    </linearGradient>
    <path clip-path="url(#O)" fill="url(#P)" d="M523.9-.5l3.3 172.6-32.6.7L491.3.1z" />
  </g>
  <g>
    <defs>
      <path id="Q"
        d="M542.1 35.3c-5.2 0-9.5 4.2-9.5 9.5v135.7c0 5.2 4.3 9.5 9.5 9.5h10.3c5.3 0 9.5-4.2 9.5-9.5V44.8c0-5.2-4.3-9.5-9.5-9.5h-10.3z" />
    </defs>
    <clipPath id="R">
      <use xlink:href="#Q" overflow="visible" />
    </clipPath>
    <linearGradient id="S" gradientUnits="userSpaceOnUse" x1="-571.758" y1="740.849" x2="-566.972" y2="740.849"
      gradientTransform="scale(26.3405 -26.3405) rotate(-88.9 -653.758 67.823)">
      <stop offset="0" stop-color="#00bff3" />
      <stop offset=".025" stop-color="#02b9ee" />
      <stop offset=".145" stop-color="#0ba0dc" />
      <stop offset=".28" stop-color="#128dce" />
      <stop offset=".436" stop-color="#177fc4" />
      <stop offset=".633" stop-color="#1a77be" />
      <stop offset="1" stop-color="#1b75bc" />
    </linearGradient>
    <path clip-path="url(#R)" fill="url(#S)" d="M561.9 34.7l3 155.2-32.3.6-3-155.1z" />
  </g>
  <g>
    <defs>
      <path id="T"
        d="M580.1 35.3c-5.3 0-9.5 4.2-9.5 9.5v118c0 5.2 4.3 9.5 9.5 9.5h10.3c5.2 0 9.5-4.2 9.5-9.5v-118c0-5.2-4.3-9.5-9.5-9.5h-10.3z" />
    </defs>
    <clipPath id="U">
      <use xlink:href="#T" overflow="visible" />
    </clipPath>
    <linearGradient id="V" gradientUnits="userSpaceOnUse" x1="-571.759" y1="741.999" x2="-566.972" y2="741.999"
      gradientTransform="scale(26.3398 -26.3398) rotate(-88.9 -653.604 67.673)">
      <stop offset="0" stop-color="#00bff3" />
      <stop offset=".025" stop-color="#02b9ee" />
      <stop offset=".145" stop-color="#0ba0dc" />
      <stop offset=".28" stop-color="#128dce" />
      <stop offset=".436" stop-color="#177fc4" />
      <stop offset=".633" stop-color="#1a77be" />
      <stop offset="1" stop-color="#1b75bc" />
    </linearGradient>
    <path clip-path="url(#U)" fill="url(#V)" d="M600 34.7l2.6 137.5-32 .6L568 35.4z" />
  </g>
  <g>
    <defs>
      <path id="W" d="M.2 105.9v56.8c0 5.2 4.2 9.5 9.5 9.5H20c5.3 0 9.5-4.2 9.5-9.5V98.6C19.4 101 9.6 103.4.2 105.9" />
    </defs>
    <clipPath id="X">
      <use xlink:href="#W" overflow="visible" />
    </clipPath>
    <linearGradient id="Y" gradientUnits="userSpaceOnUse" x1="-564.927" y1="738.999" x2="-560.142" y2="738.999"
      gradientTransform="matrix(0 15.3617 15.3617 0 -11337.43 8776.938)">
      <stop offset="0" stop-color="#00abe6" />
      <stop offset=".056" stop-color="#05a2df" />
      <stop offset=".217" stop-color="#0f8ecf" />
      <stop offset=".4" stop-color="#1680c4" />
      <stop offset=".623" stop-color="#1a77be" />
      <stop offset="1" stop-color="#1b75bc" />
    </linearGradient>
    <path clip-path="url(#X)" fill="url(#Y)" d="M.2 98.7h29.3v73.5H.2z" />
  </g>
  <g>
    <defs>
      <path id="Z"
        d="M38.3 96.8v83.7c0 5.2 4.3 9.5 9.5 9.5h10.3c5.3 0 9.5-4.2 9.5-9.5V91.1c-10.1 1.8-19.8 3.7-29.3 5.7" />
    </defs>
    <clipPath id="aa">
      <use xlink:href="#Z" overflow="visible" />
    </clipPath>
    <linearGradient id="ab" gradientUnits="userSpaceOnUse" x1="-568.619" y1="731.875" x2="-563.835" y2="731.875"
      gradientTransform="scale(20.6531) rotate(90 -651.17 -78.14)">
      <stop offset="0" stop-color="#00abe6" />
      <stop offset=".056" stop-color="#05a2df" />
      <stop offset=".217" stop-color="#0f8ecf" />
      <stop offset=".4" stop-color="#1680c4" />
      <stop offset=".623" stop-color="#1a77be" />
      <stop offset="1" stop-color="#1b75bc" />
    </linearGradient>
    <path clip-path="url(#aa)" fill="url(#ab)" d="M38.3 91.1h29.3v98.8H38.3z" />
  </g>
  <g>
    <defs>
      <path id="ac"
        d="M76.3 89.6v73.1c0 5.2 4.3 9.5 9.5 9.5h10.3c5.2 0 9.5-4.2 9.5-9.5V85.1c-10 1.4-19.8 2.9-29.3 4.5" />
    </defs>
    <clipPath id="ad">
      <use xlink:href="#ac" overflow="visible" />
    </clipPath>
    <linearGradient id="ae" gradientUnits="userSpaceOnUse" x1="-567.573" y1="737.114" x2="-562.788" y2="737.114"
      gradientTransform="matrix(0 18.182 18.182 0 -13311.25 10404.818)">
      <stop offset="0" stop-color="#00abe6" />
      <stop offset=".056" stop-color="#05a2df" />
      <stop offset=".217" stop-color="#0f8ecf" />
      <stop offset=".4" stop-color="#1680c4" />
      <stop offset=".623" stop-color="#1a77be" />
      <stop offset="1" stop-color="#1b75bc" />
    </linearGradient>
    <path clip-path="url(#ad)" fill="url(#ae)" d="M76.3 85.2h29.3v87H76.3z" />
  </g>
  <g>
    <defs>
      <path id="af" d="M114.3 84v78.7c0 5.2 4.3 9.5 9.5 9.5h10.3c5.3 0 9.5-4.2 9.5-9.5v-82c-9.9 1-19.7 2.1-29.3 3.3" />
    </defs>
    <clipPath id="ag">
      <use xlink:href="#af" overflow="visible" />
    </clipPath>
    <linearGradient id="ah" gradientUnits="userSpaceOnUse" x1="-568.28" y1="737.137" x2="-563.494" y2="737.137"
      gradientTransform="matrix(0 19.118 19.118 0 -13963.643 10945.078)">
      <stop offset="0" stop-color="#00abe6" />
      <stop offset=".056" stop-color="#05a2df" />
      <stop offset=".217" stop-color="#0f8ecf" />
      <stop offset=".4" stop-color="#1680c4" />
      <stop offset=".623" stop-color="#1a77be" />
      <stop offset="1" stop-color="#1b75bc" />
    </linearGradient>
    <path clip-path="url(#ag)" fill="url(#ah)" d="M114.3 80.7h29.3v91.5h-29.3z" />
  </g>
  <g>
    <defs>
      <path id="ai"
        d="M152.3 79.9v100.6c0 5.2 4.3 9.5 9.5 9.5h10.3c5.2 0 9.5-4.2 9.5-9.5v-103c-9.8.7-19.6 1.5-29.3 2.4" />
    </defs>
    <clipPath id="aj">
      <use xlink:href="#ai" overflow="visible" />
    </clipPath>
    <linearGradient id="ak" gradientUnits="userSpaceOnUse" x1="-570.235" y1="732.52" x2="-565.447" y2="732.52"
      gradientTransform="matrix(0 23.4946 23.4946 0 -17043.318 13474.952)">
      <stop offset="0" stop-color="#00abe6" />
      <stop offset=".056" stop-color="#05a2df" />
      <stop offset=".217" stop-color="#0f8ecf" />
      <stop offset=".4" stop-color="#1680c4" />
      <stop offset=".623" stop-color="#1a77be" />
      <stop offset="1" stop-color="#1b75bc" />
    </linearGradient>
    <path clip-path="url(#aj)" fill="url(#ak)" d="M152.3 77.5h29.3V190h-29.3z" />
  </g>
  <g>
    <defs>
      <path id="al" d="M190.4 76.9v85.8c0 5.2 4.3 9.5 9.5 9.5h10.3c5.3 0 9.5-4.2 9.5-9.5V75.4c-9.9.4-19.7.9-29.3 1.5" />
    </defs>
    <clipPath id="am">
      <use xlink:href="#al" overflow="visible" />
    </clipPath>
    <linearGradient id="an" gradientUnits="userSpaceOnUse" x1="-569.02" y1="738.4" x2="-564.232" y2="738.4"
      gradientTransform="matrix(0 20.2133 20.2133 0 -14720.46 11577.282)">
      <stop offset="0" stop-color="#00abe6" />
      <stop offset=".056" stop-color="#05a2df" />
      <stop offset=".217" stop-color="#0f8ecf" />
      <stop offset=".4" stop-color="#1680c4" />
      <stop offset=".623" stop-color="#1a77be" />
      <stop offset="1" stop-color="#1b75bc" />
    </linearGradient>
    <path clip-path="url(#am)" fill="url(#an)" d="M190.4 75.5h29.3v96.8h-29.3z" />
  </g>
  <g>
    <defs>
      <path id="ao" d="M228.4 75.2v105.3c0 5.2 4.3 9.5 9.5 9.5h10.3c5.2 0 9.5-4.2 9.5-9.5V74.6c-9.8 0-19.6.2-29.3.6" />
    </defs>
    <clipPath id="ap">
      <use xlink:href="#ao" overflow="visible" />
    </clipPath>
    <linearGradient id="aq" gradientUnits="userSpaceOnUse" x1="-570.533" y1="734.329" x2="-565.746" y2="734.329"
      gradientTransform="matrix(0 24.1086 24.1086 0 -17460.598 13829.353)">
      <stop offset="0" stop-color="#00abe6" />
      <stop offset=".056" stop-color="#05a2df" />
      <stop offset=".217" stop-color="#0f8ecf" />
      <stop offset=".4" stop-color="#1680c4" />
      <stop offset=".623" stop-color="#1a77be" />
      <stop offset="1" stop-color="#1b75bc" />
    </linearGradient>
    <path clip-path="url(#ap)" fill="url(#aq)" d="M228.4 74.6h29.3V190h-29.3z" />
  </g>
  <g>
    <defs>
      <path id="ar"
        d="M266.4 74.5v88.3c0 5.2 4.3 9.5 9.5 9.5h10.3c5.3 0 9.5-4.2 9.5-9.5v-88c-8.2-.1-16.5-.2-24.9-.2-1.4-.1-2.9-.1-4.4-.1" />
    </defs>
    <clipPath id="as">
      <use xlink:href="#ar" overflow="visible" />
    </clipPath>
    <linearGradient id="at" gradientUnits="userSpaceOnUse" x1="-569.151" y1="741.017" x2="-564.366" y2="741.017"
      gradientTransform="matrix(0 20.4172 20.4172 0 -14848.435 11694.976)">
      <stop offset="0" stop-color="#00abe6" />
      <stop offset=".056" stop-color="#05a2df" />
      <stop offset=".217" stop-color="#0f8ecf" />
      <stop offset=".4" stop-color="#1680c4" />
      <stop offset=".623" stop-color="#1a77be" />
      <stop offset="1" stop-color="#1b75bc" />
    </linearGradient>
    <path clip-path="url(#as)" fill="url(#at)" d="M266.4 74.5h29.3v97.7h-29.3z" />
  </g>
  <g>
    <defs>
      <path id="au"
        d="M304.4 162.7c0 5.2 4.3 9.5 9.5 9.5h10.3c5.3 0 9.5-4.2 9.5-9.5V75.9c-9.7-.5-19.5-.8-29.3-1.1v87.9z" />
    </defs>
    <clipPath id="av">
      <use xlink:href="#au" overflow="visible" />
    </clipPath>
    <linearGradient id="aw" gradientUnits="userSpaceOnUse" x1="-569.096" y1="742.649" x2="-564.31" y2="742.649"
      gradientTransform="matrix(0 20.3289 20.3289 0 -14778.18 11644.006)">
      <stop offset="0" stop-color="#00abe6" />
      <stop offset=".056" stop-color="#05a2df" />
      <stop offset=".217" stop-color="#0f8ecf" />
      <stop offset=".4" stop-color="#1680c4" />
      <stop offset=".623" stop-color="#1a77be" />
      <stop offset="1" stop-color="#1b75bc" />
    </linearGradient>
    <path clip-path="url(#av)" fill="url(#aw)" d="M304.4 74.9h29.3v97.3h-29.3z" />
  </g>
  <g>
    <defs>
      <path id="ax"
        d="M342.5 180.5c0 5.2 4.3 9.5 9.5 9.5h10.3c5.3 0 9.5-4.2 9.5-9.5V78.3c-9.7-.8-19.4-1.4-29.4-1.9v104.1h.1z" />
    </defs>
    <clipPath id="ay">
      <use xlink:href="#ax" overflow="visible" />
    </clipPath>
    <linearGradient id="az" gradientUnits="userSpaceOnUse" x1="-570.349" y1="738.608" x2="-565.565" y2="738.608"
      gradientTransform="scale(23.7226) rotate(90 -648.56 -74.99)">
      <stop offset="0" stop-color="#00abe6" />
      <stop offset=".056" stop-color="#05a2df" />
      <stop offset=".217" stop-color="#0f8ecf" />
      <stop offset=".4" stop-color="#1680c4" />
      <stop offset=".623" stop-color="#1a77be" />
      <stop offset="1" stop-color="#1b75bc" />
    </linearGradient>
    <path clip-path="url(#ay)" fill="url(#az)" d="M342.5 76.4h29.4v113.5h-29.4z" />
  </g>
  <g>
    <defs>
      <path id="aA"
        d="M380.5 162.7c0 5.2 4.3 9.5 9.5 9.5h10.3c5.3 0 9.5-4.2 9.5-9.5V81.9c-9.6-1.1-19.4-2-29.4-2.9v83.7h.1z" />
    </defs>
    <clipPath id="aB">
      <use xlink:href="#aA" overflow="visible" />
    </clipPath>
    <linearGradient id="aC" gradientUnits="userSpaceOnUse" x1="-568.52" y1="747.401" x2="-563.731" y2="747.401"
      gradientTransform="matrix(0 19.4617 19.4617 0 -14150.49 11143.458)">
      <stop offset="0" stop-color="#00abe6" />
      <stop offset=".056" stop-color="#05a2df" />
      <stop offset=".217" stop-color="#0f8ecf" />
      <stop offset=".4" stop-color="#1680c4" />
      <stop offset=".623" stop-color="#1a77be" />
      <stop offset="1" stop-color="#1b75bc" />
    </linearGradient>
    <path clip-path="url(#aB)" fill="url(#aC)" d="M380.5 79.1h29.4v93.2h-29.4z" />
  </g>
  <g>
    <defs>
      <path id="aD"
        d="M418.5 162.7c0 5.2 4.3 9.5 9.5 9.5h10.3c5.2 0 9.5-4.2 9.5-9.5V86.8c-9.6-1.4-19.4-2.7-29.3-3.9v79.8z" />
    </defs>
    <clipPath id="aE">
      <use xlink:href="#aD" overflow="visible" />
    </clipPath>
    <linearGradient id="aF" gradientUnits="userSpaceOnUse" x1="-567.938" y1="750.834" x2="-563.15" y2="750.834"
      gradientTransform="matrix(0 18.65 18.65 0 -13569.912 10674.948)">
      <stop offset="0" stop-color="#00abe6" />
      <stop offset=".056" stop-color="#05a2df" />
      <stop offset=".217" stop-color="#0f8ecf" />
      <stop offset=".4" stop-color="#1680c4" />
      <stop offset=".623" stop-color="#1a77be" />
      <stop offset="1" stop-color="#1b75bc" />
    </linearGradient>
    <path clip-path="url(#aE)" fill="url(#aF)" d="M418.5 82.9h29.3v89.3h-29.3z" />
  </g>
  <g>
    <defs>
      <path id="aG"
        d="M456.5 180.5c0 5.2 4.3 9.5 9.5 9.5h10.3c5.3 0 9.5-4.2 9.5-9.5V93.3c-9.5-1.8-19.3-3.5-29.3-5.1v92.3z" />
    </defs>
    <clipPath id="aH">
      <use xlink:href="#aG" overflow="visible" />
    </clipPath>
    <linearGradient id="aI" gradientUnits="userSpaceOnUse" x1="-569.003" y1="746.669" x2="-564.216" y2="746.669"
      gradientTransform="matrix(0 21.2664 21.2664 0 -15407.811 12188.842)">
      <stop offset="0" stop-color="#00abe6" />
      <stop offset=".056" stop-color="#05a2df" />
      <stop offset=".217" stop-color="#0f8ecf" />
      <stop offset=".4" stop-color="#1680c4" />
      <stop offset=".623" stop-color="#1a77be" />
      <stop offset="1" stop-color="#1b75bc" />
    </linearGradient>
    <path clip-path="url(#aH)" fill="url(#aI)" d="M456.5 88.2h29.3V190h-29.3z" />
  </g>
  <g>
    <defs>
      <path id="aJ"
        d="M494.6 162.7c0 5.2 4.3 9.5 9.5 9.5h10.3c5.3 0 9.5-4.2 9.5-9.5v-61.3c-9.5-2.3-19.2-4.4-29.3-6.5v67.8z" />
    </defs>
    <clipPath id="aK">
      <use xlink:href="#aJ" overflow="visible" />
    </clipPath>
    <linearGradient id="aL" gradientUnits="userSpaceOnUse" x1="-565.756" y1="761.604" x2="-560.968" y2="761.604"
      gradientTransform="matrix(0 16.143 16.143 0 -11785.33 9227.9)">
      <stop offset="0" stop-color="#00abe6" />
      <stop offset=".056" stop-color="#05a2df" />
      <stop offset=".217" stop-color="#0f8ecf" />
      <stop offset=".4" stop-color="#1680c4" />
      <stop offset=".623" stop-color="#1a77be" />
      <stop offset="1" stop-color="#1b75bc" />
    </linearGradient>
    <path clip-path="url(#aK)" fill="url(#aL)" d="M494.6 94.9h29.3v77.3h-29.3z" />
  </g>
  <g>
    <defs>
      <path id="aM"
        d="M532.6 180.5c0 5.2 4.3 9.5 9.5 9.5h10.3c5.3 0 9.5-4.2 9.5-9.5v-68.7c-9.4-2.9-19.2-5.7-29.3-8.3v77z" />
    </defs>
    <clipPath id="aN">
      <use xlink:href="#aM" overflow="visible" />
    </clipPath>
    <linearGradient id="aO" gradientUnits="userSpaceOnUse" x1="-566.688" y1="757.347" x2="-561.901" y2="757.347"
      gradientTransform="matrix(0 18.0484 18.0484 0 -13121.653 10331.411)">
      <stop offset="0" stop-color="#00abe6" />
      <stop offset=".056" stop-color="#05a2df" />
      <stop offset=".217" stop-color="#0f8ecf" />
      <stop offset=".4" stop-color="#1680c4" />
      <stop offset=".623" stop-color="#1a77be" />
      <stop offset="1" stop-color="#1b75bc" />
    </linearGradient>
    <path clip-path="url(#aN)" fill="url(#aO)" d="M532.6 103.6h29.3V190h-29.3z" />
  </g>
  <g>
    <defs>
      <path id="aP"
        d="M570.6 162.7c0 5.2 4.3 9.5 9.5 9.5h10.3c5.2 0 9.5-4.2 9.5-9.5v-37.4c-9.2-3.8-18.9-7.4-29.3-10.8v48.2z" />
    </defs>
    <clipPath id="aQ">
      <use xlink:href="#aP" overflow="visible" />
    </clipPath>
    <linearGradient id="aR" gradientUnits="userSpaceOnUse" x1="-560.219" y1="785.735" x2="-555.434" y2="785.735"
      gradientTransform="matrix(0 12.0383 12.0383 0 -8873.657 6858.679)">
      <stop offset="0" stop-color="#00abe6" />
      <stop offset=".056" stop-color="#05a2df" />
      <stop offset=".217" stop-color="#0f8ecf" />
      <stop offset=".4" stop-color="#1680c4" />
      <stop offset=".623" stop-color="#1a77be" />
      <stop offset="1" stop-color="#1b75bc" />
    </linearGradient>
    <path clip-path="url(#aQ)" fill="url(#aR)" d="M570.6 114.6h29.3v57.6h-29.3z" />
  </g>
  <g>
    <path
      d="M27.6 236.8c-.7 1.3-1.8 2.4-3.2 3.2-1.4.8-3 1.3-5 1.7-2 .3-4.2.5-6.7.5H7.2v-20.3c1.6-.2 4-.2 7.1-.2 1.9 0 3.8.2 5.5.4 1.7.3 3.3.8 4.6 1.6 1.3.8 2.4 1.8 3.1 3.1.8 1.3 1.2 2.9 1.2 4.9.1 2.1-.3 3.8-1.1 5.1m2.9-17.4c-3.9-2.8-9.5-4.2-16.8-4.2-2.1 0-4.4.1-6.9.3s-4.8.5-6.8 1v51.1h7.3v-19.2h5.8c3.6 0 6.9-.3 9.8-.9 2.9-.6 5.3-1.6 7.4-2.9 2-1.3 3.6-3 4.6-5.2 1.1-2.1 1.6-4.7 1.6-7.7-.1-5.4-2.1-9.6-6-12.3" />
  </g>
  <path d="M50.4 215.7h-7.3v51.9h31.2v-6.3H50.4z" />
  <g>
    <path
      d="M110.8 247.5c0 2.6-.3 4.8-.9 6.7-.6 1.9-1.5 3.4-2.6 4.6-1.1 1.2-2.4 2.1-3.9 2.7s-3.2.9-5 .9c-3.7 0-6.7-1.2-9-3.5s-3.4-6.1-3.4-11.3v-31.7h-7.3v32.5c0 2.9.4 5.6 1.2 8.1.8 2.5 2 4.6 3.6 6.5 1.6 1.8 3.6 3.2 6.1 4.3 2.5 1 5.4 1.6 8.8 1.6s6.3-.5 8.8-1.6c2.5-1 4.5-2.5 6.1-4.3s2.8-4 3.6-6.5 1.2-5.2 1.2-8.1v-32.5h-7.3v31.6z" />
  </g>
  <path d="M177.6 215.7h7.3v51.8h-7.3z" />
  <g>
    <path
      d="M230.5 254.1c-1.6-2.6-3.5-5.7-5.9-9.1-2.3-3.4-4.8-6.8-7.4-10.4-2.6-3.5-5.3-6.9-7.9-10.2-2.7-3.3-5.2-6.2-7.5-8.7H196v51.8h7.1V227c1.4 1.6 2.9 3.4 4.6 5.5 1.6 2.1 3.3 4.3 5.1 6.7 1.7 2.4 3.5 4.8 5.3 7.4 1.8 2.5 3.5 5 5.1 7.5 1.6 2.5 3.2 4.9 4.6 7.1 1.4 2.3 2.7 4.4 3.8 6.2h6.1v-51.8h-7.1v38.5h-.1zM288 248.4c1.5-4.3 3.1-8.5 4.7-12.6s3.2-8 5-11.7c1.7 3.7 3.3 7.6 4.9 11.7s3.1 8.3 4.7 12.6H288zm23.3-9.3c-1.7-4.2-3.3-8.2-5-12-1.6-3.8-3.4-7.6-5.2-11.3h-6.7c-1.8 3.7-3.5 7.5-5.2 11.3-1.6 3.8-3.3 7.8-5 12s-3.4 8.6-5.1 13.3c-1.8 4.7-3.6 9.7-5.6 15.2h7.6l4.7-13.2h23.5c.8 2.2 1.6 4.5 2.3 6.6.7 2.2 1.5 4.4 2.4 6.6h7.9c-2-5.5-3.9-10.5-5.6-15.2-1.6-4.7-3.4-9.1-5-13.3" />
  </g>
  <path d="M335 215.7h-7.2v51.9h31.1v-6.3H335zM372.2 215.7H365v51.9h31.2v-6.3h-24zM402.2 215.7h7.3v51.8h-7.3z" />
  <g>
    <path
      d="M429.6 248.4c1.5-4.3 3.1-8.5 4.7-12.6s3.2-8 5-11.7c1.7 3.7 3.3 7.6 4.9 11.7s3.2 8.3 4.7 12.6h-19.3zm23.3-9.3c-1.7-4.2-3.3-8.2-5-12-1.6-3.8-3.4-7.6-5.2-11.3H436c-1.8 3.7-3.5 7.5-5.2 11.3-1.6 3.8-3.3 7.8-5 12s-3.4 8.6-5.1 13.3c-1.8 4.7-3.6 9.7-5.6 15.2h7.6l4.7-13.2h23.5c.8 2.2 1.6 4.5 2.3 6.6.7 2.2 1.5 4.4 2.4 6.6h7.9c-2-5.5-3.9-10.5-5.6-15.2-1.7-4.7-3.4-9.1-5-13.3M503.8 254.1c-1.6-2.6-3.6-5.7-5.9-9.1-2.3-3.4-4.8-6.8-7.4-10.4-2.6-3.5-5.3-6.9-7.9-10.2-2.7-3.3-5.2-6.2-7.5-8.7h-5.8v51.8h7.1V227c1.4 1.6 2.9 3.4 4.6 5.5 1.6 2.1 3.3 4.3 5.1 6.7 1.7 2.4 3.5 4.8 5.3 7.4 1.8 2.5 3.5 5 5.1 7.5 1.6 2.5 3.2 4.9 4.6 7.1 1.4 2.3 2.7 4.4 3.8 6.2h6.1v-51.8h-7.2v38.5zM553.2 261.3c-2.2.7-5 1-8.3 1-2.9 0-5.4-.5-7.6-1.5-2.2-1-4-2.4-5.4-4.2-1.4-1.8-2.5-4-3.2-6.5s-1.1-5.4-1.1-8.4c0-3.2.4-6.1 1.2-8.6.8-2.6 2-4.7 3.6-6.5 1.5-1.8 3.4-3.2 5.6-4.1 2.2-1 4.7-1.4 7.4-1.4 1.3 0 2.6.1 3.9.3 1.3.2 2.4.5 3.5.9 1.1.3 2 .7 2.9 1 .8.3 1.5.7 1.9 1l2.1-6c-.3-.2-.8-.5-1.6-.9s-1.8-.8-3.1-1.2-2.8-.8-4.5-1c-1.7-.3-3.7-.4-5.8-.4-3.4 0-6.6.6-9.6 1.8s-5.6 2.9-7.9 5.2c-2.2 2.3-4 5.1-5.4 8.5-1.3 3.4-2 7.2-2 11.6 0 4.3.6 8.2 1.8 11.6 1.2 3.4 2.8 6.2 5 8.5 2.1 2.3 4.7 4 7.7 5.2s6.3 1.8 9.9 1.8c2.1 0 4-.1 5.8-.4s3.4-.5 4.7-.9c1.3-.3 2.5-.7 3.4-1.1s1.5-.7 1.9-.9l-1.9-6c-1.1.3-2.7.9-4.9 1.6" />
  </g>
  <path d="M573.6 261.4v-18h21.7v-6h-21.7V222h24.3v-6.3h-31.6v51.9h33.5v-6.2z" />
  <g>
    <path
      d="M152.3 243.2h7.9v18.2c-.7.2-1.7.4-3.2.6s-3.3.3-5.3.3c-3 0-5.5-.5-7.7-1.5s-4-2.4-5.5-4.2c-1.5-1.8-2.6-4-3.3-6.5s-1.1-5.4-1.1-8.5c0-3.2.4-6.1 1.3-8.6.8-2.6 2-4.7 3.6-6.5 1.5-1.8 3.4-3.2 5.5-4.1 2.2-1 4.6-1.4 7.2-1.4 2.5 0 4.9.3 7.3.9s4.3 1.4 5.8 2.4l2.3-6.1c-.3-.2-.9-.5-1.7-.9s-1.9-.8-3.2-1.2-2.9-.8-4.7-1c-1.8-.3-3.9-.4-6.2-.4-3.4 0-6.7.6-9.7 1.8s-5.6 2.9-7.9 5.2c-2.2 2.3-4 5.1-5.3 8.5s-2 7.2-2 11.6c0 4.3.6 8.2 1.8 11.5 1.2 3.3 2.8 6.2 5 8.5 2.1 2.3 4.7 4 7.7 5.2s6.3 1.8 10 1.8c1.8 0 3.6-.1 5.3-.3 1.7-.2 3.4-.4 4.8-.6 1.5-.2 2.8-.5 3.9-.7 1.1-.2 2-.5 2.6-.7V237.3h-15.2v5.9z" />
  </g>
</svg>
