<svg xmlns="http://www.w3.org/2000/svg" viewBox="0 0 599.8 100.1">
  <g fill="#0057a2">
    <path
      d="M57.7 40c-2.3 0-4.1 1.9-4.1 4.1v10.3c0 2.3 1.9 4.1 4.1 4.1h51.6L187 99.6c2 1.1 4.5.3 5.6-1.7l4.8-8.7c1.1-2 .3-4.5-1.7-5.6l-78.2-41.8c-2-1.1-5.5-2-7.8-2h-52v.2zM444 54.4c0 2.3 1.9 4.1 4.1 4.1h147.6c2.3 0 4.1-1.9 4.1-4.1V44.1c0-2.3-1.9-4.2-4.1-4.2H448.2c-2.3 0-4.1 1.9-4.1 4.2l-.1 10.3z" />
    <path
      d="M162.1 56.4c-2.3 0-4.1-1.9-4.1-4.1v-9c0-2.3 1.9-4.1 4.1-4.1h6.2c2.3 0 4.1-1.9 4.1-4.1V22.8c0-2.3-1.9-4.1-4.1-4.1H45.4c-2.3 0-4.1 1.9-4.1 4.1v73c0 2.3-1.9 4.1-4.1 4.1H26.8c-2.3 0-4.1-1.9-4.1-4.1V62.7c0-2.3-1.9-4.1-4.1-4.1H4.1c-2.3 0-4.1-1.9-4.1-4.1V44.2c0-2.3 1.9-4.1 4.1-4.1h14.5c2.3 0 4.1-1.9 4.1-4.1V8.1c0-4.3 3.5-7.9 7.9-7.9h152.5c4.3 0 7.9 3.5 7.9 7.9v40.5c0 4.3-3.5 7.9-7.9 7.9l-21-.1zM393.5 95.7c0 2.3-1.9 4.1-4.1 4.1h-10.3c-2.3 0-4.1-1.9-4.1-4.1v-73c0-2.3-1.9-4.1-4.1-4.1H315c-2.3 0-4.1 1.9-4.1 4.1v31.6c0 2.3-1.9 4.1-4.1 4.1h-10.3c-2.3 0-4.1-1.9-4.1-4.1V22.8c0-2.3-1.9-4.1-4.1-4.1h-55.7c-2.3 0-4.1 1.9-4.1 4.1v73c0 2.3-1.9 4.1-4.1 4.1h-10.3c-2.3 0-4.1-1.9-4.1-4.1V8c0-4.3 3.5-7.9 7.9-7.9h168c4.3 0 7.9 3.5 7.9 7.9v87.7h-.3zM415.6 99.9c-4.3 0-7.9-3.5-7.9-7.9V7.9c0-4.3 3.5-7.9 7.9-7.9h161.1c2.3 0 4.1 1.9 4.1 4.1v10.3c0 2.3-1.9 4.1-4.1 4.1H430.5c-2.3 0-4.1 1.9-4.1 4.1V77c0 2.3 1.9 4.1 4.1 4.1h146.3c2.3 0 4.1 1.9 4.1 4.1v10.3c0 2.3-1.9 4.1-4.1 4.1H415.6v.3z" />
  </g>
</svg>
