<svg xmlns="http://www.w3.org/2000/svg" viewBox="0 0 113.3859863 172.6622162"><path d="M52.286 133.126c-11.015 0-19.884 8.812-19.884 19.767 0 10.958 8.869 19.77 19.884 19.77s19.942-8.812 19.942-19.77c0-10.955-8.927-19.767-19.942-19.767zm0 34.203c-7.885 0-14.086-6.319-14.086-14.436 0-8.115 6.201-14.433 14.086-14.433s14.145 6.318 14.145 14.433c0 8.117-6.26 14.436-14.145 14.436zM82.286 133.59h-5.681v38.608h25.116v-5.102H82.286zM105.974 133.59h5.681v38.608h-5.681zM20.398 157.36c5.67-1.561 8.924-6.104 8.924-11.564 0-6.835-5.005-12.206-13.428-12.206H1.674v38.608h5.981v-33.237h7.813c4.638 0 7.812 2.686 7.812 6.835 0 3.627-2.498 6.144-6.297 6.67-.486.067-.99.106-1.515.106H9.12l15.213 19.626h7.568l-11.503-14.839z"/><g><path d="M113.386 56.693c0 31.31-25.382 56.693-56.693 56.693S0 88.004 0 56.693C0 25.383 25.382 0 56.693 0s56.693 25.383 56.693 56.693zM76.722 80.784a3.008 3.008 0 0 0-1.862-1.383c-3.492-.876-6.608-3.861-9.455-6.957-1.206-1.313-2.706-2.948-4.264-4.384l-.303-.278.387-.14c7.767-2.8 12.985-10.23 12.985-18.488 0-10.723-8.609-19.122-19.6-19.122H43.667a3.037 3.037 0 0 0-3.033 3.029l-.001.043a3.04 3.04 0 0 0 3.034 2.996H54.61c7.597 0 13.548 5.734 13.548 13.054 0 7.484-6.077 13.573-13.548 13.573H43.666c-1.673 0-3.034 1.36-3.034 3.033s1.361 3.035 3.034 3.035h5.89c4.267 0 7.731 3.769 11.399 7.76 3.386 3.684 7.134 7.393 12.427 8.726a3.022 3.022 0 0 0 2.295-.34 3.007 3.007 0 0 0 1.383-1.862c.198-.784.078-1.6-.338-2.295z"/></g></svg>