<svg xmlns="http://www.w3.org/2000/svg" viewBox="0 0 420 207">
  <path
    d="M210 207H4.5c-1.2 0-2.3-.1-3.5 0-.9.1-1.1-.2-1-1s0-1.7 0-2.5V3.5C0 2.7.1 1.9 0 1S.2-.1 1 0c1 .1 2 0 3 0h412c4 0 4 0 4 4v199c0 1-.1 2 0 3 .1.9-.2 1.1-1 1-1.2-.1-2.3 0-3.5 0H210z"
    fill="#fcfdfd" />
  <path
    d="M224.5 15.9c4.4 2.5 8.5 5.5 12.4 8.7.3 6.4-.3 12.9.8 19.3.2 1.1.1 2.4-.4 3.4-4.7 8.1-4.1 17.2-4.2 26 0 5.2-1.7 10-2.3 15.1-.9 7.7.1 15.5-2 23.1-.6 2.5-2.1 4.3-4.3 5.5-1 .8-3.2 0-3.3 2.2 0 .6 0 1.2-.1 1.9-.2.4-.4.7-.7 1-.8.7-1.7 1.3-2.4 2-1.6 1.4-3 3.2-4.9 4.4-.4.2-.9.1-1.3-.1-.8-.9-1.6-1.8-2.3-2.7-2.3-12.9-2.8-25.9-2.1-38.9.1-1.9.7-3.7 2-5 3.5-3.7 3.9-8.1 3.9-12.9-.2-9.7.1-19.5-.1-29.2-.4-10 5.3-16.9 11.3-23.8z"
    fill="#191943" />
  <path
    d="M224.5 15.9c-1.7 4.1-3.6 8-6.7 11.3-2.7 2.9-3.2 6.8-3.2 10.6-.1 11.6-.1 23.2 0 34.8 0 3.5-.5 6.5-3.3 8.9-2.2 1.8-2.8 4.3-2.7 7.1.1 6 .1 11.9 0 17.9 0 3.6.8 7.2 1.3 10.7.4 3-.2 5.7-.4 8.6-5.6-4.7-11-9.6-15.9-14.9-.2-.6-.5-1.1-1.2-1.1v.1c-1.3-3.2-1.5-6.4-.5-9.7.7-2.1.7-4.2.4-6.4-.5-4.2-.2-8.2 1.5-12.2.9-2.1 1.4-4.4 1.3-6.8-.5-8.6.6-17.2 1.3-25.7.5-6.7 1.8-13.7 6-19.6 2.9-4.1 1.8-8.1-1-11.9-.3-.6-.3-1.1.1-1.6.1-.6.5-.8 1.1-.9 1.4-.9 3-1.6 3.9-3.2 1.2-1.7 2.7-2.9 4.5-3.9.7-.2 1.4-.2 2.1 0 4 2.2 7.8 4.9 11.4 7.9z"
    fill="#151640" />
  <path
    d="M130.7 131.1c-11.5 0-22.9.1-34.4.1-9.5 0-18.9 0-28.4.1-.6 0-1.3.4-1.7-.3-.3-.6.4-.9.7-1.1 7.7-6.5 15.1-13.4 23.3-19.4.8-.1 1.3-.5 1.5-1.3 4.9-4.9 10.5-9 15.7-13.6 1-.9 1.9-1.2 3.2-.7 11 4.1 22.3 7.2 33.1 11.8 0 .2.1.4.1.5-2.1 1.9-7.9 12.5-8.5 15.6-.6 3.1-2 6-4.6 8.3z"
    fill="#111333" />
  <path
    d="M359.2 111c9.4 6.5 18.7 13 28.1 19.5-.5 1.3-1.4.9-2.1.9H261.8c-1.2 0-2.3-.1-3.5-.2-.9-1.8.3-2.6 1.6-2.7 6-.6 9.7-7 16.3-6.2 1 .1 1.9-1.1 3-1.6 6.1-2.3 12.7-1.4 18.9-3.3 1.7-.3 3.3-.3 5-.3 4.4-.2 8.7-1.4 13-2 .9-.1 1.7 0 2.6 0 11.7-1.6 23.4-2.9 35.1-4.2 1.9-.3 3.6-.3 5.4.1z"
    fill="#2f2a55" />
  <path
    d="M201.5 16.9c1.3-.1 2.2.5 2.8 1.6 2.3 3.7 1.5 9.9-1.9 12.9-1.3 1.2-2.2 2.5-1.9 4.3.3 2-.1 4-1.1 5.7-2 3.7-1.8 7.6-2 11.5-.3 8.1-1.4 16.1-.9 24.2.1 1.7-.6 3.4-1.3 4.7-2.4 4.6-2.1 9.2-1.1 13.9.1.6.5 1.5.2 1.9-2.8 3.7-1.3 8-2.1 12-4.6-3.7-9-7.7-13-12.1.3-2.1-.8-3.1-2.7-4.1-5.6-2.9-6.8-7-3.7-12.5 1.8-3.2 2.7-6.5 2.1-10-1.1-6-.7-11.8.1-17.7.4-2.8.9-5.5.4-8.4-.3-1.8.3-3.4 1.9-4.3 3.9-2.3 5.3-6.1 6.7-10.1v.1c.8 0 1.1-.5 1.2-1.1.1-.5.4-.7.9-.7.6-.3 1-.6 1.3-1.2 2.9-3.2 6.4-5.9 9.9-8.5.8.4.6-.4.8-.7.5-.8 1-1.4 1.9-1.6.8-.1 1.2-.1 1.5.2z"
    fill="#13143d" />
  <path
    d="M227.5 112.5c2.1-7-.1-14.5 1.9-21.5.5-1.7.1-3.6.1-5.4 0-1.6-.2-3.3 1.2-4.6 1.4-1.3.9-3.2.8-4.7-.6-7.5 1.2-14.8 1.1-22.2 0-1.9.8-3.6 2.2-4.8 2.3-2 2.1-4.4 1.5-6.8-1.4-5.4-.5-10.8-.6-16.3 0-.7.7-1.1 1.3-1.3 7.3 4.6 14.3 9.6 21.1 14.9-3.2 6.2-4.4 12.4-3.7 19.6.5 5.4-.9 11.2-2.2 16.6-1.1 4.7-2.1 9.3-2.3 14-.1.5-.3.9-.5 1.4-.2.4-.5.8-.7 1.2-.1.2-.3.3-.4.5-.3.3-.6.6-1 .9-.3.2-.7.5-1 .7-.7.4-1 1.2-1.2 1.9-.9 2.3-3.1 3.6-4.3 5.6-.2.3-.5.7-.8.9-.6.5-1.2 1.1-1.7 1.7-.3.3-.5.6-.8.8-.6.5-1.1 1.1-1.6 1.8-1.1 1.3-2.3 2.5-3.7 3.4-1.7.4-2.6 2.2-4.7 1.7z"
    fill="#1d1d47" />
  <path
    d="M20.4 179.7c-6.7-.3-12.3-1.5-16.5-6.2-1.1-1.2-3.2-2.2-.8-4.4 2.1-1.8 3-.7 4.3.9 2.9 3.6 6.6 5.4 11.3 5.1 4.4-.3 8.7-3.1 9.9-7.2 1.3-4.4.6-8.5-2.9-11.9-2.2-2.1-5-3.2-7.7-4.4-2.9-1.3-5.8-2.3-8.6-3.7-11.6-5.6-10.1-20.4-3.7-26.6 8.6-8.3 24.5-7.1 31.2 2.7.7 1 1.9 2.1.1 3.3-1.4.9-2.4 1.6-3.5-.4-2.5-4.4-6.3-6.7-11.4-6.6-4.8.1-8.6 2.7-9.6 7.1-1.1 5-.6 8.2 4 11.3 2.4 1.6 5 2.6 7.6 3.7 1.8.8 3.7 1.5 5.5 2.4 8.8 4.4 12.1 10.5 10.7 19.6-1.2 7.7-7.7 13.7-16.4 15-1.6.2-2.9.2-3.5.3z"
    fill="#080808" />
  <path
    d="M184.2 30.5c1.3 5-1.4 8.1-5.3 10.5-1.5.9-2.9 1.7-2.2 3.8 1.6 4.4-.3 8.7-.7 13-.3 3.3-.7 6.5.1 9.8 1.3 5.5 1 10.9-2.7 15.4-1.7 2.1-1.7 3.7-.2 5.6 1.5 1.8 2 4.5 5.7 4.2 3.1-.3 3.2 1.3.5 4.9-6.9-5.8-13.4-12.1-19.9-18.5-.1-.9-.5-1.3-1.4-1.4-3.5-2.7-6.6-5.7-9.5-8.9-1.4-1.9-3.9-3.4-2.1-6.3l-.1.1c.6-.2.9-.6 1.1-1 .9-1.3 2-2.4 3.6-3 .7-.1 1.2-.5 1.4-1.2.1-.5.4-.7.9-.8.5-.2.9-.6 1.2-1 .5-1 1.4-1.7 2.5-2.1 1.6-.5 2.5-1.8 3.5-3 .5-.9 1.2-1.5 2.1-1.8.4-.7 1.6-.3 1.6-1.4l.3.3-.3-.3c1.1-.2 1.6-1 2.2-1.8l-.1.1c.5-.2.9-.6 1.1-1 .4-.9 1.2-1.5 2.1-1.8.4-.7 1.6-.3 1.7-1.3l-.1.1c.7 0 1-.5 1.2-1.1 3.7-3.8 7.7-7 11.8-10.1zM130.7 131.1c.1-.8 0-1.8.4-2.4 3.8-4.7 4.3-10 2.9-15.6-.4-1.6-.3-2.6 1.6-2.7.9 0 1.7-.1 2.2-.8 1.4-2 3.6-2.6 5.8-3.2 1.5-.2 2.7.7 4 1.2.6.5 1.2.8 2 .8 2.5.3 4.9 1.3 7.1 2.4.2 1.2.9 1.3 1.8.7 7.1 1.9 14.1 4.4 20.9 7.1.6.5.9 1.7 2 .8 1.2-.1 2.1.4 3 1 1 4.4-1.3 7.6-4 10.7-16.5.3-33.1.3-49.7 0z"
    fill="#111239" />
  <path
    d="M248.5 91.6c-.2-2.4 1.2-4.6 0-7.2-.7-1.4-.2-3.3.8-4.7 2.1-2.9 2.2-6.1 2-9.5-.1-2.7 0-5.2 1.4-7.6 1.1-1.9.3-4.1 0-6.2-.9-6.3-.5-12.4 5.1-16.9 8.4 5.4 16.4 11.3 24.5 17.1 1.2 2.2-.4 3.5-1.7 4.7-9.4 9.5-18.9 19-28.5 28.4-.8 1.1-1.9 2.4-3.6 1.9z"
    fill="#22224c" />
  <path
    d="M330.2 90.5c3 2 6.4 3.6 8.7 6.5-.2 2.5-2.2 2.5-3.9 2.9-13.4 3.6-27 6.3-40.2 10.3-.5.2-1 .3-1.6.4-12.5 2.5-24.9 5.8-37.3 8.8-1.6.4-3.2 1.1-4.8 1.2-1.3.1-2.5.2-3.8.6-3.5.4-6.7 2.3-10.3 1.8-.5-.2-.8-.6-1-1.1-.2-1.5.8-2.3 1.9-3 .4-.2.9-.4 1.4-.6 5.5-1.3 10.7-3.5 16.2-4.9 6.3-2 12.7-4.1 19.1-5.9l2.7-.9c1.8-.5 3.5-1.3 5.3-2.1.5-.2.9-.3 1.4-.5 13.1-4.1 26.1-8.3 39.1-12.5 2.2-.5 4.6-1.5 7.1-1z"
    fill="#f45d07" />
  <path
    d="M312.7 78.5c3.4 1.6 6.6 3.5 8.8 6.8.3 2.3-1.5 2.7-3 3.2-12.3 4.3-24.1 9.6-36.3 14.2-.4.2-.8.3-1.3.4-.8.3-1.6.5-2.3.9-.4.2-.7.3-1.1.4-.5.2-1.1.3-1.6.5-.3.2-.7.3-1 .5-.7.3-1.4.7-2.2 1.1-.4.2-.8.4-1.2.5-6 2.5-12.2 4.8-18.2 7.3-5.1 1.5-10 3.5-14.9 5.3h.1c-1.7.4-3 1.9-4.9 1.4-.7-.3-1.2-.8-1.4-1.6.6-2.5 3-3 4.8-3.9 5.9-2.9 12-5.5 17.9-8.6 3.9-1.7 7.9-3.1 11.5-5.5.8-.4 1.5-.7 2.3-1.1.4-.2.8-.4 1.1-.6.8-.4 1.6-.8 2.3-1.3 13.7-6.3 27.2-13 40.6-19.9z"
    fill="#67ba2c" />
  <path
    d="M290.3 62.6c2.9 1.2 5.1 3.2 7.6 5.1 1 3.5-1.9 4.6-4 6-16.3 11.4-32.7 22.6-49 33.9-1.4.9-2.7 1.9-3.9 3-1.1.9-2.2 1.7-3.3 2.5-3.5 1.6-6.2 4.3-9.4 6.2-1.9 1.1-3.7 2.6-5.8 3.5-.7.2-1.4.2-2-.2-.3-.4-.3-.8.1-1.2.6-.6.8-1.5 1.4-2.2.3-.3.7-.6 1-.9 3.5-2.4 6.7-5.2 9.8-8.1.8-.7 1.6-1.5 2.4-2.2.7-.5 1.3-1.1 1.9-1.8.3-.3.7-.6 1.1-.8 15.9-13.1 31.6-26.4 47.3-39.8 1.3-1.3 2.8-2.7 4.8-3z"
    fill="#22224c" />
  <path
    d="M262.5 160.9c-.1-10.2 7.2-18.1 17-18.3s17.5 7.9 17.5 18.3c0 10.2-7.6 18.1-17.2 18.1-9.7 0-17.2-7.9-17.3-18.1zM304.3 160.9c0-4.6-.1-9.3 0-13.9 0-1.2-.8-3 1.1-3.3 1.7-.3 3.7-.8 5.2.7.7.7 1.2 1.6 1.8 2.4 4.6 6.1 9.2 12.1 13.9 18.1.4.6 1 1.6 1.9 1 .4-.2.4-1.2.4-1.8v-16.4-2.5c0-.9.4-1.6 1.4-1.6.9 0 1 .7 1 1.4.1.7.1 1.3.1 2v27.8c0 1.1.8 2.8-1.1 3.3-1.6.4-2.3-.9-3.1-2-5.4-7.1-10.9-14.2-16.3-21.3-.5-.7-.9-1.4-1.5-2-.4-.5-.7-1.3-1.5-1s-.5 1.1-.5 1.6c0 6.8.1 13.6-.1 20.4 0 1.4 1.5 4.3-1.5 4.2-2.4-.1-1.1-2.7-1.2-4.1-.1-4.4 0-8.7 0-13z"
    fill="#131313" />
  <path
    d="M303.2 118c-1.6.5-3.2.3-4.9.3-5.6-.1-11.1.9-16.6 1.8-1.9.3-4.3 1.3-5.5-1.5.1-.5.3-.9.6-1.3 1.3-1.1 3.1-.9 4.6-1.4.4-.1.8-.2 1.3-.3 1.2-.2 2.5-.4 3.7-.9.8-.2 1.6-.4 2.5-.6.6-.2 1.2-.4 1.9-.5.9-.2 1.7-.3 2.6-.4 1.3 0 2.6-.1 3.8-.5.9-.2 1.7-.4 2.6-.6.7-.2 1.3-.4 2-.5.9-.2 1.8-.3 2.8-.4 1.5 0 2.9-.3 4.2-.9 10.4-2.7 21-3.9 31.5-6 1.8-.4 3.5-.9 5.3-1.1.5-.1 1-.1 1.5 0 .5 0 1 .1 1.5.4 2.9 1.6 5.7 3.3 8 5.8-1.3 1.8-3.2 1.9-5.2 2.2-11 1.7-22.2 1.8-33.1 4.5-.6.1-1.3.1-1.9.2-4.7-.5-9 .4-13.2 1.7z"
    fill="#f30d0e" />
  <path
    d="M48.9 160.8c0-4.6.1-9.3 0-13.9-.1-2.4.4-3.6 3.2-3.4 3.6.3 7.3-.1 10.9.1 5.7.3 9.3 3.3 10.1 8.4 1.1 6.5-2 10.6-8.6 11.3-2.3.3-4.6.3-7 .2-1.9 0-2.6.8-2.6 2.7.1 3.1-.1 6.3.1 9.4.1 2.5-1.3 2.6-3.1 2.5-1.7 0-3.3.2-3.2-2.4.3-5 .2-10 .2-14.9z"
    fill="#0e0e0e" />
  <path
    d="M267.4 101.7c-3.6 2.8-7.7 4.5-12 5.8-1.1.7-2.2.7-3.3-.1-.4-.6-.5-1.3-.5-2 .1-.4.3-.8.6-1.2.7-.5 1.5-.8 2.2-1.1.3-.2.7-.3 1-.5.7-.3 1.3-.7 1.9-1.1l.9-.6c.5-.3 1-.5 1.5-.7.3-.2.7-.4 1-.5l1.5-.9c.3-.3.7-.5 1.1-.7 5.2-3.1 10.4-6 15.5-9.1 1.4-.7 2.8-1.3 4-2.2 1.4-1 3-1.7 4.7-2.4.6-.3 1.2-.7 1.7-1.1 4.3-3.4 9.2-5.7 13.8-8.6 1.4-.9 2.8-.9 4.3-.5 1.9 1.3 4 2.3 5.4 4.3-.5 3.1-3.5 3.3-5.5 4.3-11.5 5.7-23.1 11.1-34.7 16.7-.3.1-.6.1-1 .1-.7.5-1.6.3-2.2 1-.5.5-1.5.3-1.9 1.1z"
    fill="#22224c" />
  <path
    d="M248.4 145.2c-.8 0-1.7-.2-2.5-.1-2.8.3-4.8 2-5.4 4.4-.6 2.7.1 4.8 2.8 6.3 2.3 1.3 4.8 2.1 7.2 3.4 4.9 2.6 6.7 5.7 6.1 10.8-.5 4.3-4 7.8-9 8.7-4.5.8-8.6.1-11.7-3.6-.5-.6-1.1-1.3-.1-2.1.8-.7 1.4-.5 2 .3 1.7 2.3 4 3.3 6.9 3 2.6-.2 4.4-1.6 5.3-3.8.9-2.2.6-4.6-1.1-6.5-1.1-1.3-2.6-2.1-4.1-2.8-1.7-.7-3.4-1.3-5-2.1-4.4-2.2-5.9-4.8-5.5-9.5.4-4.3 3-6.9 6.8-8.3 2.3-.8 4.8-1.3 7.3 0 .6.6.6 1.3 0 1.9zM409 145.2c-1.2 0-2.3-.1-3.5.1-2.4.4-3.7 2.1-4.3 4.3-.6 2.3.1 4.2 2 5.7 2.3 1.7 5.1 2.4 7.6 3.7 3 1.6 5.6 3.3 6.3 7.1 1.5 8.5-5 12.6-10.9 12.8-3 .1-5.9-.4-8.3-2.6-.1-1.9.9-1.8 2.1-1.2 5.4 2.1 9.1 1.2 10.7-2.5 1.6-3.8-.4-7.2-5.6-9.5-1.5-.7-3.1-1.2-4.6-1.9-4.4-2.2-6-4.9-5.6-9.5.3-4 3.1-7.3 7.3-8.5 2.2-.6 4.5-1.1 6.8.1.6.6.6 1.3 0 1.9z"
    fill="#0e0e0e" />
  <path
    d="M379 144.9c-8.2-1.2-13 2-15.1 9.8-1.1 4.3-1 8.5.3 12.7 1.3 4.1 3.6 7.6 8.2 8.6 4.9 1.1 9.1-.2 12.7-3.9.9-.9 1.3-3.6 2.9-2.4 1.8 1.4-.6 2.9-1.5 3.9-8 9.4-24.3 5.9-28.9-6.1-2.6-6.9-1.5-13.5 3.5-18.9 4.8-5.3 10.9-7.2 18-5.1.3.5.3 1-.1 1.4zM201.5 173.9c3.7-9.7 7.5-19.4 11.3-29 .2-.4.6-1 .9-1.1 1-.3.7.8.9 1.2l12.3 29.7c.4 1 1.3 2.1.3 3.1-.8.9-5.3.1-5.8-1-.7-1.5-1.5-3-1.9-4.6-.7-2.8-2.4-3.7-5.1-3.3-.8.1-1.7.1-2.5 0-4.4-.8-7.2.7-8.3 5.1-.7.5-1.4.4-2.1-.1z"
    fill="#131313" />
  <path
    d="M80.7 160.8c0-4.6.1-9.3 0-13.9-.1-2.4.4-3.6 3.2-3.5 4.6.3 9.3 0 13.9.1 1 0 2.8-.6 2.7 1.1-.1 1.5-1.9.7-2.9.8-2.8.1-5.6.1-8.5 0-1.7-.1-2.5.6-2.3 2.3v.5c.1 3.5-1.1 7.7.6 10.1 1.6 2.4 6.2.5 9.4.8.5.1 1 0 1.5 0 .6.1 1.4 0 1.4 1s-.8 1-1.4 1c-3 .1-6 .1-9 0-1.9-.1-2.7.6-2.6 2.5.1 3.3.1 6.6 0 9.9-.1 2 .8 2.5 2.7 2.5 3.3-.1 6.6 0 10 0 .6 0 1.4-.1 1.3 1-.1.9-.8.9-1.4.9-5.5 0-10.9 0-16.4.1-1.8 0-2.2-.8-2.2-2.4v-14.8z"
    fill="#080808" />
  <path
    d="M280.4 102.5c6.8-3.7 14.2-5.9 21.3-8.9 5.7-2.4 11.6-4.5 17.5-6.7.9-.4 1.9-.6 2.4-1.7 3.7.5 6 3.2 8.7 5.3-5.4 2.5-11.2 3.8-16.8 5.8-9 3.1-18.1 5.8-27.2 8.7-.9.3-1.9.4-2.9.6-.9-1.2-2.3-1.8-3-3.1z"
    fill="#312b41" />
  <path
    d="M129.2 144.6c-9-.3-13.1 3-14.8 11.8-.9 4.2-.5 8.2 1.1 12.1 2.9 7.3 9.6 9.9 16.6 6.5.6-.3 1.1-.7 1.7-1.1.8-.6 1.7-.5 2.1.3.3.6-.2 1.2-.8 1.6-4 2.8-8.5 3.7-13.2 2.8-10.4-2.2-16.5-11.9-14-22.5 2.3-9.8 12.3-15.3 22.8-12.5-.1.9-.6 1.3-1.5 1z"
    fill="#131313" />
  <path
    d="M240.1 110.1c1.9-2.8 5-4.2 7.7-6 15.3-10.7 30.7-21.2 46-31.8 1.7-1.2 4-2 4.1-4.6 2.1 1 3.9 2.3 5.4 4-.5 4.1-4.3 5-7 6.8-4.6 3.1-10 5.1-13.8 9.3-1.2.7-2.7.6-3.9 1.5-5.3 3.5-11.2 6.2-16.1 10.3-.5.6-1.5.4-2 1-.6.5-1.5.3-2 1-1 .7-2.2.9-3 2-.8.8-2.2 0-2.9 1-.7.4-1 1.2-1.5 1.9-.3.3-.6.6-1 .7-.9.4-1.9.8-2.7 1.4-.3.2-.7.4-1.1.6-.7.3-1.4.7-2 1.2-.3.3-.7.5-1 .6-.8.3-1.6.3-2.4 0-.6-.1-.8-.4-.8-.9z"
    fill="#01a4bb" />
  <path
    d="M279.3 121.4c-1.7 2.9-4.4 3.1-7.3 3-2.5-.1-4.7.1-4.7 3.5 0 1.3-1 1.5-2.1 1.5h-5c-1.3 0-1.8.7-1.8 1.8-13 .2-25.9.3-38.9-.1-.5-.8-.3-1.5.3-2.1 2.3-1.5 5.4-.3 7.7-2.2 8-2.3 16.4-2.2 24.5-3.6 7.5-1.3 15.1-2.2 22.7-2.7 1.6-.2 3.3-.4 4.6.9z"
    fill="#22224c" />
  <path
    d="M176.6 143.7c3.1-.5 6.3-.3 9.4-.2 5.5.3 9.3 4.2 9.4 9.7.1 3.8-1.8 7.1-6.6 8-2.2.4-2.3 1.3-1.3 3 2.3 3.8 4.5 7.7 6.7 11.6.7 1.2 1.3 2.2-1.1 2.3-3.2.2-5.2-.5-6.6-3.7-1.8-4.1-4-8-6.2-11.8-1-1.8-.6-2.2 1.3-2.4 3.6-.2 6.4-1.7 7.2-5.6 1.1-5-1.6-9-6.7-9.5-1.8-.2-3.7-.3-5.4.3-.6-.5-.6-1.1-.1-1.7z"
    fill="#131313" />
  <path
    d="M290.3 62.6c-4.5 4.8-9.8 8.6-14.8 12.9-5.4 4.7-11.1 9.3-16.6 14-6.7 5.6-13.3 11.2-20 16.8-.3.3-.9.2-1.4.3-.6-.7-.7-1.4-.1-2.1.6-.8 1.3-1.4 2-2 9.9-10 20.7-19.1 30.4-29.4 4.1-4.3 9.2-7.7 13.2-12.1.9-.9 1.9-1.9 3.5-1.4 1.3.8 2.9 1.4 3.8 3z"
    fill="#4d4fa2" />
  <path
    d="M150.6 161.5c0-4.3-.1-8.6 0-12.9.1-2.3-.7-3.4-3.1-3.2-.8.1-1.7 0-2.5 0-.6 0-1.4 0-1.2-1 .1-.6.6-.8 1.1-.8h17.4c.5 0 1 .2 1.1.7.2 1-.6 1-1.2 1.1-1.7.4-4.2-.9-5.1.8-.8 1.6-.4 3.8-.4 5.8v22.8c0 2.8-2.8 4.4-5.3 3.2-1.2-.6-.8-1.7-.8-2.6-.1-4.7 0-9.3 0-13.9zM176.6 143.7c0 .6.1 1.2.1 1.8 0 9.8.1 19.5.1 29.3 0 2.8-2.7 4.4-5.3 3.2-.9-.4-.9-1.3-.9-2.1v-29.8c0-1.9.6-2.8 2.6-2.6 1.1.1 2.2.1 3.4.2zM348.2 161.1c0 4.8-.1 9.6 0 14.4.1 2.5-1.3 2.5-3.1 2.5s-3.2.1-3.2-2.5c.1-9.9.1-19.9 0-29.8 0-2.7 1.7-2.3 3.4-2.3 1.6 0 2.9 0 2.9 2.2-.1 5.3 0 10.4 0 15.5z"
    fill="#080808" />
  <path
    d="M293.2 109.3c.2-.1.4-.2.7-.1 10.7-1.7 21-5.4 31.7-7.4 5.3-1 10.2-3.5 15.7-3.4 2.2 1 4.1 2.4 5.9 4.1.2.2.3.5.3.7 0 .3-.1.4-.1.4h-.1c-14.3 2.4-28.6 4.6-42.7 7.9-3.3.9-7 .2-10.1 2.1-.5.2-1.1.3-1.6.2-1.8-.2-3.5.6-5.3.4-1-.1-2.1-.4-2.2-1.5 0-1.1.9-1.6 2-1.8 1.9-.2 4.1-.1 5.8-1.6z"
    fill="#2f2a55" />
  <path
    d="M180.6 131.1c0-.5-.2-1.1.1-1.4 2.1-2.7 2.9-6 3.9-9.2 8.8 2.4 17.4 5.7 26 8.7.4-.3.8-.3 1.2 0 .4 1.1-.3 1.6-1.2 2-10.1.1-20.1.3-30-.1z"
    fill="#151640" />
  <path
    d="M286.4 59.6c-9.5 8.2-18.6 16.9-27.4 25.8-5.5 5.5-11.7 10.2-17 16-.7.8-1.6 1.2-2.6 1.1.4-3.2 3.8-4.2 5.1-6.8.3-1.1 1.1-1.6 2-2.1.3-.4.6-.7 1-1 .3-.4.7-.7 1-1 7.9-6.8 14.8-14.6 22.3-21.8 3.2-3.1 6.3-6.3 9.5-9.5 1-1 2.4-1.9 2.2-3.7 1.4.9 2.9 1.6 3.9 3z"
    fill="#92509e" />
  <path
    d="M282.3 87.4c.2-2.1 1.8-2.9 3.3-3.9 5.2-3.6 11.1-6.1 16.2-10 .7-.5 1.3-1 1.6-1.8 1.5.7 2.9 1.4 4 2.6-2.2.2-3.9 1.6-5.6 2.7-4.1 2.6-8.6 4.5-12.4 7.6-.4.4-.8.8-1.4.9-1.8.2-3 1.5-4.6 2.1-.5.5-.9.4-1.1-.2z"
    fill="#3daac7" />
  <path
    d="M318.1 116.1c2.2-2.7 5.3-2.4 8.3-2.7 8.6-.9 17.2-1.9 25.8-3 1.4-.2 2.9-.7 4.3-1.1 1.1.2 2 .9 2.7 1.7-9.1 1.8-18.2 2.8-27.4 3.5-2.9.3-5.9.8-8.8 1.4-1.6.4-3.2.6-4.9.2z"
    fill="#cd0d34" />
  <path
    d="M341.3 98.5c-12.3 3.6-24.9 6.2-37.3 9.3-3.4.8-6.5 2.3-10 1.5 8-3.1 16.5-4.3 24.7-6.6 6-1.7 12.2-2.9 18.3-4.3.9-.2 1.5-.7 2-1.3.7.4 1.9.2 2.3 1.4z"
    fill="#511f33" />
  <path
    d="M297.1 197.5c0 1.8.1 3.6-.5 5.4-.6 2-1.6 3.1-3.8 3.2-2.4.1-4-1.2-4.3-3.3-.4-3.3-.2-6.6-.1-9.9 0-.4.3-.9 1-.7.6.1.8.6.8 1.1.1 2.6.1 5.3.1 7.9 0 1.6.3 3.1 2.3 3 1.9-.1 2.5-1.3 2.6-3 0-2.5 0-4.9.1-7.4 0-.6-.1-1.4.8-1.5.8-.1 1.1.6 1.1 1.3-.1 1.3-.1 2.6-.1 3.9zM416.3 203c-.2-2.3-1.8-3.2-3.6-4.3-1.6-.9-2.8-2.4-2.3-4.4.3-1.5 1.2-2.7 2.8-3.1 1.6-.5 2.9.2 3.9 1.4.5.6 1.2 1.4.4 2.1-.9.8-1.3-.2-1.8-.8-1.1-1.3-2.4-1.1-3.3.1-.9 1.2-.1 2.1.9 2.9 1.8 1.5 4.8 1.9 4.6 5.2-.4.5-.8 1.1-1.6.9zM323.1 196.1c-1.6 1.6-1.4 3.9-2.3 5.7-.6 1.3-.3 3.5-2 3.6-1.9.1-1.5-2.1-2-3.4-.6-1.7-.9-3.4-1.4-5.1.1-.4.3-.7.8-.9 1.7 1.5.9 4.1 2.6 5.6 2.1-2.5 1.6-6 3.4-8.6 1 .6 1.3 1.5 1.3 2.6-.1.2-.3.4-.4.5z"
    fill="#3daac7" />
  <path
    d="M390.4 199.4V195c0-1.1-.3-1.9-1.6-2-.4 0-1.3-.4-1.2-.5.2-.8.9-.6 1.5-.6h3.9c.8 0 2.2-.1 2.2.4.1.9-1.2.6-1.9.7-1.4.2-1.2 1.3-1.3 2.2v8.8c0 .4 0 1-.5 1.1-.6.1-.9-.5-.9-.9-.1-1.6 0-3.3 0-4.9-.1.1-.1.1-.2.1zM271.4 198v.9c0 .5-.2.7-.7.6-2.2-.7-4-.8-3.8 2.4.1 1-.2 1.9-.3 2.9 0 .2-.5.5-.7.5s-.5-.4-.5-.6c0-3.8-.1-7.6-.1-11.3 0-1.3 1-1.6 2-1.6 1.3.1 2.6.3 3.9.5.2.8-.3 1.3-.9 1.6-3.2 1.2-2.1 2.3.1 3.3.5.2.8.5 1 .8z"
    fill="#1190b2" />
  <path
    d="M90.9 193.1c.6-1.6 1.5-1.2 1.7 0 .3 2.4.1 4.9.2 7.4.1 1.4-.5 3.1 1.6 3.7 2 .5 2.5-1.2 3.5-2.1.3-.5.7-.5 1 0-.7 3.4-1.5 4.2-4.1 4-2.5-.2-3.3-1.3-3.8-5.1.6-2.7.6-5.3-.1-7.9z"
    fill="#3daac7" />
  <path
    d="M49.9 199c-1.6 0-3.1 0-2.9 2.3.1 1.3 0 2.6-.6 3.9-.8-4-.7-8.1-.6-12.1 0-.4.5-1 .8-1 1.8-.2 3.8-.7 5.3.4 1.6 1.1 1.3 2.9.6 4.5-.4.3-.8.3-1.2-.1-.7-.6-1.7-2.2-2.2-1.5-1.1 1.6 1.4 1.6 1.8 2.7.2.8-.1 1.2-1 .9zM27.8 198.4c.4-2-.5-4.2.7-6.1 2.2 1.8.8 4.2.9 6.3s1 4.5-.7 6.5c-1.6-2-.3-4.5-.9-6.7zM341.3 204.9c-.1-3.3 0-6.6-.3-9.8-.2-2.7.9-3.5 3.4-3.2 1.1.1 2.3-.3 3.2.6-.7.7-1.5.5-2.3.5-1.5 0-3-.2-3 2.1 0 1.8.6 2.8 2.5 2.8.6 0 1.8-.4 1.8.7 0 .5-1.1.4-1.8.4-3.7 0-2.2 2.8-2.5 4.7.3 1 0 1.4-1 1.2z"
    fill="#1190b2" />
  <path
    d="M72.9 193.1c0 3.6-.1 7.2-.1 10.8 0 .8-.1 1.8-1.2 1.6-.7-.1-.7-1-.7-1.6 0-3.6-.1-7.2-.1-10.8.7-.6 1.4-.6 2.1 0zM247.5 193.1c0 3.6 0 7.2-.1 10.8 0 .8 0 1.8-1.2 1.6-.7-.1-.8-.9-.8-1.6 0-3.6-.1-7.2-.1-10.8.7-.7 1.4-.7 2.2 0z"
    fill="#3daac7" />
  <path
    d="M129.2 144.6c.5-.3.9-.7 1.4-1 3 .7 5.2 2.6 7.2 4.7.4.5.9 1.1.4 1.7-.7.7-1.5.6-2.1-.1-1.8-2.4-4.3-4-6.9-5.3zM379 144.9c0-.5 0-1 .1-1.5 3.3.4 5.6 2.5 7.8 4.8.4.4 1 1.1.5 1.7-.7.8-1.6.5-2.2-.2-1.8-2-3.8-3.6-6.2-4.8z"
    fill="#312b41" />
  <path
    d="M368.9 200c1 1.3 1.9 1.4 2-.5.2-2.4-.3-4.9.6-7.2.9 3.9.5 7.9.5 11.9 0 .6-.1 1.4-1 1.4-.7.1-1.3-.4-1.5-1-.6-1.5-1.1-3-1.7-4.6.5-.3.8-.3 1.1 0z"
    fill="#1190b2" />
  <path
    d="M196.7 195.2c0 3-.1 5.9-.1 8.9 0 .5.1 1.4-.9 1.4-.6 0-.9-.5-.9-1 .3-4.1-1.1-8.3.8-12.3.7.7 1.1 1.4 1.1 2.4v.6zM324.2 192c1.1.2 1 1.1 1 1.9v9.3c0 .8.4 2.3-1 2.2-1.3-.1-.9-1.5-.9-2.4-.1-2.3-.1-4.6-.2-6.8l.2-.3c.3-1.4-.4-2.9.9-3.9z"
    fill="#3daac7" />
  <path d="M409 145.2v-1.9c2.9.1 4.7 2 6.5 4 .4.5.7 1.1.1 1.7-.7.7-1.5.7-2.1-.1-1.2-1.7-2.7-2.9-4.5-3.7z"
    fill="#312b41" />
  <path d="M9 201.8c.7-2.8 1.4-5.7 2-8.5.2-.9.7-1.7 1.5-1.5.7.1.5 1.1.3 1.7-1.5 3.7-1.4 8-3.7 11.4-1-1-.8-2-.1-3.1z"
    fill="#3daac7" />
  <path d="M248.4 145.2v-1.9c2.9.1 4.7 1.9 6.4 4 .4.5.8 1.1.2 1.7-.7.7-1.6.7-2.1-.1-1.2-1.6-2.8-2.8-4.5-3.7z"
    fill="#312b41" />
  <path d="M316.2 196c-.3.3-.5.6-.8.9-1.1-1.1-1.2-.3-1.3.6-.4 2.5.9 5.1-.9 7.4-.8-4.3-.8-8.6 0-12.8 3.2-.3 2.9 2 3 3.9z"
    fill="#1190b2" />
  <path
    d="M6.8 203.2c-1.5-3.1-2.4-6.4-3-9.7-.1-.5-.4-1.1.1-1.3.7-.3 1.2.2 1.4.9.9 3 1.7 5.9 2.6 8.9 0 .7-.4 1.1-1.1 1.2zM202.5 201.9c0-2.8.1-5.6.1-8.4 0-.6 0-1.4 1-1.3.9.1.8.9.8 1.5-.1 2.8.3 5.6-.3 8.3-.5.5-1.1.5-1.6-.1z"
    fill="#3daac7" />
  <path
    d="M225.8 201c-1-.7-2-1.6-3.1-2.2-2.3-1.3-3-3.2-2-5.6.9-.2 1.2.1.9 1 0 2.2 1.6 3 3.2 3.9 2.3 1.3 3.3 3.1 2.5 5.8-2.3-.1-.9-2-1.5-2.9z"
    fill="#1190b2" />
  <path
    d="M225.8 201c1.3.6.1 2.3 1.4 2.9-.7 2.3-2.5 2.2-4.3 2.1-1.5-.1-2.4-1-2.9-2.3-.2-.4-.3-1-.1-1.3.5-.6 1-.2 1.5.2 3.1 2.3 3.5 2.2 4.4-1.6zM201.2 203.4c-2.3-2.3-2.1-6-4.5-8.2l-.2-.3c-.2-1 .2-1.6 1.2-2 1.9 2.7 3 5.8 4 8.9.2.7.1 1.2-.5 1.6z"
    fill="#3daac7" />
  <path d="M364.2 196.3v8.8h-1.1V194c0-1 .1-2 1.5-2 1.3 0 1.5 1 1.7 2l-.3.6c-.6.6-1.5.9-1.8 1.7z" fill="#1190b2" />
  <path
    d="M49.9 199c.7-.3 1-.8.9-1.5.1-.3.4-.5.7-.6h1.1c-.9 1.6.7 3.1.4 4.6-.3 1.3 1.4 3.3-.6 3.7-1 .2-1.1-2-1.3-3.2-.1-1.1-.4-2.1-1.2-3z"
    fill="#3daac7" />
  <path d="M146.5 62.5c-.6 2.5 2.3 3.9 2.1 6.3-1.3-.4-2-1.6-3-2.3-2.5-1.9-1.1-3 .9-4z" fill="#111333" />
  <path d="M119.7 192.1c2 2.6 2.5 5.7 3.1 8.8-.2.2-.4.3-.6.5-.8.1-1.5 0-2-.7-1-2.1-1.6-4.2-1.4-6.6 0-.7.4-1.4.9-2z"
    fill="#3daac7" />
  <path d="M178.7 205.1c-1.6-3.9-1.2-7.9-1.2-12 0-.3.4-.8.5-.8.5.1.7.5.7 1v11.8z" fill="#1190b2" />
  <path d="M313.3 192.1v12.8c-1.3-3.4-1.3-9.4 0-12.8z" fill="#3daac7" />
  <path d="M201.5 173.9c.7.1 1.4.2 2.1.2-.2.8-.3 1.6-.6 2.4-.4 1.3-1.3 2-2.6 1.4-1.4-.7 0-1.6.1-2.4 0-.6.4-1.2 1-1.6z"
    fill="#312b41" />
  <path d="M139.7 205c-.7-3.6-.2-7.2-.3-10.8 0-.7.1-1.7.6-1.7 1 .1.7 1.2.7 2 0 3.1.1 6.3.1 9.4.2.9-.1 1.3-1.1 1.1z"
    fill="#1190b2" />
  <path
    d="M341.3 204.9c.6-.2.9-.6 1-1.2.2 0 .3 0 .5.1 1.6.6 3.6-.6 5 .9.1.1-.1.8-.3.8-2.1.3-4.3 1.4-6.2-.6zM271.4 198c-.5-.1-.9-.2-1.4-.2-.2-1.6-.4-3.2.2-4.8.5-.1.9-.3 1-.9 2.8 2.7 2.8 2.8.2 5.9z"
    fill="#3daac7" />
  <path
    d="M271.5 198.9c.7.3 1 .8 1 1.5.1 1.7 1.6 4.5 0 4.7-2.1.2-.8-2.8-1.3-4.2-.2-.4-.3-.9-.4-1.4.2-.2.4-.4.7-.6zM162.4 197.4c-.1 1.7-1.2 1.6-2.2 1.6-1.3 0-1.7-.7-1.7-1.9.1-1.4 1.1-1.3 2.1-1.3 1.3.1 2 .7 1.8 1.6z"
    fill="#1190b2" />
  <path d="M219.5 129.4v1.7c-1.7 0-3.3 0-5 .1-1-.4-1.7-1-.9-2.1.8-.6 1.7-.7 2.7-.8 1 0 1.9.1 2.7.6.2.1.3.3.5.5z"
    fill="#111333" />
  <path d="M139.7 205c.6-.2.9-.6 1.1-1.1 1.5.5 3.3-.5 4.6.9.1.1-.1.8-.3.8-1.9.3-3.8 1-5.4-.6z" fill="#3daac7" />
  <path d="M400 175.1c-.9.1-1.9 0-2.1 1.2-.5-.4-1.1-.7-1.5-1.2-.7-.8-1-1.6.1-2.4 1-.7 1.4-.2 2 .5.5.7 1 1.3 1.5 1.9z"
    fill="#312b41" />
  <path
    d="M122.8 200.9c.2.3.6.5.5.8 0 1.3 2 3.1.2 3.7-1.4.5-1.7-1.9-2.1-3.2 0-.6.7-.7 1.1-1l.3-.3zM368.9 200h-1c-1.1-1.1-1.7-2.4-1.8-3.8-.5-.7-.6-1.4-.2-2.1l.4-.1c1.3 1.8 2.3 3.8 2.6 6z"
    fill="#3daac7" />
  <path
    d="M98.8 202h-1v-8.7c0-.3.2-.8.4-.8.6-.1.7.4.7.8 0 2.9-.1 5.8-.1 8.7zM416.3 203c.5-.3 1.1-.7 1.6-1-.6 4.3-1.4 4.7-6 3.1-.1-.5.2-.7.6-.5 1.6.2 3 .2 3.8-1.6z"
    fill="#1190b2" />
  <path
    d="M116.9 202.1c-1.4.7-.8 3.8-2.2 3.2-1.7-.7.4-2.7.2-4.2 0-.4.5-.8.7-1.2.2.1.4.2.6.4.5.5.7 1.1.7 1.8zM115.7 199.9c.1-2.2.8-4.1 1.9-5.9.4-.3.8-.4 1.3-.1-.1 2.1.4 4.4-1.5 6.1-.4.3-.9.3-1.4.1l-.3-.2z"
    fill="#3daac7" />
  <path
    d="M115.9 200.2c.3-.1.6-.2.9-.2 1.4-.1 2.7-.2 3.8.9.7.1 1.3.2 2 .3-.1.6-.5.9-1.1 1-1.5 0-3 0-4.6-.1-1-.3-1.2-1-1-1.9zM247.5 193.1h-2.2c-.8-.1-2.2-.2-2.2-.4-.2-1.4 1-.7 1.6-.7 1.1-.1 2.3-.1 3.4 0 .6.1 1.7-.6 1.6.7 0 .2-1.4.2-2.2.4z"
    fill="#1190b2" />
  <path d="M221.6 194.2c-.3-.3-.6-.7-.9-1 1.3-1.6 2.7-3.2 4.9-1.2-.1.6-.6.7-1.1.9-1.1 0-2.1.6-2.9 1.3z"
    fill="#3daac7" />
  <path
    d="M90.9 193.1c1.4 2.6 1.4 5.3 0 7.9v-7.9zM6.8 203.2c.4-.4.8-.8 1.1-1.2.3-.1.7-.1 1-.2v3.1c-1.6 1.1-1.6 1.1-2.1-1.7zM201.2 203.4c.1-.5.3-1.1.4-1.6.3.2.6.2.9.1.6 0 1.1.1 1.7.1v1.9c-.1.4-.3.8-.5 1.1-.5.2-.9.2-1.4.1-.8-.3-.9-1-1.1-1.7z"
    fill="#1190b2" />
  <path d="M206.4 11.8c.2 2.9-1.6 3.3-3.9 3.2 1.1-1.4 2.4-2.5 3.9-3.2z" fill="#111333" />
  <path
    d="M72.9 193.1h-2.2c-.8-.1-2.2-.2-2.2-.4-.2-1.4 1-.7 1.6-.7 1.1-.1 2.3-.1 3.4 0 .6.1 1.8-.6 1.6.7 0 .2-1.4.3-2.2.4z"
    fill="#1190b2" />
  <path d="M324.2 192c-.3 1.3.9 2.9-.9 3.8-.7-.8-1.1-1.7-1.1-2.8.2-1.2 1.1-1.1 2-1z" fill="#01a4bb" />
  <path d="M224.5 192.8c.4-.3.7-.6 1.1-.9.5.4 1.2.6 1.6 1.1.4.5.5 1.4-.1 1.8-.6.3-1.1-.4-1.5-.9-.3-.4-.7-.7-1.1-1.1z"
    fill="#1190b2" />
  <path d="M160.6 50.6c.1 2.4-1.2 3.3-3.5 3 .9-1.3 2-2.3 3.5-3z" fill="#111333" />
  <path d="M181.6 119.4v1.4c-.1.6-.2 1.4-1.1 1.2-.5-.1-.8-.5-.8-1 0-.8-.1-1.6-.1-2.4.8-.1 1.4.4 2 .8z" fill="#151640" />
  <path d="M213.5 129.5c.3.6.6 1.1 1 1.7-1.3.3-2.7.3-4 0l.9-1.5c.1-.5.5-.7 1-.8.5 0 .9.2 1.1.6z" fill="#2f2a55" />
  <path
    d="M411.9 205.1c-.4-.3-.9-.5-1.2-.8-.6-.6-1.1-1.6-.1-2s1.2.8 1.5 1.5c.1.3.3.6.4.9-.2 0-.4.2-.6.4zM197.6 192.9c-.4.7-.8 1.3-1.2 2-1.4-.5-.7-1.8-.9-2.7 1-.4 1.7-.3 2.1.7zM119 194.2c-.5-.1-.9-.2-1.4-.2.1-1.3.4-2.4 2.1-1.8 0 .7 0 1.4-.1 2.2-.2-.1-.4-.1-.6-.2z"
    fill="#1190b2" />
  <path d="M365.9 194.1c.1.7.1 1.4.2 2.1-.6 0-1.2.1-1.9.1-.2-1.3 0-2.3 1.7-2.2z" fill="#01a4bb" />
  <path d="M139.3 170.1c.3.7-.1 1.1-.5 1.2-.6.2-1.3 0-1.3-.8 0-.4.3-1.1.5-1.1.6-.1 1.2.1 1.3.7z" fill="#131313" />
  <path d="M149.7 108.5c-1.5 1.8-1.8.6-2-.8.8-.1 1.5.1 2 .8zM166.5 45.6c.2 1.7-.5 2.4-2.2 1.8.5-.8 1.2-1.5 2.2-1.8z"
    fill="#111333" />
  <path d="M212.5 129.3c-.4.1-.7.2-1.1.3-.3-.2-.6-.3-.9-.5.4-.3.8-.5 1.2-.8.2-.1.5-.1.7-.1.3.2.4.4.3.6-.1.4-.1.5-.2.5z"
    fill="#3daac7" />
  <path d="M158.6 111.5c-.3.3-.7.7-1 .7-.8-.1-.8-.8-.8-1.4.6.3 1.2.5 1.8.7z" fill="#111333" />
  <path d="M171.4 41.5c.1 1.3-.9 1.2-1.7 1.3.3-.7.9-1.1 1.7-1.3z" fill="#131313" />
  <path
    d="M164.3 47.4c.2 1.4-.8 1.3-1.6 1.4.3-.7.9-1.2 1.6-1.4zM158.1 77.8c.9 0 1.4.5 1.4 1.4-.5-.5-.9-1-1.4-1.4zM147.6 61.6c-.1.7-.5 1-1.1 1 .1-.6.5-.9 1.1-1zM152.5 57.4c-.1.8-.6 1.2-1.4 1.2.5-.4 1-.8 1.4-1.2zM154.6 55.7c-.1.6-.5 1-1.2 1 .2-.6.6-.9 1.2-1z"
    fill="#111333" />
  <path d="M91.7 109.1c-.1.9-.6 1.3-1.5 1.3.3-.7.8-1.1 1.5-1.3z" fill="#0e0e0e" />
  <path d="M192.3 109.7c.8 0 1.1.4 1.2 1.1-.7-.2-1.1-.5-1.2-1.1z" fill="#13143d" />
  <path d="M167.6 44.7c-.1.7-.5 1-1.1 1 .1-.6.5-.9 1.1-1z" fill="#111333" />
  <path
    d="M172.5 40.5c0 .7-.4 1.2-1.2 1.1.2-.6.6-.9 1.2-1.1zM185.5 29.5c0 .8-.4 1.2-1.2 1.1.1-.6.6-.9 1.2-1.1zM187.7 27.6c-.2.7-.6 1.1-1.3 1.2.2-.6.6-1 1.3-1.2z"
    fill="#131313" />
  <path d="M347.3 103.7c-.1-.4-.1-.8-.2-1.1.7 0 1 .5 1.3 1-.3 0-.7 0-1.1.1z" fill="#511f33" />
  <path d="M198.4 18.5c-.1.5.3 1.5-.8.7.2-.2.5-.4.8-.7zM201.5 16.9c-.4 0-.8 0-1.2-.1.2-.6.6-.9 1.2-1v1.1z"
    fill="#111333" />
  <path d="M203.6 205.1c-.1-.5.1-.9.5-1.1.3.5.1.9-.5 1.1z" fill="#3daac7" />
  <path d="M213 7.9h-2.1c.7-1.1 1.4-1.3 2.1 0z" fill="#111333" />
  <path d="M202.2 205.2c.5 0 .9-.1 1.4-.1-.4 1-.9.7-1.4.1z" fill="#3daac7" />
  <path
    d="M233.5 110.4c-3 3.9-6.7 6.9-11.1 9-1-1.5-.1-2.3 1.1-2.9 1.6-1 2.9-2.4 3.9-4 1.3-1 2.6-2 3.9-3.1.7.7 1.7.2 2.2 1z"
    fill="#4d4fa2" />
  <path
    d="M212.5 129.3v-1c1.6-1.7 2.9-3.7 5.1-4.7 1-.2 1.8-1.1 2.9-.9.6-.2 1.3-.3 1.9-.5l.5.5c.3 3.9-4.2 3.3-5.5 5.8-.2.3-.5.6-.8.9-1 .1-1.9.1-2.9.2-.5-.2-.9-.2-1.2-.3z"
    fill="#5d9183" />
  <path d="M223.6 116.5c-.4 1-1.4 1.7-1.1 2.9-.6.6-1.2.6-1.9.1-1.7-1.3-1.9-2.4.5-3 .8-.2 1.6 0 2.5 0z" fill="#1d1d47" />
  <path
    d="M220.4 122.7c-.8.9-1.4 2.5-2.9.9.4-1.5 1.3-2.3 3-2.2 0 .4 0 .9-.1 1.3zM220.6 119.5c.6 0 1.3 0 1.9-.1-.3 1.1-1 1.7-2 2 0-.6 0-1.3.1-1.9z"
    fill="#4d4fa2" />
  <path
    d="M279.3 121.4c-6.8.8-13.7 1.5-20.5 2.3-7.1.9-14.3 1.8-21.4 2.7-3.4.4-6.8.3-9.9 1.8-2.1 1.2-4.4.4-6.6.5-1.3-2 .6-2.6 1.7-3.1 2.5-1.2 5-2.4 7.8-2.6.8-.1 1.7-.1 2.5-.1 7.4.4 14.3-2.1 21.4-3.3 5.7-.9 11.3-2.5 17.1-3.3 2-.3 4-.7 5.7.8.1.9-1 2.2 1.2 2.3 3.5 0 6.7-1.1 10.1-1.6 3.3-.5 6.7-1.4 9.9.4-3.2 1.5-6.7 1.5-10.1 1.9-3 .5-5.9.8-8.9 1.3zM303.2 118c.3-2.5 2.5-1.5 3.9-1.9 3-1 6.2-1.3 9.2.1-4.4.8-8.6 2.2-13.1 1.8z"
    fill="#cd0d34" />
  <path d="M233.5 110.4c-.8 0-1.7.1-2.1-1 1.3-1.1 2.5-2.1 3.8-3.2.4.1.7.4.8.7.1.6-.1 1.1-.6 1.5-.4 1-1 1.7-1.9 2z"
    fill="#92509e" />
  <path d="M237.4 104.4c0 .7.1 1.4.1 2.1-.7.5-1.4.5-2.1-.1l-.2-.2c.2-1.1.8-1.9 2.2-1.8z" fill="#92509e" />
  <path d="M246.5 93.6c-.3 1-1.1 1.6-2 2.1-1.5-2.8.6-2.1 2-2.1z" fill="#22224c" />
  <path d="M239.4 102.4c-.3 1.1-.9 1.8-2 2-.1-1.4.6-2 2-2z" fill="#92509e" />
  <path d="M248.5 91.6c-.1.6-.5.9-1 1 0-.6.4-.9 1-1zM247.5 92.6c-.1.6-.4.9-1 1 0-.6.4-.9 1-1z" fill="#22224c" />
  <path d="M174.6 125.5c0 1.1-.3 1.9-1.7 1.8-1-.1-1.2-.9-1.3-1.7 0-1 .1-2 1.4-2 1.4-.1 1.6.8 1.6 1.9z" fill="#151640" />
  <path
    d="M277.1 117.2c-3.4-.3-6.6.7-9.8 1.3-9.8 2.1-19.8 3.2-29.6 5.3-1.8.4-3.6.3-5.4.6-.3-.4-.3-.9 0-1.3 1.2-.8 2.5-1.5 4-.6 3.8-.8 7.5-1.6 11.3-2.3.8-.5 1.9.1 2.6-.7 11.1-2.7 22.3-5.4 33.4-8.2 3.2-.8 6.3-1.8 9.6-2-.9 3-3.4 1.9-5.4 2.2-.9.1-1.9.4-1.9 1.3 0 1.2 1.2.7 1.9.7 1.8.1 3.6 0 5.5 0 .3.2.4.5.3.6-.1.2-.3.2-.4.2-1 .1-1.9.1-2.9.2-.4.2-.7.6-1.3.6l-2.7.3c-1.2.9-2.8-.1-4 .9-1.5 1.2-3.4 0-5 .9h-.2z"
    fill="#511f33" />
  <path d="M253.3 113.3c6.1-3.2 12.6-5.5 19.1-7.7.8 1.1 3 .6 2.9 2.7-6.5 2.6-13.1 4.7-19.8 6.2-1.3.6-2.3.7-2.2-1.2z"
    fill="#312b41" />
  <path d="M253.3 113.3c.4 1 1.2 1.1 2.1 1.2-5.6 1.8-11 4.6-17 5 4.6-2.9 9.8-4.5 14.9-6.2z" fill="#131313" />
  <path
    d="M275.3 108.2c-.6-1.3-3.4-.2-2.9-2.7.2-.1.5-.2.8-.2.7-.4 1.6-.3 2.2-.9h.1c.5-.6 1.4-.4 2-.9.3-.1.5-.2.8-.2.6-.5 1.5-.3 2.1-.9h.1c2.4-.4 3.2.8 2.9 3l-.3.1-.3-.1c-1.8.5-3.8.6-5.3 1.9-.6 1-1.4 1.1-2.2.9z"
    fill="#22224c" />
  <path d="M236.3 122.5c-1.1.5-2.2 1-3.5.9-.9.6-1.3.2-1.7-.6.3-1.1 1.2-1.6 2.2-1.8 1 0 2-.3 2.9.2.1.4.1.9.1 1.3z"
    fill="#67ba2c" />
  <path d="M277.4 107.5c1-2.7 3.3-2 5.3-1.9-1.6 1.2-3.3 1.9-5.3 1.9z" fill="#312b41" />
  <path d="M236.3 121.1h-2.8l-.2-.3.2-.3c1.8 0 3.2-1.6 5-1.2-.1 1.5-1.7.9-2.2 1.8z" fill="#131313" />
  <path d="M250.2 119.5c-.6 1.3-1.7.8-2.6.7.7-1.1 1.7-.7 2.6-.7z" fill="#cd0d34" />
  <path
    d="M252.3 106.2c.5 1.6 1.9 1.2 3.1 1.3-6.2 4.1-13.3 6.4-19.8 9.9-1.1.6-2.3 1.3-3.4 2-.7.5-1.3.4-1.8-.2 1.5-4.2 5.9-4.6 8.8-7l1.2-.6c1.1-.3 2.1-.5 3-1.1.7-1.1 2-1.3 3-2 1.1-1.2 2.7-1.3 4-2 .6-.6 1.2-.7 1.9-.3z"
    fill="#111333" />
  <path
    d="M230.4 119.4h1.8c.7.1 1.1.5 1.3 1.2v.1c-.8.8-1.7 1.3-2.8 1.3-.4-.1-.8-.3-1.1-.6-.4-.7-.2-1.2.3-1.8.1 0 .3-.1.5-.2z"
    fill="#5d9183" />
  <path d="M277.3 103.6c-.4.9-1.2.9-2 .9.5-.9 1.2-.9 2-.9zM280.3 102.6c-.4 1-1.3.9-2.1.9.5-.9 1.3-1 2.1-.9z"
    fill="#312b41" />
  <path d="M267.4 101.7c.2-1.2 1.1-1.2 2-1.1-.3.9-1.2 1-2 1.1zM269.4 100.6c.3-1.2 1.3-1 2.2-1-.5.9-1.3 1-2.2 1z"
    fill="#111333" />
  <path d="M275.3 104.5c-.4 1.1-1.3 1-2.2.9.6-.8 1.3-.9 2.2-.9z" fill="#312b41" />
  <path
    d="M240.5 112.5c-2.6 1.6-5.1 3.2-7.7 4.8-.9.6-2.1.8-2.4 2.1-.5.6-1.2.7-1.9.7-.7-.3-1.3-.6-1-1.5 3.2-2.1 5.8-5 9.5-6.2 1.2-.5 2.4-.9 3.5.1z"
    fill="#3daac7" />
  <path
    d="M227.5 118.5c.1.5.4.8.9.9.6 1.5-.8 1.8-1.6 2.5-.8.4-1.6.8-2.4 1.1-.7.2-1.3.1-1.9-.3 0-.2-.1-.4-.2-.5 1.4-1.7 3.3-2.7 5.2-3.7z"
    fill="#1190b2" />
  <path d="M240.5 112.5c-1.1-.1-2.3-.1-3.4-.2.8-1.1 1.8-1.9 3.1-2.2.1.1.2.3.4.4.4.7.4 1.3-.1 2z" fill="#01a4bb" />
  <path d="M235.4 106.5c.7 0 1.4 0 2.1.1 0 1.4-.8 2-2.1 2v-2.1z" fill="#4d4fa2" />
  <path
    d="M269.4 160.6c-.1-3.7.5-7.1 1.9-10.3 1.6-3.7 4.5-5.8 8.5-5.8 3.8 0 6.7 2 8.2 5.5 3.1 7 3.1 14.2.1 21.2-1.5 3.6-4.4 5.8-8.5 5.8-4.1-.1-6.8-2.2-8.4-5.9-1.5-3.4-2-7-1.8-10.5z"
    fill="#fcfdfd" />
  <path
    d="M304.2 111.4c.5-.9 1.2-1.9 2.2-1.8 4.2.3 8-1.2 12-1.9 3.3-.6 6.7-1.5 10.1-1.7 5.9-.3 11.3-3.3 17.3-2.5.5.1 1 .1 1.5.2-5.6 2.4-11.8 2.6-17.7 3.8-7.1 1.5-14.2 2.7-21.3 4-1.1.8-2.3.4-3.5.4-.3-.2-.4-.4-.6-.5zM294.3 113.4c0-1.4.8-1.9 2.2-1.9 2.6 0 5.2-.1 7.7-.1l.2.2c.3.3.3.5.2.6-.1.1-.2.2-.4.2-1 .1-1.9.1-2.9.2-.4.2-.8.6-1.3.6-.9.1-1.8.2-2.8.3-1 .6-2 .7-2.9-.1z"
    fill="#511f33" />
  <path
    d="M277.3 117.3c1.5-1.5 3.3-.7 5-.9-1.4 1.9-3.3.7-5 .9zM304.2 112.4c.1-.3.1-.6.2-.8 1.3 0 2.6-.1 3.9-.1-1.1 1.7-2.7.8-4.1.9zM294.3 113.4c1 0 2 .1 3 .1-1.1 1.7-2.7.8-4.1.9.1-.3.1-.6.1-.9.3 0 .7 0 1-.1zM282.3 116.4c1.1-1.5 2.6-.8 4-.9-1 1.7-2.6.8-4 .9zM289 115.2c.3-.4.7-.7 1.3-.6-.3.5-.7.7-1.3.6zM300 113.2c.3-.5.7-.7 1.3-.6-.3.6-.7.8-1.3.6z"
    fill="#cd0d34" />
  <path
    d="M55.1 153.2c0-.8-.2-1.7 0-2.5.5-1.9-1.7-4.9 1.8-5.7 4.2-.9 8.4 1.1 9.6 4.3 2.7 6.8-1.9 12.8-9.2 12.2-1.7-.2-2.3-.8-2.3-2.4.1-1.9.1-3.9.1-5.9z"
    fill="#fcfdfd" />
  <path d="M262.4 99.5c-.1-.9 0-1.8.8-2.2 5.3-2.4 9.5-6.8 15.1-8.8.6.1 1 .5 1.2 1.1-5.5 3.8-11.1 7.1-17.1 9.9z"
    fill="#3daac7" />
  <path d="M279.4 89.7c-.6-.1-1-.5-1.2-1.1 1-1.6 2.7-.8 4-1.2.4.1.7.1 1.1.2-1 1.2-2.3 1.8-3.9 2.1z" fill="#5d9183" />
  <path
    d="M255.4 103.5c-.2-2.4 1.5-2.1 3-2-.5 1.5-1.6 1.9-3 2zM252.3 106.2c-.6.1-1.2.2-1.9.3-.2-1.5.6-2.1 2-1.9 0 .5 0 1.1-.1 1.6zM252.4 104.6c.5-1.6 1.8-1 2.9-1-.6 1.2-1.6 1.3-2.9 1zM258.4 101.5c.2-1.2 1.1-1.1 2-1-.3 1-1.1 1.1-2 1zM260.4 100.5c.2-1.2 1.1-1 2-1-.4.9-1.2 1.1-2 1z"
    fill="#3daac7" />
  <path d="M287.9 85.5c.3-.5.8-.9 1.4-.9-.2.6-.7.9-1.4.9z" fill="#1d1d47" />
  <path
    d="M212.2 167c-5-.1-6.2 1.2-3.4-5.2 1-2.2 1.3-6.3 3.1-6.2 2.5.1 2.1 4.2 3.5 6.3.4.5.5 1.2.7 1.8 1.1 3.1 1 3.2-2.3 3.3h-1.6z"
    fill="#fcfdfd" />
  <path d="M250.4 106.5c-1 1.3-2.3 2-4 2 .6-2.1 2.3-2.1 4-2z" fill="#3daac7" />
  <path d="M246.5 108.5c-.5 1.4-1.6 1.9-3 2-.2-2.4 1.5-2 3-2zM240.4 112.5v-2h3c-.5 1.4-1.6 1.8-3 2z" fill="#3daac7" />
  <path d="M220.4 128.4c2.4 0 4.7-.1 7.1-.1-2.4 2.3-5.3.5-8 1.1-.2-.2-.4-.4-.3-.7 0-.3.1-.4.2-.4.3-.3.7-.2 1 .1z"
    fill="#111333" />
  <path
    d="M270.3 193c1.2 1.7 1.5 3.3-.2 4.8-2.2.3-3.5-.2-3.4-2.8.1-2.9 2.2-1.8 3.6-2zM51.5 196.9c-.4 0-.6.2-.7.6-1.4.3-3 1.1-3.6-.9-.3-1-.6-2.3.4-3.2.8-.7 1.9-.6 2.8-.2 1.6.8 1.6 2.2 1.1 3.7zM119 194.2c.2 0 .4 0 .6.1-.2 2.3 1.7 4.2.9 6.6-1.3-.2-2.8.6-3.8-.9 1.4-1.7.8-4.1 2.3-5.8z"
    fill="#fcfdfd" />
  <path d="M219.5 128.6c0 .3-.1.5-.1.8h-3c.1-.3.2-.5.3-.8 1-1.1 1.9-1 2.8 0z" fill="#312b41" />
  <path
    d="M219.5 128.6h-2.8c-1.5-1-.5-1.5.4-2 1.8-1.2 4.5-1.2 5.4-3.8.7-.1 1.3-.2 2-.3 1.6.2 2.8-.7 4.2-1.2.2 0 .4-.1.6-.1.5.1.9.2 1.4.3.2.4.2.8.2 1.2 0 .6.1 1.2-.4 1.8-3.7.5-7.1 1.8-10.1 4-.3-.1-.6-.1-.9.1z"
    fill="#67ba2c" />
  <path d="M267.9 120.1c1.8-1.2 3.8-.4 5.6-.4-1.8 1.2-3.7.5-5.6.4z" fill="#f30d0e" />
  <path d="M230.5 124.4c.1-.6.1-1.2.2-1.8l.4-.1c.5.6 1 .9 1.8.9-.2.3-.4.7-.5 1h-1.9z" fill="#f45d07" />
  <path d="M231.1 122.5l-.4.1v-1.2c.9-.2 1.8-.5 2.7-.7v.4c-.2 1.4-1.4 1.2-2.3 1.4z" fill="#511f33" />
  <path d="M226.2 121.4c.7-.6 1.4-1.3 2.2-1.9.7 0 1.4-.1 2-.1.1.9-.8 1.1-1.1 1.8l-.1.1c-.9.8-1.9.9-3 .1z"
    fill="#312b41" />
  <path d="M226.2 121.4c1 0 2-.1 3-.1-1.4 1.3-2.6 3.3-4.8 1.2.3-1 1.1-1.1 1.8-1.1z" fill="#5d9183" />
</svg>
