<svg id="SVG" xmlns="http://www.w3.org/2000/svg" viewBox="0 0 187.7 32.3">
  <path fill="#000"
    d="M11.9 26.8c-3.1-.6-5.8-2.8-7.1-5.7-1.1-2.7-1-5.8.3-8.4C6.4 9.9 8.4 7.6 11 6c2.6-1.7 5.6-2.6 8.6-2.6L20.8 0C12.7.3 5.3 5 1.6 12.3-.2 15.8-.5 19.9.7 23.7c1.5 4.3 5 7.5 9.4 8.6l1.8-5.5z" />
  <path fill="#000"
    d="M19.7 3.3l-1.2 3.6c1.9 0 3.7.8 5 2.3 1.3 1.5 1.7 3.6 1.1 5.5-1.4 4.8-6.2 7.7-11.1 7l-1.7 5.1c7.9 1.8 16.6-3.7 18.2-11.5.7-3.1-.1-6.5-2.4-8.8-2-2.1-4.9-3.2-7.9-3.2z" />
  <path fill="#000"
    d="M18.5 6.9c-4.1-.1-7.9 2.4-9.6 6.1-1.6 4 .4 8 4.7 8.8l4.9-14.9zM33.8 10h14.8l-1.1 3.1h-5.1l-3.8 10.7H34l3.8-10.7h-5.1l1.1-3.1zM58 9.5c4.9 0 8.4 1.6 6.4 7.3s-6.7 7.3-11.6 7.3-8.4-1.6-6.4-7.3S53.1 9.5 58 9.5zm-4.2 11.6c2.6 0 4.9-1.7 5.6-4.2 1-2.9-.1-4.2-2.6-4.2-2.6 0-4.9 1.7-5.6 4.2-1 2.9.2 4.2 2.6 4.2zM76.9 9.5c4.9 0 8.4 1.6 6.4 7.3s-6.7 7.3-11.6 7.3-8.4-1.6-6.4-7.3S72 9.5 76.9 9.5zm-4.1 11.6c2.6 0 4.9-1.7 5.6-4.2 1-2.9-.1-4.2-2.6-4.2-2.6 0-4.9 1.7-5.6 4.2-1 2.9.1 4.2 2.6 4.2zM86.6 10h5.3l3.3 8.6 3.1-8.6h4.5l-5 13.8h-5L89.3 15h-.1l-3.1 8.8h-4.4L86.6 10zm17.5 0h14.7l-1.1 3.1h-5l-3.8 10.7h-4.6l3.8-10.7H103l1.1-3.1zm16.1 0h11c3.4 0 4.1 1.5 3.2 3.8-.5 1.6-1.7 2.7-3.3 3.2.8.3 1.2 1 .8 2.5-.8 2.7-1 3.6-.7 4.3h-5c0-.7.2-1.4.5-2 .8-2.2.2-2.5-1-2.5h-4.2l-1.6 4.6h-4.6l4.9-13.9zm2.4 6.1h4.4c1 .1 1.9-.6 2.3-1.5.3-.9-.1-1.5-1.2-1.5h-4.4l-1.1 3zm19.5-6.1h5.6l1 13.8h-4.9v-2.2h-6l-1.6 2.2h-4.9L142.1 10zm1.6 3.4l-3.8 5.2h3.9l-.1-5.2zm23.3 5c-1.6 3-4.2 5.7-10.8 5.7-5.8 0-7.8-2.6-6.1-7.3s5.3-7.3 11.3-7.3c4.2 0 7.3 1 6.6 5.7h-5c.1-1 0-2.6-2.6-2.6-2.9 0-4.5 2-5.3 4.2s-.7 4.2 2.3 4.2c1.9.1 3.7-1 4.6-2.6h5zm4.2-8.4h4.6l-1.9 5.4 7.6-5.4h6.2l-8.2 5.4 3.7 8.4h-6.1l-2.3-5.6-2.5 1.7-1.4 3.9h-4.6l4.9-13.8z" />
</svg>
