<svg xmlns="http://www.w3.org/2000/svg" viewBox="0 0 687.7 509.4">
  <path fill="none" stroke="#000" stroke-width="16.027" d="M15.9 200.4L343.5 9.3l328.3 189.6-327.5 193z" />
  <path fill="none" stroke="#000" stroke-width="16.027" d="M15.9 199.6l328-190.3 327.9 190.3-327.9 192.3z" />
  <path
    d="M12.3 443.6v47.6c0 6.6 1.9 12.2 9.5 12.2s9.5-5.6 9.5-12.2v-47.6h7v47.8c0 10.4-4.8 18-16.5 18s-16.5-7.5-16.5-18v-47.8h7M69.2 443.6l16.7 47.8h.2v-47.8h7v64.8h-7.5L65.4 452h-.1v56.4h-7v-64.8h10.9M113.6 443.6h7v64.8h-7zM144.4 443.6l11.4 51.4h.2l11.4-51.4h7l-15.2 64.8h-6.5l-15.3-64.8h7M220.4 443.6v5.9h-22.6v22.1h16.7v5.9h-16.7v25h23.7v5.9h-30.7v-64.8h29.6M239.6 443.6h15.6c10.4 0 17.8 6.1 17.8 16.8 0 7.3-3.2 13.4-10.4 15.9l11 32.1h-7.4l-10.4-30.7-9.2.4v30.3h-7v-64.8m7 28.4h6.1c10.1 0 13.3-4 13.3-11.2 0-7.3-3.2-11.2-13.3-11.2h-6.1V472zM316.6 460.3c-.5-6.6-3.2-11.7-10-11.7-5.4 0-8.9 3.6-8.9 8.5 0 14.6 26 14.8 26 35.6 0 10.3-5.9 16.5-16.6 16.5-10.2 0-16.3-7.5-16.4-18.3h6.5c.2 7.6 3.8 12.4 10.7 12.4 5.8 0 9.6-3.8 9.6-10.7 0-14.7-26-16.4-26-34.9 0-9.1 6.3-15.1 15.6-15.1s15.4 6.3 16 17.6h-6.5M361.2 443.6l14.3 64.8h-7l-3.9-19.2h-16.5l-3.9 19.2h-7l14.3-64.8h9.7M349 483.3h14.5l-7.2-34.8h-.2l-7.1 34.8zM398.1 443.6v58.9h21v5.9h-28v-64.8h7M482.8 443.6l14.3 64.8h-7l-3.9-19.2h-16.5l-3.9 19.2h-7l14.3-64.8h9.7m-12.1 39.7h14.5l-7.2-34.8h-.2l-7.1 34.8zM519.8 443.6v47.6c0 6.6 1.9 12.2 9.5 12.2s9.5-5.6 9.5-12.2v-47.6h7v47.8c0 10.4-4.8 18-16.5 18s-16.5-7.5-16.5-18v-47.8h7M566.6 443.6h12c13.7 0 21.9 7.5 21.9 32.4s-8.3 32.4-21.9 32.4h-12v-64.8m7 58.9h3.8c10.2 0 16.2-4.3 16.2-26.5s-5.9-26.5-16.2-26.5h-3.8v53zM621 443.6h7v64.8h-7zM665.9 509.3c-11 0-18.3-9.1-18.3-33.3 0-24.1 7.4-33.3 18.3-33.3 11 0 18.3 9.2 18.3 33.3 0 24.2-7.3 33.3-18.3 33.3m0-60.7c-6.3 0-11.3 5.4-11.3 27.4s5 27.4 11.3 27.4 11.3-5.4 11.3-27.4-5-27.4-11.3-27.4zM412.3 228.2l156.7-8.6v-7.2l-156.7-.7v-81.4s0-2.8-.1-6c0-1.9.1-4.3.1-7.2.3-55.1-47.2-51.7-48-51.6-.8-.1-48.3-3.5-48 51.6 0 2.9 0 5.3.1 7.2 0 3.2-.1 6-.1 6v81.1h-10.4l-17.5 23.7 27.9-1.5v38.8c-.1 31.3-25.1 29.3-25.7 29.2-.7.1-26 2.1-26.1-29.2V155.2s0-2.8-.1-6c0-1.9.1-7.5.1-10.4-.7-48.6-57.2-31-57.2-31s34.8-1.1 34.9 30.7c0 4.1.1 12.7.2 15.4v104.8s.1 3.8 0 13.2c-.3 55.4 47.8 52 48.2 52 .3 0 48.3 3.4 48-52-.1-9.3 0-13.2 0-13.2v-26.4l51.8-2.9v43.7h-.1c0 1.9-.1 7.5-.1 10.4.7 48.6 57.2 31 57.2 31s-34.8 1.1-34.9-30.7c0-2.3 0-5.9-.1-9.2l-.1-46.4m-73.9-16.8v-81.1-1.3c0-2.7.2-8.1.2-12.2.1-31.7 25.9-29.3 25.9-29.3S390 85 390 116.8c0 4.1.1 9.5.2 12.2v82.6l-51.8-.2z"
    fill="#000" />
  <path fill="#000"
    d="M490.6 166.1h3.4v30.7h-3.4zM516.8 166.1h3.4v30.7h-5.6l-8.6-24.6c-.5-1.4-.8-2.8-1.1-4.6h-.1c.1 1.6.1 3.2.1 4.7v24.5h-3.4v-30.7h5.5l8.7 25.1c.3.9.6 1.9 1 3.4h.1c0-1.1-.1-2.3-.1-3.4l.1-25.1M541 175.4c-.1-3.6-1.3-6.8-5.5-6.8-5.9 0-6 8.4-6 12.5-.2 4.2-.3 13.5 6 13.5 4 0 4.9-3.3 5.3-6.7.1-.7.1-1.4.2-2.1h3.4c-.1.6-.1 1.3-.2 1.9-.2 2.5-.4 4.4-1.8 6.5-1.6 2.2-3.7 3.4-6.7 3.4-9.4 0-9.8-9.1-9.8-16.5 0-6.9 1-15.6 9.8-15.6 5.8 0 8.8 4.3 8.7 9.8H541M550.2 192.7h3.7v4.1h-3.7z" />
</svg>
