<?xml version="1.0" encoding="UTF-8" standalone="no"?>
<!-- Created with Inkscape (http://www.inkscape.org/) -->
<svg xmlns:dc="http://purl.org/dc/elements/1.1/" xmlns:cc="http://creativecommons.org/ns#" xmlns:rdf="http://www.w3.org/1999/02/22-rdf-syntax-ns#" xmlns:svg="http://www.w3.org/2000/svg" xmlns="http://www.w3.org/2000/svg" xmlns:sodipodi="http://sodipodi.sourceforge.net/DTD/sodipodi-0.dtd" xmlns:inkscape="http://www.inkscape.org/namespaces/inkscape" width="53.566" height="48.929" id="svg3155" version="1.1" inkscape:version="0.48.1 " sodipodi:docname="Apogee Electronics logo.svg">
  <defs id="defs3157">
    <clipPath clipPathUnits="userSpaceOnUse" id="clipPath3097">
      <path inkscape:connector-curvature="0" d="M 0,0 396,0 396,306 0,306 0,0 z" id="path3099"/>
    </clipPath>
    <clipPath clipPathUnits="userSpaceOnUse" id="clipPath3081">
      <path inkscape:connector-curvature="0" d="M 0,0 396,0 396,306 0,306 0,0 z" id="path3083"/>
    </clipPath>
  </defs>
  <sodipodi:namedview id="base" pagecolor="#ffffff" bordercolor="#666666" borderopacity="1.0" inkscape:pageopacity="0.0" inkscape:pageshadow="2" inkscape:zoom="3.959798" inkscape:cx="105.19002" inkscape:cy="-50.998194" inkscape:document-units="px" inkscape:current-layer="layer1" showgrid="false" inkscape:window-width="1920" inkscape:window-height="1028" inkscape:window-x="-8" inkscape:window-y="-8" inkscape:window-maximized="1"/>
  <metadata id="metadata3160">
    <rdf:RDF>
      <cc:Work rdf:about="">
        <dc:format>image/svg+xml</dc:format>
        <dc:type rdf:resource="http://purl.org/dc/dcmitype/StillImage"/>
        <dc:title/>
      </cc:Work>
    </rdf:RDF>
  </metadata>
  <g inkscape:label="Layer 1" inkscape:groupmode="layer" id="layer1">
    <g id="g3073" transform="matrix(1.25,0,0,-1.25,17.988,33.520251)">
      <path inkscape:connector-curvature="0" d="m 0,0 11.395,7.087 -7.893,0 L 0,0 z" style="fill:#bd92d0;fill-opacity:1;fill-rule:nonzero;stroke:none" id="path3075"/>
    </g>
    <g transform="matrix(1.25,0,0,-1.25,-219.66712,77.704251)" id="g3077">
      <g id="g3079" clip-path="url(#clipPath3081)">
        <g id="g3085" transform="translate(210.7271,39.5346)">
          <path inkscape:connector-curvature="0" d="m 0,0 -7.09,14.533 c -1.241,2.599 -3.085,4.096 -5.688,4.096 -2.381,0 -4.334,-1.524 -5.436,-3.521 l -0.002,0 -9.281,-19.295 5.7,0 7.731,15.559 c 0.282,0.391 0.743,0.712 1.263,0.712 0.579,0 1.085,-0.383 1.352,-0.853 L -5.02,-2.296 c 0.458,-1.091 1.405,-1.88 2.624,-1.88 1.533,0 2.776,1.245 2.776,2.778 C 0.38,-0.888 0.241,-0.411 0,0" style="fill:#65238d;fill-opacity:1;fill-rule:nonzero;stroke:none" id="path3087"/>
        </g>
      </g>
    </g>
    <g id="g3089" transform="matrix(1.25,0,0,-1.25,8.0875,36.740951)">
      <path inkscape:connector-curvature="0" d="m 0,0 0.914,0 2.471,-5.654 -1.043,0 -0.569,1.356 -2.655,0 -0.577,-1.356 -1.011,0 L 0,0 z m 1.412,-3.424 -0.971,2.246 -0.962,-2.246 1.933,0 z" style="fill:#211d1d;fill-opacity:1;fill-rule:nonzero;stroke:none" id="path3091"/>
    </g>
    <g transform="matrix(1.25,0,0,-1.25,-219.66712,77.704251)" id="g3093">
      <g id="g3095" clip-path="url(#clipPath3097)">
        <g id="g3101" transform="translate(186.5499,32.7303)">
          <path inkscape:connector-curvature="0" d="m 0,0 2.214,0 c 1.307,0 2.133,-0.745 2.133,-1.876 l 0,-0.016 c 0,-1.259 -1.01,-1.917 -2.245,-1.917 l -1.116,0 0,-1.804 L 0,-5.613 0,0 z m 2.134,-2.919 c 0.746,0 1.211,0.418 1.211,1.003 l 0,0.016 c 0,0.658 -0.474,1.002 -1.211,1.002 l -1.148,0 0,-2.021 1.148,0 z" style="fill:#211d1d;fill-opacity:1;fill-rule:nonzero;stroke:none" id="path3103"/>
        </g>
        <g id="g3105" transform="translate(191.6584,29.9072)">
          <path inkscape:connector-curvature="0" d="m 0,0 0,0.017 c 0,1.58 1.219,2.903 2.944,2.903 1.724,0 2.927,-1.307 2.927,-2.888 l 0,-0.015 c 0,-1.58 -1.219,-2.904 -2.944,-2.904 C 1.203,-2.887 0,-1.579 0,0 m 4.836,0 0,0.017 c 0,1.09 -0.793,1.996 -1.909,1.996 -1.114,0 -1.892,-0.89 -1.892,-1.981 l 0,-0.015 c 0,-1.091 0.794,-1.997 1.909,-1.997 1.114,0 1.892,0.89 1.892,1.98" style="fill:#211d1d;fill-opacity:1;fill-rule:nonzero;stroke:none" id="path3107"/>
        </g>
        <g id="g3109" transform="translate(198.4754,29.9072)">
          <path inkscape:connector-curvature="0" d="M 0,0 0,0.017 C 0,1.588 1.203,2.92 2.895,2.92 3.874,2.92 4.475,2.648 5.053,2.158 L 4.427,1.412 C 3.994,1.781 3.569,2.013 2.855,2.013 1.821,2.013 1.034,1.107 1.034,0.032 l 0,-0.015 c 0,-1.155 0.762,-2.006 1.91,-2.006 0.528,0 1.01,0.169 1.355,0.426 l 0,1.051 -1.436,0 0,0.857 2.389,0 0,-2.357 C 4.699,-2.486 3.906,-2.887 2.911,-2.887 1.155,-2.887 0,-1.635 0,0" style="fill:#211d1d;fill-opacity:1;fill-rule:nonzero;stroke:none" id="path3111"/>
        </g>
      </g>
    </g>
    <g id="g3113" transform="matrix(1.25,0,0,-1.25,36.59638,36.791451)">
      <path inkscape:connector-curvature="0" d="m 0,0 4.163,0 0,-0.882 -3.176,0 0,-1.46 2.815,0 0,-0.882 -2.815,0 0,-1.507 3.216,0 0,-0.882 L 0,-5.613 0,0 z" style="fill:#211d1d;fill-opacity:1;fill-rule:nonzero;stroke:none" id="path3115"/>
    </g>
    <g id="g3117" transform="matrix(1.25,0,0,-1.25,43.31338,36.791451)">
      <path inkscape:connector-curvature="0" d="m 0,0 4.162,0 0,-0.882 -3.175,0 0,-1.46 2.815,0 0,-0.882 -2.815,0 0,-1.507 3.215,0 0,-0.882 L 0,-5.613 0,0 z" style="fill:#211d1d;fill-opacity:1;fill-rule:nonzero;stroke:none" id="path3119"/>
    </g>
  </g>
</svg>