<?xml version="1.0" encoding="utf-8"?>
<!-- Generator: Adobe Illustrator 23.0.1, SVG Export Plug-In . SVG Version: 6.00 Build 0)  -->
<svg version="1.1" id="layer" xmlns="http://www.w3.org/2000/svg" xmlns:xlink="http://www.w3.org/1999/xlink" x="0px" y="0px"
	 viewBox="0 0 600 126.5" style="enable-background:new 0 0 600 126.5;" xml:space="preserve">
<style type="text/css">
	.st0{fill:#86754D;}
</style>
<path class="st0" d="M534.6,125.1v-22c0-0.4,0-24.6,0-34.8L492,2.3h27l26.8,43.1L573,2.3h27l-43,66v32.2
	C557,123.2,534.6,125.1,534.6,125.1"/>
<path class="st0" d="M574.2,109.9v3.6h1.3l1.8-0.5l0.6-1.4l-0.9-1.4l-1.9-0.3L574.2,109.9 M581,120.1h-3c-0.4-3.3,0.2-4.6-3.8-4.4
	v4.4H571v-12.3c0.7,0,1.8,0,3.3,0s2.4,0.1,2.6,0.1c0.9,0.1,1.8,0.2,2.3,0.6c1.1,0.6,1.7,1.6,1.7,2.9c0,1-0.3,1.8-0.8,2.3
	c-0.6,0.4-1.3,0.8-2.2,0.8l1.8,0.7c0.8,0.6,1.1,1.5,1.1,2.8v1.4l0.1,0.4L581,120.1 M575.8,104.7c-2.5,0-4.7,0.9-6.5,2.8
	c-1.8,1.7-2.7,3.9-2.7,6.4c0,2.6,0.9,4.8,2.7,6.5c1.8,1.8,3.9,2.7,6.5,2.7c2.5,0,4.7-0.9,6.5-2.7c1.8-1.8,2.7-4,2.7-6.5
	c0-2.4-0.8-4.6-2.6-6.4C580.5,105.7,578.4,104.7,575.8,104.7 M575.8,125c-3.1,0-5.7-1-7.8-3.2c-2.2-2.1-3.3-4.8-3.3-7.9
	c0-3.2,1.2-5.9,3.5-8.1c2.1-2,4.7-3,7.5-3c3.1,0,5.7,1.1,7.9,3.3c2.2,2.2,3.3,4.8,3.3,7.8c0,3.2-1.2,5.8-3.4,8
	C581.5,123.9,578.9,125,575.8,125"/>
<path class="st0" d="M38.4,125V22.4c-2.1,0-7.1,0-12.8,0c-10.9,0-24.5,0-25.6,0V2.3h100.4v20.1H62.3v78.4
	C62.3,123.7,38.4,125,38.4,125"/>
<path class="st0" d="M290.5,126.5c-3.5-0.2-7.5-2.5-10.1-5l-58.3-79.4v66.1c-0.7,7.1-8.3,16.9-19,16.9h-3.6V15.5
	c0-9.2,5-12,8.8-13.3c1.7-0.4,3.3-0.6,4.8-0.6c12.1,0,18.7,12.8,26.3,24c13.2,18.9,24.8,35.5,39.7,56.4c0,0,0.1-66.2,0.2-68.7
	c0.2-4.7,4-8.8,8.1-11.1c2.2-0.8,4.7-1.3,7.2-1.3c4.2,0,8.3,1.3,11.2,4l53,77.1V19.1c0.8-7.1,8.3-16.9,19.1-16.9h3.5v113.4
	c0.1,7.5-4.8,10.6-11.2,10.6c-0.1,0-0.2,0-0.3,0c-4.5,0-9.5-3.9-12.3-7.1l-56.1-77v73C301.6,121.7,299.2,126.5,290.5,126.5"/>
<path class="st0" d="M134.3,39l-13.8,32.8h27.8C134.3,39,148.2,71.8,134.3,39 M194.2,125.1h-12.3c-16.1-2.3-17.6-19.8-23.9-30.9
	h-47.5c-6.2,11.1-7.8,28.6-23.8,30.9H74.5l31.3-80.8l16.4-42h24.4l16.3,42L194.2,125.1"/>
<path class="st0" d="M449,22.3c-22.4,0-40.6,18.2-40.6,40.6c0,22.5,18.2,40.6,40.6,40.6c22.5,0,40.7-18.1,40.7-40.6
	C489.7,40.5,471.5,22.3,449,22.3 M449,125.9c-34.7,0-62.8-28.2-62.8-62.9s28-63,62.8-63s62.9,28.2,62.9,62.9S483.8,125.9,449,125.9"
	/>
</svg>
