<?xml version="1.0" encoding="utf-8"?>
<!-- Generator: Adobe Illustrator 19.2.1, SVG Export Plug-In . SVG Version: 6.00 Build 0)  -->
<svg version="1.1" id="layer" xmlns="http://www.w3.org/2000/svg" xmlns:xlink="http://www.w3.org/1999/xlink" x="0px" y="0px"
	 viewBox="0 0 652 652" style="enable-background:new 0 0 652 652;" xml:space="preserve">
<style type="text/css">
	.st0{fill:#231815;}
	.st1{fill-rule:evenodd;clip-rule:evenodd;fill:#231815;}
</style>
<polyline class="st0" points="195.3,574 219.2,574 253.1,489.8 231.9,489.8 207.3,552.4 182.6,489.8 161.4,489.8 "/>
<polyline class="st0" points="125.3,574 149.2,574 183.1,489.8 161.9,489.8 137.3,552.4 112.6,489.8 91.4,489.8 "/>
<path class="st1" d="M231.7,574.7h21.6l5.7-14.9h39.2l6,14.9h21.5L291,490.5h-25.2 M278.4,510l12.5,31.6h-24.7L278.4,510z"/>
<polyline class="st0" points="338.9,574.7 362.7,574.7 396.6,490.5 375.5,490.5 350.8,553 326.1,490.5 304.9,490.5 "/>
<polyline class="st0" points="403.2,574.7 473.4,574.7 473.4,554.4 422.6,554.4 422.6,540.9 469.6,540.9 469.6,523.5 422.6,523.5 
	422.6,510 472.2,510 472.2,490.5 403.2,490.5 "/>
<path class="st0" d="M480,552.9c0,18.3,7.1,22.7,24.7,22.7h23.4c25.7,0,31.5-3.7,31.5-26.4c0-24.5-7-27-37-26.9
	c-20.7,0.1-23.1-0.1-23.1-7.4c0-4.5,3-6.5,7.3-6.5h21.4c8.9,0,9.4,2.6,9.4,8.7H557v-2.7c0-14.8-2.1-24.9-24.4-24.9h-27
	c-24.4,0-25.4,11.7-25.4,27c0,20.7,3.3,25.3,32.4,25.3c24.9,0,27.2,0.5,27.2,7.8c0,6.5-4.2,7.1-8.3,7.1h-23.7
	c-5.6,0-8.3-0.7-8.4-9.7H480"/>
<path class="st0" d="M182.5,259.4c0,0-11.6-66.2-14.4-83.5c-2.9-15.5-5.1-28.6-9.4-48.9c-3.6-19.1-5.1-23.9-9.4-36.4
	c-2.1-6.6-5.8-14.9-13.7-14.9c-7.2,0-10.1,7.2-12.3,14.3c-3.6,12.5-6.5,20.9-10.1,38.2c-3.6,19.1-5.8,29.8-9.4,47.7
	c-3.6,19.1-13,83.5-13,83.5H182.5c3.6,22.1,10.9,63.8,14.5,82.9c3.6,17.9,5.8,28.6,10.2,47.7c3.6,17.3,6.5,25.7,10.1,38.8
	c2.2,6.5,5.1,14.3,12.3,14.3c8,0,10.9-8.9,13-14.9c4.3-13.1,5.8-17.9,10.1-37c4.3-20.3,6.5-33.4,9.4-48.9
	c3.6-20.9,10.1-62.1,14.5-82.9"/>
<path class="st0" d="M370.8,259.4c-4.3-26.8-10.9-66.2-13.8-83.5c-2.9-15.5-5.1-28.6-9.4-48.9c-4.3-19.1-5.8-23.9-10.2-36.4
	c-2.1-6.6-5-14.9-13-14.9c-7.3,0-10.1,7.2-12.3,14.3c-3.6,10.8-7.3,20.3-10.9,37.6c-3.6,19.7-5.8,30.4-9.4,48.3
	c-3.6,19.1-11.6,63.2-15.2,83.5H370.8c5,29.2,9.4,52.5,15.2,81.7c3.6,17.9,5.8,28.6,10.1,48.3c3.6,17.3,6.5,25.1,10.1,38.2
	c2.2,6.6,5.1,14.3,12.3,14.3c6.5,0,10.8-8.9,13-14.9c4.4-13.1,5.8-17.9,10.2-37c4.4-20.3,6.5-33.4,9.4-48.3
	c2.9-17.3,11.6-68.6,13.8-82.3"/>
<path class="st0" d="M543.8,175.8c-2.2-15.5-5.1-28.6-9.4-48.9c-3.6-19.1-5.1-23.9-9.4-36.4c-2.2-6.6-5.8-14.9-13.8-14.9
	c-7.3,0-9.4,7.2-11.6,14.3c-4.3,12.5-7.2,20.9-10.9,38.2c-3.6,19.1-5.8,29.8-9.4,47.7c-3.6,19.1-10.1,63.2-14.4,83.5h93.4
	C554.6,231.3,546.7,193.1,543.8,175.8"/>
</svg>
